<?xml version="1.0" encoding="UTF-8"?><svg xmlns="http://www.w3.org/2000/svg" width="7.07in" height="4.983in" viewBox="0 0 509.008 358.802"><g id="a"><path d="M358.31,206.356v-1.676s.146-1.093-1.895-1.53l-11.222-2.915s-1.749-.073-2.769.729-3.716,2.988-3.716,2.988l-.364,1.02v2.478l14.938,3.862,1.457.583.146-2.186,3.425-3.352Z" fill="#5d92f5" opacity=".6"/><path d="M508.687,171.339l-197.237-43.197-37.86,19.503c-1.211-.608-2.127-.587-2.127-.587l-20.886,10.401,2.133.942-5.063,2.608-1.683-.839-13.006,6.493,1.976.895-25.509,13.14-1.655-.887-12.631,6.495,1.732.859-6.693,3.448-2.135-1.09-31.742,16.323,2.37.997-8.285,4.268-2.18-1.335-38.255,19.672,2.688,1.107-10.272,5.291-2.957-1.049-30.098,15.477,2.891,1.11-8.471,4.364-2.381-.94s-1.695.031-1.726,1.264.586,3.483,2.342,4.531l113.906,55.051s1.171.62,1.102,1.998.413,4.339,2.824,5.51,52.211,25.417,52.211,25.417c0,0,.482.482,3.237,0l23.166,10.081" fill="none" stroke="#231f20" stroke-linecap="round" stroke-linejoin="round" stroke-width=".5"/><path d="M60.958,246.431l-10.671-5.242-3.557,1.685-15.351-.749-4.119-2.059-17.036,8.237s-2.178-.317-.76,4.724,5.672,21.741,5.672,21.741l11.501,6.144" fill="none" stroke="#231f20" stroke-linecap="round" stroke-linejoin="round" stroke-width=".5"/><path d="M303.35,125.711v-2.683c0-.76-.671-.403-.671-.403l-4.472,2.102,5.867,1.296L52.159,251.111l-3.566.156-7.15-3.178-2.085,1.192" fill="none" stroke="#231f20" stroke-linecap="round" stroke-linejoin="round" stroke-width=".5"/><path d="M303.042,122.524l-12.304-2.359-5.59,2.728,3.623.581,3.891,2.281-.671.537-79.416,37.813s-1.328-.233-2.559-1.053l-6.677,3.022s-.298.112-.298.597v1.007l.784.594L51.709,240.699l9.23,4.381,3.046.085" fill="none" stroke="#231f20" stroke-linecap="round" stroke-linejoin="round" stroke-width=".5"/><line x1="285.148" y1="122.893" x2="284.868" y2="129.531" fill="none" stroke="#231f20" stroke-linecap="round" stroke-linejoin="round" stroke-width=".5"/><line x1="288.77" y1="123.474" x2="288.617" y2="127.918" fill="none" stroke="#231f20" stroke-linecap="round" stroke-linejoin="round" stroke-width=".5"/><line x1="292.318" y1="126.352" x2="299.909" y2="127.965" fill="none" stroke="#231f20" stroke-linecap="round" stroke-linejoin="round" stroke-width=".5"/><polyline points="203.312 166.738 204.799 167.696 203.824 168.272" fill="none" stroke="#231f20" stroke-linecap="round" stroke-linejoin="round" stroke-width=".5"/><line x1="51.709" y1="240.699" x2="51.709" y2="241.881" fill="none" stroke="#231f20" stroke-linecap="round" stroke-linejoin="round" stroke-width=".5"/><line x1="256.614" y1="345.857" x2="285.193" y2="358.658" fill="none" stroke="#231f20" stroke-linecap="round" stroke-linejoin="round" stroke-width=".5"/><line x1="64.95" y1="255.748" x2="230.042" y2="333.364" fill="none" stroke="#231f20" stroke-linecap="round" stroke-linejoin="round" stroke-width=".5"/><path d="M231.392,332.39l26.037,12.123s-1.446,1.929-1.378,2.962c0,0-3.857-1.102-3.444-3.72l-17.358-8.059s-1.102,1.515-5.442-.62c0,0-.482-2.135,1.584-2.686Z" fill="none" stroke="#231f20" stroke-linecap="round" stroke-linejoin="round" stroke-width=".5"/><line x1="234.56" y1="348.439" x2="234.629" y2="336.247" fill="none" stroke="#231f20" stroke-linecap="round" stroke-linejoin="round" stroke-width=".5"/><line x1="252.508" y1="355.778" x2="252.577" y2="344.997" fill="none" stroke="#231f20" stroke-linecap="round" stroke-linejoin="round" stroke-width=".5"/><line x1="187.914" y1="358.573" x2="66.754" y2="294.964" fill="none" stroke="#231f20" stroke-linecap="round" stroke-linejoin="round" stroke-width=".5"/><path d="M37.665,248.459l-12.919,6.144s-4.254.788-2.363,7.247l8.665,34.975s.945,2.678,3.939,1.418l16.227-9.137-6.932-34.029s-1.26,2.678-3.308-4.884l-3.308-1.733Z" fill="none" stroke="#231f20" stroke-linecap="round" stroke-linejoin="round" stroke-width=".5"/><path d="M48.295,252.658s1.986.596,2.185,2.681l.596,3.078s.099,1.39,1.49,1.986,4.667,2.085,4.667,2.085c0,0,2.483.596,3.277,5.164l5.164,27.21" fill="none" stroke="#231f20" stroke-linecap="round" stroke-linejoin="round" stroke-width=".5"/><path d="M51.275,288.209l12.413,6.653s1.887,1.192,4.072-1.291l-5.164-27.21c-.794-4.568-3.277-5.164-3.277-5.164,0,0-3.277-1.49-4.667-2.085s-1.49-1.986-1.49-1.986l-.596-3.078c-.199-2.085-2.185-2.681-2.185-2.681" fill="none" stroke="#231f20" stroke-linecap="round" stroke-linejoin="round" stroke-width=".5"/><path d="M310.36,128.675l-4.723-.825s-2.581-.199-2.481,2.084l-4.467-.794" fill="none" stroke="#231f20" stroke-linecap="round" stroke-linejoin="round" stroke-width=".5"/><path d="M344.951,199.011c-2.632-.585-4.289.682-4.289.682l-5.458,4.544c-1.755,1.852.097,2.339.097,2.339l55.367,14.816c3.022.585,3.899-.585,3.899-.585l5.068-5.714c1.755-1.755-.487-2.242-.487-2.242,0,0-52.516-13.468-54.197-13.842Z" fill="none" stroke="#231f20" stroke-linecap="round" stroke-linejoin="round" stroke-width=".5"/><path d="M353.423,211.183v-.967c-.054-1.194-2.441-1.845-2.441-1.845,0,0-10.383-2.763-11.848-3.143-.549-.142-.74-.376-.764-.613-.04-.395.384-.797.384-.797l4.003-3.184c1.242-.93,3.533-.17,3.533-.17l10.985,2.862s1.255.259,1.139,1.845v1.091" fill="none" stroke="#231f20" stroke-linecap="round" stroke-linejoin="round" stroke-width=".5"/><ellipse cx="345.387" cy="203.556" rx="2.457" ry="1.454" transform="translate(-54.133 236.895) rotate(-35.283)" fill="none" stroke="#231f20" stroke-linecap="round" stroke-linejoin="round" stroke-width=".5"/><line x1="353.371" y1="209.509" x2="358.291" y2="204.604" fill="none" stroke="#231f20" stroke-linecap="round" stroke-linejoin="round" stroke-width=".5"/><path d="M397.695,217.176c0-.398-.174-.721-.845-1.516s.025-1.417.025-1.417c.423-.547,0-.771,0-.771l-36.309-9.293-5.694,5.587,36.876,9.805.789-.814s.923.615,1.179,1.692" fill="none" stroke="#231f20" stroke-linecap="round" stroke-linejoin="round" stroke-width=".5"/><ellipse cx="367.12" cy="209.29" rx="1.803" ry="4.066" transform="translate(101.23 537.745) rotate(-80.696)" fill="none" stroke="#231f20" stroke-linecap="round" stroke-linejoin="round" stroke-width=".5"/><line x1="354.874" y1="209.781" x2="354.807" y2="211.794" fill="none" stroke="#231f20" stroke-linecap="round" stroke-linejoin="round" stroke-width=".5"/><line x1="338.371" y1="207.023" x2="338.371" y2="204.576" fill="none" stroke="#231f20" stroke-linecap="round" stroke-linejoin="round" stroke-width=".5"/><line x1="391.747" y1="219.572" x2="391.747" y2="221.401" fill="none" stroke="#231f20" stroke-linecap="round" stroke-linejoin="round" stroke-width=".5"/><line x1="397.074" y1="213.765" x2="397.074" y2="215.629" fill="none" stroke="#231f20" stroke-linecap="round" stroke-linejoin="round" stroke-width=".5"/></g><g id="b"><polygon points="182.369 224.787 137.269 225.142 147.014 245.994 182.369 224.787" fill="#231f20"/><polygon points="174.781 256.365 210.242 235.003 220.217 255.937 174.781 256.365" fill="#231f20"/><polygon points="173.357 230.028 202.966 241.048 185.157 251.844 153.848 240.177 173.357 230.028" fill="#231f20"/><line x1="379.675" y1="160.711" x2="353.891" y2="198.726" fill="none" stroke="#fff" stroke-linecap="round" stroke-linejoin="round" stroke-width="4"/><line x1="379.675" y1="160.711" x2="353.891" y2="198.726" fill="none" stroke="#231f20" stroke-linecap="round" stroke-linejoin="round" stroke-width="1.5"/><path d="M383.506,46.97c0,7.593-6.246,13.745-13.95,13.745s-13.953-6.152-13.953-13.745,6.246-13.755,13.953-13.755,13.95,6.159,13.95,13.755" fill="#221f1f" stroke="#fff" stroke-miterlimit="10" stroke-width="1.5"/><rect x="355.555" y="38.976" width="27.228" height="24.791" fill="none"/><path d="M371.153,54.011h-1.846v-11.761c-.444.424-1.027.848-1.748,1.271-.722.424-1.369.742-1.943.954v-1.784c1.032-.485,1.935-1.073,2.707-1.764s1.319-1.36,1.641-2.01h1.189v15.094Z" fill="#fff"/><path d="M439.429,136.732c0,7.593-6.246,13.745-13.95,13.745s-13.953-6.152-13.953-13.745,6.246-13.755,13.953-13.755,13.95,6.159,13.95,13.755" fill="#221f1f" stroke="#fff" stroke-miterlimit="10" stroke-width="1.5"/><rect x="411.478" y="128.738" width="27.228" height="24.791" fill="none"/><path d="M429.824,142v1.774h-9.937c-.014-.444.059-.872.216-1.282.253-.677.657-1.343,1.215-2,.557-.656,1.362-1.415,2.415-2.276,1.634-1.34,2.737-2.401,3.312-3.184s.861-1.523.861-2.22c0-.731-.262-1.348-.784-1.851-.523-.502-1.205-.753-2.046-.753-.889,0-1.6.267-2.133.8s-.803,1.271-.81,2.215l-1.897-.195c.13-1.415.619-2.493,1.467-3.235.848-.741,1.985-1.112,3.414-1.112,1.442,0,2.584.4,3.425,1.2s1.262,1.791,1.262,2.974c0,.602-.123,1.193-.369,1.774s-.655,1.193-1.226,1.835c-.571.643-1.52,1.524-2.846,2.646-1.107.93-1.818,1.561-2.133,1.892s-.574.665-.779,1h7.373Z" fill="#fff"/></g><g id="c"><circle cx="415.438" cy="92.761" r="83.699" fill="#fff"/><circle cx="415.438" cy="92.761" r="83.699" fill="none" stroke="#fff" stroke-miterlimit="10" stroke-width="2.684"/><circle cx="415.438" cy="92.761" r="83.699" fill="none" stroke="#231f20" stroke-miterlimit="10" stroke-width=".895"/><path d="M355.71,117.305l-.069-4.271,9.075-7.48,5.095-.228,22.864,5.809s2.888.438,2.626,4.902l-.125,4.288-5.644,6.073-33.822-9.093Z" fill="#5d92f5" opacity=".6"/><path d="M472.642,129.225c2.549.655,3.989,1.025,3.989,1.025,0,0,4.484.975.975,4.484l-8.383,9.748s-1.755,2.339-7.798,1.17l-110.734-29.633s-3.704-.975-.195-4.679l9.163-7.408s3.314-2.534,8.578-1.365c3.362.747,46.639,11.831,77.477,19.744" fill="none" stroke="#231f20" stroke-linecap="round" stroke-linejoin="round" stroke-width=".5"/><line x1="468.776" y1="140.598" x2="471.258" y2="141.271" fill="none" stroke="#231f20" stroke-linecap="round" stroke-linejoin="round" stroke-width=".5"/><path d="M385.182,124.976c-.109-2.387-4.883-3.689-4.883-3.689,0,0-20.29-5.208-23.22-5.968s-.76-2.821-.76-2.821l7.161-6.185c2.387-1.845,7.378-.651,7.378-.651l22.027,5.534s2.17.543,2.279,3.689v5.749l55.136,14.954" fill="none" stroke="#231f20" stroke-linecap="round" stroke-linejoin="round" stroke-width=".5"/><ellipse cx="369.11" cy="111.657" rx="4.915" ry="2.908" transform="translate(3.308 233.716) rotate(-35.283)" fill="none" stroke="#231f20" stroke-linecap="round" stroke-linejoin="round" stroke-width=".5"/><line x1="385.078" y1="123.561" x2="394.551" y2="114.49" fill="none" stroke="#231f20" stroke-linecap="round" stroke-linejoin="round" stroke-width=".5"/><polygon points="473.551 132.825 448.937 61.277 437.354 71.412 462.692 144.287 473.551 132.825" fill="none" stroke="#231f20" stroke-linecap="round" stroke-linejoin="round" stroke-width=".5"/><polyline points="437.354 71.412 433.281 71.676 429.994 79.496 432.77 88.183 434.941 89.148 448.093 126.672 452.678 134.997 450.385 137.531 453.522 143.202" fill="none" stroke="#231f20" stroke-linecap="round" stroke-linejoin="round" stroke-width=".5"/><ellipse cx="450.685" cy="87.588" rx="3.54" ry="8.045" transform="translate(-8.422 84.488) rotate(-10.611)" fill="none" stroke="#231f20" stroke-linecap="round" stroke-linejoin="round" stroke-width=".5"/><ellipse cx="456.237" cy="138.798" rx="1.87" ry="2.594" transform="translate(-19.098 177.181) rotate(-21.538)" fill="none" stroke="#231f20" stroke-linecap="round" stroke-linejoin="round" stroke-width=".5"/><path d="M448.903,61.266s-2.673-.072-4.051.135l-11.556,10.265" fill="none" stroke="#231f20" stroke-linecap="round" stroke-linejoin="round" stroke-width=".5"/><path d="M442.178,63.498s-.786-.734-2.359-.472l-7.025,5.924s2.726-.734,3.355.052" fill="none" stroke="#231f20" stroke-linecap="round" stroke-linejoin="round" stroke-width=".5"/><line x1="397.132" y1="114.508" x2="446.375" y2="127.427" fill="none" stroke="#231f20" stroke-linecap="round" stroke-linejoin="round" stroke-width=".5"/><line x1="389.787" y1="126.453" x2="395.214" y2="120.588" fill="none" stroke="#231f20" stroke-linecap="round" stroke-linejoin="round" stroke-width=".5"/><polygon points="364.184 94.604 376.731 96.961 369.279 110.041 362.359 98.558 364.184 94.604" fill="#fff"/><line x1="369.234" y1="63.912" x2="369.234" y2="94.499" fill="none" stroke="#231f20" stroke-linejoin="round" stroke-width="10"/><polygon points="359.262 91.581 369.234 108.852 379.207 91.581 359.262 91.581" fill="#231f20"/><path d="M409.157,127.76s2.599-11.226,10.498-15.027l-14.659-6.037s-7.375,8.924-8.457,16.899l12.618,4.165Z" fill="#fff"/><path d="M401.805,126.82s4.161-15.435,19.155-25.01" fill="none" stroke="#231f20" stroke-linejoin="round" stroke-width="10"/><polygon points="422.679 112.432 434.14 96.111 414.276 94.343 422.679 112.432" fill="#231f20"/><line x1="355.554" y1="113.908" x2="355.712" y2="117.171" fill="none" stroke="#231f20" stroke-linecap="round" stroke-linejoin="round" stroke-width=".5"/><line x1="458.068" y1="144.754" x2="462.692" y2="144.287" fill="none" stroke="#231f20" stroke-linecap="round" stroke-linejoin="round" stroke-width=".5"/></g></svg>