<?xml version="1.0" encoding="UTF-8"?><svg xmlns="http://www.w3.org/2000/svg" width="7.125in" height="4.125in" viewBox="0 0 513 297"><g id="a"><path d="M483.068,180.101l-174.359-93c-.651-1.54,1.658-1.421,1.658-1.421,0,0,2.25.178.414-.651s-3.079-1.658-3.079-1.658l-5.744.355,2.165,1.241s1.065.665.133.754-1.964.283-1.958,1.051l-134.141,11.394s-.604-.069-.523.702.73.689.73.689h1.581l.162.851-4.541.365s-1.302-2.366-2.962-2.136l-110.459,9.383-1.939,15.511,78.55-7.516-4.532-14.034" fill="none" stroke="#231e1f" stroke-linecap="round" stroke-linejoin="round" stroke-width=".5"/><line x1="303.149" y1="86.43" x2="482.181" y2="182.434" fill="none" stroke="#231e1f" stroke-linecap="round" stroke-linejoin="round" stroke-width=".5"/><path d="M441.726,189.941l-161.024-99.202s-.909-.513-2.193-.465l-3.9.333" fill="none" stroke="#231e1f" stroke-linecap="round" stroke-linejoin="round" stroke-width=".5"/><path d="M438.833,190.428c-18.392-11.492-41.135-25.703-42.038-26.272-1.525-.96-2.654-.734-2.654-.734l-3.501.452-8.244-5.026s2.372-.508,2.936-.734-.226-.791-.226-.791c0,0-21.005-13.213-22.53-14.173s-2.033-.565-2.033-.565l-3.444.395-6.381-4.009s1.694-.452,2.428-.621,0-.791,0-.791c0,0-16.714-10.672-18.239-11.632s-1.694-.508-1.694-.508l-2.993.621-5.421-3.444,3.388-.847-16.996-10.22-3.162.395-4.461-2.936,2.597-.678-13.834-8.809-2.823.565-3.614-2.372s.734-.169,1.694-.282-.056-.621-.056-.621l-8.809-5.534-3.106.226-2.952-1.948" fill="none" stroke="#231e1f" stroke-linecap="round" stroke-linejoin="round" stroke-width=".5"/><path d="M317.783,212.302l-13.303-13.397c-2.808-6.694-9.34-9.34-9.34-9.34l-19.237-19.859c-2.985-2.289-5.97-1.194-5.97-1.194l-11.443,1.99-4.975-5.473-5.532.856-3.224-3.443-5.075,1.095-1.692-.1-10.05-13.334,5.97-1.294-1.99-2.786,4.975-1.095-3.284-3.98s8.657-1.493,10.647-1.891.697-2.587.697-2.587c0,0-17.016-18.011-18.011-19.105s-3.284-.995-3.284-.995l-4.08.199-21.256-19.756s5.97-1.552,16.652-2.62" fill="none" stroke="#231e1f" stroke-linecap="round" stroke-linejoin="round" stroke-width=".5"/><polyline points="194.721 108.302 196.579 99.632 197.511 99.166 198.326 96.813" fill="none" stroke="#231e1f" stroke-linecap="round" stroke-linejoin="round" stroke-width=".5"/><path d="M161.037,130.399l.572-7.336s.148-1.588,2.477-1.715l17.15-1.715,1.62,1.143,4.097-.191s.953-.953.667-2.287l.293-.177,6.193-.575.133.398.796,1.725,4.379-.31s.265-1.858,2.698-2.168,6.724-.708,6.724-.708c0,0,2.079-.265,2.035,1.371s-.664,5.264-.664,5.264" fill="none" stroke="#231e1f" stroke-linecap="round" stroke-linejoin="round" stroke-width=".5"/><polyline points="56.302 124.892 57.323 124.172 74.787 122.566 74.741 124.952 105.552 122.07 106.693 120.628 113.9 119.907 114.861 120.628 118.585 120.388 118.224 118.826 129.393 117.571" fill="none" stroke="#231e1f" stroke-linecap="round" stroke-linejoin="round" stroke-width=".5"/><path d="M127.9,116.075c1.694,0,1.839,1.691,1.706,2.056-.115.314-1.059,3.811,1.8,5.187s.212,3.493.212,3.493c0,0-32.394,3.176-36.205,3.493s-4.764,1.588-4.764,1.588c0,0-5.611,6.352-6.775,7.728s-2.858,1.694-2.858,1.694l-25.619,2.541v-1.27l-1.482.106.302-.682" fill="none" stroke="#231e1f" stroke-linecap="round" stroke-linejoin="round" stroke-width=".5"/><path d="M54.792,150.229l1.714-.082.326-1.795,24.402-2.53s.735-1.387,3.754,1.143,9.467,7.508,9.467,7.508c0,0,.49.653,3.346.49s42.357-5.386,42.357-5.386c0,0,3.02.082,2.448,2.204s-.245,5.876,2.448,7.182,1.061,3.436,1.061,3.436l-14.496,1.974-.469.564-15.059,1.988-.636-.265-8.948,1.206-1.88,1.156-1.958.261" fill="none" stroke="#231e1f" stroke-linecap="round" stroke-linejoin="round" stroke-width=".5"/><path d="M115.487,166.503l-.201-1.237s-.368-.569.602-.702,14.549-1.973,14.549-1.973c0,0,.702.1.736.769s.368.769.368.769" fill="none" stroke="#231e1f" stroke-linecap="round" stroke-linejoin="round" stroke-width=".5"/><polygon points="62.054 127.833 65.225 124.696 69.928 124.305 72.56 126.488 69.476 129.697 64.602 130.034 62.054 127.833" fill="none" stroke="#d0d2d3" stroke-linecap="round" stroke-linejoin="round" stroke-width="3"/><polygon points="63.351 127.632 65.74 125.428 69.282 125.15 71.263 126.682 68.939 128.938 65.269 129.177 63.351 127.632" fill="none" stroke="#231f20" stroke-linecap="round" stroke-linejoin="round" stroke-width=".483"/><polygon points="61.586 168.21 65.605 163.761 71.888 162.882 75.586 165.615 71.688 170.154 65.171 170.973 61.586 168.21" fill="none" stroke="#d0d2d3" stroke-linecap="round" stroke-linejoin="round" stroke-width="4.033"/><polygon points="63.311 167.844 66.353 164.705 71.085 164.066 73.86 165.973 70.91 169.176 66.001 169.773 63.311 167.844" fill="none" stroke="#231f20" stroke-linecap="round" stroke-linejoin="round" stroke-width=".649"/><polygon points="59.112 205.197 63.394 198.832 70.233 197.708 74.337 201.766 70.191 208.267 63.095 209.297 59.112 205.197" fill="none" stroke="#d0d2d3" stroke-linecap="round" stroke-linejoin="round" stroke-width="5.078"/><polygon points="60.988 204.707 64.233 200.221 69.385 199.408 72.461 202.245 69.317 206.826 63.972 207.574 60.988 204.707" fill="none" stroke="#231f20" stroke-linecap="round" stroke-linejoin="round" stroke-width=".817"/><line x1="78.363" y1="170.097" x2="108.625" y2="166.146" fill="none" stroke="#231e1f" stroke-linecap="round" stroke-linejoin="round" stroke-width=".5"/><path d="M108.443,207.056c1.412-1.926,4.686-2.375,4.686-2.375l27.444-4.401c.602-.602-.071-2.196-.071-2.479s-.354-.602-.354-.602c0,0-15.94,2.692-17.25,2.94s-.744.992-.673,1.665-.397.665-.397.665l-6.193,1.01s-.861.319-.93-.508-.759-3.793-.759-3.793c0,0-.138-.862-1.896-.552s-32.687,5.172-32.687,5.172c0,0-1.414.31-1.379,1.448s.138,3.724.138,3.724c.014.753-1.383.852-1.383.852l-27.521,4.488-.617.771.114,1.906" fill="none" stroke="#231e1f" stroke-linecap="round" stroke-linejoin="round" stroke-width=".5"/><path d="M140.818,199.371l16.379-2.671s4.02-.773-.541-4.561-3.479-7.344-3.324-10.282-3.17-2.783-3.17-2.783c0,0-46.152,7.19-49.167,7.653s-3.633-.696-3.633-.696c0,0-9.741-8.658-11.519-10.514s-3.015-1.314-3.015-1.314l-28.526,3.711-1.218.923-.102,1.229" fill="none" stroke="#231e1f" stroke-linecap="round" stroke-linejoin="round" stroke-width=".5"/><line x1="78.428" y1="207.854" x2="114.266" y2="202.076" fill="none" stroke="#231e1f" stroke-linecap="round" stroke-linejoin="round" stroke-width=".5"/><polyline points="62.833 176.168 71.692 175.061 72.711 174.131 79.355 173.289 82.101 174.087" fill="none" stroke="#231e1f" stroke-linecap="round" stroke-linejoin="round" stroke-width=".5"/><path d="M85.29,174.175l4.429-.532,3.056-1.949,20.075-2.934s1.958-.522,2.154,1.827.457,7.375.457,7.375l-3.597.522-5.278-2.13-17.069,2.256" fill="none" stroke="#231e1f" stroke-linecap="round" stroke-linejoin="round" stroke-width=".5"/><ellipse cx="142.678" cy="189.697" rx="6.485" ry="4.654" fill="none" stroke="#231e1f" stroke-linecap="round" stroke-linejoin="round" stroke-width=".5"/><ellipse cx="133.33" cy="157.355" rx="5.04" ry="3.436" fill="none" stroke="#231e1f" stroke-linecap="round" stroke-linejoin="round" stroke-width=".5"/><polygon points="53.221 180.098 54.684 181.073 51.677 211.786 48.915 212.111 47.858 209.755 51.596 180.586 53.221 180.098" fill="none" stroke="#231e1f" stroke-linecap="round" stroke-linejoin="round" stroke-width=".5"/><path d="M108.951,167.237l-.196-.934s-.163-.76-.163-1.791-1.411-.977-1.411-.977c0,0-24.637,3.093-27.242,3.473s-1.791,1.519-1.682,3.093-1.656,1.797-1.656,1.797l-23.36,3.149-.979-1.477.553-.297,2.654-.47,1.61-22.009-2.72.053-2.257,21.347.223.938" fill="none" stroke="#231e1f" stroke-linecap="round" stroke-linejoin="round" stroke-width=".5"/><polygon points="54.267 141.726 56.854 141.599 58.278 125.07 57.668 124.663 56.142 125.63 54.267 141.726" fill="none" stroke="#231e1f" stroke-linecap="round" stroke-linejoin="round" stroke-width=".5"/><path d="M141.448,151.364s-3.661,4.802,3.181,8.523" fill="none" stroke="#231e1f" stroke-linecap="round" stroke-linejoin="round" stroke-width=".5"/><path d="M128.25,118.529s-1.182,3.547,2.412,5.865" fill="none" stroke="#231e1f" stroke-linecap="round" stroke-linejoin="round" stroke-width=".5"/><path d="M152.343,181.322s-4.516,6.412,3.703,12.011" fill="none" stroke="#231e1f" stroke-linecap="round" stroke-linejoin="round" stroke-width=".5"/><path d="M56.444,219.311s-1.402,17.192-1.543,19.449-1.34,2.75-1.34,2.75c0,0-21.505,3.807-22.633,4.09s-1.128,1.551-1.128,1.551l-1.26,7.4s1.215-1.267,3.327-.951l.053.951s-2.324,1.531-2.693,3.433-2.06,11.248-2.06,11.248l2.964-.576s.61-.166.645-.728.07-1.298,1.263-1.544,10.807-1.965,10.807-1.965c0,0,.842-.14.842.596s.324.942.324.942l17.312-3.365s.785-.699.75-1.331.702-.912.702-.912l16.596-3.193s.807-.07.842.456.308,1.248.308,1.248l19.839-3.856s.449-.62.413-1.111.316-.842.912-.947,9.754-1.86,9.754-1.86c0,0,.842-.211.842.386s.189,1.178.189,1.178l40.428-7.859s.575-.407.505-.933-.07-1.228.526-1.228,9.333-1.754,9.333-1.754c0,0,.632-.035.737.421s.219,1.294.219,1.294l4.412-.858,1.589-.79-13.877-40.796-121.384,19.06,1.114,1.996,20.307-3.032s2.609-.212,2.609,1.763-1.665,18.863-1.665,18.863c0,0,0,3.047-3.282,3.516-3.676.525-23.285,3.985-23.285,3.985" fill="none" stroke="#231e1f" stroke-linecap="round" stroke-linejoin="round" stroke-width=".5"/><path d="M58.837,221.127c-1.155-2.476-4.219-1.969-4.219-1.969l-18.849,2.753c-1.904.212-1.974,2.186-1.974,2.186l-3.39,19.85s-.152,1.241.523,1.652" fill="none" stroke="#231e1f" stroke-linecap="round" stroke-linejoin="round" stroke-width=".5"/><polygon points="494.251 179.931 481.6 182.407 496.325 189.056 507.644 185.976 494.251 179.931" fill="none" stroke="#231e1f" stroke-linecap="round" stroke-linejoin="round" stroke-width=".5"/><polyline points="496.399 207.452 507.644 203.94 507.644 185.976" fill="none" stroke="#231e1f" stroke-linecap="round" stroke-linejoin="round" stroke-width=".5"/><polyline points="481.6 182.407 481.452 217.377 496.325 224.829 496.325 189.056" fill="none" stroke="#231e1f" stroke-linecap="round" stroke-linejoin="round" stroke-width=".5"/><path d="M481.661,200.891L34.046,289.687l-7.453-14.227-.94-1.208-.403-3.088,34.911-6.848s5.505-.94,8.526,1.41c0,0,1.343,1.074,2.35,1.007,0,0,.708.093,1.276-.94l.806-2.887s-.067-1.074,1.678-1.544,171.029-34.279,171.029-34.279c0,0,2.685-.604,3.491.94s1.511,1.047,2.249.913,7.251-1.343,7.251-1.343c0,0,1.208-1.007-.47-1.141s-3.894.47-3.894.47l.738-1.813,110.171-21.819s1.746.403,1.88.873.067,1.611.067,1.611l5.505-1.007s2.954-.806,1.41-1.343l-1.343.067s-1.141.94-1.611.604c0,0-.537-2.081,1.41-2.417s18.395-3.692,18.395-3.692c0,0,2.417-.604,1.276,1.141s-2.148,3.021-2.148,3.021c0,0-.806,1.343,1.074.873s15.777-3.357,15.777-3.357l3.625-5.169,3.223-.671,1.343.671-.604,1.343,66.756-13.17" fill="none" stroke="#231e1f" stroke-linecap="round" stroke-linejoin="round" stroke-width=".5"/><path d="M42.766,175.527l-1.781-.232s-.929-1.859,1.394-2.246,5.499-.465,5.499-.465l1.317.077s1.549-.62,1.549.387v1.859l-1.084.62-.232,2.091-9.217,1.084s.078-2.253,1.704-2.169c1.125.058,1.884.438,1.884.438,0,0,1.989-.515,1.601-1.445s-2.169-.542-2.633,0Z" fill="none" stroke="#231e1f" stroke-linecap="round" stroke-linejoin="round" stroke-width=".5"/><path d="M50.2,176.23l.809-.347,10.128-1.271,1.155.347.116.77s.039.424-.963.539-7.278,1.078-7.278,1.078l-.616-.539-.462.039-.347.308-2.426.231-.308-.578.193-.578Z" fill="none" stroke="#231e1f" stroke-linecap="round" stroke-linejoin="round" stroke-width=".5"/><polyline points="25.264 272.633 23.931 271.812 6.291 275.402 4.8 277.584 12.443 293.167 33.675 289.087" fill="none" stroke="#231e1f" stroke-linecap="round" stroke-linejoin="round" stroke-width=".5"/><path d="M5.111,277.024l-1.446-4.003c-.278-2.002,2.224-2.28,2.224-2.28l14.623-3.336s-.445.5-.167,1.557,1.39,3.058,1.39,3.058" fill="none" stroke="#231e1f" stroke-linecap="round" stroke-linejoin="round" stroke-width=".5"/><line x1="19.901" y1="269.851" x2="4.722" y2="273.298" fill="none" stroke="#231e1f" stroke-linecap="round" stroke-linejoin="round" stroke-width=".5"/><path d="M337.721,181.382l-9.094-7.817s-.989-.353-2.292.446-3.49,1.387-4.667.462-8.955-7.526-8.955-7.526c0,0-.757-1.219.42-1.219s4.413-.839,4.078-1.975l-6.837-5.876s-.898-.599-2.454-.095-3.826.841-4.625.462-7.694-6.601-7.694-6.601c0,0-.841-.967,1.177-1.093s3.541-.726,2.864-1.898l-4.984-4.284s-1.434-.672-2.915-.399-3.157,1.052-4.833-.429-4.989-4.638-4.989-4.638c0,0-.857-1.013.468-1.208s3.439.178,3.337-1.003l-15.715-13.507s-.752-.457-1.48-.154-2.668.97-3.942-.121-4.427-3.942-4.427-3.942c0,0-.788-.97.546-1.092s2.064.15,2.366-.653l-4.621-3.972s-.605-.25-1.12-.009-2.437,1.304-3.569.343-4.187-3.604-4.187-3.604c0,0-.378-.789.515-.789s2.852-.376,2.421-1.046l-3.539-3.041s-.805-.429-1.588-.136-2.705,1.304-3.976.261-3.129-2.933-3.129-2.933c0,0-.619-.782.554-.815s2.951-.406,2.795-.969l-2.044-1.757s-.952-1.003-2.431-.661-5.032.597-5.032.597c0,0-1.023.341-1.905-.426s-3.412-2.36-1.535-2.502,5.601-.37,5.601-.37c0,0,.84-.331.321-.919l-1.953-1.679" fill="none" stroke="#231e1f" stroke-linecap="round" stroke-linejoin="round" stroke-width=".5"/><path d="M338.584,182.81s-.317-1.266-1.583-1.302-4.327.492-4.327.492c0,0-1.126.844-.07,1.864s9.709,8.055,9.709,8.055c0,0,1.97.879,3.201.563s3.166-1.055,3.166-1.055l.697-.028,14.026,12.055" fill="none" stroke="#231e1f" stroke-linecap="round" stroke-linejoin="round" stroke-width=".5"/><line x1="253.297" y1="108.538" x2="246.01" y2="102.538" fill="none" stroke="#231e1f" stroke-linecap="round" stroke-linejoin="round" stroke-width=".5"/><line x1="264.097" y1="117.228" x2="254.91" y2="109.836" fill="none" stroke="#231e1f" stroke-linecap="round" stroke-linejoin="round" stroke-width=".5"/><line x1="276.498" y1="127.208" x2="265.859" y2="118.646" fill="none" stroke="#231e1f" stroke-linecap="round" stroke-linejoin="round" stroke-width=".5"/><line x1="300.877" y1="146.827" x2="288.522" y2="136.884" fill="none" stroke="#231e1f" stroke-linecap="round" stroke-linejoin="round" stroke-width=".5"/><line x1="317.809" y1="160.452" x2="303.165" y2="148.668" fill="none" stroke="#231e1f" stroke-linecap="round" stroke-linejoin="round" stroke-width=".5"/><line x1="337.235" y1="176.085" x2="319.994" y2="162.211" fill="none" stroke="#231e1f" stroke-linecap="round" stroke-linejoin="round" stroke-width=".5"/><path d="M339.591,177.981l19.227,15.472s.814.641.814,1.403" fill="none" stroke="#231e1f" stroke-linecap="round" stroke-linejoin="round" stroke-width=".5"/><path d="M384.949,192.617s.086-3.544-.215-4.145-1.81-1.618-1.81-1.618l-16.959-12.313s-1.601-.905-2.625.119v3.366" fill="none" stroke="#231e1f" stroke-linecap="round" stroke-linejoin="round" stroke-width=".5"/><path d="M340.178,166.815c.043.101-.03-8.597,0-9.752.026-1.015-.677-1.736-.677-1.736l-14.035-10.19s-1.61-.237-1.905.506l14.349,10.473s.844.855.844,1.545v9.798" fill="none" stroke="#231e1f" stroke-linecap="round" stroke-linejoin="round" stroke-width=".5"/><path d="M321.545,149.057s.212-4.569.212-5.373-.752-1.531-.752-1.531l-11.655-8.717s-1.489-.004-1.566.692l11.667,8.774s.804.55.804,1.354v5.119" fill="none" stroke="#231e1f" stroke-linecap="round" stroke-linejoin="round" stroke-width=".5"/><path d="M295.989,130.679s.098-2.59.229-4.557-.688-2.754-.688-2.754l-9.343-6.748s-1.063-.176-2.012.278l10.259,7.488s.374.49.341,1.179-.098,4.954-.098,4.954" fill="none" stroke="#231e1f" stroke-linecap="round" stroke-linejoin="round" stroke-width=".5"/><path d="M282.867,119.128s.125-2.457.226-3.36-.351-1.58-.351-1.58l-8.325-6.116s-1.114-.301-1.896.317l8.591,6.275s.527.652.476,1.479-.176,3.109-.176,3.109" fill="none" stroke="#231e1f" stroke-linecap="round" stroke-linejoin="round" stroke-width=".5"/><path d="M271.489,110.35s.11-2.356.198-3.171-.374-1.299-.374-1.299l-7.424-5.389s-1.608-.158-1.586.815-.022,1.3-.022,1.3" fill="none" stroke="#231e1f" stroke-linecap="round" stroke-linejoin="round" stroke-width=".5"/><path d="M263.468,111.231s.197-2.498.225-2.976-.211-1.008-.211-1.008l-7.055-5.321c-2.016-.208-2.429.253-2.429.253l6.751,5.175s.866.592.754,1.518-.168,2.695-.168,2.695" fill="none" stroke="#231e1f" stroke-linecap="round" stroke-linejoin="round" stroke-width=".5"/><path d="M326.48,167.41v-7.957c0-1.425-.782-2.31-.782-2.31l-12.474-9.562s.748-.973,3.279-.342l11.448,8.675s1.333,1.241,1.103,2.758c-.166,1.094,0,5.332,0,5.332" fill="none" stroke="#231e1f" stroke-linecap="round" stroke-linejoin="round" stroke-width=".5"/><path d="M351.785,177.14l17.418,13.352s1.144,1.372.764,2.678" fill="none" stroke="#231e1f" stroke-linecap="round" stroke-linejoin="round" stroke-width=".5"/><path d="M373.556,192.463c.381-1.36-.658-2.688-.658-2.688l-17.573-13.255s-2.317-1.115-4.178.374c0,0-.652,1.024-.791,3.025" fill="none" stroke="#231e1f" stroke-linecap="round" stroke-linejoin="round" stroke-width=".5"/><path d="M309.015,146.265c.185-1.112-.744-2.481-.744-2.481l-10.471-8.134c.275-.436,2.467-.657,2.467-.657l10.856,8.168s.857.811.625,2.64l-.255,4.261" fill="none" stroke="#231e1f" stroke-linecap="round" stroke-linejoin="round" stroke-width=".5"/><path d="M285.527,126.349l-9.622-7.376c.747-.887,2.276-.639,2.276-.639l9.919,7.481s.469.725.391,1.667" fill="none" stroke="#231e1f" stroke-linecap="round" stroke-linejoin="round" stroke-width=".5"/><path d="M274.292,120.133s-.046-1.96,0-3.1-.502-1.778-.502-1.778l-7.027-5.532s-1.321-.964-2.969-.034l7.799,5.978s.602.91.602,1.731v3.146" fill="none" stroke="#231e1f" stroke-linecap="round" stroke-linejoin="round" stroke-width=".5"/><path d="M364.364,187.513s3.046,3.808,2.393,6.364" fill="none" stroke="#231e1f" stroke-linecap="round" stroke-linejoin="round" stroke-width=".5"/><line x1="375.95" y1="192.3" x2="359.631" y2="195.4" fill="none" stroke="#231e1f" stroke-linecap="round" stroke-linejoin="round" stroke-width=".5"/><path d="M355.443,180.442s-3.1-1.033-4.297-.762" fill="none" stroke="#231e1f" stroke-linecap="round" stroke-linejoin="round" stroke-width=".5"/><path d="M358.945,178.881l5.582-.886s2.502-.272,4.352.87" fill="none" stroke="#231e1f" stroke-linecap="round" stroke-linejoin="round" stroke-width=".5"/><line x1="343.935" y1="181.336" x2="352.904" y2="179.84" fill="none" stroke="#231e1f" stroke-linecap="round" stroke-linejoin="round" stroke-width=".5"/><path d="M375.888,183.92l2.448,3.049s.73.859.601,1.675v3.58" fill="none" stroke="#231e1f" stroke-linecap="round" stroke-linejoin="round" stroke-width=".5"/><path d="M363.367,174.809l18.404,13.32s1.417,1.031,1.417,1.804-.043,4.912-.043,4.912" fill="none" stroke="#231e1f" stroke-linecap="round" stroke-linejoin="round" stroke-width=".5"/><path d="M262.426,101.023l7.279,5.275s.44.44.396,1.145-.176,3.171-.176,3.171" fill="none" stroke="#231e1f" stroke-linecap="round" stroke-linejoin="round" stroke-width=".5"/><path d="M336.475,177.006s.316-.362,1.401-.542,8.136-1.446,8.136-1.446l.723,1.446-.497,3.932" fill="none" stroke="#231e1f" stroke-linecap="round" stroke-linejoin="round" stroke-width=".5"/><path d="M258.78,106.009s.954,1.516.87,2.611" fill="none" stroke="#231e1f" stroke-linecap="round" stroke-linejoin="round" stroke-width=".5"/><line x1="258.221" y1="103.196" x2="264.062" y2="102.509" fill="none" stroke="#231e1f" stroke-linecap="round" stroke-linejoin="round" stroke-width=".5"/><line x1="248.467" y1="104.343" x2="255.681" y2="103.494" fill="none" stroke="#231e1f" stroke-linecap="round" stroke-linejoin="round" stroke-width=".5"/><polyline points="218.928 122.876 167.217 128.584 166.951 132.746" fill="none" stroke="#231e1f" stroke-linecap="round" stroke-linejoin="round" stroke-width=".5"/><polyline points="221.816 126.166 169.366 132.412 168.653 135.939" fill="none" stroke="#231e1f" stroke-linecap="round" stroke-linejoin="round" stroke-width=".5"/><polyline points="223.293 127.912 170.172 134.225 169.42 138.067" fill="none" stroke="#231e1f" stroke-linecap="round" stroke-linejoin="round" stroke-width=".5"/><polyline points="224.905 129.726 171.179 135.904 170.441 139.685" fill="none" stroke="#231e1f" stroke-linecap="round" stroke-linejoin="round" stroke-width=".5"/><polyline points="226.517 131.203 172.321 137.583 171.42 141.601" fill="none" stroke="#231e1f" stroke-linecap="round" stroke-linejoin="round" stroke-width=".5"/><polyline points="227.86 133.016 173.395 139.598 172.57 143.814" fill="none" stroke="#231e1f" stroke-linecap="round" stroke-linejoin="round" stroke-width=".5"/><polyline points="229.606 134.964 174.403 141.411 173.762 145.815" fill="none" stroke="#231e1f" stroke-linecap="round" stroke-linejoin="round" stroke-width=".5"/><polyline points="231.285 136.576 175.746 143.358 174.869 147.944" fill="none" stroke="#231e1f" stroke-linecap="round" stroke-linejoin="round" stroke-width=".5"/><polyline points="232.762 138.59 176.753 145.373 175.635 150.498" fill="none" stroke="#231e1f" stroke-linecap="round" stroke-linejoin="round" stroke-width=".5"/><polyline points="234.24 140.336 177.76 147.589 176.614 152.669" fill="none" stroke="#231e1f" stroke-linecap="round" stroke-linejoin="round" stroke-width=".5"/><polyline points="230.733 149.538 229.535 148.077 232.819 147.438" fill="none" stroke="#231e1f" stroke-linecap="round" stroke-linejoin="round" stroke-width=".5"/><polyline points="233.102 145.52 231.584 143.64 211.139 146.319 214.382 150.147 205.418 151.372 203.022 147.382 181.927 150.146 184.24 154.266 190.236 153.447 202.739 174.111 196.166 175.083 198.913 180.36 223.183 176.423 219.799 171.588 229.345 170.176 232.824 174.859 255.51 171.18 251.39 166.915 245.676 167.76 241.883 163.135" fill="none" stroke="#231e1f" stroke-linecap="round" stroke-linejoin="round" stroke-width=".5"/><line x1="181.927" y1="150.146" x2="179.734" y2="163.822" fill="none" stroke="#231e1f" stroke-linecap="round" stroke-linejoin="round" stroke-width=".5"/><line x1="184.221" y1="154.369" x2="182.939" y2="163.485" fill="none" stroke="#231e1f" stroke-linecap="round" stroke-linejoin="round" stroke-width=".5"/><line x1="196.196" y1="175.142" x2="194.913" y2="184.258" fill="none" stroke="#231e1f" stroke-linecap="round" stroke-linejoin="round" stroke-width=".5"/><line x1="198.934" y1="180.323" x2="198.612" y2="182.613" fill="none" stroke="#231e1f" stroke-linecap="round" stroke-linejoin="round" stroke-width=".5"/><polyline points="264.622 173.467 197.904 183.605 196.804 188.613" fill="none" stroke="#231e1f" stroke-linecap="round" stroke-linejoin="round" stroke-width=".5"/><polyline points="267.312 175.95 199.662 186.915 198.552 191.722" fill="none" stroke="#231e1f" stroke-linecap="round" stroke-linejoin="round" stroke-width=".5"/><polyline points="269.794 179.053 201.317 190.018 199.932 195.367" fill="none" stroke="#231e1f" stroke-linecap="round" stroke-linejoin="round" stroke-width=".5"/><polyline points="272.07 181.639 203.076 192.914 201.422 198.741" fill="none" stroke="#231e1f" stroke-linecap="round" stroke-linejoin="round" stroke-width=".5"/><polyline points="274.759 184.846 205.248 196.431 203.526 201.941" fill="none" stroke="#231e1f" stroke-linecap="round" stroke-linejoin="round" stroke-width=".5"/><polyline points="277.345 187.639 207.006 199.534 205.366 205.359" fill="none" stroke="#231e1f" stroke-linecap="round" stroke-linejoin="round" stroke-width=".5"/><polyline points="280.449 190.949 209.075 203.051 207.339 208.558" fill="none" stroke="#231e1f" stroke-linecap="round" stroke-linejoin="round" stroke-width=".5"/><polyline points="283.552 193.948 210.834 206.672 209.032 212.38" fill="none" stroke="#231e1f" stroke-linecap="round" stroke-linejoin="round" stroke-width=".5"/><polyline points="286.862 197.259 213.42 210.602 211.853 216.053" fill="none" stroke="#231e1f" stroke-linecap="round" stroke-linejoin="round" stroke-width=".5"/><polyline points="292.965 204.086 217.661 218.257 216.085 223.738" fill="none" stroke="#231e1f" stroke-linecap="round" stroke-linejoin="round" stroke-width=".5"/><polyline points="275.934 127.557 287.106 126.163 289.691 128.445 291.888 128.194 292.013 129.888 290.382 134.407" fill="none" stroke="#231e1f" stroke-linecap="round" stroke-linejoin="round" stroke-width=".5"/><line x1="263.551" y1="117.97" x2="271.221" y2="117.034" fill="none" stroke="#231e1f" stroke-linecap="round" stroke-linejoin="round" stroke-width=".5"/><line x1="258.468" y1="112.129" x2="265.813" y2="111.263" fill="none" stroke="#231e1f" stroke-linecap="round" stroke-linejoin="round" stroke-width=".5"/><path d="M261.411,114.849l7.851-.994s1.137,1.953.767,3.268" fill="none" stroke="#231e1f" stroke-linecap="round" stroke-linejoin="round" stroke-width=".5"/><line x1="278.31" y1="112.709" x2="271.672" y2="113.55" fill="none" stroke="#231e1f" stroke-linecap="round" stroke-linejoin="round" stroke-width=".5"/><path d="M284.879,135.236s1.815-3.089,2.394-4.093.077-1.467.077-1.467l-1.429-1.313-2.78.232s-.915-.06-.965.695l-.154.888" fill="none" stroke="#231e1f" stroke-linecap="round" stroke-linejoin="round" stroke-width=".5"/><path d="M278.37,113.425s.906,1.524.824,2.553v2.8" fill="none" stroke="#231e1f" stroke-linecap="round" stroke-linejoin="round" stroke-width=".5"/><path d="M267.416,105.354s1.112,1.235,1.112,1.894.127,3.91-.079,3.704l5.893-.695" fill="none" stroke="#231e1f" stroke-linecap="round" stroke-linejoin="round" stroke-width=".5"/><line x1="258.471" y1="105.653" x2="251.441" y2="106.548" fill="none" stroke="#231e1f" stroke-linecap="round" stroke-linejoin="round" stroke-width=".5"/><line x1="267.135" y1="104.55" x2="260.967" y2="105.335" fill="none" stroke="#231e1f" stroke-linecap="round" stroke-linejoin="round" stroke-width=".5"/><line x1="277.451" y1="120.157" x2="269.214" y2="121.176" fill="none" stroke="#231e1f" stroke-linecap="round" stroke-linejoin="round" stroke-width=".5"/><line x1="286.938" y1="118.984" x2="280.167" y2="119.822" fill="none" stroke="#231e1f" stroke-linecap="round" stroke-linejoin="round" stroke-width=".5"/><path d="M272.978,124.178l8.082-1.167s1.505,1.675.807,3.895" fill="none" stroke="#231e1f" stroke-linecap="round" stroke-linejoin="round" stroke-width=".5"/><line x1="290.464" y1="121.652" x2="283.876" y2="122.604" fill="none" stroke="#231e1f" stroke-linecap="round" stroke-linejoin="round" stroke-width=".5"/><path d="M253.998,102.179s-.223.405-.113,1.397" fill="none" stroke="#231e1f" stroke-linecap="round" stroke-linejoin="round" stroke-width=".5"/><line x1="253.501" y1="109.285" x2="260.425" y2="108.538" fill="none" stroke="#231e1f" stroke-linecap="round" stroke-linejoin="round" stroke-width=".5"/><path d="M290.777,122.482s.918.885.918,2.164v3.548" fill="none" stroke="#231e1f" stroke-linecap="round" stroke-linejoin="round" stroke-width=".5"/><polyline points="284.786 135.942 297.541 133.942 298.514 134.807 300.352 134.483 296.136 131.348 295.487 130.645 292.569 131.24 295.866 133.834" fill="none" stroke="#231e1f" stroke-linecap="round" stroke-linejoin="round" stroke-width=".5"/><line x1="303.693" y1="137.495" x2="310.59" y2="136.455" fill="none" stroke="#231e1f" stroke-linecap="round" stroke-linejoin="round" stroke-width=".5"/><line x1="291.878" y1="139.277" x2="300.675" y2="137.95" fill="none" stroke="#231e1f" stroke-linecap="round" stroke-linejoin="round" stroke-width=".5"/><line x1="305.298" y1="141.56" x2="296.914" y2="143.028" fill="none" stroke="#231e1f" stroke-linecap="round" stroke-linejoin="round" stroke-width=".5"/><line x1="315.064" y1="139.85" x2="308.25" y2="141.044" fill="none" stroke="#231e1f" stroke-linecap="round" stroke-linejoin="round" stroke-width=".5"/><polyline points="300.242 147.717 308.226 146.5 309.331 147.378 309.331 150.86" fill="none" stroke="#231e1f" stroke-linecap="round" stroke-linejoin="round" stroke-width=".5"/><path d="M305.112,142.253s1.557,1.387,1.642,4.275" fill="none" stroke="#231e1f" stroke-linecap="round" stroke-linejoin="round" stroke-width=".5"/><path d="M315.889,140.994s1.673,1.445,1.635,3.802,0,3.155,0,3.155" fill="none" stroke="#231e1f" stroke-linecap="round" stroke-linejoin="round" stroke-width=".5"/><line x1="307.784" y1="134.128" x2="307.784" y2="136.622" fill="none" stroke="#231e1f" stroke-linecap="round" stroke-linejoin="round" stroke-width=".5"/><line x1="297.8" y1="135.65" x2="297.8" y2="138.143" fill="none" stroke="#231e1f" stroke-linecap="round" stroke-linejoin="round" stroke-width=".5"/><line x1="319.699" y1="149.567" x2="327.272" y2="148.476" fill="none" stroke="#231e1f" stroke-linecap="round" stroke-linejoin="round" stroke-width=".5"/><line x1="306.711" y1="151.438" x2="316.391" y2="150.043" fill="none" stroke="#231e1f" stroke-linecap="round" stroke-linejoin="round" stroke-width=".5"/><line x1="325.023" y1="153.659" x2="332.557" y2="152.367" fill="none" stroke="#231e1f" stroke-linecap="round" stroke-linejoin="round" stroke-width=".5"/><line x1="312.229" y1="155.852" x2="321.843" y2="154.204" fill="none" stroke="#231e1f" stroke-linecap="round" stroke-linejoin="round" stroke-width=".5"/><line x1="313.38" y1="150.306" x2="313.38" y2="147.581" fill="none" stroke="#231e1f" stroke-linecap="round" stroke-linejoin="round" stroke-width=".5"/><line x1="323.56" y1="145.642" x2="323.56" y2="149.019" fill="none" stroke="#231e1f" stroke-linecap="round" stroke-linejoin="round" stroke-width=".5"/><path d="M322.068,155.362s1.747,2.85,1.701,4.459" fill="none" stroke="#231e1f" stroke-linecap="round" stroke-linejoin="round" stroke-width=".5"/><path d="M333.375,153.615s1.747,1.609,1.931,4.091v11.041" fill="none" stroke="#231e1f" stroke-linecap="round" stroke-linejoin="round" stroke-width=".5"/><line x1="355.507" y1="164.317" x2="330.461" y2="170.047" fill="none" stroke="#231e1f" stroke-linecap="round" stroke-linejoin="round" stroke-width=".5"/><line x1="342.107" y1="159.179" x2="342.107" y2="161.725" fill="none" stroke="#231e1f" stroke-linecap="round" stroke-linejoin="round" stroke-width=".5"/><line x1="314.854" y1="161.36" x2="325.339" y2="159.643" fill="none" stroke="#231e1f" stroke-linecap="round" stroke-linejoin="round" stroke-width=".5"/><line x1="357.142" y1="181.32" x2="346.118" y2="183.098" fill="none" stroke="#231e1f" stroke-linecap="round" stroke-linejoin="round" stroke-width=".5"/><line x1="369.598" y1="179.311" x2="360.931" y2="180.709" fill="none" stroke="#231e1f" stroke-linecap="round" stroke-linejoin="round" stroke-width=".5"/><line x1="363.202" y1="185.972" x2="352.48" y2="188.021" fill="none" stroke="#231e1f" stroke-linecap="round" stroke-linejoin="round" stroke-width=".5"/><line x1="375.594" y1="183.604" x2="367.047" y2="185.237" fill="none" stroke="#231e1f" stroke-linecap="round" stroke-linejoin="round" stroke-width=".5"/><path d="M209.048,106.911s-22.282,2.232-37.527,3.746c0,0-2.611.156-2.648,1.875s-.037,2.926-.037,2.926l-.878,1.28" fill="none" stroke="#231e1f" stroke-linecap="round" stroke-linejoin="round" stroke-width=".5"/><path d="M149.199,120.597v-5.191s0-2.451,2.379-2.74c.376-.046,1.967-.21,4.381-.454,0,0,2.09.064,2.017,1.965s0,2.45,0,2.45c0,0,.914.914,1.463.731v-1.28l7.131-.768,1.755,2.011s1.134,1.646-.695,1.829-3.62.439-3.62.439c0,0-1.865.475-2.67-.731s-1.39-2.377-1.39-2.377" fill="none" stroke="#231e1f" stroke-linecap="round" stroke-linejoin="round" stroke-width=".5"/><polyline points="427.958 192.695 393.789 170.628 394.205 169.195 393.719 167.845 379.116 158.402 377.461 158.274 376.449 159.333 359.576 148.452 359.976 147.124 359.745 146.2 347.686 138.4 346.48 138.528 345.611 139.446 331.966 130.647 332.293 129.424 332.014 128.587 322.475 122.445 321.358 122.561 320.939 123.561 309.366 116.092 309.888 114.903 309.542 114.114 301.403 108.919 300.326 109.14 300.106 110.052 290.637 103.963 290.823 102.782 290.484 102.128 283.624 97.75 282.947 97.84 282.645 98.824 274.573 93.635 274.452 91.882 271.129 89.516" fill="none" stroke="#231e1f" stroke-linecap="round" stroke-linejoin="round" stroke-width=".5"/><path d="M198.407,236.212l-.338-1.487,21.633-4.191-1.96-3.042-6.76,1.352s-3.515.946-10.614-3.718-37.316-24.675-37.316-24.675l-2.283.358,12.45,36.198s1.153,2.075,3.689,1.499,11.297-2.19,11.297-2.19l2.075.115.461,1.038" fill="none" stroke="#231e1f" stroke-linecap="round" stroke-linejoin="round" stroke-width=".5"/><path d="M169.338,225.463l6.76-1.217s2.975-.068,3.921,2.434,3.853,10.14,3.853,10.14" fill="none" stroke="#231e1f" stroke-linecap="round" stroke-linejoin="round" stroke-width=".5"/><line x1="160.768" y1="200.809" x2="159.458" y2="209.16" fill="none" stroke="#231e1f" stroke-linecap="round" stroke-linejoin="round" stroke-width=".5"/><polyline points="115.754 174.595 145.936 170.151 146.116 162.397" fill="none" stroke="#231e1f" stroke-linecap="round" stroke-linejoin="round" stroke-width=".5"/><line x1="158.625" y1="196.17" x2="158.255" y2="202.189" fill="none" stroke="#231e1f" stroke-linecap="round" stroke-linejoin="round" stroke-width=".5"/><polyline points="84.749 169.295 84.836 171.889 91.61 171.051" fill="none" stroke="#231e1f" stroke-linecap="round" stroke-linejoin="round" stroke-width=".5"/><polyline points="87.832 168.918 87.88 169.67 89.539 170.304 91.318 170.092" fill="none" stroke="#231e1f" stroke-linecap="round" stroke-linejoin="round" stroke-width=".5"/><polyline points="86.49 206.705 86.362 209.945 90.155 209.391 91.391 208.964 94.034 208.581" fill="none" stroke="#231e1f" stroke-linecap="round" stroke-linejoin="round" stroke-width=".5"/><polyline points="89.899 206.151 89.899 207.345 91.689 207.302 92.414 207.899 93.936 207.703" fill="none" stroke="#231e1f" stroke-linecap="round" stroke-linejoin="round" stroke-width=".5"/><path d="M94.222,209.242l.05-1.986-.38-.722s-.449-.435.431-.661,12.365-1.963,12.365-1.963c0,0,.482.656.457,1.36s-.151,1.886-.151,1.886l-12.771,2.087Z" fill="none" stroke="#231e1f" stroke-linecap="round" stroke-linejoin="round" stroke-width=".5"/><path d="M140.282,199.6l-27.788,4.432s-2.863.51-4.24,2.306" fill="none" stroke="#231e1f" stroke-linecap="round" stroke-linejoin="round" stroke-width=".5"/><line x1="78.134" y1="207.105" x2="114.281" y2="201.219" fill="none" stroke="#231e1f" stroke-linecap="round" stroke-linejoin="round" stroke-width=".5"/><line x1="78.281" y1="169.493" x2="108.54" y2="165.481" fill="none" stroke="#231e1f" stroke-linecap="round" stroke-linejoin="round" stroke-width=".5"/><path d="M91.811,172.396l-.096-2.687s-.313-.785.407-1.313" fill="none" stroke="#231e1f" stroke-linecap="round" stroke-linejoin="round" stroke-width=".5"/><path d="M102.607,170.285l-.096-1.775s.192-1.248-.576-1.392" fill="none" stroke="#231e1f" stroke-linecap="round" stroke-linejoin="round" stroke-width=".5"/><polyline points="49.219 214.309 48.068 213.056 47.858 209.755" fill="none" stroke="#231e1f" stroke-linecap="round" stroke-linejoin="round" stroke-width=".5"/><path d="M46.708,145.168s.203-1.134,1.175-1.337,3.565-.486,3.565-.486c0,0,.851-.162,1.094.365l.243.527,1.458-.081" fill="none" stroke="#231e1f" stroke-linecap="round" stroke-linejoin="round" stroke-width=".5"/><line x1="150.882" y1="111.303" x2="128.204" y2="113.557" fill="none" stroke="#231e1f" stroke-linecap="round" stroke-linejoin="round" stroke-width=".5"/><line x1="194.923" y1="106.99" x2="158.625" y2="110.505" fill="none" stroke="#231e1f" stroke-linecap="round" stroke-linejoin="round" stroke-width=".5"/><line x1="195.663" y1="102.786" x2="126.438" y2="109.027" fill="none" stroke="#231e1f" stroke-linecap="round" stroke-linejoin="round" stroke-width=".5"/><path d="M150.95,112.895v-2.167s1.456-1.592,3.42-1.185" fill="none" stroke="#231e1f" stroke-linecap="round" stroke-linejoin="round" stroke-width=".5"/><path d="M156.472,109.999c-.512-.195-1.084-.343-1.759-.343-1.735,0-3.141.757-3.141,1.691,0,.473.361.901.943,1.208" fill="none" stroke="#231e1f" stroke-linecap="round" stroke-linejoin="round" stroke-width=".5"/><path d="M157.976,114.178c.524.03,1.541-.335,1.541-.335v-2.269l-1.998-2.269h-1.388v.372l1.862,1.964v.779l-.949.061c.503-.3.768-.543.768-.979" fill="none" stroke="#231e1f" stroke-linecap="round" stroke-linejoin="round" stroke-width=".5"/><polyline points="100.554 129.923 101.891 140.864 79.074 143.2" fill="none" stroke="#231e1f" stroke-linecap="round" stroke-linejoin="round" stroke-width=".5"/><polyline points="101.805 140.891 101.854 141.631 79.037 143.967" fill="none" stroke="#231e1f" stroke-linecap="round" stroke-linejoin="round" stroke-width=".5"/><ellipse cx="139.218" cy="114.355" rx="1.806" ry="1.095" fill="none" stroke="#231e1f" stroke-linecap="round" stroke-linejoin="round" stroke-width=".5"/><ellipse cx="139.218" cy="114.355" rx=".542" ry=".328" fill="none" stroke="#231e1f" stroke-linecap="round" stroke-linejoin="round" stroke-width=".5"/><path d="M137.412,114.355l.219,2.627c0,.605.809,1.095,1.806,1.095s1.806-.49,1.806-1.095l-.219-2.627" fill="none" stroke="#231e1f" stroke-linecap="round" stroke-linejoin="round" stroke-width=".5"/><path d="M129.648,113.716l2.13,5.83s1.192,2.444,4.853,2.444l5.481-.838s.873-.07.733-.873l-1.117-2.269-.279.279s.349,1.885-.279,2.095l-4.364.559s-2.527.155-3.666-1.501l-2.374-5.935" fill="none" stroke="#231e1f" stroke-linecap="round" stroke-linejoin="round" stroke-width=".5"/><line x1="140.235" y1="124.516" x2="132.761" y2="125.586" fill="none" stroke="#231e1f" stroke-linecap="round" stroke-linejoin="round" stroke-width=".5"/><line x1="142.845" y1="120.279" x2="142.845" y2="122.477" fill="none" stroke="#231e1f" stroke-linecap="round" stroke-linejoin="round" stroke-width=".5"/><line x1="131.406" y1="123.319" x2="131.435" y2="118.684" fill="none" stroke="#231e1f" stroke-linecap="round" stroke-linejoin="round" stroke-width=".5"/><line x1="129.547" y1="117.006" x2="129.547" y2="113.568" fill="none" stroke="#231e1f" stroke-linecap="round" stroke-linejoin="round" stroke-width=".5"/><path d="M136.523,120.845s-.6-2.921,1.013-3.51" fill="none" stroke="#231e1f" stroke-linecap="round" stroke-linejoin="round" stroke-width=".5"/><path d="M141.215,117.292s.393.222.513.718" fill="none" stroke="#231e1f" stroke-linecap="round" stroke-linejoin="round" stroke-width=".5"/><path d="M138.279,117.821s-1.007-.034-1.144,1.383c0,0-.098.969.14,1.562" fill="none" stroke="#231e1f" stroke-linecap="round" stroke-linejoin="round" stroke-width=".5"/><path d="M141.488,118.589s-.102-.734-.666-.836" fill="none" stroke="#231e1f" stroke-linecap="round" stroke-linejoin="round" stroke-width=".5"/><path d="M45.819,144.781l-.205,1.678,2.865.327s.082-.819.982-.532.041.859.041.859l-.286.327-2.742.082-1.269,1.351,2.947-.205.614-.368,5.28-.409,3.151-.082.737.45" fill="none" stroke="#231e1f" stroke-linecap="round" stroke-linejoin="round" stroke-width=".5"/><path d="M46.449,145.383l4.323-.48.286.491,2.005-.082s.859-.041,1.023.941.941.819.941.819c0,0,.614-1.228,1.883-1.228s2.578-.041,2.578-.041l-.286,2.169" fill="none" stroke="#231e1f" stroke-linecap="round" stroke-linejoin="round" stroke-width=".5"/><polyline points="61.33 143.345 59.857 144.903 59.489 145.804" fill="none" stroke="#231e1f" stroke-linecap="round" stroke-linejoin="round" stroke-width=".5"/><polyline points="59.313 147.217 77.988 145.354 78.888 144.862 78.765 142.53 78.07 142.284 74.23 142.673 73.313 142.143" fill="none" stroke="#231e1f" stroke-linecap="round" stroke-linejoin="round" stroke-width=".5"/><path d="M68.14,144.987c-1.587,1.172-4.384,1.058-4.384,1.058-.113-.794.151-2.079.151-2.079,0,0,2.343-.567,4.195.151" fill="none" stroke="#231e1f" stroke-linecap="round" stroke-linejoin="round" stroke-width=".5"/><path d="M44.931,149.42s-.89,2.352,1.717,2.034l1.616,6.822s-1.537.693-1.982-1.278l-1.414-5.926" fill="none" stroke="#231e1f" stroke-linecap="round" stroke-linejoin="round" stroke-width=".5"/><polyline points="48.782 149.271 47.475 149.323 47.056 150.212 49.253 150.264 49.672 149.794 50.665 149.48 52.548 149.48 54.359 150.847" fill="none" stroke="#231e1f" stroke-linecap="round" stroke-linejoin="round" stroke-width=".5"/><polyline points="47.37 150.892 49.096 158.11 53.437 157.692" fill="none" stroke="#231e1f" stroke-linecap="round" stroke-linejoin="round" stroke-width=".5"/><path d="M40.049,179.17l-.349,2.041s.417.715,1.727.357l1.072,4.824s-.953.179-1.548-.06l-1.022-4.38" fill="none" stroke="#231e1f" stroke-linecap="round" stroke-linejoin="round" stroke-width=".5"/><path d="M41.977,181.12l1.55,6.645s.93,1.431,3.327.465" fill="none" stroke="#231e1f" stroke-linecap="round" stroke-linejoin="round" stroke-width=".5"/><path d="M46.672,185.642l-1.285-5.298-3.323.259c.388-1.985,2.244-1.554,2.244-1.554" fill="none" stroke="#231e1f" stroke-linecap="round" stroke-linejoin="round" stroke-width=".5"/><line x1="46.681" y1="185.738" x2="49.881" y2="185.493" fill="none" stroke="#231e1f" stroke-linecap="round" stroke-linejoin="round" stroke-width=".5"/><polygon points="46.391 179.948 46.557 178.623 48.744 178.424 48.479 179.782 46.391 179.948" fill="none" stroke="#231e1f" stroke-linecap="round" stroke-linejoin="round" stroke-width=".5"/><line x1="48.479" y1="179.815" x2="49.837" y2="185.349" fill="none" stroke="#231e1f" stroke-linecap="round" stroke-linejoin="round" stroke-width=".5"/><line x1="48.843" y1="178.49" x2="50.069" y2="183.692" fill="none" stroke="#231e1f" stroke-linecap="round" stroke-linejoin="round" stroke-width=".5"/><line x1="46.424" y1="179.981" x2="47.816" y2="185.614" fill="none" stroke="#231e1f" stroke-linecap="round" stroke-linejoin="round" stroke-width=".5"/><polygon points="55.873 123.503 50.513 124.016 49.946 124.391 49.809 125.922 50.492 126.167 55.657 125.703 55.873 123.503" fill="none" stroke="#231e1f" stroke-linecap="round" stroke-linejoin="round" stroke-width=".5"/><ellipse cx="187.654" cy="156.147" rx="2.022" ry="1.217" fill="none" stroke="#231e1f" stroke-linecap="round" stroke-linejoin="round" stroke-width=".5"/><path d="M189.671,156.79c.118.168.183.352.183.546,0,.774-1.042,1.401-2.328,1.401s-2.328-.627-2.328-1.401c0-.165.047-.323.134-.47" fill="none" stroke="#231e1f" stroke-linecap="round" stroke-linejoin="round" stroke-width=".5"/><path d="M184.693,162.896c0,.774,1.042,1.401,2.328,1.401s2.328-.627,2.328-1.401l.506-5.561" fill="none" stroke="#231e1f" stroke-linecap="round" stroke-linejoin="round" stroke-width=".5"/><ellipse cx="197.152" cy="172.276" rx="2.022" ry="1.217" fill="none" stroke="#231e1f" stroke-linecap="round" stroke-linejoin="round" stroke-width=".5"/><path d="M199.17,172.918c.118.168.183.352.183.546,0,.774-1.042,1.401-2.328,1.401s-2.328-.627-2.328-1.401c0-.165.047-.323.134-.47" fill="none" stroke="#231e1f" stroke-linecap="round" stroke-linejoin="round" stroke-width=".5"/><path d="M194.783,183.232c-.532-.257-1.302-1.08-1.302-1.523l1.216-8.245" fill="none" stroke="#231e1f" stroke-linecap="round" stroke-linejoin="round" stroke-width=".5"/><line x1="199.353" y1="173.464" x2="199.277" y2="174.29" fill="none" stroke="#231e1f" stroke-linecap="round" stroke-linejoin="round" stroke-width=".5"/><line x1="185.198" y1="157.336" x2="184.693" y2="162.896" fill="none" stroke="#231e1f" stroke-linecap="round" stroke-linejoin="round" stroke-width=".5"/><polygon points="240.536 128.937 242.869 128.63 248.703 134.956 246.37 135.324 240.536 128.937" fill="none" stroke="#231e1f" stroke-linecap="round" stroke-linejoin="round" stroke-width=".5"/><path d="M47.375,126.653l-1.273-1.069-7.232.917s-.866.204-.713,1.324.968,5.144.968,5.144c0,0,.204.458.917.407s7.436-.866,7.436-.866l.509-.509-.611-5.347Z" fill="none" stroke="#231e1f" stroke-linecap="round" stroke-linejoin="round" stroke-width=".5"/><line x1="39.43" y1="127.569" x2="46.051" y2="126.754" fill="none" stroke="#231e1f" stroke-linecap="round" stroke-linejoin="round" stroke-width=".5"/><polyline points="48.088 128.028 50.023 129.148 50.329 133.782 48.037 132.356" fill="none" stroke="#231e1f" stroke-linecap="round" stroke-linejoin="round" stroke-width=".5"/><line x1="50.023" y1="129.148" x2="55.674" y2="128.675" fill="none" stroke="#231e1f" stroke-linecap="round" stroke-linejoin="round" stroke-width=".5"/><line x1="50.329" y1="133.782" x2="55.185" y2="133.434" fill="none" stroke="#231e1f" stroke-linecap="round" stroke-linejoin="round" stroke-width=".5"/><line x1="50.492" y1="126.167" x2="51.078" y2="129.001" fill="none" stroke="#231e1f" stroke-linecap="round" stroke-linejoin="round" stroke-width=".5"/><line x1="49.743" y1="125.939" x2="50.329" y2="128.773" fill="none" stroke="#231e1f" stroke-linecap="round" stroke-linejoin="round" stroke-width=".5"/><line x1="47.139" y1="185.714" x2="44.601" y2="210.903" fill="none" stroke="#231e1f" stroke-linecap="round" stroke-linejoin="round" stroke-width=".5"/><line x1="49.929" y1="158.015" x2="48.45" y2="172.692" fill="none" stroke="#231e1f" stroke-linecap="round" stroke-linejoin="round" stroke-width=".5"/><line x1="52.324" y1="134.243" x2="51.374" y2="143.26" fill="none" stroke="#231e1f" stroke-linecap="round" stroke-linejoin="round" stroke-width=".5"/><path d="M34.308,217.565l.237-4.089,1.244-.948s5.214-.593,7.229-1.126,2.677-.331,2.914.439l-.366,5.368s-.83-1.067-2.311-.652-7.348,1.244-7.348,1.244c0,0-1.007.237-1.6-.237Z" fill="none" stroke="#231e1f" stroke-linecap="round" stroke-linejoin="round" stroke-width=".5"/><line x1="34.961" y1="219.207" x2="34.308" y2="217.565" fill="none" stroke="#231e1f" stroke-linecap="round" stroke-linejoin="round" stroke-width=".5"/><ellipse cx="38.931" cy="214.711" rx="2.165" ry="1.061" transform="translate(-38.477 10.69) rotate(-10.5)" fill="none" stroke="#231e1f" stroke-linecap="round" stroke-linejoin="round" stroke-width=".5"/><path d="M141.445,127.712l.066-2.953s-.066-1.969,2.166-2.297l2.855-.328s-.295-.919.984-1.181,3.609-.394,3.609-.394l-.591-1.05s5.414-1.739,7.481,1.542c0,0,1.608,3.347-5.02,3.577l-.853-1.313-3.15.361s-1.148.23-1.05,1.148l-3.511.361s-1.805.033-1.87,1.313v2.33" fill="none" stroke="#231e1f" stroke-linecap="round" stroke-linejoin="round" stroke-width=".5"/><polyline points="151.716 123.84 151.387 133.848 152.897 134.34" fill="none" stroke="#231e1f" stroke-linecap="round" stroke-linejoin="round" stroke-width=".5"/><path d="M154.144,127.941s2.691-.066,3.806-1.477l.263-4.791" fill="none" stroke="#231e1f" stroke-linecap="round" stroke-linejoin="round" stroke-width=".5"/><polyline points="155.62 127.941 155.423 133.323 152.897 134.34 153.356 124.988" fill="none" stroke="#231e1f" stroke-linecap="round" stroke-linejoin="round" stroke-width=".5"/><path d="M145.415,126.694s.492,1.247,2.297,1.05,3.773-.328,3.773-.328" fill="none" stroke="#231e1f" stroke-linecap="round" stroke-linejoin="round" stroke-width=".5"/><path d="M145.415,128.105s.492,1.247,2.297,1.05,3.773-.328,3.773-.328" fill="none" stroke="#231e1f" stroke-linecap="round" stroke-linejoin="round" stroke-width=".5"/><path d="M152.136,120.548l1.726-.138s.794,0,1.139.829l.345.829s.449.898-.483.932-1.726.242-1.726.242" fill="none" stroke="#231e1f" stroke-linecap="round" stroke-linejoin="round" stroke-width=".5"/><path d="M155.45,120.375l1.07,2.175s1.419-.005.621-1.45c-.552-1.001-1.692-.725-1.692-.725Z" fill="none" stroke="#231e1f" stroke-linecap="round" stroke-linejoin="round" stroke-width=".5"/><line x1="151.387" y1="133.848" x2="149.8" y2="134.038" fill="none" stroke="#231e1f" stroke-linecap="round" stroke-linejoin="round" stroke-width=".5"/><path d="M166.076,131.401l-1.206-.075-1.583-.264.754,1.281s.264.452,2.223.264" fill="none" stroke="#231e1f" stroke-linecap="round" stroke-linejoin="round" stroke-width=".5"/><path d="M167.082,133.411l-1.206-.075-1.583-.264.754,1.281s.264.452,2.223.264" fill="none" stroke="#231e1f" stroke-linecap="round" stroke-linejoin="round" stroke-width=".5"/><path d="M168.087,135.422l-1.206-.075-1.583-.264.754,1.281s.264.452,2.223.264" fill="none" stroke="#231e1f" stroke-linecap="round" stroke-linejoin="round" stroke-width=".5"/><path d="M169.092,137.432l-1.206-.075-1.583-.264.754,1.281s.264.452,2.223.264" fill="none" stroke="#231e1f" stroke-linecap="round" stroke-linejoin="round" stroke-width=".5"/><path d="M170.097,139.443l-1.206-.075-1.583-.264.754,1.281s.264.452,2.223.264" fill="none" stroke="#231e1f" stroke-linecap="round" stroke-linejoin="round" stroke-width=".5"/><path d="M171.103,141.453l-1.206-.075-1.583-.264.754,1.281s.264.452,2.223.264" fill="none" stroke="#231e1f" stroke-linecap="round" stroke-linejoin="round" stroke-width=".5"/><path d="M172.108,143.464l-1.206-.075-1.583-.264.754,1.281s.264.452,2.223.264" fill="none" stroke="#231e1f" stroke-linecap="round" stroke-linejoin="round" stroke-width=".5"/><path d="M173.113,145.474l-1.206-.075-1.583-.264.754,1.281s.264.452,2.223.264" fill="none" stroke="#231e1f" stroke-linecap="round" stroke-linejoin="round" stroke-width=".5"/><path d="M174.187,147.657l-1.206-.075-1.583-.264.754,1.281s.264.452,2.223.264" fill="none" stroke="#231e1f" stroke-linecap="round" stroke-linejoin="round" stroke-width=".5"/><path d="M175.262,149.875l-1.206-.075-1.583-.264.754,1.281s.264.452,2.223.264" fill="none" stroke="#231e1f" stroke-linecap="round" stroke-linejoin="round" stroke-width=".5"/><path d="M176.267,152.059l-1.206-.075-1.583-.264.754,1.281s.264.452,2.223.264" fill="none" stroke="#231e1f" stroke-linecap="round" stroke-linejoin="round" stroke-width=".5"/><line x1="190.086" y1="164.14" x2="194.405" y2="172.079" fill="none" stroke="#231e1f" stroke-linecap="round" stroke-linejoin="round" stroke-width=".5"/><polyline points="181.131 160.837 183.799 165.537 188.245 165.029" fill="none" stroke="#231e1f" stroke-linecap="round" stroke-linejoin="round" stroke-width=".5"/><polyline points="181.131 165.601 183.799 170.301 188.245 169.792" fill="none" stroke="#231e1f" stroke-linecap="round" stroke-linejoin="round" stroke-width=".5"/><polyline points="195.535 188.221 190.77 178.938 193.923 178.348" fill="none" stroke="#231e1f" stroke-linecap="round" stroke-linejoin="round" stroke-width=".5"/><polyline points="193.054 187.206 189.948 181.156 190.673 178.983" fill="none" stroke="#231e1f" stroke-linecap="round" stroke-linejoin="round" stroke-width=".5"/><line x1="183.799" y1="165.537" x2="183.799" y2="170.301" fill="none" stroke="#231e1f" stroke-linecap="round" stroke-linejoin="round" stroke-width=".5"/><line x1="163.288" y1="131.062" x2="163.434" y2="133.223" fill="none" stroke="#231e1f" stroke-linecap="round" stroke-linejoin="round" stroke-width=".5"/><line x1="164.288" y1="133.143" x2="164.434" y2="135.304" fill="none" stroke="#231e1f" stroke-linecap="round" stroke-linejoin="round" stroke-width=".5"/><line x1="165.315" y1="135.143" x2="165.461" y2="137.304" fill="none" stroke="#231e1f" stroke-linecap="round" stroke-linejoin="round" stroke-width=".5"/><line x1="166.315" y1="137.143" x2="166.461" y2="139.304" fill="none" stroke="#231e1f" stroke-linecap="round" stroke-linejoin="round" stroke-width=".5"/><line x1="167.288" y1="139.197" x2="167.434" y2="141.358" fill="none" stroke="#231e1f" stroke-linecap="round" stroke-linejoin="round" stroke-width=".5"/><line x1="168.315" y1="141.251" x2="168.461" y2="143.412" fill="none" stroke="#231e1f" stroke-linecap="round" stroke-linejoin="round" stroke-width=".5"/><line x1="169.315" y1="143.197" x2="169.461" y2="145.358" fill="none" stroke="#231e1f" stroke-linecap="round" stroke-linejoin="round" stroke-width=".5"/><line x1="170.315" y1="145.278" x2="170.461" y2="147.439" fill="none" stroke="#231e1f" stroke-linecap="round" stroke-linejoin="round" stroke-width=".5"/><line x1="171.393" y1="147.313" x2="171.538" y2="149.474" fill="none" stroke="#231e1f" stroke-linecap="round" stroke-linejoin="round" stroke-width=".5"/><line x1="172.47" y1="149.563" x2="172.615" y2="151.724" fill="none" stroke="#231e1f" stroke-linecap="round" stroke-linejoin="round" stroke-width=".5"/><line x1="173.499" y1="151.718" x2="173.645" y2="153.879" fill="none" stroke="#231e1f" stroke-linecap="round" stroke-linejoin="round" stroke-width=".5"/><path d="M196.06,188.486l-2.663-.444,1.268,2.155s.444.761,3.74.444" fill="none" stroke="#231e1f" stroke-linecap="round" stroke-linejoin="round" stroke-width=".5"/><path d="M197.751,191.869l-2.663-.444,1.268,2.155s.444.761,3.74.444" fill="none" stroke="#231e1f" stroke-linecap="round" stroke-linejoin="round" stroke-width=".5"/><path d="M199.442,195.251l-2.663-.444,1.268,2.155s.444.761,3.74.444" fill="none" stroke="#231e1f" stroke-linecap="round" stroke-linejoin="round" stroke-width=".5"/><path d="M201.134,198.634l-2.663-.444,1.268,2.155s.444.761,3.74.444" fill="none" stroke="#231e1f" stroke-linecap="round" stroke-linejoin="round" stroke-width=".5"/><path d="M202.825,202.017l-2.663-.444,1.268,2.155s.444.761,3.74.444" fill="none" stroke="#231e1f" stroke-linecap="round" stroke-linejoin="round" stroke-width=".5"/><path d="M204.516,205.399l-2.663-.444,1.268,2.155s.444.761,3.74.444" fill="none" stroke="#231e1f" stroke-linecap="round" stroke-linejoin="round" stroke-width=".5"/><path d="M206.208,208.782l-2.663-.444,1.268,2.155s.444.761,3.74.444" fill="none" stroke="#231e1f" stroke-linecap="round" stroke-linejoin="round" stroke-width=".5"/><path d="M207.899,212.164l-2.663-.444,1.268,2.155s.444.761,3.74.444" fill="none" stroke="#231e1f" stroke-linecap="round" stroke-linejoin="round" stroke-width=".5"/><path d="M209.707,215.838l-2.663-.444,1.268,2.155s.444.761,3.74.444" fill="none" stroke="#231e1f" stroke-linecap="round" stroke-linejoin="round" stroke-width=".5"/><path d="M211.514,219.57l-2.663-.444,1.268,2.155s.444.761,3.74.444" fill="none" stroke="#231e1f" stroke-linecap="round" stroke-linejoin="round" stroke-width=".5"/><path d="M213.206,223.243l-2.663-.444,1.268,2.155s.444.761,3.74.444" fill="none" stroke="#231e1f" stroke-linecap="round" stroke-linejoin="round" stroke-width=".5"/><line x1="193.397" y1="188.042" x2="193.642" y2="191.678" fill="none" stroke="#231e1f" stroke-linecap="round" stroke-linejoin="round" stroke-width=".5"/><line x1="195.08" y1="191.544" x2="195.325" y2="195.18" fill="none" stroke="#231e1f" stroke-linecap="round" stroke-linejoin="round" stroke-width=".5"/><line x1="196.808" y1="194.909" x2="197.053" y2="198.545" fill="none" stroke="#231e1f" stroke-linecap="round" stroke-linejoin="round" stroke-width=".5"/><line x1="198.49" y1="198.274" x2="198.735" y2="201.91" fill="none" stroke="#231e1f" stroke-linecap="round" stroke-linejoin="round" stroke-width=".5"/><line x1="200.127" y1="201.73" x2="200.372" y2="205.366" fill="none" stroke="#231e1f" stroke-linecap="round" stroke-linejoin="round" stroke-width=".5"/><line x1="201.855" y1="205.186" x2="202.1" y2="208.822" fill="none" stroke="#231e1f" stroke-linecap="round" stroke-linejoin="round" stroke-width=".5"/><line x1="203.538" y1="208.46" x2="203.783" y2="212.096" fill="none" stroke="#231e1f" stroke-linecap="round" stroke-linejoin="round" stroke-width=".5"/><line x1="205.22" y1="211.962" x2="205.465" y2="215.597" fill="none" stroke="#231e1f" stroke-linecap="round" stroke-linejoin="round" stroke-width=".5"/><line x1="207.033" y1="215.385" x2="207.278" y2="219.021" fill="none" stroke="#231e1f" stroke-linecap="round" stroke-linejoin="round" stroke-width=".5"/><line x1="208.845" y1="219.171" x2="209.09" y2="222.807" fill="none" stroke="#231e1f" stroke-linecap="round" stroke-linejoin="round" stroke-width=".5"/><line x1="210.577" y1="222.796" x2="210.822" y2="226.432" fill="none" stroke="#231e1f" stroke-linecap="round" stroke-linejoin="round" stroke-width=".5"/><path d="M21.302,271.025l40.201-7.597s4.191-.798,8.716,2.262c0,0,1.264.665,1.597-.798s-.133-2.595,2.528-3.46" fill="none" stroke="#231e1f" stroke-linecap="round" stroke-linejoin="round" stroke-width=".5"/><path d="M344.081,183.741l7.809,6.191s-1.407.633-3.025-.563-5.91-4.854-5.91-4.854c0,0-.774-.492,1.126-.774Z" fill="none" stroke="#231e1f" stroke-linecap="round" stroke-linejoin="round" stroke-width=".5"/><path d="M304.916,152.574l5.39,4.273s-.971.437-2.088-.388-4.079-3.35-4.079-3.35c0,0-.534-.34.777-.534Z" fill="none" stroke="#231e1f" stroke-linecap="round" stroke-linejoin="round" stroke-width=".5"/><path d="M289.444,140.003l4.626,3.667s-.833.375-1.792-.333-3.501-2.876-3.501-2.876c0,0-.458-.292.667-.458Z" fill="none" stroke="#231e1f" stroke-linecap="round" stroke-linejoin="round" stroke-width=".5"/><path d="M267.74,123.188c-.759-.633-1.399-1.179-1.399-1.179,0,0-.458-.292.667-.458l1.589,1.26" fill="none" stroke="#231e1f" stroke-linecap="round" stroke-linejoin="round" stroke-width=".5"/><path d="M371.247,177.21l1.334-.042,6.815,4.907s.511.372.232.651-1.361-.129-1.361-.129l-6.776-4.846s-.405-.366-.245-.541Z" fill="none" stroke="#231e1f" stroke-linecap="round" stroke-linejoin="round" stroke-width=".5"/><path d="M329.592,147.176l1.001-.037,5.135,3.657s.385.277.177.488-1.022-.091-1.022-.091l-5.105-3.612s-.306-.273-.186-.405Z" fill="none" stroke="#231e1f" stroke-linecap="round" stroke-linejoin="round" stroke-width=".5"/><path d="M313.347,135.548l.806-.029,4.134,2.944s.31.223.143.393-.823-.074-.823-.074l-4.11-2.908s-.246-.22-.15-.326Z" fill="none" stroke="#231e1f" stroke-linecap="round" stroke-linejoin="round" stroke-width=".5"/><path d="M289.358,118.081l.631-.023,3.236,2.305s.243.175.112.307-.644-.058-.644-.058l-3.217-2.276s-.193-.172-.117-.255Z" fill="none" stroke="#231e1f" stroke-linecap="round" stroke-linejoin="round" stroke-width=".5"/><path d="M277.542,109.5l.534-.019,2.738,1.95s.205.148.094.26-.545-.049-.545-.049l-2.722-1.926s-.163-.146-.099-.216Z" fill="none" stroke="#231e1f" stroke-linecap="round" stroke-linejoin="round" stroke-width=".5"/><path d="M266.566,101.573l.534-.019,2.738,1.95s.205.148.094.26-.545-.049-.545-.049l-2.722-1.926s-.163-.146-.099-.216Z" fill="none" stroke="#231e1f" stroke-linecap="round" stroke-linejoin="round" stroke-width=".5"/><path d="M299.468,190.32s5.041,1.846,6.532,6.603" fill="none" stroke="#231e1f" stroke-linecap="round" stroke-linejoin="round" stroke-width=".5"/><polygon points="330.872 185.099 331.96 184.88 338.772 190.668 337.237 190.839 330.872 185.099" fill="none" stroke="#231e1f" stroke-linecap="round" stroke-linejoin="round" stroke-width=".5"/><path d="M203.723,99.968s1.814.851,2.443,2.221" fill="none" stroke="#231e1f" stroke-linecap="round" stroke-linejoin="round" stroke-width=".5"/><path d="M325.879,210.111s-1.937-2.356.452-2.973,4.326-.957,4.326-.957c0,0,2.176-.032,3.486,2.203l-8.264,1.727Z" fill="none" stroke="#231e1f" stroke-linecap="round" stroke-linejoin="round" stroke-width=".5"/><path d="M348.04,205.541s-1.83-2.185.558-2.801,3.853-.848,3.853-.848c0,0,2.542-.313,3.852,1.922l-8.264,1.727Z" fill="none" stroke="#231e1f" stroke-linecap="round" stroke-linejoin="round" stroke-width=".5"/><polyline points="304.729 102.69 306.155 102.99 307.13 102.765 309.306 103.816 309.757 105.617" fill="none" stroke="#231e1f" stroke-linecap="round" stroke-linejoin="round" stroke-width=".5"/><polyline points="306.795 102.073 308.221 102.373 309.197 102.148 311.373 103.198 311.823 104.999" fill="none" stroke="#231e1f" stroke-linecap="round" stroke-linejoin="round" stroke-width=".5"/><line x1="304.442" y1="103.218" x2="309.096" y2="106.051" fill="none" stroke="#231e1f" stroke-linecap="round" stroke-linejoin="round" stroke-width=".5"/><polyline points="319.673 101.75 320.975 102.038 321.866 101.822 323.853 102.828 324.264 104.552" fill="none" stroke="#231e1f" stroke-linecap="round" stroke-linejoin="round" stroke-width=".5"/><polyline points="321.56 101.159 322.862 101.447 323.753 101.231 325.74 102.237 326.151 103.961" fill="none" stroke="#231e1f" stroke-linecap="round" stroke-linejoin="round" stroke-width=".5"/><line x1="319.411" y1="102.256" x2="323.661" y2="104.968" fill="none" stroke="#231e1f" stroke-linecap="round" stroke-linejoin="round" stroke-width=".5"/><polyline points="302.059 91.81 303.337 92.062 304.212 91.873 306.162 92.756 306.566 94.271" fill="none" stroke="#231e1f" stroke-linecap="round" stroke-linejoin="round" stroke-width=".5"/><polyline points="303.912 91.291 305.19 91.543 306.064 91.354 308.015 92.237 308.418 93.752" fill="none" stroke="#231e1f" stroke-linecap="round" stroke-linejoin="round" stroke-width=".5"/><line x1="301.802" y1="92.254" x2="305.974" y2="94.636" fill="none" stroke="#231e1f" stroke-linecap="round" stroke-linejoin="round" stroke-width=".5"/><polyline points="336.999 111.629 338.411 111.932 339.378 111.705 341.534 112.765 341.981 114.583" fill="none" stroke="#231e1f" stroke-linecap="round" stroke-linejoin="round" stroke-width=".5"/><polyline points="339.046 111.006 340.459 111.309 341.426 111.082 343.582 112.142 344.028 113.96" fill="none" stroke="#231e1f" stroke-linecap="round" stroke-linejoin="round" stroke-width=".5"/><line x1="336.715" y1="112.162" x2="341.326" y2="115.021" fill="none" stroke="#231e1f" stroke-linecap="round" stroke-linejoin="round" stroke-width=".5"/><polyline points="372.759 131.756 374.639 132.136 375.925 131.851 378.795 133.181 379.389 135.46" fill="none" stroke="#231e1f" stroke-linecap="round" stroke-linejoin="round" stroke-width=".5"/><polyline points="375.484 130.975 377.364 131.355 378.651 131.07 381.521 132.4 382.114 134.679" fill="none" stroke="#231e1f" stroke-linecap="round" stroke-linejoin="round" stroke-width=".5"/><line x1="372.381" y1="132.425" x2="378.518" y2="136.01" fill="none" stroke="#231e1f" stroke-linecap="round" stroke-linejoin="round" stroke-width=".5"/><polyline points="384.992 152.008 387.302 152.575 388.922 152.384 392.392 154.044 392.962 156.514" fill="none" stroke="#231e1f" stroke-linecap="round" stroke-linejoin="round" stroke-width=".5"/><polyline points="388.438 151.416 390.748 151.982 392.369 151.791 395.838 153.451 396.408 155.921" fill="none" stroke="#231e1f" stroke-linecap="round" stroke-linejoin="round" stroke-width=".5"/><line x1="384.473" y1="152.685" x2="391.838" y2="157.022" fill="none" stroke="#231e1f" stroke-linecap="round" stroke-linejoin="round" stroke-width=".5"/><polyline points="405.169 150.089 407.479 150.655 409.099 150.464 412.569 152.124 413.139 154.595" fill="none" stroke="#231e1f" stroke-linecap="round" stroke-linejoin="round" stroke-width=".5"/><polyline points="408.615 149.496 410.925 150.063 412.546 149.872 416.015 151.532 416.585 154.002" fill="none" stroke="#231e1f" stroke-linecap="round" stroke-linejoin="round" stroke-width=".5"/><line x1="404.65" y1="150.766" x2="412.015" y2="155.102" fill="none" stroke="#231e1f" stroke-linecap="round" stroke-linejoin="round" stroke-width=".5"/><polyline points="440.921 169.977 443.231 170.544 444.852 170.353 448.321 172.013 448.891 174.483" fill="none" stroke="#231e1f" stroke-linecap="round" stroke-linejoin="round" stroke-width=".5"/><polyline points="444.368 169.385 446.677 169.951 448.298 169.76 451.767 171.42 452.337 173.89" fill="none" stroke="#231e1f" stroke-linecap="round" stroke-linejoin="round" stroke-width=".5"/><line x1="440.402" y1="170.654" x2="447.767" y2="174.991" fill="none" stroke="#231e1f" stroke-linecap="round" stroke-linejoin="round" stroke-width=".5"/><line x1="494.251" y1="179.931" x2="483.11" y2="180.094" fill="none" stroke="#231e1f" stroke-linecap="round" stroke-linejoin="round" stroke-width=".5"/><line x1="311.44" y1="85.542" x2="311.44" y2="88.276" fill="none" stroke="#231e1f" stroke-linecap="round" stroke-linejoin="round" stroke-width=".5"/><line x1="301.984" y1="83.947" x2="301.984" y2="86.681" fill="none" stroke="#231e1f" stroke-linecap="round" stroke-linejoin="round" stroke-width=".5"/><ellipse cx="488.59" cy="213.822" rx="2.105" ry="2.894" transform="translate(-26.7 76.285) rotate(-8.691)" fill="none" stroke="#231e1f" stroke-linecap="round" stroke-linejoin="round" stroke-width=".5"/><path d="M496.473,208.484l3.713-1.115.033-.017c1.487,0,2.853,1.31,2.853,3.294,0,1.488-.678,2.765-1.644,3.31l-.042.053-4.95,1.645" fill="none" stroke="#231e1f" stroke-linecap="round" stroke-linejoin="round" stroke-width=".5"/><polyline points="243.466 98.464 264.321 96.423 266.655 97.006 293.686 116.285 300.243 124.802 309.68 131.079 312.616 131.733 335.788 147.939 336.744 147.816 338.258 148.929 338.159 149.596 360.992 165.565 364.462 166.259 366.891 168.167 367.064 170.943 388.394 185.695 402.306 192.335 410.843 190.648" fill="none" stroke="#231e1f" stroke-linecap="round" stroke-linejoin="round" stroke-width=".5"/><path d="M264.855,97.913l7.183,4.677.084.752,1.253.835,1.336-.084s3.842,3.09,5.262,5.847" fill="none" stroke="#231e1f" stroke-linecap="round" stroke-linejoin="round" stroke-width=".5"/><path d="M282.645,109.773s1.086,1.754,1.086,3.758" fill="none" stroke="#231e1f" stroke-linecap="round" stroke-linejoin="round" stroke-width=".5"/><path d="M283.656,110.885s6.123,3.849,7.942,7.208" fill="none" stroke="#231e1f" stroke-linecap="round" stroke-linejoin="round" stroke-width=".5"/><polyline points="292.711 117.829 299.319 125.82 296.281 126.3" fill="none" stroke="#231e1f" stroke-linecap="round" stroke-linejoin="round" stroke-width=".5"/><polyline points="296.552 127.357 305.709 133.656 308.757 133.335" fill="none" stroke="#231e1f" stroke-linecap="round" stroke-linejoin="round" stroke-width=".5"/><path d="M311.172,132.321l9.379,6.785s4.79,2.594,5.654,2.927" fill="none" stroke="#231e1f" stroke-linecap="round" stroke-linejoin="round" stroke-width=".5"/><polyline points="325.541 142.432 326.871 144.561 333.989 147.621 335.918 148.618" fill="none" stroke="#231e1f" stroke-linecap="round" stroke-linejoin="round" stroke-width=".5"/><polyline points="337.448 149.882 338.246 151.612 359.799 166.646 363.79 167.311 365.254 168.508 365.586 171.369 372.504 176.158" fill="none" stroke="#231e1f" stroke-linecap="round" stroke-linejoin="round" stroke-width=".5"/><ellipse cx="378.983" cy="164.769" rx="1.949" ry="2.671" transform="translate(-32.619 127.879) rotate(-18.376)" fill="none" stroke="#231e1f" stroke-linecap="round" stroke-linejoin="round" stroke-width=".5"/><path d="M378.141,162.235l3.2-.591c.969-.322,2.111.493,2.552,1.821s.013,2.664-.955,2.986l-3.271.892" fill="none" stroke="#231e1f" stroke-linecap="round" stroke-linejoin="round" stroke-width=".5"/><ellipse cx="300.325" cy="112.211" rx="1.094" ry="1.499" transform="translate(-20.06 100.401) rotate(-18.376)" fill="none" stroke="#231e1f" stroke-linecap="round" stroke-linejoin="round" stroke-width=".5"/><path d="M299.853,110.788l1.796-.331c.544-.181,1.185.277,1.432,1.022s.007,1.495-.536,1.676l-1.835.501" fill="none" stroke="#231e1f" stroke-linecap="round" stroke-linejoin="round" stroke-width=".5"/><polyline points="417.756 195.257 270.9 96.849 271.06 89.621" fill="none" stroke="#231e1f" stroke-linecap="round" stroke-linejoin="round" stroke-width=".5"/><path d="M364.46,199.777l18.031-3.779s.764-1.856-1.827-3.26c0,0-.782-.662-2.708-.085l-17.138,3.402" fill="none" stroke="#231e1f" stroke-linecap="round" stroke-linejoin="round" stroke-width=".5"/><line x1="54.334" y1="220.248" x2="52.437" y2="239.719" fill="none" stroke="#231e1f" stroke-linecap="round" stroke-linejoin="round" stroke-width=".5"/><path d="M52.512,108.065l1.338.931,10.996-.756s1.571-.233,1.804.756l-.175,7.563s-.931-.698-2.618-.582-12.16.931-12.16.931l-.756,1.164" fill="none" stroke="#231e1f" stroke-linecap="round" stroke-linejoin="round" stroke-width=".5"/><line x1="63.818" y1="115.854" x2="64.058" y2="108.839" fill="none" stroke="#231e1f" stroke-linecap="round" stroke-linejoin="round" stroke-width=".5"/><path d="M66.549,109.447s-.267-.902-3.19-.554l-9.774.591s-1.107.221-1.168.884c-.052.561-.805,6.088-.805,6.088" fill="none" stroke="#231e1f" stroke-linecap="round" stroke-linejoin="round" stroke-width=".5"/><polyline points="131.617 126.812 131.679 133.233 101.435 136.44" fill="none" stroke="#231e1f" stroke-linecap="round" stroke-linejoin="round" stroke-width=".5"/></g><g id="b"><polygon points="362.676 125.754 364.066 125.636 365.988 126.957 368.768 129.756 368.728 132.418 366.757 132.654 365.811 131.649 362.656 132.083 362.676 125.754" fill="#d0d2d3"/><path d="M317.643,107.067l2.307-.368-.883-.398,29.154-3.779.286-.071,2.453-.504,2.453,1.427,1.899-.336,4.827,2.937,1.485,1.46s2.295,1.091,1.82,6.21l-.102,6.445-1.796.342-.114,12.379s1.933,2.15,1.141,2.401l-4.176.554-1.424-.923-9.18,1.427s-1.137,4.209-2.324,4.209l-4.165-2.783-.554-.504-9.892,1.511s-.079,1.007-.95,1.007l-4.743.915-9.761-5.971s-.312-2.05-.312-4.064v-16.221s-7.783-6.9,2.549-7.303Z" fill="#fff" stroke="#fff" stroke-linecap="round" stroke-linejoin="round" stroke-width="3.228"/><path d="M318.163,108.295l3.235-.423.846.393,12.485-1.693-.695-.484,4.595-.574.998.544,9.598-1.396-.609-.443,3.489-.498,2.105,1.052,3.545-.277,4.985,2.548-2.936.831s3.189,1.528,2.714,6.647l.111,17.226s.299,1.613-.492,1.865l-3.717.517-1.329-.886-9.194,1.329s-.609.997-1.329,1.163l-4.32.498-1.163-.775-9.25,1.329s-.222.775-.72.997l-4.597.831-8.973-5.151s-.831-.201-.831-2.216v-18.333l-2.407-1.484s-.494-.428.38-.627,0,0,0,0l1.998-.382v-1.306l1.974-.364-.494-.457Z" fill="#d0d2d3"/><line x1="329.245" y1="174.393" x2="329.245" y2="141.549" fill="none" stroke="#fff" stroke-linecap="round" stroke-linejoin="round" stroke-width="6"/><line x1="329.245" y1="174.393" x2="329.245" y2="172.893" fill="none" stroke="#231f20" stroke-linecap="round" stroke-linejoin="round"/><line x1="329.245" y1="169.577" x2="329.245" y2="144.707" fill="none" stroke="#231f20" stroke-dasharray="3.316 3.316" stroke-linecap="round" stroke-linejoin="round"/><line x1="329.245" y1="143.049" x2="329.245" y2="141.549" fill="none" stroke="#231f20" stroke-linecap="round" stroke-linejoin="round"/><line x1="361.254" y1="177.379" x2="361.254" y2="137.13" fill="none" stroke="#fff" stroke-linecap="round" stroke-linejoin="round" stroke-width="6"/><line x1="361.254" y1="177.379" x2="361.254" y2="175.879" fill="none" stroke="#231f20" stroke-linecap="round" stroke-linejoin="round"/><line x1="361.254" y1="173.013" x2="361.254" y2="140.063" fill="none" stroke="#231f20" stroke-dasharray="2.865 2.865" stroke-linecap="round" stroke-linejoin="round"/><line x1="361.254" y1="138.63" x2="361.254" y2="137.13" fill="none" stroke="#231f20" stroke-linecap="round" stroke-linejoin="round"/><line x1="319.18" y1="162.754" x2="319.18" y2="138.014" fill="none" stroke="#fff" stroke-linecap="round" stroke-linejoin="round" stroke-width="6"/><line x1="319.18" y1="162.754" x2="319.18" y2="161.254" fill="none" stroke="#231f20" stroke-linecap="round" stroke-linejoin="round"/><line x1="319.18" y1="158.148" x2="319.18" y2="141.067" fill="none" stroke="#231f20" stroke-dasharray="3.106 3.106" stroke-linecap="round" stroke-linejoin="round"/><line x1="319.18" y1="139.514" x2="319.18" y2="138.014" fill="none" stroke="#231f20" stroke-linecap="round" stroke-linejoin="round"/><line x1="353.817" y1="174.479" x2="353.817" y2="136.878" fill="none" stroke="#fff" stroke-linecap="round" stroke-linejoin="round" stroke-width="6"/><line x1="353.817" y1="174.479" x2="353.817" y2="172.979" fill="none" stroke="#231f20" stroke-linecap="round" stroke-linejoin="round"/><line x1="353.817" y1="169.834" x2="353.817" y2="139.951" fill="none" stroke="#231f20" stroke-dasharray="3.146 3.146" stroke-linecap="round" stroke-linejoin="round"/><line x1="353.817" y1="138.378" x2="353.817" y2="136.878" fill="none" stroke="#231f20" stroke-linecap="round" stroke-linejoin="round"/><line x1="316.677" y1="109.035" x2="318.711" y2="108.768" fill="none" stroke="#231f20" stroke-linecap="round" stroke-linejoin="round" stroke-width=".5"/><path d="M316.725,112.964l-.045,18.286c0,1.896,1.017,2.312,1.017,2.312l8.688,4.978c1.144-.264,1.407-2.611,1.407-2.611v-18.994c.044-.73.013-1.246-.041-1.601,0,0-.138-.837-.791-.64l-.552.189-1.096-.642s-.373-.13-1.035-.011l-2.666.673c-.584.147-1.427.054-1.863-.207l-5.443-3.265c-.392-.235-.217-.518.38-.627l2.733-.503c.41-.194.328-.502.328-.502l-.915-.584s-.254-.19-.196.466c.046.524.002.713.002.713" fill="none" stroke="#231f20" stroke-linecap="round" stroke-linejoin="round" stroke-width=".5"/><path d="M360.902,133.784l.953-.142c.744-.128.672-1.357.672-1.357v-20.372s-.113-2.083-1.459-3.123l-1.129-.675s-.281-.306.057-.435l2.231-.283c.487-.062.637-.261.326-.444l-4.328-2.266c-.347-.203-1.028-.296-1.506-.207l-1.723.216s-.883.156-1.584-.312l-.986-.543c-.283-.161-.479-.107-.479-.107l-.74.075" fill="none" stroke="#231f20" stroke-linecap="round" stroke-linejoin="round" stroke-width=".5"/><path d="M341.125,106.985l10.127-1.273-2.753-1.465,2.729-.394,8.843,4.925s1.567,1.231,1.567,3.134v20.372s.015,1.534-.672,1.455l-2.63.392s1.119-.448,1.119-1.791v-2.854l-27.536,3.638v2.574s.14,1.091-.784,2.015l-4.785.851" fill="none" stroke="#231f20" stroke-linecap="round" stroke-linejoin="round" stroke-width=".5"/><line x1="323.823" y1="109.134" x2="336.11" y2="107.558" fill="none" stroke="#231f20" stroke-linecap="round" stroke-linejoin="round" stroke-width=".5"/><path d="M341.246,111.009l-10.894,1.519s2.351,1.511,2.351,6.548l10.6-1.4-2.417-1.958.15-4.481" fill="none" stroke="#231f20" stroke-linecap="round" stroke-linejoin="round" stroke-width=".5"/><path d="M347.999,117.046l11.4-1.495v-3.526s-.245-2.326-2.519-3.246l-10.741,1.495" fill="none" stroke="#231f20" stroke-linecap="round" stroke-linejoin="round" stroke-width=".5"/><path d="M338.623,105.549l7.512,4.74c1.791,1.007,1.847,3.918,1.847,3.918v3.974l-4.589.616v-4.03c0-2.686-2.079-3.741-2.079-3.741l-7.334-4.963,4.644-.514Z" fill="none" stroke="#231f20" stroke-linecap="round" stroke-linejoin="round" stroke-width=".5"/><polyline points="348.103 114.838 356.993 113.648 359.399 115.55" fill="none" stroke="#231f20" stroke-linecap="round" stroke-linejoin="round" stroke-width=".5"/><line x1="343.435" y1="115.088" x2="347.906" y2="114.489" fill="none" stroke="#231f20" stroke-linecap="round" stroke-linejoin="round" stroke-width=".5"/><line x1="332.759" y1="116.894" x2="340.926" y2="115.805" fill="none" stroke="#231f20" stroke-linecap="round" stroke-linejoin="round" stroke-width=".5"/><polyline points="356.993 113.648 356.881 108.778 350.501 105.308" fill="none" stroke="#231f20" stroke-linecap="round" stroke-linejoin="round" stroke-width=".5"/><path d="M327.543,138.271c1.144-.264,1.392-2.752,1.392-2.752v-18.994c.126-2.274-.909-2.757-.909-2.757l-10.088-5.426,3.463-.477,8.952,4.662" fill="none" stroke="#231f20" stroke-linecap="round" stroke-linejoin="round" stroke-width=".5"/><line x1="339.597" y1="106.019" x2="349.467" y2="104.789" fill="none" stroke="#231f20" stroke-linecap="round" stroke-linejoin="round" stroke-width=".5"/><line x1="322.149" y1="108.216" x2="334.673" y2="106.632" fill="none" stroke="#231f20" stroke-linecap="round" stroke-linejoin="round" stroke-width=".5"/><path d="M339.938,134.438l2.113,1.726c1.108-.077,1.264-1.744,1.264-1.744v-2.763" fill="none" stroke="#231f20" stroke-linecap="round" stroke-linejoin="round" stroke-width=".5"/><path d="M347.931,131.078v2.742s-.007,1.171-1.27,1.815l-4.611.529" fill="none" stroke="#231f20" stroke-linecap="round" stroke-linejoin="round" stroke-width=".5"/><polyline points="347.972 133.341 355.868 132.305 358.336 134.131" fill="none" stroke="#231f20" stroke-linecap="round" stroke-linejoin="round" stroke-width=".5"/><line x1="332.118" y1="135.422" x2="339.799" y2="134.414" fill="none" stroke="#231f20" stroke-linecap="round" stroke-linejoin="round" stroke-width=".5"/><line x1="347.892" y1="134.508" x2="357.006" y2="133.245" fill="none" stroke="#231f20" stroke-linecap="round" stroke-linejoin="round" stroke-width=".5"/><line x1="332.019" y1="136.709" x2="341.06" y2="135.455" fill="none" stroke="#231f20" stroke-linecap="round" stroke-linejoin="round" stroke-width=".5"/><path d="M320.913,114.08l1.005-.164-4.725-2.667-.991.147s1.057,1.107,4.712,2.684Z" fill="none" stroke="#231f20" stroke-linecap="round" stroke-linejoin="round" stroke-width=".25"/><path d="M360.373,106.893l-.858.104-3.347-1.807.799-.105s1.862.591,3.406,1.808Z" fill="none" stroke="#231f20" stroke-linecap="round" stroke-linejoin="round" stroke-width=".25"/><path d="M322.333,115.507c1.45,1.181,2.626,4.106,2.887,7.587.348,4.626-1.051,8.48-3.125,8.609s-4.037-3.517-4.385-8.143c-.286-3.804.609-7.085,2.089-8.204" fill="none" stroke="#231f20" stroke-linecap="round" stroke-linejoin="round" stroke-width=".5"/><path d="M325.17,121.983s1.639-3.474.48-7.275" fill="none" stroke="#231f20" stroke-linecap="round" stroke-linejoin="round" stroke-width=".5"/><path d="M327.622,125.765c-.456,1.45-2.681,2.642-2.681,2.642" fill="none" stroke="#231f20" stroke-linecap="round" stroke-linejoin="round" stroke-width=".5"/><path d="M325.968,115.664s1.54,1.347,1.768,4.144" fill="none" stroke="#231f20" stroke-linecap="round" stroke-linejoin="round" stroke-width=".5"/><path d="M323.304,131.239s1.963,2.669,4.294,3.006" fill="none" stroke="#231f20" stroke-linecap="round" stroke-linejoin="round" stroke-width=".5"/><path d="M320.708,131.335s-.341,3.771,2.201,5.214" fill="none" stroke="#231f20" stroke-linecap="round" stroke-linejoin="round" stroke-width=".5"/><path d="M318.113,126.91s-.834.352-1.341,1.197" fill="none" stroke="#231f20" stroke-linecap="round" stroke-linejoin="round" stroke-width=".5"/><path d="M317.69,120.994s-.109-.812-.956-.764" fill="none" stroke="#231f20" stroke-linecap="round" stroke-linejoin="round" stroke-width=".5"/><polyline points="362.649 127.455 366.08 127.074 368.749 129.743 368.749 132.412 366.759 132.654 366.759 127.94" fill="none" stroke="#231f20" stroke-linecap="round" stroke-linejoin="round" stroke-width=".5"/><line x1="365.195" y1="129.386" x2="365.195" y2="127.205" fill="none" stroke="#231f20" stroke-linecap="round" stroke-linejoin="round" stroke-width=".5"/><line x1="366.778" y1="132.655" x2="365.759" y2="131.647" fill="none" stroke="#231f20" stroke-linecap="round" stroke-linejoin="round" stroke-width=".5"/><polyline points="362.556 125.727 364.066 125.636 366.084 127.033" fill="none" stroke="#231f20" stroke-linecap="round" stroke-linejoin="round" stroke-width=".5"/><line x1="366.619" y1="131.444" x2="362.594" y2="131.947" fill="none" stroke="#231f20" stroke-linecap="round" stroke-linejoin="round" stroke-width=".5"/><polyline points="362.572 129.688 365.134 129.368 366.619 130.34 362.594 130.843" fill="none" stroke="#231f20" stroke-linecap="round" stroke-linejoin="round" stroke-width=".5"/></g><g id="c"><line x1="396.609" y1="61.143" x2="401.004" y2="60.566" fill="none" stroke="#231f20" stroke-linecap="round" stroke-linejoin="round" stroke-width=".5"/><path d="M396.712,69.634l-.097,39.51c0,4.096,2.198,4.995,2.198,4.995l18.773,10.755c2.472-.571,3.041-5.642,3.041-5.642v-41.04c.096-1.578.027-2.692-.089-3.46,0,0-.298-1.807-1.71-1.382l-1.192.409-2.368-1.387s-.805-.28-2.237-.024l-5.76,1.454c-1.261.318-3.083.117-4.025-.448l-11.761-7.054c-.848-.508-.468-1.118.822-1.356l5.905-1.086c.887-.42.71-1.086.71-1.086l-1.977-1.262s-.549-.409-.424,1.007c.099,1.132.003,1.54.003,1.54" fill="none" stroke="#231f20" stroke-linecap="round" stroke-linejoin="round" stroke-width=".5"/><path d="M492.164,114.617l2.058-.307c1.608-.276,1.451-2.932,1.451-2.932v-44.017s-.245-4.5-3.152-6.747l-2.439-1.459s-.607-.662.124-.94l4.82-.611c1.053-.133,1.377-.565.703-.959l-9.351-4.897c-.749-.439-2.222-.64-3.254-.447l-3.724.468s-1.9.558-3.415-.452l-1.92-1.087c-.611-.349-1.034-.231-1.034-.231l-1.599.162" fill="none" stroke="#231f20" stroke-linecap="round" stroke-linejoin="round" stroke-width=".5"/><path d="M448.256,55.831l21.434-2.739-4.324-2.293,5.903-.63,19.099,10.42s3.386,2.66,3.386,6.772v44.017s.033,3.315-1.451,3.144l-5.684.846s2.419-.967,2.419-3.87v-6.167l-59.496,7.86v5.563s.302,2.358-1.693,4.353l-10.339,1.839" fill="none" stroke="#231f20" stroke-linecap="round" stroke-linejoin="round" stroke-width=".5"/><line x1="410.871" y1="60.621" x2="437.42" y2="57.215" fill="none" stroke="#231f20" stroke-linecap="round" stroke-linejoin="round" stroke-width=".5"/><path d="M449.695,65.409l-23.538,3.282s5.079,3.265,5.079,14.148l22.904-3.025-5.223-4.23.325-9.682" fill="none" stroke="#231f20" stroke-linecap="round" stroke-linejoin="round" stroke-width=".5"/><path d="M464.286,78.453l24.631-3.231v-7.618s-.53-5.025-5.442-7.014l-23.209,3.23" fill="none" stroke="#231f20" stroke-linecap="round" stroke-linejoin="round" stroke-width=".5"/><path d="M444.028,53.612l16.23,10.242c3.87,2.177,3.991,8.465,3.991,8.465v8.586l-9.916,1.33v-8.707c0-5.804-4.492-8.084-4.492-8.084l-15.846-10.723,10.033-1.11Z" fill="none" stroke="#231f20" stroke-linecap="round" stroke-linejoin="round" stroke-width=".5"/><polyline points="464.511 73.683 483.718 71.11 488.918 75.221" fill="none" stroke="#231f20" stroke-linecap="round" stroke-linejoin="round" stroke-width=".5"/><line x1="454.424" y1="74.222" x2="464.085" y2="72.928" fill="none" stroke="#231f20" stroke-linecap="round" stroke-linejoin="round" stroke-width=".5"/><line x1="431.357" y1="78.124" x2="449.002" y2="75.771" fill="none" stroke="#231f20" stroke-linecap="round" stroke-linejoin="round" stroke-width=".5"/><polyline points="483.718 71.11 483.476 60.589 469.69 53.092" fill="none" stroke="#231f20" stroke-linecap="round" stroke-linejoin="round" stroke-width=".5"/><path d="M420.087,124.313c2.472-.571,3.009-5.946,3.009-5.946v-41.04c.272-4.912-1.965-5.956-1.965-5.956l-21.798-11.723,7.482-1.03,19.342,10.073" fill="none" stroke="#231f20" stroke-linecap="round" stroke-linejoin="round" stroke-width=".5"/><line x1="446.13" y1="54.626" x2="467.458" y2="51.97" fill="none" stroke="#231f20" stroke-linecap="round" stroke-linejoin="round" stroke-width=".5"/><line x1="408.431" y1="59.374" x2="435.492" y2="55.951" fill="none" stroke="#231f20" stroke-linecap="round" stroke-linejoin="round" stroke-width=".5"/><path d="M446.867,116.032l4.564,3.73c2.394-.167,2.731-3.768,2.731-3.768v-5.969" fill="none" stroke="#231f20" stroke-linecap="round" stroke-linejoin="round" stroke-width=".5"/><path d="M464.139,108.772v5.924s-.016,2.53-2.744,3.922l-9.964,1.144" fill="none" stroke="#231f20" stroke-linecap="round" stroke-linejoin="round" stroke-width=".5"/><polyline points="464.226 113.662 481.288 111.422 486.62 115.369" fill="none" stroke="#231f20" stroke-linecap="round" stroke-linejoin="round" stroke-width=".5"/><line x1="429.972" y1="118.158" x2="446.567" y2="115.979" fill="none" stroke="#231f20" stroke-linecap="round" stroke-linejoin="round" stroke-width=".5"/><line x1="464.055" y1="116.183" x2="483.747" y2="113.454" fill="none" stroke="#231f20" stroke-linecap="round" stroke-linejoin="round" stroke-width=".5"/><line x1="429.758" y1="120.937" x2="449.293" y2="118.229" fill="none" stroke="#231f20" stroke-linecap="round" stroke-linejoin="round" stroke-width=".5"/><path d="M408.83,75.127c3.132,2.551,5.673,8.873,6.239,16.393.752,9.995-2.272,18.323-6.753,18.601-4.481.278-8.723-7.6-9.474-17.595-.618-8.218,1.316-15.309,4.514-17.725" fill="none" stroke="#231f20" stroke-linecap="round" stroke-linejoin="round" stroke-width=".5"/><path d="M414.959,89.121s3.542-7.506,1.037-15.72" fill="none" stroke="#231f20" stroke-linecap="round" stroke-linejoin="round" stroke-width=".5"/><path d="M420.258,97.291c-.986,3.134-5.793,5.708-5.793,5.708" fill="none" stroke="#231f20" stroke-linecap="round" stroke-linejoin="round" stroke-width=".5"/><path d="M416.684,75.466s3.328,2.91,3.821,8.954" fill="none" stroke="#231f20" stroke-linecap="round" stroke-linejoin="round" stroke-width=".5"/><path d="M410.927,109.12s4.242,5.767,9.277,6.495" fill="none" stroke="#231f20" stroke-linecap="round" stroke-linejoin="round" stroke-width=".5"/><path d="M405.319,109.327s-.737,8.148,4.756,11.266" fill="none" stroke="#231f20" stroke-linecap="round" stroke-linejoin="round" stroke-width=".5"/><path d="M399.712,99.767s-1.802.76-2.897,2.587" fill="none" stroke="#231f20" stroke-linecap="round" stroke-linejoin="round" stroke-width=".5"/><path d="M398.796,86.984s-.235-1.755-2.066-1.651" fill="none" stroke="#231f20" stroke-linecap="round" stroke-linejoin="round" stroke-width=".5"/><polyline points="495.939 100.944 503.353 100.12 509.12 105.887 509.12 111.653 504.82 112.177 504.82 101.991" fill="none" stroke="#231f20" stroke-linecap="round" stroke-linejoin="round" stroke-width=".5"/><line x1="501.44" y1="105.116" x2="501.44" y2="100.404" fill="none" stroke="#231f20" stroke-linecap="round" stroke-linejoin="round" stroke-width=".5"/><line x1="504.862" y1="112.179" x2="502.658" y2="110.001" fill="none" stroke="#231f20" stroke-linecap="round" stroke-linejoin="round" stroke-width=".5"/><polyline points="495.739 97.21 499 97.014 503.362 100.031" fill="none" stroke="#231f20" stroke-linecap="round" stroke-linejoin="round" stroke-width=".5"/><line x1="504.517" y1="109.563" x2="495.821" y2="110.65" fill="none" stroke="#231f20" stroke-linecap="round" stroke-linejoin="round" stroke-width=".5"/><polyline points="495.773 105.768 501.308 105.076 504.517 107.177 495.821 108.264" fill="none" stroke="#231f20" stroke-linecap="round" stroke-linejoin="round" stroke-width=".5"/><polygon points="437.715 31.871 437.568 45.89 452.413 44.386 452.561 30.212 437.715 31.871" stroke="#fff" stroke-linecap="round" stroke-linejoin="round" stroke-width="3"/><polygon points="430.273 44.108 444.86 57.623 459.882 41.078 430.273 44.108" stroke="#fff" stroke-linecap="round" stroke-linejoin="round" stroke-width="3"/><polygon points="452.623 28.378 452.771 14.359 437.926 15.863 437.777 30.037 452.623 28.378" stroke="#fff" stroke-linecap="round" stroke-linejoin="round" stroke-width="6"/><polygon points="460.065 16.141 445.479 2.626 430.457 19.17 460.065 16.141" stroke="#fff" stroke-linecap="round" stroke-linejoin="round" stroke-width="6"/><polyline points="452.623 28.378 452.771 14.359 437.926 15.863 437.777 30.037"/><polygon points="460.065 16.141 445.479 2.626 430.457 19.17 460.065 16.141"/><polyline points="437.715 31.871 437.568 45.89 452.413 44.386 452.561 30.212"/><polygon points="430.273 44.108 444.86 57.623 459.882 41.078 430.273 44.108"/><line x1="404.342" y1="65.284" x2="404.342" y2="28.497" fill="none" stroke="#fff" stroke-linecap="round" stroke-linejoin="round" stroke-width="3"/><line x1="404.342" y1="65.284" x2="404.342" y2="28.497" fill="none" stroke="#231f20" stroke-linecap="round" stroke-linejoin="round"/><polygon points="407.333 29.372 404.342 24.191 401.35 29.372 407.333 29.372" fill="#231f20"/><line x1="491.187" y1="52.071" x2="491.187" y2="21.198" fill="none" stroke="#fff" stroke-linecap="round" stroke-linejoin="round" stroke-width="3"/><line x1="491.187" y1="52.071" x2="491.187" y2="21.198" fill="none" stroke="#231f20" stroke-linecap="round" stroke-linejoin="round"/><polygon points="494.178 22.073 491.187 16.892 488.195 22.073 494.178 22.073" fill="#231f20"/><path d="M399.481,64.451l-5.024.924c-1.097.202-1.42.721-.699,1.153l10.006,6.001c.801.481,2.352.652,3.425.381l4.901-1.237-12.608-7.223Z" fill="#5d92f5" opacity=".7"/><path d="M488.804,57.743l4.394-.559c.876-.111,1.146-.47.585-.798l-7.782-4.075c-.623-.365-1.849-.532-2.708-.372l-4.25.577,9.761,5.227Z" fill="#5d92f5" opacity=".7"/></g></svg>