<?xml version="1.0" encoding="UTF-8"?>
<svg xmlns="http://www.w3.org/2000/svg" version="1.1" viewBox="0 0 413.1 337">
  <!-- Generator: Adobe Illustrator 29.8.2, SVG Export Plug-In . SVG Version: 2.1.1 Build 3)  -->
  <defs>
    <style>
      .st0, .st1, .st2, .st3 {
        fill: none;
      }

      .st0, .st1, .st2, .st4 {
        stroke: #231f20;
      }

      .st0, .st1, .st4 {
        stroke-width: .5px;
      }

      .st0, .st2, .st3 {
        stroke-linecap: round;
        stroke-linejoin: round;
      }

      .st5 {
        font-family: ArialMT, Arial;
        font-size: 16.8px;
        letter-spacing: 0em;
      }

      .st5, .st6, .st4 {
        fill: #fff;
      }

      .st1, .st7, .st4 {
        stroke-miterlimit: 10;
      }

      .st8, .st9 {
        opacity: .7;
      }

      .st8, .st10 {
        fill: #5d92f5;
      }

      .st3 {
        stroke-width: 3px;
      }

      .st3, .st7 {
        stroke: #fff;
      }

      .st7 {
        fill: #221f1f;
        stroke-width: 1.5px;
      }
    </style>
  </defs>
  <g id="Layer_2">
    <g>
      <path class="st1" d="M190.9,118.7h-10v6.2h-20.9v-6.2h-16.8v6.2h-20.9v-6.2h-16.8v6.2h-20.9v-6.2c.1,0-16.8,0-16.8,0v6.2h-20.9v-6.2h-21.6"/>
      <polyline class="st0" points="25.4 134.5 108.2 134.5 180.7 134.5"/>
      <g>
        <rect class="st4" x="40.6" y="72.8" width="27.1" height="40.4"/>
        <polygon class="st4" points="69.3 112.5 69.3 116.6 39 116.6 39 112.5 47.6 112.5 47.6 96.7 40 96.7 40 89.6 47.6 89.6 47.6 74.3 39 74.3 39 70.2 69.3 70.2 69.3 74.3 60.8 74.3 60.8 89.6 68.4 89.6 68.4 96.7 60.8 96.7 60.8 112.5 69.3 112.5"/>
        <rect class="st8" x="50.3" y="118.1" width="14" height="3.4" rx="1.7" ry="1.7"/>
        <rect x="72.7" y="69.8" width="1.2" height="46.8" rx=".6" ry=".6"/>
        <rect x="35.6" y="69.8" width="1.2" height="46.8" rx=".6" ry=".6"/>
        <g class="st9">
          <rect class="st10" x="48" y="65.2" width="14" height="3.4" rx="1.7" ry="1.7"/>
        </g>
      </g>
      <g>
        <rect class="st4" x="78.3" y="72.8" width="27.1" height="40.4"/>
        <polygon class="st4" points="107 112.5 107 116.6 76.7 116.6 76.7 112.5 85.2 112.5 85.2 96.7 77.6 96.7 77.6 89.6 85.2 89.6 85.2 74.3 76.7 74.3 76.7 70.2 107 70.2 107 74.3 98.5 74.3 98.5 89.6 106.1 89.6 106.1 96.7 98.5 96.7 98.5 112.5 107 112.5"/>
        <rect class="st8" x="88" y="118.1" width="14" height="3.4" rx="1.7" ry="1.7"/>
        <path class="st0" d="M193.2,305.1v2.5h0c0,1.6,1.3,3,3,3h18.3c1.6,0,3-3,3-3v-2.4"/>
        <rect x="110.4" y="69.8" width="1.2" height="46.8" rx=".6" ry=".6"/>
        <g class="st9">
          <rect class="st10" x="85.6" y="65.2" width="14" height="3.4" rx="1.7" ry="1.7"/>
        </g>
      </g>
      <g>
        <rect class="st4" x="116" y="72.8" width="27.1" height="40.4"/>
        <polygon class="st4" points="144.7 112.5 144.7 116.6 114.4 116.6 114.4 112.5 122.9 112.5 122.9 96.7 115.3 96.7 115.3 89.6 122.9 89.6 122.9 74.3 114.4 74.3 114.4 70.2 144.7 70.2 144.7 74.3 136.1 74.3 136.1 89.6 143.7 89.6 143.7 96.7 136.1 96.7 136.1 112.5 144.7 112.5"/>
        <rect class="st8" x="125.6" y="118.1" width="14" height="3.4" rx="1.7" ry="1.7"/>
        <rect x="148" y="69.8" width="1.2" height="46.8" rx=".6" ry=".6"/>
        <g class="st9">
          <rect class="st10" x="123.3" y="65.2" width="14" height="3.4" rx="1.7" ry="1.7"/>
        </g>
      </g>
      <g>
        <rect class="st4" x="153.6" y="72.8" width="27.1" height="40.4"/>
        <polygon class="st4" points="182.3 112.5 182.3 116.6 152 116.6 152 112.5 160.6 112.5 160.6 96.7 153 96.7 153 89.6 160.6 89.6 160.6 74.3 152 74.3 152 70.2 182.3 70.2 182.3 74.3 173.8 74.3 173.8 89.6 181.4 89.6 181.4 96.7 173.8 96.7 173.8 112.5 182.3 112.5"/>
        <rect class="st8" x="163.3" y="118.1" width="14" height="3.4" rx="1.7" ry="1.7"/>
        <rect x="185.7" y="69.8" width="1.2" height="46.8" rx=".6" ry=".6"/>
        <g class="st9">
          <rect class="st10" x="161" y="65.2" width="14" height="3.4" rx="1.7" ry="1.7"/>
        </g>
      </g>
    </g>
    <g>
      <line class="st0" x1="224.2" y1="134.5" x2="385.5" y2="134.5"/>
      <polyline class="st1" points="385.6 118.7 363.6 118.7 363.6 124.9 342.7 124.9 342.7 118.7 325.9 118.7 325.9 124.9 305 124.9 305 118.7 288.3 118.7 288.3 124.9 267.4 124.9 267.4 118.7 250.6 118.7 250.6 124.9 229.7 124.9 229.7 118.7 215.4 118.7"/>
      <g>
        <rect class="st4" x="223.3" y="72.8" width="27.1" height="40.4"/>
        <polygon class="st4" points="252 112.5 252 116.6 221.7 116.6 221.7 112.5 230.3 112.5 230.3 96.7 222.7 96.7 222.7 89.6 230.3 89.6 230.3 74.3 221.7 74.3 221.7 70.2 252 70.2 252 74.3 243.5 74.3 243.5 89.6 251.1 89.6 251.1 96.7 243.5 96.7 243.5 112.5 252 112.5"/>
        <rect class="st8" x="233" y="118.1" width="14" height="3.4" rx="1.7" ry="1.7"/>
        <rect x="255.4" y="69.8" width="1.2" height="46.8" rx=".6" ry=".6"/>
        <rect x="218" y="69.8" width="1.2" height="46.8" rx=".6" ry=".6"/>
        <g class="st9">
          <rect class="st10" x="230.7" y="65.2" width="14" height="3.4" rx="1.7" ry="1.7"/>
        </g>
      </g>
      <g>
        <rect class="st4" x="261" y="72.8" width="27.1" height="40.4"/>
        <polygon class="st4" points="289.7 112.5 289.7 116.6 259.4 116.6 259.4 112.5 267.9 112.5 267.9 96.7 260.4 96.7 260.4 89.6 267.9 89.6 267.9 74.3 259.4 74.3 259.4 70.2 289.7 70.2 289.7 74.3 281.2 74.3 281.2 89.6 288.8 89.6 288.8 96.7 281.2 96.7 281.2 112.5 289.7 112.5"/>
        <rect class="st8" x="270.7" y="118.1" width="14" height="3.4" rx="1.7" ry="1.7"/>
        <rect x="293.1" y="69.8" width="1.2" height="46.8" rx=".6" ry=".6"/>
        <g class="st9">
          <rect class="st10" x="268.4" y="65.2" width="14" height="3.4" rx="1.7" ry="1.7"/>
        </g>
      </g>
      <g>
        <rect class="st4" x="298.7" y="72.8" width="27.1" height="40.4"/>
        <polygon class="st4" points="327.4 112.5 327.4 116.6 297.1 116.6 297.1 112.5 305.6 112.5 305.6 96.7 298 96.7 298 89.6 305.6 89.6 305.6 74.3 297.1 74.3 297.1 70.2 327.4 70.2 327.4 74.3 318.9 74.3 318.9 89.6 326.4 89.6 326.4 96.7 318.9 96.7 318.9 112.5 327.4 112.5"/>
        <rect class="st8" x="308.3" y="118.1" width="14" height="3.4" rx="1.7" ry="1.7"/>
        <rect x="330.7" y="69.8" width="1.2" height="46.8" rx=".6" ry=".6"/>
        <g class="st9">
          <rect class="st10" x="306" y="65.2" width="14" height="3.4" rx="1.7" ry="1.7"/>
        </g>
      </g>
      <g>
        <rect x="368.4" y="69.8" width="1.2" height="46.8" rx=".6" ry=".6"/>
        <g>
          <polyline class="st0" points="23.9 319.3 31.1 304.9 382 304.9"/>
          <path class="st0" d="M374.4,118.3V52.8c0-3.2-2.6-5.7-5.7-5.7h-17.1c-3.2,0-5.7,2.6-5.7,5.7v9.3c-6.1,0-5.7,4.8-5.7,4.8h-3.4v-14.1c0-3.2-2.6-5.7-5.7-5.7h-17.1c-3.2,0-5.7,2.6-5.7,5.7v9.3c-6.1,0-5.7,4.8-5.7,4.8h-3.4v-14.1c0-3.2-2.6-5.7-5.7-5.7h-17.1c-3.2,0-5.7,2.6-5.7,5.7v9.3c-6.1,0-5.7,4.8-5.7,4.8h-3.4v-14.1c0-3.2-2.6-5.7-5.7-5.7h-17.1c-3.2,0-5.7,2.6-5.7,5.7v9.3c-6.1,0-5.7,4.8-5.7,4.8h0s-12.3,0-12.3,0v6.8h-23.2v-20.9c0-3.2-2.6-5.7-5.7-5.7h-17.1c-3.2,0-5.7,2.6-5.7,5.7v9.3c-6.1,0-5.7,4.8-5.7,4.8h-3.4v-14.1c0-3.2-2.6-5.7-5.7-5.7h-17.1c-3.2,0-5.7,2.6-5.7,5.7v9.3c-6.1,0-5.7,4.8-5.7,4.8h-3.4v-14.1c0-3.2-2.6-5.7-5.7-5.7h-17.1c-3.2,0-5.7,2.6-5.7,5.7v9.3c-6.1,0-5.7,4.8-5.7,4.8h-3.4v-14.1c0-3.2-2.6-5.7-5.7-5.7h-17.1c-3.2,0-5.7,2.6-5.7,5.7v9.3c-6.1,0-5.7,4.8-5.7,4.8h-11v11.7h-8.2v-38.1h360.7v42.8h-6v26.3h6v184.1"/>
          <path class="st0" d="M48.9,212.2h6.2s2.9.4,2.9,2.9v6.7s0,2.8-2.8,2.8h-6.3v-12.3Z"/>
          <path class="st0" d="M31.4,293.8h350.6v-7.8h-6.3v-18.2h6.3v-47.1c-9,0-8.1-3-8.1-3v-13.7h-34v-12.3h-12.9v12.3h-47.6v-12.3h-14.4v12.3h-46.3v-12.3h-13.8v12.3h-46.1v-12.3h-13.2v12.3h-46v-12.3h-12.8v12.3h-41.5v-12.3h-14.5v19h7v15.6h-7v62.7c0,0-7.1,13-7.1,13"/>
          <polyline class="st0" points="25.1 79.2 25.4 288.9 31.1 288.9 31.1 293.8"/>
        </g>
      </g>
    </g>
    <rect class="st0" x="194.6" y="210.6" width="21.3" height="7.1"/>
    <path class="st0" d="M63.9,69.5s1-5.6-4.1-5.6h-9.7c-5.1,0-4.1,5.6-4.1,5.6"/>
    <path class="st0" d="M101.6,69.5s1-5.6-4.1-5.6h-9.7c-5.1,0-4.1,5.6-4.1,5.6"/>
    <path class="st0" d="M139.3,69.5s1-5.6-4.1-5.6h-9.7c-5.1,0-4.1,5.6-4.1,5.6"/>
    <path class="st0" d="M177,69.5s1-5.6-4.1-5.6h-9.7c-5.1,0-4.1,5.6-4.1,5.6"/>
    <path class="st0" d="M246.5,69.5s1-5.6-4.1-5.6h-9.7c-5.1,0-4.1,5.6-4.1,5.6"/>
    <path class="st0" d="M284.3,69.5s1-5.6-4.1-5.6h-9.7c-5.1,0-4.1,5.6-4.1,5.6"/>
    <path class="st0" d="M322,69.5s1-5.6-4.1-5.6h-9.7c-5.1,0-4.1,5.6-4.1,5.6"/>
    <path class="st0" d="M324.3,117.2s1,5.6-4.1,5.6h-9.7c-5.1,0-4.1-5.6-4.1-5.6"/>
    <path class="st0" d="M286.7,117.2s1,5.6-4.1,5.6h-9.7c-5.1,0-4.1-5.6-4.1-5.6"/>
    <path class="st0" d="M249.1,117.2s1,5.6-4.1,5.6h-9.7c-5.1,0-4.1-5.6-4.1-5.6"/>
    <path class="st0" d="M179.4,117.2s1,5.6-4.1,5.6h-9.7c-5.1,0-4.1-5.6-4.1-5.6"/>
    <path class="st0" d="M141.7,117.2s1,5.6-4.1,5.6h-9.7c-5.1,0-4.1-5.6-4.1-5.6"/>
    <path class="st0" d="M104.1,117.2s1,5.6-4.1,5.6h-9.7c-5.1,0-4.1-5.6-4.1-5.6"/>
    <path class="st0" d="M66.5,117.2s1,5.6-4.1,5.6h-9.7c-5.1,0-4.1-5.6-4.1-5.6"/>
    <polygon class="st0" points="69.5 239.9 69.5 226.4 55 226.4 55 239.9 62.8 239.9 62.8 230.3 66.6 230.3 66.6 239.9 69.5 239.9"/>
    <g>
      <circle class="st0" cx="189.6" cy="164.2" r="4.5"/>
      <line class="st0" x1="189.6" y1="161.8" x2="189.6" y2="166.5"/>
      <line class="st0" x1="187.2" y1="164.2" x2="191.9" y2="164.2"/>
    </g>
    <g>
      <circle class="st0" cx="231.7" cy="155.4" r="4.5"/>
      <line class="st0" x1="231.7" y1="153.1" x2="231.7" y2="157.8"/>
      <line class="st0" x1="229.3" y1="155.4" x2="234" y2="155.4"/>
    </g>
    <g>
      <circle class="st0" cx="64.7" cy="164.2" r="4.5"/>
      <line class="st0" x1="64.7" y1="161.8" x2="64.7" y2="166.5"/>
      <line class="st0" x1="62.3" y1="164.2" x2="67" y2="164.2"/>
    </g>
    <g>
      <circle class="st0" cx="277.3" cy="143.1" r="4.5"/>
      <line class="st0" x1="277.3" y1="140.8" x2="277.3" y2="145.5"/>
      <line class="st0" x1="275" y1="143.1" x2="279.7" y2="143.1"/>
    </g>
    <g>
      <path class="st0" d="M345.3,173.3c-.3-.6-.5-1.3-.5-2.1,0-2.5,2-4.5,4.5-4.5s4.5,2,4.5,4.5-.2,1.5-.6,2.2"/>
      <line class="st0" x1="349.3" y1="168.9" x2="349.3" y2="173.6"/>
      <line class="st0" x1="346.9" y1="171.2" x2="351.6" y2="171.2"/>
    </g>
    <line class="st0" x1="190.9" y1="118.7" x2="215.4" y2="118.7"/>
    <line class="st0" x1="180.4" y1="134.5" x2="224.1" y2="134.5"/>
    <polyline class="st0" points="184.3 293.5 184.3 208.2 226.6 208.2 226.6 293.5"/>
    <polyline class="st0" points="226.8 214.8 235.9 214.8 235.9 293.5"/>
    <polyline class="st0" points="175 293.5 175 214.8 184 214.8"/>
    <path class="st0" d="M218.7,203.9"/>
    <g>
      <path class="st0" d="M115.9,225.5v4.6c0,4.8-3.9,8.7-8.7,8.7s-8.7-3.9-8.7-8.7v-4.6"/>
      <rect class="st0" x="97.1" y="222.3" width="20.3" height="3"/>
    </g>
    <g>
      <path class="st0" d="M125.4,266.4v4.6c0,4.8-3.9,8.7-8.7,8.7s-8.7-3.9-8.7-8.7v-4.6"/>
      <rect class="st0" x="106.6" y="263.2" width="20.3" height="3"/>
    </g>
    <g>
      <path class="st0" d="M171.4,266.4v4.6c0,4.8-3.9,8.7-8.7,8.7s-8.7-3.9-8.7-8.7v-4.6"/>
      <rect class="st0" x="152.5" y="263.2" width="20.3" height="3"/>
    </g>
    <g>
      <path class="st0" d="M257.6,266.4v4.6c0,4.8-3.9,8.7-8.7,8.7s-8.7-3.9-8.7-8.7v-4.6"/>
      <rect class="st0" x="238.7" y="263.2" width="20.3" height="3"/>
    </g>
    <g>
      <path class="st0" d="M305.7,266.4v4.6c0,4.8-3.9,8.7-8.7,8.7s-8.7-3.9-8.7-8.7v-4.6"/>
      <rect class="st0" x="286.9" y="263.2" width="20.3" height="3"/>
    </g>
    <g>
      <path class="st0" d="M363.4,266.4v4.6c0,4.8-3.9,8.7-8.7,8.7s-8.7-3.9-8.7-8.7v-4.6"/>
      <rect class="st0" x="344.6" y="263.2" width="20.3" height="3"/>
    </g>
    <g>
      <path class="st0" d="M305.1,225.5v4.6c0,4.8-3.9,8.7-8.7,8.7s-8.7-3.9-8.7-8.7v-4.6"/>
      <rect class="st0" x="286.3" y="222.3" width="20.3" height="3"/>
    </g>
    <path class="st0" d="M192.9,204"/>
    <path class="st0" d="M178.7,214.6"/>
    <polyline class="st0" points="24.9 280.7 21.4 280.7 10.4 301.9"/>
    <rect class="st0" x="10.4" y="301.9" width="13.5" height="17.4"/>
    <rect class="st0" x="392.8" y="305.4" width="13.5" height="18.2"/>
    <line class="st0" x1="31.1" y1="292.3" x2="31.1" y2="304.9"/>
    <polygon class="st0" points="382 293.6 382 306.6 392.8 323.5 392.8 305.4 382 293.6"/>
    <polyline class="st0" points="386.2 285.6 388.9 285.6 406.4 305.4"/>
    <path class="st0" d="M385.7,293.7"/>
    <line class="st0" x1="385.7" y1="293.7" x2="382" y2="293.7"/>
    <line class="st0" x1="191.1" y1="204.2" x2="191.1" y2="208"/>
    <line class="st0" x1="220.5" y1="208" x2="220.5" y2="204.2"/>
    <path class="st8" d="M214.6,306.7s-1,2.2-2.2,2.2h-13.8c-1.2,0-2.2-1-2.2-2.2h0s18.3,0,18.3,0Z"/>
    <path class="st8" d="M55.4,45.4s1-2.2,2.2-2.2h13.8c1.2,0,2.2,1,2.2,2.2h0s-18.3,0-18.3,0Z"/>
    <polyline class="st0" points="38.1 293.8 38.1 275 79.2 275 79.2 293.8"/>
    <polyline class="st0" points="42.4 275 50.6 266.6 50.6 261 47.7 261 47.7 247.5 62.3 247.5 62.3 261 53.9 261 53.9 266.6 62.3 274.9"/>
    <path class="st0" d="M102.9,188.7v-9.2c0-3.2,2.9-5.7,6.4-5.7h30.3c3.5,0,6.4,2.6,6.4,5.7v9.2"/>
    <path class="st0" d="M164.7,188.7v-9.2c0-3.2,2.6-5.7,5.7-5.7h27.2c3.2,0,5.7,2.6,5.7,5.7v9.3"/>
    <path class="st0" d="M222.9,188.9v-9.4c0-3.2,2.8-5.7,6.3-5.7h29.9c3.5,0,6.3,2.6,6.3,5.7v9.2"/>
    <path class="st0" d="M281.8,188.8v-9.3c0-3.2,2.9-5.7,6.4-5.7h30.2c3.5,0,6.4,2.6,6.4,5.7v9.4"/>
    <path class="st0" d="M341.6,188.8v-9.3c0-3.2,2.6-5.7,5.7-5.7h27.2c3.2,0,5.7,2.6,5.7,5.7v9.2"/>
    <line class="st0" x1="30.3" y1="188.8" x2="383.4" y2="188.8"/>
    <polyline class="st0" points="151.1 188.6 151.1 179.2 159.5 179.2 159.5 188.6"/>
    <polyline class="st0" points="208.9 188.6 208.9 179.2 217.3 179.2 217.3 188.6"/>
    <polyline class="st0" points="328.9 188.6 328.9 179.2 337.3 179.2 337.3 188.6"/>
    <polyline class="st0" points="92.2 188.8 92.2 182.5 98.7 182.5 98.7 188.8"/>
    <polyline class="st0" points="270.4 188.7 270.4 182.5 277 182.5 277 188.7"/>
    <rect class="st0" x="191.5" y="77.5" width="23.3" height="20.5" rx="7.2" ry="7.2"/>
    <polyline class="st0" points="198.4 118.6 198.4 100.5 207.8 100.5 207.8 118.6"/>
  </g>
  <g id="Layer_3">
    <g>
      <g>
        <line class="st6" x1="54.8" y1="61.9" x2="54.8" y2="33.5"/>
        <line class="st3" x1="54.8" y1="61.9" x2="54.8" y2="33.5"/>
        <line class="st2" x1="54.8" y1="61.9" x2="54.8" y2="33.5"/>
      </g>
      <g>
        <line class="st6" x1="92.5" y1="61.9" x2="92.5" y2="33.5"/>
        <line class="st3" x1="92.5" y1="61.9" x2="92.5" y2="33.5"/>
        <line class="st2" x1="92.5" y1="61.9" x2="92.5" y2="33.5"/>
      </g>
      <g>
        <line class="st6" x1="130.6" y1="61.9" x2="130.6" y2="33.5"/>
        <line class="st3" x1="130.6" y1="61.9" x2="130.6" y2="33.5"/>
        <line class="st2" x1="130.6" y1="61.9" x2="130.6" y2="33.5"/>
      </g>
      <g>
        <line class="st6" x1="168.2" y1="61.9" x2="168.2" y2="33.5"/>
        <line class="st3" x1="168.2" y1="61.9" x2="168.2" y2="33.5"/>
        <line class="st2" x1="168.2" y1="61.9" x2="168.2" y2="33.5"/>
      </g>
      <g>
        <line class="st6" x1="237.6" y1="61.9" x2="237.6" y2="33.5"/>
        <line class="st3" x1="237.6" y1="61.9" x2="237.6" y2="33.5"/>
        <line class="st2" x1="237.6" y1="61.9" x2="237.6" y2="33.5"/>
      </g>
      <g>
        <line class="st6" x1="275.3" y1="61.9" x2="275.3" y2="33.5"/>
        <line class="st3" x1="275.3" y1="61.9" x2="275.3" y2="33.5"/>
        <line class="st2" x1="275.3" y1="61.9" x2="275.3" y2="33.5"/>
      </g>
      <g>
        <line class="st6" x1="312.9" y1="61.9" x2="312.9" y2="33.5"/>
        <line class="st3" x1="312.9" y1="61.9" x2="312.9" y2="33.5"/>
        <line class="st2" x1="312.9" y1="61.9" x2="312.9" y2="33.5"/>
      </g>
    </g>
    <g>
      <path class="st7" d="M66.2,19.9c0,6.1-5,11-11.2,11s-11.2-4.9-11.2-11,5-11,11.2-11,11.2,4.9,11.2,11"/>
      <text class="st5" transform="translate(50.1 25.5)"><tspan x="0" y="0">1</tspan></text>
    </g>
    <g>
      <path class="st7" d="M103.6,19.9c0,6.1-5,11-11.2,11s-11.2-4.9-11.2-11,5-11,11.2-11,11.2,4.9,11.2,11"/>
      <text class="st5" transform="translate(87.8 25.5)"><tspan x="0" y="0">2</tspan></text>
    </g>
    <g>
      <path class="st7" d="M141.8,19.9c0,6.1-5,11-11.2,11s-11.2-4.9-11.2-11,5-11,11.2-11,11.2,4.9,11.2,11"/>
      <text class="st5" transform="translate(125.8 25.5)"><tspan x="0" y="0">3</tspan></text>
    </g>
    <g>
      <path class="st7" d="M179.7,19.9c0,6.1-5,11-11.2,11s-11.2-4.9-11.2-11,5-11,11.2-11,11.2,4.9,11.2,11"/>
      <text class="st5" transform="translate(163.6 25.5)"><tspan x="0" y="0">4</tspan></text>
    </g>
    <g>
      <path class="st7" d="M248.9,19.9c0,6.1-5,11-11.2,11s-11.2-4.9-11.2-11,5-11,11.2-11,11.2,4.9,11.2,11"/>
      <text class="st5" transform="translate(232.7 25.5)"><tspan x="0" y="0">5</tspan></text>
    </g>
    <g>
      <path class="st7" d="M286.3,19.9c0,6.1-5,11-11.2,11s-11.2-4.9-11.2-11,5-11,11.2-11,11.2,4.9,11.2,11"/>
      <text class="st5" transform="translate(270.5 25.5)"><tspan x="0" y="0">6</tspan></text>
    </g>
    <g>
      <path class="st7" d="M324.4,19.9c0,6.1-5,11-11.2,11s-11.2-4.9-11.2-11,5-11,11.2-11,11.2,4.9,11.2,11"/>
      <text class="st5" transform="translate(308.7 25.5)"><tspan x="0" y="0">7</tspan></text>
    </g>
  </g>
</svg>