<?xml version="1.0" encoding="UTF-8"?><svg xmlns="http://www.w3.org/2000/svg" width="6.037in" height="2.578in" xmlns:xlink="http://www.w3.org/1999/xlink" viewBox="0 0 434.631 185.598"><defs><clipPath id="c"><rect x="10.099" y="-14.363" width="416.394" height="210.509" fill="none"/></clipPath><clipPath id="e"><polygon points="71.691 160.506 124.364 160.506 124.364 114.54 71.691 106.65 71.691 160.506" fill="none"/></clipPath></defs><g id="a"><polygon points="144.887 161.371 13.244 175.718 8.993 139.732 144.887 161.371" fill="#ccc"/><polygon points="121.129 157.645 24.323 142.184 57.875 128.283 154.681 143.743 121.129 157.645" fill="#ccc"/><polygon points="52.534 128.605 60.319 140.736 65.027 140.314 66.536 139.65 66.475 138.02 75.89 136.994 74.992 130.422 56.998 126.284 52.534 128.605" fill="#fff"/><line x1="3.578" y1="129.921" x2="141.138" y2="151.865" fill="none" stroke="#fff" stroke-miterlimit="10" stroke-width="3"/><line x1="12.415" y1="124.565" x2="149.974" y2="146.51" fill="none" stroke="#fff" stroke-miterlimit="10" stroke-width="3"/></g><g id="b"><g clip-path="url(#c)"><polyline points="135.123 52.925 374.192 9.062 479.304 9.062" fill="none" stroke="#231f20" stroke-miterlimit="10" stroke-width=".5"/><polyline points="479.109 82.635 120.027 57.528 96.964 58.988 89.082 61.031 64.559 58.988 90.604 53.664 112.053 55.569 127.034 52.857 478.817 76.212" fill="none" stroke="#231f20" stroke-miterlimit="10" stroke-width=".5"/><polyline points="121.239 67.567 58.804 81.101 187.943 93.735 239.216 75.665" fill="none" stroke="#231f20" stroke-linecap="round" stroke-linejoin="round" stroke-width=".5"/><line x1="63.995" y1="58.988" x2="65.286" y2="79.133" fill="none" stroke="#231f20" stroke-miterlimit="10" stroke-width=".5"/><line x1="89.318" y1="61.396" x2="90.135" y2="74.123" fill="none" stroke="#231f20" stroke-miterlimit="10" stroke-width=".5"/><path d="M98.454,68.796l22.55-1.97,3.722.219s1.97.219,1.97-2.116l-.146-6.714" fill="none" stroke="#231f20" stroke-miterlimit="10" stroke-width=".5"/><line x1="97.578" y1="59.163" x2="98.381" y2="72.372" fill="none" stroke="#231f20" stroke-miterlimit="10" stroke-width=".5"/><line x1="120.42" y1="57.703" x2="120.639" y2="66.825" fill="none" stroke="#231f20" stroke-miterlimit="10" stroke-width=".5"/><path d="M187.943,93.735v5.329l-6.22,2.05s-2.443.888-2.443,4.887l.333,25.321s-.777,3.554,4.331,2.999v-1.111l5.775-2.554s1.222.555.222,1.666l47.644-23.322" fill="none" stroke="#231f20" stroke-miterlimit="10" stroke-width=".5"/><path d="M179.129,102.182l-7.151,2.747s-2.557,1.421-2.557,5.825" fill="none" stroke="#231f20" stroke-miterlimit="10" stroke-width=".5"/><line x1="168.995" y1="141.631" x2="183.391" y2="134.575" fill="none" stroke="#231f20" stroke-miterlimit="10" stroke-width=".5"/><line x1="159.488" y1="105.244" x2="28.424" y2="90.079" fill="none" stroke="#231f20" stroke-miterlimit="10" stroke-width=".5"/><path d="M53.656,97.823s-.516-1.936,1.807-2.323l22.457,2.581s1.226,1.162-.645,2.323c0,0-2.259,3.033-5.033,3.614l-7.873-.903-10.712-5.292Z" fill="none" stroke="#231f20" stroke-miterlimit="10" stroke-width=".5"/><path d="M59.593,96.726s5.033,4.13,9.293,4.775l6.195.645" fill="none" stroke="#231f20" stroke-miterlimit="10" stroke-width=".5"/><polyline points="41.621 94.421 43.805 116.534 46.99 122.357 48.537 121.993 60.185 140.466 59.017 124.952 65.206 124.027 65.38 126.167 63.876 126.398 64.975 138.314 66.363 137.677 66.394 139.502 65.028 140.067 60.401 140.472" fill="none" stroke="#231f20" stroke-linecap="round" stroke-linejoin="round" stroke-width=".5"/><polyline points="58.456 124.723 57.364 124.086 47.627 110.255 44.806 102.338 45.443 96.787 43.714 94.512" fill="none" stroke="#231f20" stroke-miterlimit="10" stroke-width=".5"/><polyline points="65.81 123.924 74.425 122.787 75.78 136.999 66.729 137.83" fill="none" stroke="#231f20" stroke-miterlimit="10" stroke-width=".5"/><path d="M74.118,124.803l-5.19.657.816.68.521,9.994s2.584.408,5.213-.657" fill="none" stroke="#231f20" stroke-miterlimit="10" stroke-width=".5"/><polyline points="74.407 127.543 71.863 127.913 71.955 129.81 74.777 129.393" fill="none" stroke="#231f20" stroke-miterlimit="10" stroke-width=".5"/><polyline points="74.777 131.475 72.233 131.845 72.325 133.741 75.147 133.325" fill="none" stroke="#231f20" stroke-miterlimit="10" stroke-width=".5"/><path d="M60.67,104.417l1.734,3.816,7.979,9.366s-.139.902-2.151,1.179l-3.538.555.902,1.873,5.065-.694v-1.11l52.311,7.562" fill="none" stroke="#231f20" stroke-miterlimit="10" stroke-width=".5"/><path d="M83.287,98.867l11.794,1.526,3.053,1.249.902,2.081,2.289,2.636s.763,1.596-1.11,1.526l-23.381-2.845-.902-1.457,2.359-2.428s.347-1.249,4.995-2.289Z" fill="none" stroke="#231f20" stroke-miterlimit="10" stroke-width=".5"/><polyline points="99.938 105.319 81.136 103.03 76.766 104.001" fill="none" stroke="#231f20" stroke-miterlimit="10" stroke-width=".5"/><path d="M99.938,101.989s.486-1.179,2.081-1.041l24.005,2.845s1.249.278,1.249,1.11c0,0-.694,1.734-2.567,2.081l-10.268,2.775-7.215-.833s-7.632-3.053-7.285-6.938Z" fill="none" stroke="#231f20" stroke-miterlimit="10" stroke-width=".5"/><polyline points="105.141 101.781 109.582 106.498 120.127 107.817" fill="none" stroke="#231f20" stroke-miterlimit="10" stroke-width=".5"/><polyline points="35.171 88.636 45.494 86.219 48.172 86.35 57.987 84.251 182.895 97.058 182.875 99.415" fill="none" stroke="#231f20" stroke-miterlimit="10" stroke-width=".5"/><line x1="58.804" y1="81.101" x2="58.804" y2="84.063" fill="none" stroke="#231f20" stroke-miterlimit="10" stroke-width=".5"/><path d="M123.61,130.273l-1.078-18.159,9.59-3.632,8.455-1.362,19.237,2.156.899,33.09-18.593-2.845s-6.799-2.22-9.019-2.567-6.452-3.885-9.019-5.065-9.227-3.677-9.227-3.677l-39.199-5.62-.694.069" fill="none" stroke="#231f20" stroke-miterlimit="10" stroke-width=".5"/><ellipse cx="140.668" cy="122.967" rx="12.867" ry="14.201" transform="translate(-28.882 44.472) rotate(-16.317)" fill="none" stroke="#231f20" stroke-miterlimit="10" stroke-width=".5"/><path d="M147.006,135.534c-6.431,1.125-12.99-3.256-15.056-10.313-1.849-6.315.488-12.767,5.317-15.86" fill="none" stroke="#231f20" stroke-miterlimit="10" stroke-width=".5"/><path d="M152.229,129.841c-.503.263-1.038.481-1.601.645-.317.093-.635.167-.954.223-4.783.837-9.66-2.422-11.197-7.67-1.375-4.697.363-9.495,3.954-11.795.689-.441,1.446-.791,2.263-1.03" fill="none" stroke="#231f20" stroke-miterlimit="10" stroke-width=".5"/><path d="M43.641,117.082l-4.121.979-.571,1.755s1.143,1.143,7.386,1.591" fill="none" stroke="#231f20" stroke-miterlimit="10" stroke-width=".5"/><path d="M38.949,119.816l.041,1.551s.939.857,7.59,1.632" fill="none" stroke="#231f20" stroke-miterlimit="10" stroke-width=".5"/><path d="M38.418,120.959l-2.571-.53s-.979-.286-2.081.245l-3.428,1.224s-1.265.49.735.735,15.71,2.448,15.71,2.448l3.836.041" fill="none" stroke="#231f20" stroke-miterlimit="10" stroke-width=".5"/><path d="M50.619,126.794l-3.836-.041s-13.711-2.204-15.71-2.448c-.875-.107-1.125-.261-1.129-.4v-1.73" fill="none" stroke="#231f20" stroke-miterlimit="10" stroke-width=".5"/><path d="M75.689,131.05l86.37,13.42,4.688-2.62s2.68.536,2.68-1.761l-.776-32.78s.129-3.549-2.646-3.549l-5.485,1.613-.774,2.388-19.876-2-9.873,1.936s-7.228,2.388-10.583,3.42-6.389.387-6.389.387c0,0-42.914-5.614-47.56-6.066s-11.229-4.775-12.519-5.808-8.454-5.292-8.454-5.292l-17.746-1.871.903-2.581,4.388-1.226,132.097,15.036" fill="none" stroke="#231f20" stroke-miterlimit="10" stroke-width=".5"/><line x1="165.966" y1="104.327" x2="167.037" y2="141.526" fill="none" stroke="#231f20" stroke-miterlimit="10" stroke-width=".5"/><path d="M101.31,132.52s3.621-3.573,6.759-3.38l7.001,1.014,13.084,6.518s1.4,1.11-.193,1.11l-24.769-3.669-1.883-1.593Z" fill="none" stroke="#231f20" stroke-miterlimit="10" stroke-width=".5"/><path d="M75.093,125.036l3.814,3.573s.917.917,1.448,1.014c0,0,.773.821.386,1.159l-5.214-.869" fill="none" stroke="#231f20" stroke-miterlimit="10" stroke-width=".5"/><path d="M77.749,125.712s-.724-1.593.821-1.497l5.89.869s1.062.531.724,1.255l-.917,3.138s-3.138.145-6.518-3.766Z" fill="none" stroke="#231f20" stroke-miterlimit="10" stroke-width=".5"/><path d="M94.937,128.174s-.386-1.448.966-1.352,6.035.869,6.035.869c0,0,1.545.676.579,1.786,0,0-1.98,2.8-6.084,1.448l-1.497-2.752Z" fill="none" stroke="#231f20" stroke-miterlimit="10" stroke-width=".5"/><polyline points="102.959 133.573 107.802 130.589 119.054 132.204" fill="none" stroke="#231f20" stroke-miterlimit="10" stroke-width=".5"/><line x1="108.07" y1="129.14" x2="107.802" y2="130.589" fill="none" stroke="#231f20" stroke-miterlimit="10" stroke-width=".5"/><line x1="159.177" y1="68.978" x2="479.58" y2="94.185" fill="none" stroke="#231f20" stroke-miterlimit="10" stroke-width=".5"/><polyline points="126.72 66.446 130.47 66.731 130.483 63.962 131.493 62.199 133.44 62.272 134.872 64.494 134.797 67.071 137.411 67.277 137.411 64.641 138.472 62.676 140.548 62.731 141.76 65.156 141.732 67.617 144.343 67.822 144.343 65.342 145.508 63.14 147.71 63.293 149.055 65.831 149.033 68.191 151.563 68.39 151.563 66.076 152.663 63.63 154.712 63.721 156.118 66.106 156.204 68.755 158.938 68.97 158.782 60.572" fill="none" stroke="#231f20" stroke-miterlimit="10" stroke-width=".5"/><line x1="237.726" y1="78.008" x2="237.172" y2="145.076" fill="none" stroke="#231f20" stroke-miterlimit="10" stroke-width=".5"/><polyline points="238.835 145.187 239.389 78.118 244.684 76.137" fill="none" stroke="#231f20" stroke-miterlimit="10" stroke-width=".5"/><line x1="172.908" y1="141.019" x2="479.588" y2="186.529" fill="none" stroke="#231f20" stroke-miterlimit="10" stroke-width=".5"/><line x1="173.639" y1="139.601" x2="479.588" y2="184.699" fill="none" stroke="#231f20" stroke-miterlimit="10" stroke-width=".5"/><line x1="239.184" y1="146.03" x2="178.334" y2="137.326" fill="none" stroke="#231f20" stroke-miterlimit="10" stroke-width=".5"/><line x1="479.131" y1="180.354" x2="381.405" y2="166.681" fill="none" stroke="#231f20" stroke-miterlimit="10" stroke-width=".5"/><path d="M182.756,136.219s3.452-2.83,7.527-2.434l4.075.396,10.074,4.697s1.754,1.245.283,1.188l-20.94-2.943-1.019-.905Z" fill="none" stroke="#231f20" stroke-miterlimit="10" stroke-width=".5"/><path d="M191.585,132.54s6.056.736,8.772,2.151,7.357,4.641,9.734,5.093,5.433,1.358,5.433,1.358l16.186,2.377" fill="none" stroke="#231f20" stroke-miterlimit="10" stroke-width=".5"/><line x1="201.545" y1="126.768" x2="201.545" y2="134.691" fill="none" stroke="#231f20" stroke-miterlimit="10" stroke-width=".5"/><line x1="228.484" y1="113.751" x2="234.822" y2="114.487" fill="none" stroke="#231f20" stroke-miterlimit="10" stroke-width=".5"/><line x1="226.277" y1="114.996" x2="232.219" y2="115.732" fill="none" stroke="#231f20" stroke-miterlimit="10" stroke-width=".5"/><polyline points="222.145 116.751 231.88 117.713 232.955 115.732 237.313 113.864" fill="none" stroke="#231f20" stroke-miterlimit="10" stroke-width=".5"/><line x1="231.766" y1="143.18" x2="231.88" y2="117.713" fill="none" stroke="#231f20" stroke-miterlimit="10" stroke-width=".5"/><path d="M217.393,119.107c.77.123,1.542.326,2.304.615,5.651,2.139,8.612,8.15,6.615,13.426-1.997,5.276-8.197,7.819-13.847,5.681s-8.612-8.15-6.615-13.426c.057-.151.118-.299.181-.446" fill="none" stroke="#231f20" stroke-miterlimit="10" stroke-width=".5"/><ellipse cx="215.082" cy="129.368" rx="7.499" ry="8.401" transform="translate(-35.526 143.224) rotate(-34.191)" fill="none" stroke="#231f20" stroke-miterlimit="10" stroke-width=".5"/><path d="M226.713,131.031l-7.539,5.746" fill="none" stroke="#231f20" stroke-miterlimit="10" stroke-width=".5"/><line x1="250.456" y1="76.313" x2="244.148" y2="78.76" fill="none" stroke="#231f20" stroke-miterlimit="10" stroke-width=".5"/><path d="M386.566,94.643l-21.229-1.79s-4.86.448-9.272,1.599c0,0-11.957,3.773-15.538,3.773l-55.885-4.668s-9.463-1.215-16.689-6.586l-8.185-3.389-19.265-1.559.381-2.066,1.903-.924,146.044,12s2.867-.061,2.867,1.952l-2.399,29.059s.089,3.106-3.017,3.106" fill="none" stroke="#231f20" stroke-miterlimit="10" stroke-width=".5"/><path d="M271.215,86.779s-.895-2.302,1.535-2.174l24.809,2.11s2.302,1.215-.32,2.302c0,0-3.837,2.686-6.074,2.941l-8.248-.575-11.701-4.604Z" fill="none" stroke="#231f20" stroke-miterlimit="10" stroke-width=".5"/><path d="M295.64,91.638l4.348-3.261,3.453-.959,13.172.959,3.325,1.087,4.156,4.412s.639,1.279-1.151,1.407l-26.472-2.494s-1.087-.064-.831-1.151Z" fill="none" stroke="#231f20" stroke-miterlimit="10" stroke-width=".5"/><path d="M323.583,88.889l27.495,2.494s2.238,1.023.448,2.046l-13.492,3.069-8.952-.831s-4.54-1.279-6.906-5.051c0,0-.128-1.662,1.407-1.726Z" fill="none" stroke="#231f20" stroke-miterlimit="10" stroke-width=".5"/><line x1="297.559" y1="90.935" x2="323.519" y2="93.492" fill="none" stroke="#231f20" stroke-miterlimit="10" stroke-width=".5"/><path d="M323.583,88.889l5.179,4.284s2.494,1.215,4.092,1.279,7.993,1.662,15.346-1.343l3.261-1.215" fill="none" stroke="#231f20" stroke-miterlimit="10" stroke-width=".5"/><path d="M271.636,84.971l5.468,1.458.073.583s3.864,2.698,7.874,2.989l9.187.62" fill="none" stroke="#231f20" stroke-miterlimit="10" stroke-width=".5"/><path d="M240.362,84.602l-.244,21.899s-.325.894,1.381,1.056,18.283,2.113,18.283,2.113c0,0,4.144.081,7.435-.65s15.764-3.332,15.764-3.332l53.058,5.44,6.162,1.433s.86.43,1.935-.86l.585-12.922-1.242,1.288-7.086.23-53.185-4.851-14.015-5.39-4.412-3.035-4.691-1.297-19.111-1.647s-.586.101-.618.525Z" fill="none" stroke="#231f20" stroke-miterlimit="10" stroke-width=".5"/><polyline points="240.699 83.847 241.91 83.087 242.94 82.583" fill="none" stroke="#231f20" stroke-miterlimit="10" stroke-width=".5"/><path d="M242.71,88.097l-.105,15.258s-.21,1.315,1.684,1.473l7.577.631s4.578,1.421,4.998,1.631,9.418-2.315,9.418-2.315c0,0,1.631-.947,1.842-2.736v-6.787s.158-2.262-2.736-3.63l-5.946-3.262s-1.631-1.052-3.788-.631c0,0-2.052.526-3.999.474l-7.734-.684s-1.21,0-1.21.579Z" fill="none" stroke="#231f20" stroke-miterlimit="10" stroke-width=".5"/><path d="M256.285,106.776s-1.421-.737-1.421-3.104.316-13.89.316-13.89c0,0,.316-1.736,1.631-2.157" fill="none" stroke="#231f20" stroke-miterlimit="10" stroke-width=".5"/><path d="M263.019,90.675v11.312s1.105,2.315,1.947,2.841" fill="none" stroke="#231f20" stroke-miterlimit="10" stroke-width=".5"/><path d="M269.859,111.629l12.171-2.419,8.089.907s5.443,2.646,7.03,5.216c0,0,.076.68-1.89.529s-23.586-2.57-23.586-2.57l-1.814-1.663Z" fill="none" stroke="#231f20" stroke-miterlimit="10" stroke-width=".5"/><path d="M320.433,117.676l5.14-2.873s2.268-.756,3.024-.756,7.938.907,7.938.907l12.246,4.989s1.588,1.663.605,1.739l-27.366-2.57-1.588-1.436Z" fill="none" stroke="#231f20" stroke-miterlimit="10" stroke-width=".5"/><path d="M296.167,110.268l6.728.68s1.436.832-1.058,3.402c0,0-6.728-1.058-5.67-4.082Z" fill="none" stroke="#231f20" stroke-miterlimit="10" stroke-width=".5"/><path d="M315.519,112.384l6.652.605s2.041,2.495-6.123,2.948c0,0-2.117-3.251-.529-3.553Z" fill="none" stroke="#231f20" stroke-miterlimit="10" stroke-width=".5"/><line x1="298.283" y1="115.333" x2="319.223" y2="117.525" fill="none" stroke="#231f20" stroke-miterlimit="10" stroke-width=".5"/><path d="M241.294,116.907l142.783,16.415,1.923-1.701-143.448-16.341-1.763,1.322-.308.231-.37,1.996,19.433,2.095s12.168,6.482,16.716,8.586c0,0,4.719,1.706,7.221,1.933s52.196,6.482,52.196,6.482c0,0,9.837-.512,16.716-3.014l10.121-1.706,20.412,2.445s.739-.057.967-.625l.114-1.194" fill="none" stroke="#231f20" stroke-miterlimit="10" stroke-width=".5"/><path d="M386.452,130.932s2.161,1.023,1.535,4.378l-2.388,27.918s-.227,1.194-2.559,1.308" fill="none" stroke="#231f20" stroke-miterlimit="10" stroke-width=".5"/><polyline points="385.77 132.524 382.756 165.047 381.335 166.525" fill="none" stroke="#231f20" stroke-miterlimit="10" stroke-width=".5"/><path d="M382.383,164.353l-1.583,1.257-19.556-2.701-10.011-3.027s-11.874-7.031-17.787-7.776l-52.847-7.084s-3.545-.273-6.273.477-11.455,3.205-15.818,2.25l-18.682-2.727.614,1.636,139.978,20.318" fill="none" stroke="#231f20" stroke-miterlimit="10" stroke-width=".5"/><path d="M318.826,155.845l4.07-2.418s3.505-1.249,11.08.282l12.491,5.601s1.894,1.249-.161,1.249l-26.552-3.707s-1.048-.564-.927-1.007Z" fill="none" stroke="#231f20" stroke-miterlimit="10" stroke-width=".5"/><path d="M269.278,148.771l10.841-2.052s9.157-.211,13.104,3.579l2.368,2.263s.474.789-.789.684l-24.418-3.579-1.105-.895Z" fill="none" stroke="#231f20" stroke-miterlimit="10" stroke-width=".5"/><path d="M294.776,148.232l6.008.952s1.309.327.803,1.071-1.576,2.052-2.885,1.606-2.469-.387-4.759-2.944c0,0-.178-.714.833-.684Z" fill="none" stroke="#231f20" stroke-miterlimit="10" stroke-width=".5"/><path d="M312.82,150.822l6.805.99s1.244.432.559,1.041-2.184,1.295-3.174,1.574-3.453-.305-3.453-.305l-1.27-2.514s-.102-.762.533-.787Z" fill="none" stroke="#231f20" stroke-miterlimit="10" stroke-width=".5"/><path d="M240.33,120.674l19.192,1.974,4.591,1.745,4.408,3.03,13.82,5.693,52.02,6.795,6.887-.23-.321,11.295s-.459,1.194-1.653.781l-5.601-1.745-51.61-7.052s-9.383.651-15.652,2.383c0,0-2.948.795-6.223.515-3.275-.281-19.418-2.573-19.418-2.573,0,0-.889-.468-.842-1.872l.404-20.739Z" fill="none" stroke="#231f20" stroke-miterlimit="10" stroke-width=".5"/><path d="M242.172,125.317s.281-1.404,1.778-1.31l7.486.936s2.62,0,3.837-.14,1.918-.14,2.761.14,7.627,4.445,7.627,4.445c0,0,1.872,1.45,1.778,4.351l-.281,5.334s-.515,2.106-2.433,2.761l-6.597,1.591s-2.059,0-3.369-.561-3.416-1.217-4.492-1.31-6.784-.842-6.784-.842c0,0-1.684.14-1.591-1.965l.281-13.429Z" fill="none" stroke="#231f20" stroke-miterlimit="10" stroke-width=".5"/><path d="M348.057,131.142l-25.149-2.964c-3.245-.362-2.25,1.808-2.25,1.808l5.58,5.176,9.168,1.186,13.374-2.53s2.024-2.024-.723-2.675Z" fill="none" stroke="#231f20" stroke-miterlimit="10" stroke-width=".5"/><path d="M320.714,134.447l-26.162-3.384s-.57-1.078,1.165-2.09,3.253-1.952,3.253-1.952l2.752-1.341,13.153,1.55,3.108,1.381,3.759,4.482s.691,1.333-1.028,1.353Z" fill="none" stroke="#231f20" stroke-miterlimit="10" stroke-width=".5"/><path d="M294.999,124.888l-22.993-2.71c-2.675-.072-1.229,2.458-1.229,2.458l10.41,4.699,8.76,1.133,2.952-1.061,3.759-2.675s.732-1.52-1.658-1.844Z" fill="none" stroke="#231f20" stroke-miterlimit="10" stroke-width=".5"/><path d="M274.897,122.828s2.819,3.325,5.928,4.121,12.217,1.59,12.217,1.59" fill="none" stroke="#231f20" stroke-miterlimit="10" stroke-width=".5"/><line x1="296.44" y1="129.19" x2="320.514" y2="132.226" fill="none" stroke="#231f20" stroke-miterlimit="10" stroke-width=".5"/><path d="M323.694,128.322s.795,4.048,6.289,4.916,5.928.868,5.928.868c0,0,4.988.217,9.832-1.374l3.036-.94" fill="none" stroke="#231f20" stroke-miterlimit="10" stroke-width=".5"/><path d="M344.368,138.056l10.849-2.663,7.925-.974,19.164,2.339,1.494-.26-2.404,26.375s-.325,1.169-1.689,1.104l-18.839-2.404-9.16-2.923-8.315-4.807.974-15.786Z" fill="none" stroke="#231f20" stroke-miterlimit="10" stroke-width=".5"/><ellipse cx="361.626" cy="148.012" rx="13.63" ry="12.124" fill="none" stroke="#231f20" stroke-miterlimit="10" stroke-width=".5"/><ellipse cx="361.123" cy="148.632" rx="9.862" ry="9.23" fill="none" stroke="#231f20" stroke-miterlimit="10" stroke-width=".5"/><path d="M351.305,147.791c0-5.453,4.291-9.655,10.217-9.655s10.73,4.42,10.73,9.873c0,3.927-2.726,7.047-6.334,8.637" fill="none" stroke="#231f20" stroke-miterlimit="10" stroke-width=".5"/><ellipse cx="364.658" cy="108.059" rx="13.63" ry="12.989" fill="none" stroke="#231f20" stroke-miterlimit="10" stroke-width=".5"/><ellipse cx="364.155" cy="108.724" rx="9.862" ry="9.888" fill="none" stroke="#231f20" stroke-miterlimit="10" stroke-width=".5"/><path d="M354.337,107.822c0-5.842,4.291-10.344,10.217-10.344s10.73,4.736,10.73,10.577c0,4.208-2.726,7.55-6.334,9.254" fill="none" stroke="#231f20" stroke-miterlimit="10" stroke-width=".5"/><path d="M345.913,114.414l1.097-15.775,10.562-3.429,8.093-1.372,21.193,2.058-2.391,29.221-20.888-2.236c-5.386-.751-10.935-3.199-10.935-3.199,0,0-1.031-.849-5.644-2.978s-11.796-3.725-11.796-3.725c0,0-47.097-5.144-51.088-5.41s-4.612-.089-4.612-.089c-15.965,4.79-18.537,3.991-18.537,3.991l-21.021-2.129,1.064,1.863,143.42,15.876,1.896-2.001,2.506-34.049" fill="none" stroke="#231f20" stroke-miterlimit="10" stroke-width=".5"/><polyline points="387.012 166.693 393.218 90.643 395.657 87.705" fill="none" stroke="#231f20" stroke-miterlimit="10" stroke-width=".5"/><polyline points="389.257 167.089 395.463 91.039 398.121 87.936" fill="none" stroke="#231f20" stroke-miterlimit="10" stroke-width=".5"/><path d="M390.304,125.063l-1.89,2.961s-1.827,1.449-4.474,1.134l-4.915-.567-.756.567s-.477.477-4.176.119-125.283-14.437-125.283-14.437l-1.175-1.346-6.223-.75s-.207-.403-.402-1.54" fill="none" stroke="#231f20" stroke-miterlimit="10" stroke-width=".5"/><path d="M586.043,110.25l-27.354-2.092s-6.348.516-12.188,1.848c0,0-15.891,4.368-20.535,4.366l-72.015-5.454s-12.152-1.416-20.98-7.652l-10.273-3.937-24.83-1.822.703-2.397,2.562-1.071,188.215,14.023s3.725-.069,3.521,2.267l-6.051,33.712s-.199,3.603-4.227,3.601" fill="none" stroke="#231f20" stroke-miterlimit="10" stroke-width=".5"/><path d="M397.422,98.499l-2.531,25.406s-.512,1.037,1.685,1.226,23.501,2.464,23.501,2.464c0,0,5.367.097,9.71-.749s20.784-3.854,20.784-3.854l68.27,6.348,7.848,1.667s1.072.499,2.596-.996l2.066-14.991-1.742,1.494-9.214.262-68.494-5.665-17.633-6.263-5.416-3.524-5.953-1.508-24.622-1.924s-.771.117-.854.608Z" fill="none" stroke="#231f20" stroke-miterlimit="10" stroke-width=".5"/><polyline points="397.936 97.623 399.583 96.743 400.971 96.158" fill="none" stroke="#231f20" stroke-miterlimit="10" stroke-width=".5"/><path d="M400.114,102.555l-1.68,17.702s-.406,1.526,2.035,1.71c2.441.184,9.764.738,9.764.738,0,0,5.794,1.651,6.318,1.896s12.45-2.679,12.45-2.679c0,0,2.211-1.098,2.665-3.173l.687-7.875s.434-2.625-3.182-4.214l-7.382-3.789s-2.009-1.222-4.85-.735c0,0-2.715.609-5.235.547l-9.963-.799s-1.57,0-1.628.671Z" fill="none" stroke="#231f20" stroke-miterlimit="10" stroke-width=".5"/><path d="M415.832,124.235s-1.768-.856-1.529-3.603,1.814-16.115,1.814-16.115c0,0,.585-2.014,2.334-2.502" fill="none" stroke="#231f20" stroke-miterlimit="10" stroke-width=".5"/><path d="M426.196,105.561l-1.144,13.124s1.199,2.687,2.238,3.298" fill="none" stroke="#231f20" stroke-miterlimit="10" stroke-width=".5"/><path d="M432.949,129.875l16.031-2.798,10.4,1.058s6.792,3.073,8.591,6.056c0,0,.029.789-2.505.613-2.534-.177-30.332-2.998-30.332-2.998l-2.185-1.931Z" fill="none" stroke="#231f20" stroke-miterlimit="10" stroke-width=".5"/><path d="M395.363,135.978l183.539,19.144,2.666-1.972-184.409-19.058-2.42,1.533-.422.267-.681,2.316,24.994,2.444s6.602,1.648,20.214,9.254c0,0,6.548,2.7,9.77,2.966,3.222.266,67.046,7.556,67.046,7.556,0,0,12.81-.587,21.987-3.485l13.3-1.972,26.229,2.851s.964-.065,1.317-.725l.268-1.385" fill="none" stroke="#231f20" stroke-miterlimit="10" stroke-width=".5"/><path d="M429.615,148.198l17.349,6.615,66.786,7.92,8.956-.262-1.559,13.103s-.716,1.385-2.223.904l-7.089-2.028-63.484-8.829s-14.413.098-22.721,2.102c0,0-3.904.921-8.124.593s-24.92-3.664-24.92-3.664c0,0-1.106-.543-.903-2.172l2.124-22.475,24.618,2.646s5.972,1.926,11.189,5.546Z" fill="none" stroke="#231f20" stroke-miterlimit="10" stroke-width=".5"/><path d="M396.284,145.036s.515-1.628,2.483-1.519l9.79,1.091s3.46.002,5.081-.16,2.548-.162,3.631.165,9.614,5.162,9.614,5.162c0,0,2.322,1.684,1.9,5.05l-.92,6.188s-.896,2.442-3.497,3.201l-8.876,1.841s-2.719-.001-4.391-.654-4.385-1.414-5.797-1.523-8.872-.982-8.872-.982c0,0-2.239.162-1.898-2.281l1.754-15.579Z" fill="none" stroke="#231f20" stroke-miterlimit="10" stroke-width=".5"/><path d="M464.215,145.275l-29.55-3.16c-3.462-.086-1.843,2.851-1.843,2.851l13.027,5.459,11.247,1.32,3.936-1.228,5.147-3.101s1.103-1.762-1.965-2.141Z" fill="none" stroke="#231f20" stroke-miterlimit="10" stroke-width=".5"/><path d="M531.314,133.159l3.019-18.3,14.047-3.971,10.636-1.586,27.28,2.402-6.057,33.899-26.867-2.609c-6.91-.875-13.86-3.719-13.86-3.719,0,0-1.252-.986-7.019-3.459-5.767-2.473-14.924-4.33-14.924-4.33,0,0-60.568-6.001-65.718-6.312s-5.973-.106-5.973-.106c-21.192,5.546-24.448,4.618-24.448,4.618l-27.05-2.484,1.192,2.162,184.42,18.519,2.661-2.32,6.694-39.5" fill="none" stroke="#231f20" stroke-miterlimit="10" stroke-width=".5"/><path d="M587.815,145.544l-2.751,3.434s-2.517,1.68-5.917,1.313l-6.317-.661-1.038.657s-.667.553-5.429.136-161.04-16.837-161.04-16.837l-1.388-1.562-7.996-.875s-.228-.467-.365-1.787" fill="none" stroke="#231f20" stroke-miterlimit="10" stroke-width=".5"/><polyline points="266.741 76.956 266.756 74.187 267.865 72.424 270.003 72.497 271.577 74.72 271.495 77.297" fill="none" stroke="#231f20" stroke-miterlimit="10" stroke-width=".5"/><polyline points="275.656 77.856 275.67 75.086 276.78 73.323 278.918 73.397 280.491 75.619 280.409 78.196" fill="none" stroke="#231f20" stroke-miterlimit="10" stroke-width=".5"/><polyline points="284.766 78.403 284.78 75.634 285.89 73.87 288.072 74.016 289.601 76.166 289.519 78.743" fill="none" stroke="#231f20" stroke-miterlimit="10" stroke-width=".5"/><polyline points="294.043 79.289 294.057 76.52 295.225 74.699 297.305 74.83 298.878 77.052 298.796 79.629" fill="none" stroke="#231f20" stroke-miterlimit="10" stroke-width=".5"/><polyline points="303.422 79.912 303.436 77.143 304.842 75.322 306.921 75.453 308.91 77.705 308.828 80.282" fill="none" stroke="#231f20" stroke-miterlimit="10" stroke-width=".5"/><polyline points="313.06 80.698 313.074 77.929 314.48 76.108 316.559 76.239 318.548 78.491 318.466 81.068" fill="none" stroke="#231f20" stroke-miterlimit="10" stroke-width=".5"/><polyline points="322.913 81.578 322.927 78.809 324.333 76.988 326.413 77.119 328.402 79.371 328.319 81.948" fill="none" stroke="#231f20" stroke-miterlimit="10" stroke-width=".5"/><polyline points="332.767 82.37 332.781 79.601 334.187 77.78 336.266 77.911 338.255 80.163 338.173 82.74" fill="none" stroke="#231f20" stroke-miterlimit="10" stroke-width=".5"/><polyline points="342.973 82.986 342.987 80.217 344.393 78.396 346.472 78.527 348.461 80.779 348.379 83.356" fill="none" stroke="#231f20" stroke-miterlimit="10" stroke-width=".5"/><polyline points="353.09 83.866 353.105 81.096 354.601 79.275 356.814 79.407 358.93 81.659 358.843 84.236" fill="none" stroke="#231f20" stroke-miterlimit="10" stroke-width=".5"/><polyline points="363.56 84.569 363.575 81.8 365.048 79.979 367.227 80.11 369.312 82.362 369.226 84.939" fill="none" stroke="#231f20" stroke-miterlimit="10" stroke-width=".5"/><polyline points="374.381 85.625 374.396 82.856 375.87 81.035 378.049 81.166 380.134 83.418 380.047 85.995" fill="none" stroke="#231f20" stroke-miterlimit="10" stroke-width=".5"/><polyline points="385.115 86.417 385.13 83.648 386.672 81.827 388.951 81.958 391.131 84.21 391.041 86.787" fill="none" stroke="#231f20" stroke-miterlimit="10" stroke-width=".5"/><polyline points="396.151 87.259 396.166 84.49 397.707 82.669 399.987 82.8 402.167 85.052 402.077 87.629" fill="none" stroke="#231f20" stroke-miterlimit="10" stroke-width=".5"/><polyline points="407.657 87.938 407.672 85.169 409.213 83.348 411.493 83.479 413.673 85.731 413.583 88.308" fill="none" stroke="#231f20" stroke-miterlimit="10" stroke-width=".5"/><polyline points="418.732 88.957 418.748 86.188 420.714 84.367 422.993 84.498 425.014 86.75 424.924 89.327" fill="none" stroke="#231f20" stroke-miterlimit="10" stroke-width=".5"/><polyline points="430.561 89.863 430.576 87.093 432.117 85.272 434.397 85.404 436.577 87.656 436.487 90.233" fill="none" stroke="#231f20" stroke-miterlimit="10" stroke-width=".5"/><path d="M431.042,171.524l14.978-1.872s9.829.585,12.404,2.106,6.202,3.979,6.319,5.383l-33.233-4.564s-1.755-.936-.468-1.053Z" fill="none" stroke="#231f20" stroke-miterlimit="10" stroke-width=".5"/><path d="M391.861,165.061l-.65,1.477,25.044,3.78,10.396-.059s13.644-2.658,20.023-2.835l32.9,4.843" fill="none" stroke="#231f20" stroke-miterlimit="10" stroke-width=".5"/><line x1="262.314" y1="76.928" x2="262.54" y2="67.661" fill="none" stroke="#231f20" stroke-miterlimit="10" stroke-width=".5"/><path d="M254.057,74.601l-9.23-.681c-.792-.058-1.44-.721-1.44-1.471v-1.208c0-.751.648-1.317,1.44-1.259l9.23.681c.792.058,1.44.721,1.44,1.471v1.208c0,.751-.648,1.317-1.44,1.259Z" fill="none" stroke="#231f20" stroke-miterlimit="10" stroke-width=".5"/><path d="M237.468,73.177l-9.38-.676c-.805-.058-1.463-.715-1.463-1.461v-1.2c0-.745.659-1.308,1.463-1.25l9.38.676c.805.058,1.463.715,1.463,1.461v1.2c0,.745-.659,1.308-1.463,1.25Z" fill="none" stroke="#231f20" stroke-miterlimit="10" stroke-width=".5"/><path d="M217.637,71.512l-13.026-.935c-1.118-.08-2.02-.746-2.005-1.479l.024-1.18c.015-.733.942-1.267,2.06-1.187l13.026.935c1.118.08,2.02.746,2.005,1.479l-.024,1.18c-.015.733-.942,1.267-2.06,1.187Z" fill="none" stroke="#231f20" stroke-miterlimit="10" stroke-width=".5"/><path d="M178.511,68.507l-11.955-.904c-1.026-.078-1.853-.734-1.838-1.458l.024-1.166c.015-.724.867-1.253,1.892-1.176l11.955.904c1.026.078,1.853.734,1.838,1.458l-.024,1.166c-.015.724-.867,1.253-1.892,1.176Z" fill="none" stroke="#231f20" stroke-miterlimit="10" stroke-width=".5"/></g><path d="M174.701,146.994c0,7.593-6.246,13.745-13.95,13.745s-13.953-6.152-13.953-13.745,6.246-13.755,13.953-13.755,13.95,6.159,13.95,13.755" fill="#221f1f" stroke="#fff" stroke-miterlimit="10" stroke-width="1.5"/><rect x="146.749" y="139" width="27.228" height="24.791" fill="none"/><path d="M162.348,154.035h-1.846v-11.761c-.444.424-1.027.848-1.749,1.271s-1.369.742-1.943.954v-1.784c1.032-.485,1.935-1.073,2.707-1.764s1.319-1.36,1.641-2.01h1.189v15.093Z" fill="#fff"/><path d="M111.445,104.84c0,7.593-6.246,13.745-13.95,13.745s-13.953-6.152-13.953-13.745,6.246-13.755,13.953-13.755,13.95,6.159,13.95,13.755" fill="#221f1f" stroke="#fff" stroke-miterlimit="10" stroke-width="1.5"/><rect x="83.494" y="96.846" width="27.228" height="24.791" fill="none"/><path d="M101.84,110.107v1.774h-9.936c-.014-.444.058-.872.215-1.282.253-.677.658-1.343,1.215-2,.557-.656,1.362-1.415,2.415-2.276,1.634-1.34,2.738-2.401,3.312-3.184s.861-1.523.861-2.22c0-.731-.262-1.348-.784-1.851-.523-.502-1.205-.753-2.046-.753-.889,0-1.6.267-2.133.8s-.803,1.271-.81,2.215l-1.897-.195c.13-1.415.619-2.493,1.466-3.235.848-.741,1.986-1.112,3.415-1.112,1.442,0,2.584.4,3.425,1.2s1.261,1.791,1.261,2.974c0,.602-.123,1.193-.369,1.774s-.655,1.193-1.225,1.835c-.571.643-1.52,1.524-2.846,2.646-1.107.93-1.818,1.561-2.133,1.892s-.574.665-.779,1h7.373Z" fill="#fff"/></g><g id="d"><path d="M75.33,129.088l17.466-10.545.22,6.167s7.048-.881,10.571-3.964l11.672,2.423s-7.708,8.589-21.583,10.571l-.661,5.506-17.323-7.546-.363-2.611Z" fill="#fff"/><polyline points="144.196 126.064 119.114 132.141 125.909 133.421 100.251 152.6 114.689 154.351 138.399 135.596 145.182 136.876 144.196 126.064" fill="#231f20" stroke="#fff" stroke-linecap="round" stroke-linejoin="round" stroke-width="3"/><polyline points="144.196 126.064 119.114 132.141 125.909 133.421 100.251 152.6 114.689 154.351 138.399 135.596 145.182 136.876 144.196 126.064"/><g clip-path="url(#e)"><polygon points="91.673 120.953 92.489 136.171 76.939 129.532 91.673 120.953"/><path d="M129.601,92.638s-12.32,37.232-40.646,36.505" fill="none" stroke="#000" stroke-linejoin="round" stroke-width="5.443"/></g></g></svg>