<?xml version="1.0" encoding="UTF-8"?><svg xmlns="http://www.w3.org/2000/svg" width="7.11in" height="4.829in" xmlns:xlink="http://www.w3.org/1999/xlink" viewBox="0 0 511.939 347.656"><defs><clipPath id="c"><circle cx="211.735" cy="79.703" r="75.771" fill="none"/></clipPath></defs><g id="a"><path d="M484.312,230.268l-174.359-93c-.651-1.54,1.658-1.421,1.658-1.421,0,0,2.25.178.414-.651s-3.079-1.658-3.079-1.658l-5.744.355,2.165,1.241s1.065.665.133.754-1.964.283-1.958,1.051l-134.141,11.394s-.604-.069-.523.702.73.689.73.689h1.581l.162.851-4.541.365s-1.302-2.366-2.962-2.136l-110.459,9.383-1.939,15.511,78.55-7.516-4.532-14.034" fill="none" stroke="#231f20" stroke-miterlimit="10" stroke-width=".5"/><line x1="304.392" y1="136.597" x2="483.425" y2="232.601" fill="none" stroke="#231f20" stroke-miterlimit="10" stroke-width=".5"/><path d="M442.97,240.108l-161.024-99.202s-.909-.513-2.193-.465l-3.9.333" fill="none" stroke="#231f20" stroke-miterlimit="10" stroke-width=".5"/><path d="M440.077,240.595c-18.392-11.492-41.135-25.703-42.038-26.272-1.525-.96-2.654-.734-2.654-.734l-3.501.452-8.244-5.026s2.372-.508,2.936-.734-.226-.791-.226-.791c0,0-21.005-13.213-22.53-14.173s-2.033-.565-2.033-.565l-3.444.395-6.381-4.009s1.694-.452,2.428-.621,0-.791,0-.791c0,0-16.714-10.672-18.239-11.632s-1.694-.508-1.694-.508l-2.993.621-5.421-3.444,3.388-.847-16.996-10.22-3.162.395-4.461-2.936,2.597-.678-13.834-8.809-2.823.565-3.614-2.372s.734-.169,1.694-.282-.056-.621-.056-.621l-8.809-5.534-3.106.226-2.952-1.948" fill="none" stroke="#231f20" stroke-miterlimit="10" stroke-width=".5"/><path d="M319.026,262.469l-13.303-13.397c-2.808-6.694-9.34-9.34-9.34-9.34l-19.237-19.859c-2.985-2.289-5.97-1.194-5.97-1.194l-11.443,1.99-4.975-5.473-5.532.856-3.224-3.443-5.075,1.095-1.692-.1-10.05-13.334,5.97-1.294-1.99-2.786,4.975-1.095-3.284-3.98s8.657-1.493,10.647-1.891.697-2.587.697-2.587c0,0-17.016-18.011-18.011-19.105s-3.284-.995-3.284-.995l-4.08.199-21.256-19.756s5.97-1.552,16.652-2.62" fill="none" stroke="#231f20" stroke-miterlimit="10" stroke-width=".5"/><polyline points="195.964 158.469 197.822 149.799 198.754 149.333 199.569 146.98" fill="none" stroke="#231f20" stroke-miterlimit="10" stroke-width=".5"/><path d="M162.28,180.566l.572-7.336s.148-1.588,2.477-1.715l17.15-1.715,1.62,1.143,4.097-.191s.953-.953.667-2.287l.293-.177,6.193-.575.133.398.796,1.725,4.379-.31s.265-1.858,2.698-2.168,6.724-.708,6.724-.708c0,0,2.079-.265,2.035,1.371s-.664,5.264-.664,5.264" fill="none" stroke="#231f20" stroke-miterlimit="10" stroke-width=".5"/><polyline points="57.546 175.06 58.567 174.339 76.031 172.734 75.984 175.12 106.795 172.237 107.936 170.796 115.143 170.075 116.104 170.796 119.828 170.555 119.468 168.994 130.636 167.738" fill="none" stroke="#231f20" stroke-miterlimit="10" stroke-width=".5"/><path d="M56.036,200.397l1.714-.082.326-1.795,24.402-2.53s.735-1.387,3.754,1.143,9.467,7.508,9.467,7.508c0,0,.49.653,3.346.49s42.357-5.386,42.357-5.386c0,0,3.02.082,2.448,2.204s-.245,5.876,2.448,7.182,1.061,3.436,1.061,3.436l-14.496,1.974-.469.564-15.059,1.988-.636-.265-8.948,1.206-1.88,1.156-1.958.261" fill="none" stroke="#231f20" stroke-miterlimit="10" stroke-width=".5"/><path d="M116.73,216.671l-.201-1.237s-.368-.569.602-.702,14.549-1.973,14.549-1.973c0,0,.702.1.736.769s.368.769.368.769" fill="none" stroke="#231f20" stroke-miterlimit="10" stroke-width=".5"/><polygon points="62.829 218.378 66.849 213.929 73.132 213.05 76.83 215.782 72.931 220.322 66.415 221.14 62.829 218.378" fill="none" stroke="#d1d3d4" stroke-linecap="round" stroke-linejoin="round" stroke-width="3"/><polygon points="64.555 218.012 67.596 214.872 72.329 214.234 75.103 216.141 72.153 219.343 67.245 219.94 64.555 218.012" fill="none" stroke="#231f20" stroke-linecap="round" stroke-linejoin="round" stroke-width=".649"/><polygon points="60.356 254.365 64.637 248 71.477 246.875 75.581 250.934 71.434 257.434 64.338 258.465 60.356 254.365" fill="none" stroke="#d1d3d4" stroke-linecap="round" stroke-linejoin="round" stroke-width="4"/><polygon points="62.232 253.875 65.476 249.389 70.629 248.575 73.704 251.413 70.561 255.994 65.216 256.742 62.232 253.875" fill="none" stroke="#231f20" stroke-linecap="round" stroke-linejoin="round" stroke-width=".817"/><line x1="79.606" y1="220.265" x2="109.868" y2="216.314" fill="none" stroke="#231f20" stroke-miterlimit="10" stroke-width=".5"/><path d="M109.687,257.223c1.412-1.926,4.686-2.375,4.686-2.375l27.444-4.401c.602-.602-.071-2.196-.071-2.479s-.354-.602-.354-.602c0,0-15.94,2.692-17.25,2.94s-.744.992-.673,1.665-.397.665-.397.665l-6.193,1.01s-.861.319-.93-.508-.759-3.793-.759-3.793c0,0-.138-.862-1.896-.552s-32.687,5.172-32.687,5.172c0,0-1.414.31-1.379,1.448s.138,3.724.138,3.724c.014.753-1.383.852-1.383.852l-27.521,4.488-.617.771.114,1.906" fill="none" stroke="#231f20" stroke-miterlimit="10" stroke-width=".5"/><path d="M142.062,249.539l16.379-2.671s4.02-.773-.541-4.561-3.479-7.344-3.324-10.282-3.17-2.783-3.17-2.783c0,0-46.152,7.19-49.167,7.653s-3.633-.696-3.633-.696c0,0-9.741-8.658-11.519-10.514s-3.015-1.314-3.015-1.314l-28.526,3.711-1.218.923-.102,1.229" fill="none" stroke="#231f20" stroke-miterlimit="10" stroke-width=".5"/><line x1="79.671" y1="258.021" x2="115.51" y2="252.243" fill="none" stroke="#231f20" stroke-miterlimit="10" stroke-width=".5"/><polyline points="64.077 226.336 72.936 225.229 73.954 224.299 80.598 223.457 83.344 224.254" fill="none" stroke="#231f20" stroke-miterlimit="10" stroke-width=".5"/><path d="M86.534,224.343l4.429-.532,3.056-1.949,20.075-2.934s1.958-.522,2.154,1.827.457,7.375.457,7.375l-3.597.522-5.278-2.13-17.069,2.256" fill="none" stroke="#231f20" stroke-miterlimit="10" stroke-width=".5"/><ellipse cx="143.921" cy="239.864" rx="6.485" ry="4.654" fill="none" stroke="#231f20" stroke-miterlimit="10" stroke-width=".5"/><ellipse cx="134.573" cy="207.523" rx="5.04" ry="3.436" fill="none" stroke="#231f20" stroke-miterlimit="10" stroke-width=".5"/><polygon points="54.464 230.266 55.927 231.241 52.921 261.954 50.158 262.279 49.102 259.923 52.839 230.753 54.464 230.266" fill="none" stroke="#231f20" stroke-miterlimit="10" stroke-width=".5"/><path d="M110.195,217.404l-.196-.934s-.163-.76-.163-1.791-1.411-.977-1.411-.977c0,0-24.637,3.093-27.242,3.473s-1.791,1.519-1.682,3.093-1.656,1.797-1.656,1.797l-23.36,3.149-.979-1.477.553-.297,2.654-.47,1.61-22.009-2.72.053-2.257,21.347.223.938" fill="none" stroke="#231f20" stroke-miterlimit="10" stroke-width=".5"/><path d="M142.691,201.532s-3.661,4.802,3.181,8.523" fill="none" stroke="#231f20" stroke-miterlimit="10" stroke-width=".5"/><path d="M153.587,231.49s-4.516,6.412,3.703,12.011" fill="none" stroke="#231f20" stroke-miterlimit="10" stroke-width=".5"/><path d="M57.687,269.479s-1.402,17.192-1.543,19.449-1.34,2.75-1.34,2.75c0,0-21.505,3.807-22.633,4.09s-1.128,1.551-1.128,1.551l-1.26,7.4s1.215-1.267,3.327-.951l.053.951s-2.324,1.531-2.693,3.433-2.06,11.248-2.06,11.248l2.964-.576s.61-.166.645-.728.07-1.298,1.263-1.544,10.807-1.965,10.807-1.965c0,0,.842-.14.842.596s.324.942.324.942l17.312-3.365s.785-.699.75-1.331.702-.912.702-.912l16.596-3.193s.807-.07.842.456.308,1.248.308,1.248l19.839-3.856s.449-.62.413-1.111.316-.842.912-.947,9.754-1.86,9.754-1.86c0,0,.842-.211.842.386s.189,1.178.189,1.178l40.428-7.859s.575-.407.505-.933-.07-1.228.526-1.228,9.333-1.754,9.333-1.754c0,0,.632-.035.737.421s.219,1.294.219,1.294l4.412-.858,1.589-.79-13.877-40.796-121.384,19.06,1.114,1.996,20.307-3.032s2.609-.212,2.609,1.763-1.665,18.863-1.665,18.863c0,0,0,3.047-3.282,3.516-3.676.525-23.285,3.985-23.285,3.985" fill="none" stroke="#231f20" stroke-miterlimit="10" stroke-width=".5"/><path d="M60.081,271.294c-1.155-2.476-4.219-1.969-4.219-1.969l-18.849,2.753c-1.904.212-1.974,2.186-1.974,2.186l-3.39,19.85s-.152,1.241.523,1.652" fill="none" stroke="#231f20" stroke-miterlimit="10" stroke-width=".5"/><polygon points="495.495 230.099 482.844 232.574 497.568 239.223 508.887 236.143 495.495 230.099" fill="none" stroke="#231f20" stroke-miterlimit="10" stroke-width=".5"/><polyline points="497.643 257.62 508.887 254.108 508.887 236.143" fill="none" stroke="#231f20" stroke-miterlimit="10" stroke-width=".5"/><polyline points="482.844 232.574 482.695 267.545 497.568 274.997 497.568 239.223" fill="none" stroke="#231f20" stroke-miterlimit="10" stroke-width=".5"/><path d="M482.904,251.059L35.29,339.854l-7.453-14.227-.94-1.208-.403-3.088,34.911-6.848s5.505-.94,8.526,1.41c0,0,1.343,1.074,2.35,1.007,0,0,.708.093,1.276-.94l.806-2.887s-.067-1.074,1.678-1.544,171.029-34.279,171.029-34.279c0,0,2.685-.604,3.491.94s1.511,1.047,2.249.913,7.251-1.343,7.251-1.343c0,0,1.208-1.007-.47-1.141s-3.894.47-3.894.47l.738-1.813,110.171-21.819s1.746.403,1.88.873.067,1.611.067,1.611l5.505-1.007s2.954-.806,1.41-1.343l-1.343.067s-1.141.94-1.611.604c0,0-.537-2.081,1.41-2.417s18.395-3.692,18.395-3.692c0,0,2.417-.604,1.276,1.141s-2.148,3.021-2.148,3.021c0,0-.806,1.343,1.074.873s15.777-3.357,15.777-3.357l3.625-5.169,3.223-.671,1.343.671-.604,1.343,66.756-13.17" fill="none" stroke="#231f20" stroke-miterlimit="10" stroke-width=".5"/><path d="M44.009,225.695l-1.781-.232s-.929-1.859,1.394-2.246,5.499-.465,5.499-.465l1.317.077s1.549-.62,1.549.387v1.859l-1.084.62-.232,2.091-9.217,1.084s.078-2.253,1.704-2.169c1.125.058,1.884.438,1.884.438,0,0,1.989-.515,1.601-1.445s-2.169-.542-2.633,0Z" fill="none" stroke="#231f20" stroke-miterlimit="10" stroke-width=".5"/><path d="M51.443,226.398l.809-.347,10.128-1.271,1.155.347.116.77s.039.424-.963.539-7.278,1.078-7.278,1.078l-.616-.539-.462.039-.347.308-2.426.231-.308-.578.193-.578Z" fill="none" stroke="#231f20" stroke-miterlimit="10" stroke-width=".5"/><polyline points="26.508 322.8 25.174 321.98 7.535 325.569 6.043 327.751 13.686 343.335 34.918 339.255" fill="none" stroke="#231f20" stroke-miterlimit="10" stroke-width=".5"/><path d="M6.355,327.191l-1.446-4.003c-.278-2.002,2.224-2.28,2.224-2.28l14.623-3.336s-.445.5-.167,1.557,1.39,3.058,1.39,3.058" fill="none" stroke="#231f20" stroke-miterlimit="10" stroke-width=".5"/><line x1="21.145" y1="320.019" x2="5.965" y2="323.466" fill="none" stroke="#231f20" stroke-miterlimit="10" stroke-width=".5"/><path d="M338.965,231.55l-9.094-7.817s-.989-.353-2.292.446-3.49,1.387-4.667.462-8.955-7.526-8.955-7.526c0,0-.757-1.219.42-1.219s4.413-.839,4.078-1.975l-6.837-5.876s-.898-.599-2.454-.095-3.826.841-4.625.462-7.694-6.601-7.694-6.601c0,0-.841-.967,1.177-1.093s3.541-.726,2.864-1.898l-4.984-4.284s-1.434-.672-2.915-.399-3.157,1.052-4.833-.429-4.989-4.638-4.989-4.638c0,0-.857-1.013.468-1.208s3.439.178,3.337-1.003l-15.715-13.507s-.752-.457-1.48-.154-2.668.97-3.942-.121-4.427-3.942-4.427-3.942c0,0-.788-.97.546-1.092s2.064.15,2.366-.653l-4.621-3.972s-.605-.25-1.12-.009-2.437,1.304-3.569.343-4.187-3.604-4.187-3.604c0,0-.378-.789.515-.789s2.852-.376,2.421-1.046l-3.539-3.041s-.805-.429-1.588-.136-2.705,1.304-3.976.261-3.129-2.933-3.129-2.933c0,0-.619-.782.554-.815s2.951-.406,2.795-.969l-2.044-1.757s-.952-1.003-2.431-.661-5.032.597-5.032.597c0,0-1.023.341-1.905-.426s-3.412-2.36-1.535-2.502,5.601-.37,5.601-.37c0,0,.84-.331.321-.919l-1.953-1.679" fill="none" stroke="#231f20" stroke-miterlimit="10" stroke-width=".5"/><path d="M339.827,232.977s-.317-1.266-1.583-1.302-4.327.492-4.327.492c0,0-1.126.844-.07,1.864s9.709,8.055,9.709,8.055c0,0,1.97.879,3.201.563s3.166-1.055,3.166-1.055l.697-.028,14.026,12.055" fill="none" stroke="#231f20" stroke-miterlimit="10" stroke-width=".5"/><line x1="254.541" y1="158.705" x2="247.253" y2="152.706" fill="none" stroke="#231f20" stroke-miterlimit="10" stroke-width=".5"/><line x1="265.34" y1="167.396" x2="256.154" y2="160.004" fill="none" stroke="#231f20" stroke-miterlimit="10" stroke-width=".5"/><line x1="277.741" y1="177.376" x2="267.102" y2="168.814" fill="none" stroke="#231f20" stroke-miterlimit="10" stroke-width=".5"/><line x1="302.121" y1="196.995" x2="289.765" y2="187.052" fill="none" stroke="#231f20" stroke-miterlimit="10" stroke-width=".5"/><line x1="319.052" y1="210.62" x2="304.409" y2="198.836" fill="none" stroke="#231f20" stroke-miterlimit="10" stroke-width=".5"/><line x1="338.478" y1="226.253" x2="321.238" y2="212.379" fill="none" stroke="#231f20" stroke-miterlimit="10" stroke-width=".5"/><path d="M340.835,228.149l19.227,15.472s.814.641.814,1.403" fill="none" stroke="#231f20" stroke-miterlimit="10" stroke-width=".5"/><path d="M386.193,242.785s.086-3.544-.215-4.145-1.81-1.618-1.81-1.618l-16.959-12.313s-1.601-.905-2.625.119v3.366" fill="none" stroke="#231f20" stroke-miterlimit="10" stroke-width=".5"/><path d="M341.421,212.056c.043.101-.03-3.671,0-4.826.026-1.015-.677-1.736-.677-1.736l-14.035-10.19s-1.61-.237-1.905.506l14.349,10.473s.844.855.844,1.545v4.872" fill="none" stroke="#231f20" stroke-miterlimit="10" stroke-width=".5"/><path d="M322.789,199.225s.212-4.569.212-5.373-.752-1.531-.752-1.531l-11.655-8.717s-1.489-.004-1.566.692l11.667,8.774s.804.55.804,1.354v5.119" fill="none" stroke="#231f20" stroke-miterlimit="10" stroke-width=".5"/><path d="M297.233,180.846s.098-2.59.229-4.557-.688-2.754-.688-2.754l-9.343-6.748s-1.063-.176-2.012.278l10.259,7.488s.374.49.341,1.179-.098,4.954-.098,4.954" fill="none" stroke="#231f20" stroke-miterlimit="10" stroke-width=".5"/><path d="M284.11,169.296s.125-2.457.226-3.36-.351-1.58-.351-1.58l-8.325-6.116s-1.114-.301-1.896.317l8.591,6.275s.527.652.476,1.479-.176,3.109-.176,3.109" fill="none" stroke="#231f20" stroke-miterlimit="10" stroke-width=".5"/><path d="M272.732,160.517s.11-2.356.198-3.171-.374-1.299-.374-1.299l-7.424-5.389s-1.608-.158-1.586.815-.022,1.3-.022,1.3" fill="none" stroke="#231f20" stroke-miterlimit="10" stroke-width=".5"/><path d="M264.711,161.398s.197-2.498.225-2.976-.211-1.008-.211-1.008l-7.055-5.321c-2.016-.208-2.429.253-2.429.253l6.751,5.175s.866.592.754,1.518-.168,2.695-.168,2.695" fill="none" stroke="#231f20" stroke-miterlimit="10" stroke-width=".5"/><path d="M327.724,214.355v-4.734c0-1.425-.782-2.31-.782-2.31l-12.474-9.562s.748-.973,3.279-.342l11.448,8.675s1.333,1.241,1.103,2.758c-.166,1.094,0,5.332,0,5.332" fill="none" stroke="#231f20" stroke-miterlimit="10" stroke-width=".5"/><path d="M353.028,227.308l17.418,13.352s1.144,1.372.764,2.678" fill="none" stroke="#231f20" stroke-miterlimit="10" stroke-width=".5"/><path d="M374.8,242.63c.381-1.36-.658-2.688-.658-2.688l-17.573-13.255s-2.317-1.115-4.178.374c0,0-.652,1.024-.791,3.025" fill="none" stroke="#231f20" stroke-miterlimit="10" stroke-width=".5"/><path d="M351.073,230.225s.45-4.762.412-5.924-1.419-2.517-1.419-2.517l-14.605-11.016s-2.553-.448-2.891.857l13.559,10.394s1.906,1.944,1.644,3.969" fill="none" stroke="#231f20" stroke-miterlimit="10" stroke-width=".5"/><path d="M310.259,196.432c.185-1.112-.744-2.481-.744-2.481l-10.471-8.134c.275-.436,2.467-.657,2.467-.657l10.856,8.168s.857.811.625,2.64l-.255,4.261" fill="none" stroke="#231f20" stroke-miterlimit="10" stroke-width=".5"/><path d="M286.771,176.516l-9.622-7.376c.747-.887,2.276-.639,2.276-.639l9.919,7.481s.469.725.391,1.667" fill="none" stroke="#231f20" stroke-miterlimit="10" stroke-width=".5"/><path d="M275.535,170.3s-.046-1.96,0-3.1-.502-1.778-.502-1.778l-7.027-5.532s-1.321-.964-2.969-.034l7.799,5.978s.602.91.602,1.731v3.146" fill="none" stroke="#231f20" stroke-miterlimit="10" stroke-width=".5"/><path d="M365.607,237.681s3.046,3.808,2.393,6.364" fill="none" stroke="#231f20" stroke-miterlimit="10" stroke-width=".5"/><line x1="377.193" y1="242.467" x2="360.875" y2="245.568" fill="none" stroke="#231f20" stroke-miterlimit="10" stroke-width=".5"/><path d="M356.687,230.609s-3.1-1.033-4.297-.762" fill="none" stroke="#231f20" stroke-miterlimit="10" stroke-width=".5"/><path d="M360.189,229.048l5.582-.886s2.502-.272,4.352.87" fill="none" stroke="#231f20" stroke-miterlimit="10" stroke-width=".5"/><line x1="345.178" y1="231.503" x2="354.148" y2="230.008" fill="none" stroke="#231f20" stroke-miterlimit="10" stroke-width=".5"/><path d="M377.131,234.087l2.448,3.049s.73.859.601,1.675v3.58" fill="none" stroke="#231f20" stroke-miterlimit="10" stroke-width=".5"/><path d="M364.611,224.977l18.404,13.32s1.417,1.031,1.417,1.804-.043,4.912-.043,4.912" fill="none" stroke="#231f20" stroke-miterlimit="10" stroke-width=".5"/><path d="M361.271,228.726s.412-6.149.487-7.087-.403-1.18-.403-1.18l-15.387-11.171c-1.539-.565-2.619.058-2.619.058l15.769,11.509s.765.408.69,1.421-.337,6.337-.337,6.337" fill="none" stroke="#231f20" stroke-miterlimit="10" stroke-width=".5"/><path d="M263.67,151.191l7.279,5.275s.44.44.396,1.145-.176,3.171-.176,3.171" fill="none" stroke="#231f20" stroke-miterlimit="10" stroke-width=".5"/><path d="M354.149,217.782s1.518,1.551,1.888,3.759v4.78" fill="none" stroke="#231f20" stroke-miterlimit="10" stroke-width=".5"/><path d="M337.718,227.173s.316-.362,1.401-.542,8.136-1.446,8.136-1.446l.723,1.446-.497,3.932" fill="none" stroke="#231f20" stroke-miterlimit="10" stroke-width=".5"/><path d="M260.023,156.177s.954,1.516.87,2.611" fill="none" stroke="#231f20" stroke-miterlimit="10" stroke-width=".5"/><line x1="259.464" y1="153.363" x2="265.305" y2="152.676" fill="none" stroke="#231f20" stroke-miterlimit="10" stroke-width=".5"/><line x1="249.711" y1="154.511" x2="256.925" y2="153.662" fill="none" stroke="#231f20" stroke-miterlimit="10" stroke-width=".5"/><polyline points="220.171 173.043 168.46 178.752 168.194 182.914" fill="none" stroke="#231f20" stroke-miterlimit="10" stroke-width=".5"/><polyline points="223.059 176.334 170.609 182.579 169.897 186.107" fill="none" stroke="#231f20" stroke-miterlimit="10" stroke-width=".5"/><polyline points="224.536 178.08 171.415 184.393 170.663 188.235" fill="none" stroke="#231f20" stroke-miterlimit="10" stroke-width=".5"/><polyline points="226.148 179.893 172.423 186.072 171.685 189.853" fill="none" stroke="#231f20" stroke-miterlimit="10" stroke-width=".5"/><polyline points="227.76 181.371 173.564 187.751 172.664 191.768" fill="none" stroke="#231f20" stroke-miterlimit="10" stroke-width=".5"/><polyline points="229.103 183.184 174.639 189.765 173.813 193.982" fill="none" stroke="#231f20" stroke-miterlimit="10" stroke-width=".5"/><polyline points="230.849 185.131 175.646 191.579 175.005 195.983" fill="none" stroke="#231f20" stroke-miterlimit="10" stroke-width=".5"/><polyline points="232.528 186.743 176.989 193.526 176.112 198.111" fill="none" stroke="#231f20" stroke-miterlimit="10" stroke-width=".5"/><polyline points="234.006 188.758 177.997 195.541 176.878 200.666" fill="none" stroke="#231f20" stroke-miterlimit="10" stroke-width=".5"/><polyline points="235.483 190.504 179.004 197.757 177.858 202.837" fill="none" stroke="#231f20" stroke-miterlimit="10" stroke-width=".5"/><polyline points="231.976 199.705 230.778 198.245 234.062 197.606" fill="none" stroke="#231f20" stroke-miterlimit="10" stroke-width=".5"/><polyline points="234.346 195.687 232.828 193.808 212.382 196.487 215.625 200.315 206.662 201.54 204.265 197.55 183.17 200.313 185.483 204.433 191.479 203.614 203.983 224.278 197.41 225.251 200.157 230.527 224.426 226.591 221.042 221.755 230.588 220.343 234.067 225.027 256.753 221.347 252.633 217.083 246.92 217.928 243.126 213.302" fill="none" stroke="#231f20" stroke-miterlimit="10" stroke-width=".5"/><line x1="183.17" y1="200.313" x2="180.977" y2="213.99" fill="none" stroke="#231f20" stroke-miterlimit="10" stroke-width=".5"/><line x1="185.465" y1="204.537" x2="184.182" y2="213.652" fill="none" stroke="#231f20" stroke-miterlimit="10" stroke-width=".5"/><line x1="197.439" y1="225.31" x2="196.157" y2="234.425" fill="none" stroke="#231f20" stroke-miterlimit="10" stroke-width=".5"/><line x1="200.178" y1="230.491" x2="199.856" y2="232.78" fill="none" stroke="#231f20" stroke-miterlimit="10" stroke-width=".5"/><polyline points="265.866 223.635 199.147 233.772 198.047 238.781" fill="none" stroke="#231f20" stroke-miterlimit="10" stroke-width=".5"/><polyline points="268.555 226.118 200.906 237.082 199.796 241.889" fill="none" stroke="#231f20" stroke-miterlimit="10" stroke-width=".5"/><polyline points="271.038 229.221 202.561 240.185 201.175 245.534" fill="none" stroke="#231f20" stroke-miterlimit="10" stroke-width=".5"/><polyline points="273.313 231.807 204.319 243.082 202.666 248.909" fill="none" stroke="#231f20" stroke-miterlimit="10" stroke-width=".5"/><polyline points="276.003 235.013 206.491 246.599 204.769 252.108" fill="none" stroke="#231f20" stroke-miterlimit="10" stroke-width=".5"/><polyline points="278.589 237.806 208.25 249.702 206.61 255.527" fill="none" stroke="#231f20" stroke-miterlimit="10" stroke-width=".5"/><polyline points="281.692 241.116 210.319 253.219 208.582 258.726" fill="none" stroke="#231f20" stroke-miterlimit="10" stroke-width=".5"/><polyline points="284.795 244.116 212.077 256.839 210.276 262.548" fill="none" stroke="#231f20" stroke-miterlimit="10" stroke-width=".5"/><polyline points="288.105 247.426 214.663 260.77 213.096 266.22" fill="none" stroke="#231f20" stroke-miterlimit="10" stroke-width=".5"/><polyline points="294.208 254.253 218.904 268.424 217.329 273.906" fill="none" stroke="#231f20" stroke-miterlimit="10" stroke-width=".5"/><polyline points="277.177 177.724 288.349 176.331 290.935 178.613 293.131 178.362 293.257 180.056 291.625 184.574" fill="none" stroke="#231f20" stroke-miterlimit="10" stroke-width=".5"/><line x1="264.795" y1="168.138" x2="272.464" y2="167.201" fill="none" stroke="#231f20" stroke-miterlimit="10" stroke-width=".5"/><line x1="259.712" y1="162.297" x2="267.056" y2="161.43" fill="none" stroke="#231f20" stroke-miterlimit="10" stroke-width=".5"/><path d="M262.655,165.017l7.851-.994s1.137,1.953.767,3.268" fill="none" stroke="#231f20" stroke-miterlimit="10" stroke-width=".5"/><line x1="279.554" y1="162.876" x2="272.915" y2="163.717" fill="none" stroke="#231f20" stroke-miterlimit="10" stroke-width=".5"/><path d="M286.122,185.404s1.815-3.089,2.394-4.093.077-1.467.077-1.467l-1.429-1.313-2.78.232s-.915-.06-.965.695l-.154.888" fill="none" stroke="#231f20" stroke-miterlimit="10" stroke-width=".5"/><path d="M279.614,163.593s.906,1.524.824,2.553v2.8" fill="none" stroke="#231f20" stroke-miterlimit="10" stroke-width=".5"/><path d="M268.659,155.521s1.112,1.235,1.112,1.894.127,3.91-.079,3.704l5.893-.695" fill="none" stroke="#231f20" stroke-miterlimit="10" stroke-width=".5"/><line x1="259.715" y1="155.82" x2="252.684" y2="156.716" fill="none" stroke="#231f20" stroke-miterlimit="10" stroke-width=".5"/><line x1="268.379" y1="154.717" x2="262.21" y2="155.503" fill="none" stroke="#231f20" stroke-miterlimit="10" stroke-width=".5"/><line x1="278.695" y1="170.325" x2="270.457" y2="171.344" fill="none" stroke="#231f20" stroke-miterlimit="10" stroke-width=".5"/><line x1="288.182" y1="169.152" x2="281.411" y2="169.989" fill="none" stroke="#231f20" stroke-miterlimit="10" stroke-width=".5"/><path d="M274.221,174.345l8.082-1.167s1.505,1.675.807,3.895" fill="none" stroke="#231f20" stroke-miterlimit="10" stroke-width=".5"/><line x1="291.708" y1="171.82" x2="285.119" y2="172.772" fill="none" stroke="#231f20" stroke-miterlimit="10" stroke-width=".5"/><path d="M255.242,152.347s-.223.405-.113,1.397" fill="none" stroke="#231f20" stroke-miterlimit="10" stroke-width=".5"/><line x1="254.744" y1="159.453" x2="261.668" y2="158.706" fill="none" stroke="#231f20" stroke-miterlimit="10" stroke-width=".5"/><path d="M292.02,172.65s.918.885.918,2.164v3.548" fill="none" stroke="#231f20" stroke-miterlimit="10" stroke-width=".5"/><polyline points="286.03 186.109 298.785 184.11 299.758 184.974 301.595 184.65 297.38 181.515 296.731 180.813 293.812 181.407 297.109 184.002" fill="none" stroke="#231f20" stroke-miterlimit="10" stroke-width=".5"/><line x1="304.937" y1="187.663" x2="311.834" y2="186.623" fill="none" stroke="#231f20" stroke-miterlimit="10" stroke-width=".5"/><line x1="293.121" y1="189.445" x2="301.918" y2="188.118" fill="none" stroke="#231f20" stroke-miterlimit="10" stroke-width=".5"/><line x1="306.541" y1="191.728" x2="298.158" y2="193.196" fill="none" stroke="#231f20" stroke-miterlimit="10" stroke-width=".5"/><line x1="316.308" y1="190.018" x2="309.493" y2="191.211" fill="none" stroke="#231f20" stroke-miterlimit="10" stroke-width=".5"/><polyline points="301.485 197.885 309.47 196.668 310.574 197.545 310.574 201.028" fill="none" stroke="#231f20" stroke-miterlimit="10" stroke-width=".5"/><path d="M306.355,192.42s1.557,1.387,1.642,4.275" fill="none" stroke="#231f20" stroke-miterlimit="10" stroke-width=".5"/><path d="M317.133,191.162s1.673,1.445,1.635,3.802,0,3.155,0,3.155" fill="none" stroke="#231f20" stroke-miterlimit="10" stroke-width=".5"/><line x1="309.028" y1="184.296" x2="309.028" y2="186.79" fill="none" stroke="#231f20" stroke-miterlimit="10" stroke-width=".5"/><line x1="299.043" y1="185.817" x2="299.043" y2="188.31" fill="none" stroke="#231f20" stroke-miterlimit="10" stroke-width=".5"/><line x1="320.943" y1="199.734" x2="328.515" y2="198.643" fill="none" stroke="#231f20" stroke-miterlimit="10" stroke-width=".5"/><line x1="307.955" y1="201.605" x2="317.635" y2="200.211" fill="none" stroke="#231f20" stroke-miterlimit="10" stroke-width=".5"/><line x1="326.267" y1="203.826" x2="333.801" y2="202.535" fill="none" stroke="#231f20" stroke-miterlimit="10" stroke-width=".5"/><line x1="313.472" y1="206.02" x2="323.087" y2="204.371" fill="none" stroke="#231f20" stroke-miterlimit="10" stroke-width=".5"/><line x1="314.624" y1="200.473" x2="314.624" y2="197.748" fill="none" stroke="#231f20" stroke-miterlimit="10" stroke-width=".5"/><line x1="324.803" y1="195.81" x2="324.803" y2="199.186" fill="none" stroke="#231f20" stroke-miterlimit="10" stroke-width=".5"/><path d="M323.311,205.529s1.747,2.85,1.701,4.459" fill="none" stroke="#231f20" stroke-miterlimit="10" stroke-width=".5"/><path d="M334.618,203.783s1.747,1.609,1.931,4.091v3.508" fill="none" stroke="#231f20" stroke-miterlimit="10" stroke-width=".5"/><line x1="336.446" y1="214.815" x2="326.582" y2="216.532" fill="none" stroke="#231f20" stroke-miterlimit="10" stroke-width=".5"/><line x1="342.183" y1="219.171" x2="332.099" y2="221.209" fill="none" stroke="#231f20" stroke-miterlimit="10" stroke-width=".5"/><line x1="353.616" y1="216.861" x2="345.723" y2="218.456" fill="none" stroke="#231f20" stroke-miterlimit="10" stroke-width=".5"/><line x1="334.958" y1="213.59" x2="325.267" y2="215.327" fill="none" stroke="#231f20" stroke-miterlimit="10" stroke-width=".5"/><path d="M338.438,212.967l5.789-1.037s2.302.073,3.544.913l-7.657,1.333" fill="none" stroke="#231f20" stroke-miterlimit="10" stroke-width=".5"/><line x1="343.35" y1="209.346" x2="343.35" y2="211.893" fill="none" stroke="#231f20" stroke-miterlimit="10" stroke-width=".5"/><line x1="332.571" y1="211.625" x2="332.571" y2="213.866" fill="none" stroke="#231f20" stroke-miterlimit="10" stroke-width=".5"/><line x1="316.098" y1="211.528" x2="326.582" y2="209.811" fill="none" stroke="#231f20" stroke-miterlimit="10" stroke-width=".5"/><path d="M342.562,219.802s2.025,3.225,1.875,5.887" fill="none" stroke="#231f20" stroke-miterlimit="10" stroke-width=".5"/><line x1="358.385" y1="231.488" x2="347.361" y2="233.266" fill="none" stroke="#231f20" stroke-miterlimit="10" stroke-width=".5"/><line x1="370.841" y1="229.479" x2="362.175" y2="230.877" fill="none" stroke="#231f20" stroke-miterlimit="10" stroke-width=".5"/><line x1="364.445" y1="236.14" x2="353.724" y2="238.189" fill="none" stroke="#231f20" stroke-miterlimit="10" stroke-width=".5"/><line x1="376.837" y1="233.771" x2="368.29" y2="235.405" fill="none" stroke="#231f20" stroke-miterlimit="10" stroke-width=".5"/><path d="M210.292,157.079s-22.282,2.232-37.527,3.746c0,0-2.611.156-2.648,1.875s-.037,2.926-.037,2.926l-.878,1.28" fill="none" stroke="#231f20" stroke-miterlimit="10" stroke-width=".5"/><path d="M150.442,170.764v-5.191s0-2.451,2.379-2.74c.376-.046,1.967-.21,4.381-.454,0,0,2.09.064,2.017,1.965s0,2.45,0,2.45c0,0,.914.914,1.463.731v-1.28l7.131-.768,1.755,2.011s1.134,1.646-.695,1.829-3.62.439-3.62.439c0,0-1.865.475-2.67-.731s-1.39-2.377-1.39-2.377" fill="none" stroke="#231f20" stroke-miterlimit="10" stroke-width=".5"/><polyline points="429.201 242.862 395.033 220.795 395.448 219.363 394.962 218.013 380.359 208.569 378.704 208.442 377.693 209.501 360.82 198.62 361.219 197.291 360.988 196.368 348.929 188.568 347.723 188.696 346.855 189.614 333.209 180.814 333.536 179.592 333.257 178.754 323.718 172.612 322.601 172.729 322.183 173.729 310.61 166.259 311.132 165.071 310.785 164.282 302.646 159.087 301.569 159.307 301.35 160.219 291.881 154.131 292.066 152.95 291.728 152.295 284.867 147.917 284.19 148.008 283.888 148.992 275.817 143.802 275.696 142.05 272.373 139.684" fill="none" stroke="#231f20" stroke-miterlimit="10" stroke-width=".5"/><path d="M199.65,286.38l-.338-1.487,21.633-4.191-1.96-3.042-6.76,1.352s-3.515.946-10.614-3.718-37.316-24.675-37.316-24.675l-2.283.358,12.45,36.198s1.153,2.075,3.689,1.499,11.297-2.19,11.297-2.19l2.075.115.461,1.038" fill="none" stroke="#231f20" stroke-miterlimit="10" stroke-width=".5"/><path d="M170.581,275.631l6.76-1.217s2.975-.068,3.921,2.434,3.853,10.14,3.853,10.14" fill="none" stroke="#231f20" stroke-miterlimit="10" stroke-width=".5"/><line x1="162.011" y1="250.976" x2="160.701" y2="259.328" fill="none" stroke="#231f20" stroke-miterlimit="10" stroke-width=".5"/><polyline points="116.997 224.763 147.179 220.318 147.36 212.565" fill="none" stroke="#231f20" stroke-miterlimit="10" stroke-width=".5"/><line x1="159.869" y1="246.338" x2="159.498" y2="252.356" fill="none" stroke="#231f20" stroke-miterlimit="10" stroke-width=".5"/><polyline points="85.992 219.463 86.079 222.057 92.854 221.219" fill="none" stroke="#231f20" stroke-miterlimit="10" stroke-width=".5"/><polyline points="89.075 219.085 89.123 219.838 90.782 220.471 92.562 220.26" fill="none" stroke="#231f20" stroke-miterlimit="10" stroke-width=".5"/><polyline points="87.733 256.873 87.605 260.112 91.399 259.558 92.635 259.132 95.277 258.748" fill="none" stroke="#231f20" stroke-miterlimit="10" stroke-width=".5"/><polyline points="91.143 256.319 91.143 257.512 92.933 257.47 93.658 258.066 95.18 257.871" fill="none" stroke="#231f20" stroke-miterlimit="10" stroke-width=".5"/><path d="M95.466,259.409l.05-1.986-.38-.722s-.449-.435.431-.661,12.365-1.963,12.365-1.963c0,0,.482.656.457,1.36s-.151,1.886-.151,1.886l-12.771,2.087Z" fill="none" stroke="#231f20" stroke-miterlimit="10" stroke-width=".5"/><path d="M141.525,249.767l-27.788,4.432s-2.863.51-4.24,2.306" fill="none" stroke="#231f20" stroke-miterlimit="10" stroke-width=".5"/><line x1="79.377" y1="257.272" x2="115.524" y2="251.386" fill="none" stroke="#231f20" stroke-miterlimit="10" stroke-width=".5"/><line x1="79.524" y1="219.661" x2="109.784" y2="215.648" fill="none" stroke="#231f20" stroke-miterlimit="10" stroke-width=".5"/><path d="M93.054,222.564l-.096-2.687s-.313-.785.407-1.313" fill="none" stroke="#231f20" stroke-miterlimit="10" stroke-width=".5"/><path d="M103.851,220.453l-.096-1.775s.192-1.248-.576-1.392" fill="none" stroke="#231f20" stroke-miterlimit="10" stroke-width=".5"/><polyline points="50.463 264.476 49.312 263.224 49.102 259.923" fill="none" stroke="#231f20" stroke-miterlimit="10" stroke-width=".5"/><path d="M47.952,195.336s.203-1.134,1.175-1.337,3.565-.486,3.565-.486c0,0,.851-.162,1.094.365l.243.527,1.458-.081" fill="none" stroke="#231f20" stroke-miterlimit="10" stroke-width=".5"/><line x1="152.126" y1="161.471" x2="129.447" y2="163.725" fill="none" stroke="#231f20" stroke-miterlimit="10" stroke-width=".5"/><line x1="196.166" y1="157.158" x2="159.869" y2="160.673" fill="none" stroke="#231f20" stroke-miterlimit="10" stroke-width=".5"/><line x1="196.907" y1="152.954" x2="127.682" y2="159.194" fill="none" stroke="#231f20" stroke-miterlimit="10" stroke-width=".5"/><path d="M152.194,163.062v-2.167s1.456-1.592,3.42-1.185" fill="none" stroke="#231f20" stroke-miterlimit="10" stroke-width=".5"/><path d="M157.715,160.167c-.512-.195-1.084-.343-1.759-.343-1.735,0-3.141.757-3.141,1.691,0,.473.361.901.943,1.208" fill="none" stroke="#231f20" stroke-miterlimit="10" stroke-width=".5"/><path d="M159.219,164.345c.524.03,1.541-.335,1.541-.335v-2.269l-1.998-2.269h-1.388v.372l1.862,1.964v.779l-.949.061c.503-.3.768-.543.768-.979" fill="none" stroke="#231f20" stroke-miterlimit="10" stroke-width=".5"/><line x1="130.79" y1="167.174" x2="130.79" y2="163.736" fill="none" stroke="#231f20" stroke-miterlimit="10" stroke-width=".5"/><path d="M47.063,194.948l-.205,1.678,2.865.327s.082-.819.982-.532.041.859.041.859l-.286.327-2.742.082-1.269,1.351,2.947-.205.614-.368,5.28-.409,3.151-.082.737.45" fill="none" stroke="#231f20" stroke-miterlimit="10" stroke-width=".5"/><path d="M47.692,195.551l4.323-.48.286.491,2.005-.082s.859-.041,1.023.941.941.819.941.819c0,0,.614-1.228,1.883-1.228s2.578-.041,2.578-.041l-.286,2.169" fill="none" stroke="#231f20" stroke-miterlimit="10" stroke-width=".5"/><polyline points="60.556 197.385 79.231 195.521 80.132 195.03 80.009 192.697 79.313 192.452 75.474 192.84 74.557 192.31 62.574 193.513 61.101 195.071 60.732 195.971" fill="none" stroke="#231f20" stroke-miterlimit="10" stroke-width=".5"/><path d="M69.384,195.155c-1.587,1.172-4.384,1.058-4.384,1.058-.113-.794.151-2.079.151-2.079,0,0,2.343-.567,4.195.151l.717-.012.041.783-.721.098Z" fill="none" stroke="#231f20" stroke-linecap="round" stroke-linejoin="round" stroke-width=".5"/><path d="M46.174,199.588s-.89,2.352,1.717,2.034l1.616,6.822s-1.537.693-1.982-1.278l-1.414-5.926" fill="none" stroke="#231f20" stroke-miterlimit="10" stroke-width=".5"/><polyline points="50.026 199.438 48.718 199.491 48.3 200.38 50.497 200.432 50.915 199.961 51.909 199.647 53.792 199.647 55.602 201.015" fill="none" stroke="#231f20" stroke-miterlimit="10" stroke-width=".5"/><polyline points="48.614 201.06 50.34 208.278 54.681 207.859" fill="none" stroke="#231f20" stroke-miterlimit="10" stroke-width=".5"/><path d="M41.292,229.338l-.349,2.041s.417.715,1.727.357l1.072,4.824s-.953.179-1.548-.06l-1.022-4.38" fill="none" stroke="#231f20" stroke-miterlimit="10" stroke-width=".5"/><path d="M43.221,231.288l1.55,6.645s.93,1.431,3.327.465" fill="none" stroke="#231f20" stroke-miterlimit="10" stroke-width=".5"/><path d="M47.915,235.809l-1.285-5.298-3.323.259c.388-1.985,2.244-1.554,2.244-1.554" fill="none" stroke="#231f20" stroke-miterlimit="10" stroke-width=".5"/><line x1="47.925" y1="235.906" x2="51.124" y2="235.661" fill="none" stroke="#231f20" stroke-miterlimit="10" stroke-width=".5"/><polygon points="47.635 230.116 47.8 228.79 49.987 228.591 49.722 229.95 47.635 230.116" fill="none" stroke="#231f20" stroke-miterlimit="10" stroke-width=".5"/><line x1="49.722" y1="229.983" x2="51.081" y2="235.517" fill="none" stroke="#231f20" stroke-miterlimit="10" stroke-width=".5"/><line x1="50.087" y1="228.658" x2="51.313" y2="233.86" fill="none" stroke="#231f20" stroke-miterlimit="10" stroke-width=".5"/><line x1="47.668" y1="230.149" x2="49.06" y2="235.782" fill="none" stroke="#231f20" stroke-miterlimit="10" stroke-width=".5"/><polygon points="57.116 173.671 51.757 174.183 51.189 174.559 51.053 176.089 51.736 176.335 56.901 175.87 57.116 173.671" fill="none" stroke="#231f20" stroke-miterlimit="10" stroke-width=".5"/><ellipse cx="188.897" cy="206.315" rx="2.022" ry="1.217" fill="none" stroke="#231f20" stroke-miterlimit="10" stroke-width=".5"/><path d="M190.914,206.958c.118.168.183.352.183.546,0,.774-1.042,1.401-2.328,1.401s-2.328-.627-2.328-1.401c0-.165.047-.323.134-.47" fill="none" stroke="#231f20" stroke-miterlimit="10" stroke-width=".5"/><path d="M185.936,213.064c0,.774,1.042,1.401,2.328,1.401s2.328-.627,2.328-1.401l.506-5.561" fill="none" stroke="#231f20" stroke-miterlimit="10" stroke-width=".5"/><ellipse cx="198.396" cy="222.443" rx="2.022" ry="1.217" fill="none" stroke="#231f20" stroke-miterlimit="10" stroke-width=".5"/><path d="M200.413,223.086c.118.168.183.352.183.546,0,.774-1.042,1.401-2.328,1.401s-2.328-.627-2.328-1.401c0-.165.047-.323.134-.47" fill="none" stroke="#231f20" stroke-miterlimit="10" stroke-width=".5"/><path d="M196.026,233.4c-.532-.257-1.302-1.08-1.302-1.523l1.216-8.245" fill="none" stroke="#231f20" stroke-miterlimit="10" stroke-width=".5"/><line x1="200.596" y1="223.631" x2="200.521" y2="224.458" fill="none" stroke="#231f20" stroke-miterlimit="10" stroke-width=".5"/><line x1="186.442" y1="207.503" x2="185.936" y2="213.064" fill="none" stroke="#231f20" stroke-miterlimit="10" stroke-width=".5"/><polygon points="241.779 179.105 244.113 178.798 249.947 185.123 247.613 185.492 241.779 179.105" fill="none" stroke="#231f20" stroke-miterlimit="10" stroke-width=".5"/><line x1="51.266" y1="179.316" x2="56.917" y2="178.843" fill="none" stroke="#231f20" stroke-miterlimit="10" stroke-width=".5"/><line x1="51.736" y1="176.335" x2="52.322" y2="179.169" fill="none" stroke="#231f20" stroke-miterlimit="10" stroke-width=".5"/><line x1="50.986" y1="176.107" x2="51.572" y2="178.941" fill="none" stroke="#231f20" stroke-miterlimit="10" stroke-width=".5"/><line x1="48.382" y1="235.881" x2="45.845" y2="261.07" fill="none" stroke="#231f20" stroke-miterlimit="10" stroke-width=".5"/><line x1="51.172" y1="208.183" x2="49.694" y2="222.86" fill="none" stroke="#231f20" stroke-miterlimit="10" stroke-width=".5"/><line x1="53.567" y1="184.411" x2="52.617" y2="193.427" fill="none" stroke="#231f20" stroke-miterlimit="10" stroke-width=".5"/><path d="M35.551,267.732l.237-4.089,1.244-.948s5.214-.593,7.229-1.126,2.677-.331,2.914.439l-.366,5.368s-.83-1.067-2.311-.652-7.348,1.244-7.348,1.244c0,0-1.007.237-1.6-.237Z" fill="none" stroke="#231f20" stroke-miterlimit="10" stroke-width=".5"/><line x1="36.204" y1="269.375" x2="35.551" y2="267.732" fill="none" stroke="#231f20" stroke-miterlimit="10" stroke-width=".5"/><ellipse cx="40.175" cy="264.878" rx="2.165" ry="1.061" transform="translate(-47.598 11.757) rotate(-10.5)" fill="none" stroke="#231f20" stroke-miterlimit="10" stroke-width=".5"/><path d="M142.689,177.879l.066-2.953s-.066-1.969,2.166-2.297l2.855-.328s-.295-.919.984-1.181,3.609-.394,3.609-.394l-.591-1.05s5.414-1.739,7.481,1.542c0,0,1.608,3.347-5.02,3.577l-.853-1.313-3.15.361s-1.148.23-1.05,1.148l-3.511.361s-1.805.033-1.87,1.313v2.33" fill="none" stroke="#231f20" stroke-miterlimit="10" stroke-width=".5"/><polyline points="152.959 174.007 152.631 184.015 154.14 184.507" fill="none" stroke="#231f20" stroke-miterlimit="10" stroke-width=".5"/><path d="M155.387,178.109s2.691-.066,3.806-1.477l.263-4.791" fill="none" stroke="#231f20" stroke-miterlimit="10" stroke-width=".5"/><polyline points="156.864 178.109 156.667 183.49 154.14 184.507 154.6 175.156" fill="none" stroke="#231f20" stroke-miterlimit="10" stroke-width=".5"/><path d="M146.659,176.862s.492,1.247,2.297,1.05,3.773-.328,3.773-.328" fill="none" stroke="#231f20" stroke-miterlimit="10" stroke-width=".5"/><path d="M146.659,178.273s.492,1.247,2.297,1.05,3.773-.328,3.773-.328" fill="none" stroke="#231f20" stroke-miterlimit="10" stroke-width=".5"/><path d="M153.38,170.715l1.726-.138s.794,0,1.139.829l.345.829s.449.898-.483.932-1.726.242-1.726.242" fill="none" stroke="#231f20" stroke-miterlimit="10" stroke-width=".5"/><path d="M156.694,170.543l1.07,2.175s1.419-.005.621-1.45c-.552-1.001-1.692-.725-1.692-.725Z" fill="none" stroke="#231f20" stroke-miterlimit="10" stroke-width=".5"/><line x1="152.631" y1="184.015" x2="151.043" y2="184.205" fill="none" stroke="#231f20" stroke-miterlimit="10" stroke-width=".5"/><path d="M167.32,181.568l-1.206-.075-1.583-.264.754,1.281s.264.452,2.223.264" fill="none" stroke="#231f20" stroke-miterlimit="10" stroke-width=".5"/><path d="M168.325,183.579l-1.206-.075-1.583-.264.754,1.281s.264.452,2.223.264" fill="none" stroke="#231f20" stroke-miterlimit="10" stroke-width=".5"/><path d="M169.33,185.589l-1.206-.075-1.583-.264.754,1.281s.264.452,2.223.264" fill="none" stroke="#231f20" stroke-miterlimit="10" stroke-width=".5"/><path d="M170.336,187.6l-1.206-.075-1.583-.264.754,1.281s.264.452,2.223.264" fill="none" stroke="#231f20" stroke-miterlimit="10" stroke-width=".5"/><path d="M171.341,189.61l-1.206-.075-1.583-.264.754,1.281s.264.452,2.223.264" fill="none" stroke="#231f20" stroke-miterlimit="10" stroke-width=".5"/><path d="M172.346,191.621l-1.206-.075-1.583-.264.754,1.281s.264.452,2.223.264" fill="none" stroke="#231f20" stroke-miterlimit="10" stroke-width=".5"/><path d="M173.351,193.631l-1.206-.075-1.583-.264.754,1.281s.264.452,2.223.264" fill="none" stroke="#231f20" stroke-miterlimit="10" stroke-width=".5"/><path d="M174.357,195.642l-1.206-.075-1.583-.264.754,1.281s.264.452,2.223.264" fill="none" stroke="#231f20" stroke-miterlimit="10" stroke-width=".5"/><path d="M175.431,197.825l-1.206-.075-1.583-.264.754,1.281s.264.452,2.223.264" fill="none" stroke="#231f20" stroke-miterlimit="10" stroke-width=".5"/><path d="M176.505,200.043l-1.206-.075-1.583-.264.754,1.281s.264.452,2.223.264" fill="none" stroke="#231f20" stroke-miterlimit="10" stroke-width=".5"/><path d="M177.511,202.226l-1.206-.075-1.583-.264.754,1.281s.264.452,2.223.264" fill="none" stroke="#231f20" stroke-miterlimit="10" stroke-width=".5"/><line x1="191.33" y1="214.307" x2="195.649" y2="222.247" fill="none" stroke="#231f20" stroke-miterlimit="10" stroke-width=".5"/><polyline points="182.375 211.005 185.042 215.705 189.488 215.196" fill="none" stroke="#231f20" stroke-miterlimit="10" stroke-width=".5"/><polyline points="182.375 215.768 185.042 220.468 189.488 219.96" fill="none" stroke="#231f20" stroke-miterlimit="10" stroke-width=".5"/><polyline points="196.778 238.389 192.013 229.105 195.166 228.515" fill="none" stroke="#231f20" stroke-miterlimit="10" stroke-width=".5"/><polyline points="194.297 237.373 191.192 231.323 191.917 229.15" fill="none" stroke="#231f20" stroke-miterlimit="10" stroke-width=".5"/><line x1="185.042" y1="215.705" x2="185.042" y2="220.468" fill="none" stroke="#231f20" stroke-miterlimit="10" stroke-width=".5"/><line x1="164.532" y1="181.229" x2="164.677" y2="183.39" fill="none" stroke="#231f20" stroke-miterlimit="10" stroke-width=".5"/><line x1="165.532" y1="183.31" x2="165.677" y2="185.471" fill="none" stroke="#231f20" stroke-miterlimit="10" stroke-width=".5"/><line x1="166.559" y1="185.31" x2="166.704" y2="187.471" fill="none" stroke="#231f20" stroke-miterlimit="10" stroke-width=".5"/><line x1="167.559" y1="187.31" x2="167.704" y2="189.471" fill="none" stroke="#231f20" stroke-miterlimit="10" stroke-width=".5"/><line x1="168.532" y1="189.365" x2="168.677" y2="191.525" fill="none" stroke="#231f20" stroke-miterlimit="10" stroke-width=".5"/><line x1="169.559" y1="191.419" x2="169.704" y2="193.58" fill="none" stroke="#231f20" stroke-miterlimit="10" stroke-width=".5"/><line x1="170.559" y1="193.365" x2="170.704" y2="195.525" fill="none" stroke="#231f20" stroke-miterlimit="10" stroke-width=".5"/><line x1="171.559" y1="195.446" x2="171.704" y2="197.607" fill="none" stroke="#231f20" stroke-miterlimit="10" stroke-width=".5"/><line x1="172.636" y1="197.481" x2="172.782" y2="199.641" fill="none" stroke="#231f20" stroke-miterlimit="10" stroke-width=".5"/><line x1="173.713" y1="199.731" x2="173.859" y2="201.892" fill="none" stroke="#231f20" stroke-miterlimit="10" stroke-width=".5"/><line x1="174.743" y1="201.885" x2="174.888" y2="204.046" fill="none" stroke="#231f20" stroke-miterlimit="10" stroke-width=".5"/><path d="M197.303,238.654l-2.663-.444,1.268,2.155s.444.761,3.74.444" fill="none" stroke="#231f20" stroke-miterlimit="10" stroke-width=".5"/><path d="M198.995,242.036l-2.663-.444,1.268,2.155s.444.761,3.74.444" fill="none" stroke="#231f20" stroke-miterlimit="10" stroke-width=".5"/><path d="M200.686,245.419l-2.663-.444,1.268,2.155s.444.761,3.74.444" fill="none" stroke="#231f20" stroke-miterlimit="10" stroke-width=".5"/><path d="M202.377,248.802l-2.663-.444,1.268,2.155s.444.761,3.74.444" fill="none" stroke="#231f20" stroke-miterlimit="10" stroke-width=".5"/><path d="M204.068,252.184l-2.663-.444,1.268,2.155s.444.761,3.74.444" fill="none" stroke="#231f20" stroke-miterlimit="10" stroke-width=".5"/><path d="M205.76,255.567l-2.663-.444,1.268,2.155s.444.761,3.74.444" fill="none" stroke="#231f20" stroke-miterlimit="10" stroke-width=".5"/><path d="M207.451,258.949l-2.663-.444,1.268,2.155s.444.761,3.74.444" fill="none" stroke="#231f20" stroke-miterlimit="10" stroke-width=".5"/><path d="M209.142,262.332l-2.663-.444,1.268,2.155s.444.761,3.74.444" fill="none" stroke="#231f20" stroke-miterlimit="10" stroke-width=".5"/><path d="M210.95,266.005l-2.663-.444,1.268,2.155s.444.761,3.74.444" fill="none" stroke="#231f20" stroke-miterlimit="10" stroke-width=".5"/><path d="M212.758,269.737l-2.663-.444,1.268,2.155s.444.761,3.74.444" fill="none" stroke="#231f20" stroke-miterlimit="10" stroke-width=".5"/><path d="M214.449,273.411l-2.663-.444,1.268,2.155s.444.761,3.74.444" fill="none" stroke="#231f20" stroke-miterlimit="10" stroke-width=".5"/><line x1="194.641" y1="238.21" x2="194.886" y2="241.846" fill="none" stroke="#231f20" stroke-miterlimit="10" stroke-width=".5"/><line x1="196.323" y1="241.712" x2="196.568" y2="245.347" fill="none" stroke="#231f20" stroke-miterlimit="10" stroke-width=".5"/><line x1="198.051" y1="245.077" x2="198.296" y2="248.712" fill="none" stroke="#231f20" stroke-miterlimit="10" stroke-width=".5"/><line x1="199.734" y1="248.442" x2="199.979" y2="252.077" fill="none" stroke="#231f20" stroke-miterlimit="10" stroke-width=".5"/><line x1="201.371" y1="251.898" x2="201.616" y2="255.533" fill="none" stroke="#231f20" stroke-miterlimit="10" stroke-width=".5"/><line x1="203.099" y1="255.354" x2="203.344" y2="258.989" fill="none" stroke="#231f20" stroke-miterlimit="10" stroke-width=".5"/><line x1="204.781" y1="258.628" x2="205.026" y2="262.263" fill="none" stroke="#231f20" stroke-miterlimit="10" stroke-width=".5"/><line x1="206.464" y1="262.129" x2="206.709" y2="265.765" fill="none" stroke="#231f20" stroke-miterlimit="10" stroke-width=".5"/><line x1="208.276" y1="265.553" x2="208.521" y2="269.188" fill="none" stroke="#231f20" stroke-miterlimit="10" stroke-width=".5"/><line x1="210.089" y1="269.339" x2="210.334" y2="272.975" fill="none" stroke="#231f20" stroke-miterlimit="10" stroke-width=".5"/><line x1="211.821" y1="272.964" x2="212.066" y2="276.6" fill="none" stroke="#231f20" stroke-miterlimit="10" stroke-width=".5"/><path d="M22.546,321.193l40.201-7.597s4.191-.798,8.716,2.262c0,0,1.264.665,1.597-.798s-.133-2.595,2.528-3.46" fill="none" stroke="#231f20" stroke-miterlimit="10" stroke-width=".5"/><path d="M345.324,233.908l7.809,6.191s-1.407.633-3.025-.563-5.91-4.854-5.91-4.854c0,0-.774-.492,1.126-.774Z" fill="none" stroke="#231f20" stroke-miterlimit="10" stroke-width=".5"/><path d="M324.075,216.953l6.686,5.301s-1.205.542-2.59-.482-5.06-4.156-5.06-4.156c0,0-.663-.422.964-.663Z" fill="none" stroke="#231f20" stroke-miterlimit="10" stroke-width=".5"/><path d="M306.159,202.742l5.39,4.273s-.971.437-2.088-.388-4.079-3.35-4.079-3.35c0,0-.534-.34.777-.534Z" fill="none" stroke="#231f20" stroke-miterlimit="10" stroke-width=".5"/><path d="M290.688,190.17l4.626,3.667s-.833.375-1.792-.333-3.501-2.876-3.501-2.876c0,0-.458-.292.667-.458Z" fill="none" stroke="#231f20" stroke-miterlimit="10" stroke-width=".5"/><path d="M268.983,173.356c-.759-.633-1.399-1.179-1.399-1.179,0,0-.458-.292.667-.458l1.589,1.26" fill="none" stroke="#231f20" stroke-miterlimit="10" stroke-width=".5"/><path d="M372.49,227.377l1.334-.042,6.815,4.907s.511.372.232.651-1.361-.129-1.361-.129l-6.776-4.846s-.405-.366-.245-.541Z" fill="none" stroke="#231f20" stroke-miterlimit="10" stroke-width=".5"/><path d="M349.975,211.175l1.148-.042,5.891,4.196s.442.318.203.56-1.173-.105-1.173-.105l-5.856-4.144s-.351-.314-.213-.465Z" fill="none" stroke="#231f20" stroke-miterlimit="10" stroke-width=".5"/><path d="M330.835,197.343l1.001-.037,5.135,3.657s.385.277.177.488-1.022-.091-1.022-.091l-5.105-3.612s-.306-.273-.186-.405Z" fill="none" stroke="#231f20" stroke-miterlimit="10" stroke-width=".5"/><path d="M314.591,185.716l.806-.029,4.134,2.944s.31.223.143.393-.823-.074-.823-.074l-4.11-2.908s-.246-.22-.15-.326Z" fill="none" stroke="#231f20" stroke-miterlimit="10" stroke-width=".5"/><path d="M290.602,168.249l.631-.023,3.236,2.305s.243.175.112.307-.644-.058-.644-.058l-3.217-2.276s-.193-.172-.117-.255Z" fill="none" stroke="#231f20" stroke-miterlimit="10" stroke-width=".5"/><path d="M278.785,159.668l.534-.019,2.738,1.95s.205.148.094.26-.545-.049-.545-.049l-2.722-1.926s-.163-.146-.099-.216Z" fill="none" stroke="#231f20" stroke-miterlimit="10" stroke-width=".5"/><path d="M267.81,151.741l.534-.019,2.738,1.95s.205.148.094.26-.545-.049-.545-.049l-2.722-1.926s-.163-.146-.099-.216Z" fill="none" stroke="#231f20" stroke-miterlimit="10" stroke-width=".5"/><path d="M300.712,240.488s5.041,1.846,6.532,6.603" fill="none" stroke="#231f20" stroke-miterlimit="10" stroke-width=".5"/><polygon points="332.116 235.267 333.204 235.048 340.015 240.836 338.481 241.006 332.116 235.267" fill="none" stroke="#231f20" stroke-miterlimit="10" stroke-width=".5"/><path d="M204.966,150.135s1.814.851,2.443,2.221" fill="none" stroke="#231f20" stroke-miterlimit="10" stroke-width=".5"/><path d="M327.122,260.278s-1.937-2.356.452-2.973,4.326-.957,4.326-.957c0,0,2.176-.032,3.486,2.203l-8.264,1.727Z" fill="none" stroke="#231f20" stroke-miterlimit="10" stroke-width=".5"/><path d="M349.283,255.708s-1.83-2.185.558-2.801,3.853-.848,3.853-.848c0,0,2.542-.313,3.852,1.922l-8.264,1.727Z" fill="none" stroke="#231f20" stroke-miterlimit="10" stroke-width=".5"/><polyline points="305.972 152.857 307.398 153.158 308.374 152.933 310.55 153.983 311 155.784" fill="none" stroke="#231f20" stroke-miterlimit="10" stroke-width=".5"/><polyline points="308.039 152.24 309.465 152.54 310.44 152.315 312.617 153.366 313.067 155.167" fill="none" stroke="#231f20" stroke-miterlimit="10" stroke-width=".5"/><line x1="305.685" y1="153.386" x2="310.34" y2="156.219" fill="none" stroke="#231f20" stroke-miterlimit="10" stroke-width=".5"/><polyline points="320.917 151.918 322.219 152.205 323.109 151.99 325.097 152.996 325.508 154.72" fill="none" stroke="#231f20" stroke-miterlimit="10" stroke-width=".5"/><polyline points="322.804 151.327 324.106 151.614 324.997 151.399 326.984 152.405 327.395 154.129" fill="none" stroke="#231f20" stroke-miterlimit="10" stroke-width=".5"/><line x1="320.655" y1="152.423" x2="324.905" y2="155.136" fill="none" stroke="#231f20" stroke-miterlimit="10" stroke-width=".5"/><polyline points="303.303 141.977 304.581 142.23 305.455 142.04 307.406 142.924 307.809 144.438" fill="none" stroke="#231f20" stroke-miterlimit="10" stroke-width=".5"/><polyline points="305.155 141.458 306.433 141.711 307.307 141.521 309.258 142.405 309.662 143.919" fill="none" stroke="#231f20" stroke-miterlimit="10" stroke-width=".5"/><line x1="303.046" y1="142.421" x2="307.217" y2="144.803" fill="none" stroke="#231f20" stroke-miterlimit="10" stroke-width=".5"/><polyline points="338.242 161.796 339.655 162.099 340.622 161.872 342.778 162.933 343.224 164.75" fill="none" stroke="#231f20" stroke-miterlimit="10" stroke-width=".5"/><polyline points="340.29 161.173 341.703 161.476 342.669 161.249 344.826 162.31 345.272 164.127" fill="none" stroke="#231f20" stroke-miterlimit="10" stroke-width=".5"/><line x1="337.958" y1="162.329" x2="342.569" y2="165.189" fill="none" stroke="#231f20" stroke-miterlimit="10" stroke-width=".5"/><polyline points="374.002 181.924 375.882 182.304 377.169 182.019 380.039 183.348 380.633 185.628" fill="none" stroke="#231f20" stroke-miterlimit="10" stroke-width=".5"/><polyline points="376.727 181.143 378.608 181.522 379.894 181.237 382.764 182.567 383.358 184.847" fill="none" stroke="#231f20" stroke-miterlimit="10" stroke-width=".5"/><line x1="373.624" y1="182.592" x2="379.761" y2="186.178" fill="none" stroke="#231f20" stroke-miterlimit="10" stroke-width=".5"/><polyline points="386.236 202.176 388.545 202.742 390.166 202.551 393.636 204.211 394.205 206.682" fill="none" stroke="#231f20" stroke-miterlimit="10" stroke-width=".5"/><polyline points="389.682 201.583 391.992 202.15 393.612 201.959 397.082 203.619 397.651 206.089" fill="none" stroke="#231f20" stroke-miterlimit="10" stroke-width=".5"/><line x1="385.716" y1="202.853" x2="393.081" y2="207.189" fill="none" stroke="#231f20" stroke-miterlimit="10" stroke-width=".5"/><polyline points="406.413 200.257 408.722 200.823 410.343 200.632 413.813 202.292 414.382 204.762" fill="none" stroke="#231f20" stroke-miterlimit="10" stroke-width=".5"/><polyline points="409.859 199.664 412.168 200.23 413.789 200.039 417.259 201.699 417.828 204.17" fill="none" stroke="#231f20" stroke-miterlimit="10" stroke-width=".5"/><line x1="405.893" y1="200.933" x2="413.258" y2="205.27" fill="none" stroke="#231f20" stroke-miterlimit="10" stroke-width=".5"/><polyline points="442.165 220.145 444.474 220.711 446.095 220.52 449.565 222.18 450.134 224.651" fill="none" stroke="#231f20" stroke-miterlimit="10" stroke-width=".5"/><polyline points="445.611 219.552 447.921 220.119 449.541 219.928 453.011 221.588 453.58 224.058" fill="none" stroke="#231f20" stroke-miterlimit="10" stroke-width=".5"/><line x1="441.645" y1="220.822" x2="449.01" y2="225.158" fill="none" stroke="#231f20" stroke-miterlimit="10" stroke-width=".5"/><line x1="495.495" y1="230.099" x2="484.353" y2="230.261" fill="none" stroke="#231f20" stroke-miterlimit="10" stroke-width=".5"/><line x1="312.684" y1="135.71" x2="312.684" y2="138.444" fill="none" stroke="#231f20" stroke-miterlimit="10" stroke-width=".5"/><line x1="303.228" y1="134.115" x2="303.228" y2="136.849" fill="none" stroke="#231f20" stroke-miterlimit="10" stroke-width=".5"/><ellipse cx="489.834" cy="263.99" rx="2.105" ry="2.894" transform="translate(-34.266 77.049) rotate(-8.691)" fill="none" stroke="#231f20" stroke-miterlimit="10" stroke-width=".5"/><path d="M497.717,258.652l3.713-1.115.033-.017c1.487,0,2.853,1.31,2.853,3.294,0,1.488-.678,2.765-1.644,3.31l-.042.053-4.95,1.645" fill="none" stroke="#231f20" stroke-miterlimit="10" stroke-width=".5"/><polyline points="244.709 148.632 265.565 146.59 267.898 147.173 294.929 166.452 301.486 174.97 310.923 181.246 313.859 181.901 337.032 198.106 337.988 197.984 339.501 199.096 339.402 199.764 362.235 215.732 365.705 216.426 368.134 218.335 368.308 221.111 389.638 235.862 403.55 242.502 412.086 240.816" fill="none" stroke="#231f20" stroke-miterlimit="10" stroke-width=".5"/><path d="M266.098,148.081l7.183,4.677.084.752,1.253.835,1.336-.084s3.842,3.09,5.262,5.847" fill="none" stroke="#231f20" stroke-miterlimit="10" stroke-width=".5"/><path d="M283.888,159.941s1.086,1.754,1.086,3.758" fill="none" stroke="#231f20" stroke-miterlimit="10" stroke-width=".5"/><path d="M284.9,161.053s6.123,3.849,7.942,7.208" fill="none" stroke="#231f20" stroke-miterlimit="10" stroke-width=".5"/><polyline points="293.954 167.997 300.562 175.988 297.525 176.467" fill="none" stroke="#231f20" stroke-miterlimit="10" stroke-width=".5"/><polyline points="297.796 177.524 306.953 183.824 310.001 183.503" fill="none" stroke="#231f20" stroke-miterlimit="10" stroke-width=".5"/><path d="M312.415,182.488l9.379,6.785s4.79,2.594,5.654,2.927" fill="none" stroke="#231f20" stroke-miterlimit="10" stroke-width=".5"/><polyline points="326.784 192.6 328.114 194.728 335.232 197.788 337.161 198.786" fill="none" stroke="#231f20" stroke-miterlimit="10" stroke-width=".5"/><polyline points="338.691 200.05 339.49 201.779 361.042 216.813 365.034 217.478 366.497 218.676 366.83 221.536 373.748 226.326" fill="none" stroke="#231f20" stroke-miterlimit="10" stroke-width=".5"/><ellipse cx="380.227" cy="214.937" rx="1.949" ry="2.671" transform="translate(-48.371 130.829) rotate(-18.376)" fill="none" stroke="#231f20" stroke-miterlimit="10" stroke-width=".5"/><path d="M379.385,212.402l3.2-.591c.969-.322,2.111.493,2.552,1.821s.013,2.664-.955,2.986l-3.271.892" fill="none" stroke="#231f20" stroke-miterlimit="10" stroke-width=".5"/><ellipse cx="301.569" cy="162.378" rx="1.094" ry="1.499" transform="translate(-35.813 103.351) rotate(-18.376)" fill="none" stroke="#231f20" stroke-miterlimit="10" stroke-width=".5"/><path d="M301.096,160.956l1.796-.331c.544-.181,1.185.277,1.432,1.022s.007,1.495-.536,1.676l-1.835.501" fill="none" stroke="#231f20" stroke-miterlimit="10" stroke-width=".5"/><polyline points="419 245.425 272.143 147.017 272.304 139.788" fill="none" stroke="#231f20" stroke-miterlimit="10" stroke-width=".5"/><path d="M365.704,249.945l18.031-3.779s.764-1.856-1.827-3.26c0,0-.782-.662-2.708-.085l-17.138,3.402" fill="none" stroke="#231f20" stroke-miterlimit="10" stroke-width=".5"/><line x1="55.577" y1="270.416" x2="53.681" y2="289.887" fill="none" stroke="#231f20" stroke-miterlimit="10" stroke-width=".5"/><path d="M47.93,164.982l-.067-.938,2.077-4.624h1.34l.268-.871h1.206l.469-.201,18.294,1.608v.871l46.439,4.289.268-.469,13.335,1.206,1.608,1.943.603.067,2.345,2.278,1.675.67.335-1.608s-.201-.536,1.273-.737l-.603-.67.804-3.016s.335-.737,2.077-.402c0,0,1.34.268,1.608.67l1.005.402-.804,3.217s-1.206.536-1.943.335l1.005,1.474-.268.737,1.675.134.134.469.067.938-.402,2.144-5.562-.804s-.134-.268-.871-.402c0,0-3.083-.201-6.634,2.546,0,0-2.412,1.407-3.418,1.206l-4.959-.603,2.211,3.887-1.943,9.181-74.757-6.3-1.149-.225-.93,1.095-2.517.93-5.527-.493s-.985-.602-.821-1.478l.219-2.791.93.055-.93-.711-.219-1.04v-5.527s.274-1.368,1.313-1.368l5.199.328s.547.602.547,1.259l.493.328v-.93l2.736-5.746-.055-.821.817-1.493Z" fill="#fff" stroke="#fff" stroke-linecap="round" stroke-linejoin="round" stroke-width="2"/><polygon points="47.742 183.547 122.664 189.865 124.596 180.797 47.965 174.628 47.742 183.547" fill="none" stroke="#231f20" stroke-linecap="round" stroke-linejoin="round" stroke-width=".5"/><line x1="119.816" y1="172.19" x2="124.596" y2="180.797" fill="none" stroke="#231f20" stroke-linecap="round" stroke-linejoin="round" stroke-width=".5"/><path d="M46.558,174.005s.174-1.077.434-1.396c0,0-1.14-.178-1.555.013l6.243-13.974s.441-.287,1.124-.088l.419-.353,18.404,1.741-.198,1.367s-.176.419.727.529,46.035,4.302,46.035,4.302c0,0,.72.063.704-.257l-.56-1.377s-.224-.096-.224.208l-.064.496-46.266-4.435" fill="none" stroke="#231f20" stroke-linecap="round" stroke-linejoin="round" stroke-width=".5"/><path d="M118.336,164.511l13.077,1.188s1.225.57.883,1.681l-.427,1.767,3.249,2.394s1.168.57.855,1.453c0,0-.627.769-3.648.37l-37.671-3.535s-4.529-.377-7.235,1.321-6.857,4.404-6.857,4.404c0,0-2.452,1.78-6.101,1.131" fill="none" stroke="#231f20" stroke-linecap="round" stroke-linejoin="round" stroke-width=".5"/><polyline points="55.029 158.484 49.461 171.856 46.743 171.593 52.443 158.615" fill="none" stroke="#231f20" stroke-linecap="round" stroke-linejoin="round" stroke-width=".5"/><path d="M47.79,175.01l-1.105-.079s-.592,0-.592.789v.71" fill="none" stroke="#231f20" stroke-linecap="round" stroke-linejoin="round" stroke-width=".5"/><path d="M39.11,181.678l.039-4.814s.158-.829,1.065-.789l5.287.513s.631.237,1.144-.158v-.868l1.223.118" fill="none" stroke="#231f20" stroke-linecap="round" stroke-linejoin="round" stroke-width=".5"/><line x1="46.172" y1="175.207" x2="46.606" y2="174.023" fill="none" stroke="#231f20" stroke-linecap="round" stroke-linejoin="round" stroke-width=".5"/><path d="M38.32,181.638v-.868s-.237-.118-.868-.513-.473-1.342-.473-1.342l-.079-5.484s.158-1.381,1.381-1.381,4.616.316,4.616.316c0,0,1.026-.237,1.065,1.184,0,0,.158.434,1.026.395,0,0,.75,0,.829-.395v-.552l.829.039" fill="none" stroke="#231f20" stroke-linecap="round" stroke-linejoin="round" stroke-width=".5"/><path d="M42.818,176.272s-.158-.631.552-.552,2.644.237,2.644.237" fill="none" stroke="#231f20" stroke-linecap="round" stroke-linejoin="round" stroke-width=".5"/><path d="M51.144,159.346l-1.065.079-2.091,4.419s-.197.513,0,1.223l.75.079" fill="none" stroke="#231f20" stroke-linecap="round" stroke-linejoin="round" stroke-width=".5"/><path d="M38.32,180.77l-1.184-.079s-.178.345-.182.71.163.75.853.829c1.381.158,3.354.197,3.354.197,0,0,1.105.118,1.302-1.144v-1.065s1.46.039,2.486.789c0,0,1.026.552.907,3.117,0,0,.039.434-.986.552l-1.381.631-5.642-.434s-.907-.158-.907-.986l.039-2.288" fill="none" stroke="#231f20" stroke-linecap="round" stroke-linejoin="round" stroke-width=".5"/><path d="M47.829,180.139l-1.302,3.512s-.473.75-.75.907" fill="none" stroke="#231f20" stroke-linecap="round" stroke-linejoin="round" stroke-width=".5"/><path d="M122.367,176.887l5.007.556s1.808-.209,3.894-1.599,3.199-1.808,3.199-1.808c0,0,1.331-.576,3.341-.264" fill="none" stroke="#231f20" stroke-linecap="round" stroke-linejoin="round" stroke-width=".5"/><path d="M134.731,169.312l3.067,1.603,6.063.523s.637.772-.454.772l-5.277-.436s-1.483-.393-2.312-1.221l-2.137-2.137-.387-.461" fill="none" stroke="#231f20" stroke-linecap="round" stroke-linejoin="round" stroke-width=".5"/><polyline points="132.416 167.02 132.874 167.478 133.201 167.805" fill="none" stroke="#231f20" stroke-linecap="round" stroke-linejoin="round" stroke-width=".5"/><polygon points="138.655 172.543 138.238 174.145 143.818 174.686 144.277 172.959 138.655 172.543" fill="none" stroke="#231f20" stroke-linecap="round" stroke-linejoin="round" stroke-width=".5"/><line x1="143.895" y1="172.221" x2="144.303" y2="172.881" fill="none" stroke="#231f20" stroke-linecap="round" stroke-linejoin="round" stroke-width=".5"/><polyline points="138.238 174.145 137.603 173.28 137.962 171.796 138.621 172.638" fill="none" stroke="#231f20" stroke-linecap="round" stroke-linejoin="round" stroke-width=".5"/><line x1="137.719" y1="170.809" x2="138.166" y2="169.164" fill="none" stroke="#231f20" stroke-linecap="round" stroke-linejoin="round" stroke-width=".5"/><path d="M139.483,168.529s-1.434-.071-1.246.729c0,0,1.034,1.505,4.373,1.128l-.964-1.269" fill="none" stroke="#231f20" stroke-linecap="round" stroke-linejoin="round" stroke-width=".5"/><path d="M139.553,164.768l-.752,2.868s.071,1.058,1.975,1.293c0,0,1.575.423,2.798-.376l.729-3.056-1.105.4-1.881-.118s-1.363-.282-1.763-1.011Z" fill="none" stroke="#231f20" stroke-linecap="round" stroke-linejoin="round" stroke-width=".5"/><path d="M139.553,164.768c.235-.682,1.787-.423,1.787-.423,0,0,.94.118,1.528.423l1.434.729" fill="none" stroke="#231f20" stroke-linecap="round" stroke-linejoin="round" stroke-width=".5"/><line x1="142.351" y1="171.232" x2="142.609" y2="170.386" fill="none" stroke="#231f20" stroke-linecap="round" stroke-linejoin="round" stroke-width=".5"/><path d="M142.486,164.978c-.023.137-.424.185-.895.106s-.835-.254-.812-.391" fill="none" stroke="#231f20" stroke-linecap="round" stroke-linejoin="round" stroke-width=".5"/><line x1="140.777" y1="166.461" x2="140.345" y2="168.12" fill="none" stroke="#231f20" stroke-linecap="round" stroke-linejoin="round" stroke-width=".5"/><line x1="142.98" y1="166.593" x2="142.548" y2="168.252" fill="none" stroke="#231f20" stroke-linecap="round" stroke-linejoin="round" stroke-width=".5"/><path d="M139.968,168.817l-.191.683s.815.549,1.446.24l.216-.661" fill="none" stroke="#231f20" stroke-linecap="round" stroke-linejoin="round" stroke-width=".5"/><line x1="46.285" y1="177.02" x2="46.369" y2="182.876" fill="none" stroke="#231f20" stroke-linecap="round" stroke-linejoin="round" stroke-width=".5"/><path d="M57.061,162.26l2.892-1.196s.445-.278.918-.278,6.145.612,6.145.612l2.836,2.03s.723.473.083.89l-3.42,1.64s-.779.25-1.891.167-4.782-.528-4.782-.528c0,0-.834-.25-1.39-.751s-1.974-1.752-1.974-1.752c0,0-.167-.584.584-.834Z" fill="none" stroke="#d1d3d4" stroke-linecap="round" stroke-linejoin="round" stroke-width="2"/><path d="M47.914,164.932l-.833,1.765s.566-.3.833.067c0,0-.699.133-.999.799l-2.398,5.229s-.2.333-.133.966" fill="none" stroke="#231f20" stroke-linecap="round" stroke-linejoin="round" stroke-width=".5"/><line x1="47.081" y1="166.697" x2="47.048" y2="167.297" fill="none" stroke="#231f20" stroke-linecap="round" stroke-linejoin="round" stroke-width=".5"/><path d="M58.563,162.622l2.836-1.084s.306-.139.834-.083,2.92.278,2.92.278c0,0,.806.083,1.279.445s1.668,1.279,1.668,1.279c0,0,.445.306-.056.584l-2.391,1.084s-.528.278-1.307.195l-3.114-.306s-.862-.195-1.279-.528-1.613-1.335-1.613-1.335c0,0-.111-.417.222-.528Z" fill="none" stroke="#231f20" stroke-linecap="round" stroke-linejoin="round" stroke-width=".5"/></g><g id="b"><circle cx="211.735" cy="79.703" r="75.771" fill="#fff"/><path d="M248.496,64.033l-2.363,16.855-.036.231s2.41,2.499,2.153,5.749l-.249,1.181c-.609,6.854-2.589,10.357-2.589,10.357l-3.122,2.894-21.932-3.884-1.904-3.427s-.228-8.225.838-10.89l.039-.33c.328-3.705,3.388-5.001,3.388-5.001l.225-.068,1.692-12.772.021.028,1.49-6.332s4.377-4.749,12.85-2.794c0,0,9.778,2.142,9.591,7.543l-.093.659Z" fill="#6a8bc7" opacity=".45"/><g clip-path="url(#c)"><path d="M224.649,65.264l1.49-6.332s4.377-4.749,12.85-2.794c0,0,9.778,2.142,9.591,7.543l-.745,4.656s-.559,1.956-2.514,2.98-7.915,3.911-7.915,3.911c0,0-2.887,1.862-5.494-.745l-6.146-5.96s-1.304-1.862-1.117-3.259Z" fill="none" stroke="#231f20" stroke-miterlimit="10" stroke-width=".5"/><path d="M248.208,66.009s-.559,1.956-2.514,2.98-7.915,3.911-7.915,3.911c0,0-2.887,1.862-5.494-.745l-6.146-5.96s-.989-1.413-1.121-2.7" fill="none" stroke="#231f20" stroke-miterlimit="10" stroke-width=".5"/><path d="M248.488,64.34l-2.701,19.268s-.559,1.956-2.514,2.98-7.915,3.911-7.915,3.911c0,0-2.887,1.862-5.494-.745l-6.146-5.96s-1.304-1.862-1.117-3.259l2.027-15.299" fill="none" stroke="#231f20" stroke-miterlimit="10" stroke-width=".5"/><ellipse cx="236.801" cy="63.541" rx="5.451" ry="8.249" transform="translate(139.081 288.403) rotate(-81.532)" fill="none" stroke="#231f20" stroke-miterlimit="10" stroke-width=".5"/><ellipse cx="236.599" cy="64.295" rx="2.717" ry="4.112" transform="translate(138.163 288.846) rotate(-81.532)" fill="none" stroke="#231f20" stroke-miterlimit="10" stroke-width=".5"/><path d="M228.549,63.444c.443-2.978,4.456-4.848,8.962-4.177,4.136.616,7.251,3.159,7.391,5.875" fill="none" stroke="#231f20" stroke-miterlimit="10" stroke-width=".5"/><path d="M232.001,69.775s3.351,1.675,7.006.99" fill="none" stroke="#231f20" stroke-miterlimit="10" stroke-width=".5"/><path d="M246.089,81.426s6.168,6.397-2.285,12.032l-22.694-3.732c-4.874-8.91,1.599-11.651,1.599-11.651" fill="none" stroke="#231f20" stroke-miterlimit="10" stroke-width=".5"/><path d="M219.283,83.406c-1.066,2.665-.838,10.89-.838,10.89l1.904,3.427,21.932,3.884,3.122-2.894s1.98-3.503,2.589-10.357" fill="none" stroke="#231f20" stroke-miterlimit="10" stroke-width=".5"/><line x1="221.111" y1="89.727" x2="220.349" y2="97.723" fill="none" stroke="#231f20" stroke-miterlimit="10" stroke-width=".5"/><line x1="243.805" y1="93.459" x2="242.282" y2="101.607" fill="none" stroke="#231f20" stroke-miterlimit="10" stroke-width=".5"/><line x1="223.984" y1="76.594" x2="225.13" y2="67.899" fill="none" stroke="#231f20" stroke-linecap="round" stroke-linejoin="round" stroke-width=".5"/><line x1="224.713" y1="77.583" x2="225.859" y2="68.888" fill="none" stroke="#231f20" stroke-linecap="round" stroke-linejoin="round" stroke-width=".5"/><line x1="225.755" y1="78.52" x2="226.9" y2="69.825" fill="none" stroke="#231f20" stroke-linecap="round" stroke-linejoin="round" stroke-width=".5"/><line x1="226.692" y1="79.458" x2="227.837" y2="70.763" fill="none" stroke="#231f20" stroke-linecap="round" stroke-linejoin="round" stroke-width=".5"/><line x1="227.889" y1="80.343" x2="229.035" y2="71.648" fill="none" stroke="#231f20" stroke-linecap="round" stroke-linejoin="round" stroke-width=".5"/><line x1="228.931" y1="81.644" x2="230.076" y2="72.949" fill="none" stroke="#231f20" stroke-linecap="round" stroke-linejoin="round" stroke-width=".5"/><line x1="230.024" y1="82.738" x2="231.169" y2="74.043" fill="none" stroke="#231f20" stroke-linecap="round" stroke-linejoin="round" stroke-width=".5"/><line x1="237.105" y1="84.091" x2="238.511" y2="74.667" fill="none" stroke="#231f20" stroke-linecap="round" stroke-linejoin="round" stroke-width=".5"/><line x1="238.511" y1="83.415" x2="239.917" y2="73.991" fill="none" stroke="#231f20" stroke-linecap="round" stroke-linejoin="round" stroke-width=".5"/><line x1="239.917" y1="82.686" x2="241.322" y2="73.262" fill="none" stroke="#231f20" stroke-linecap="round" stroke-linejoin="round" stroke-width=".5"/><line x1="241.27" y1="82.165" x2="242.676" y2="72.741" fill="none" stroke="#231f20" stroke-linecap="round" stroke-linejoin="round" stroke-width=".5"/><line x1="242.676" y1="81.488" x2="244.082" y2="72.064" fill="none" stroke="#231f20" stroke-linecap="round" stroke-linejoin="round" stroke-width=".5"/><line x1="243.926" y1="80.863" x2="245.331" y2="71.439" fill="none" stroke="#231f20" stroke-linecap="round" stroke-linejoin="round" stroke-width=".5"/><line x1="245.019" y1="80.134" x2="246.425" y2="70.71" fill="none" stroke="#231f20" stroke-linecap="round" stroke-linejoin="round" stroke-width=".5"/><line x1="245.956" y1="78.989" x2="247.362" y2="69.565" fill="none" stroke="#231f20" stroke-linecap="round" stroke-linejoin="round" stroke-width=".5"/><path d="M247.983,84.771l5.841,1.001-3.004,25.534s-.334,3.004-.334,3.838-.668,4.339-.668,4.339c0,0-.834,3.838-5.34,3.004s-4.005-3.505-4.005-4.005,1.001-5.507,1.001-5.507l.668-3.004s-2.67-1.335-3.004.501l-27.703-5.007,5.007-19.86s.334-3.505,2.837-3.672" fill="none" stroke="#231f20" stroke-linecap="round" stroke-linejoin="round" stroke-width=".5"/><path d="M239.138,110.472s.334,6.342-7.176,6.175l-32.376-5.841-14.853-5.841-11.348-7.844s-5.34-3.838-3.171-11.015l16.021,11.515,15.187,6.175,10.013,1.669" fill="none" stroke="#231f20" stroke-linecap="round" stroke-linejoin="round" stroke-width=".5"/><line x1="170.213" y1="86.106" x2="154.138" y2="75.498" fill="none" stroke="#231f20" stroke-linecap="round" stroke-linejoin="round" stroke-width=".5"/><line x1="169.334" y1="88.599" x2="153.258" y2="77.99" fill="none" stroke="#231f20" stroke-linecap="round" stroke-linejoin="round" stroke-width=".5"/><polyline points="201.311 111.468 199.857 115.71 235.97 122.496 237.303 115.104" fill="none" stroke="#231f20" stroke-linecap="round" stroke-linejoin="round" stroke-width=".5"/><polyline points="123.588 119.405 153.607 125.206 165.063 123.611 184.061 114.765 194.792 114.475 199.857 115.71 199.614 124.435 234.515 131.1 235.97 122.496" fill="none" stroke="#231f20" stroke-linecap="round" stroke-linejoin="round" stroke-width=".5"/><path d="M81.919,62.728l72.039,11.949-2.255,4.671s2.658.403,2.819,2.819l-3.06,7.087-30.139,32.579-1.075,38.866-3.045,5.911" fill="none" stroke="#231f20" stroke-linecap="round" stroke-linejoin="round" stroke-width=".5"/><path d="M113.426,132.12l7.733-20.253,23.936-21.358s2.578-3.314-.921-4.603-4.787.184-4.787.184l-20.069,14.545-13.072,21.174-.736,35.719s.552,4.419,6.26,3.682,4.603-5.708,4.603-5.708l-2.946-23.383Z" fill="none" stroke="#231f20" stroke-linecap="round" stroke-linejoin="round" stroke-width=".5"/><path d="M183.183,94.617l22.608-68.641s.817-3.813-2.996-4.086l-15.254-2.179" fill="none" stroke="#231f20" stroke-linecap="round" stroke-linejoin="round" stroke-width=".5"/><path d="M82.129,47.223l53.66,8.716s3.618.426,7.129-.785c2.107-.726,4.175-2.041,5.401-4.391,3.269-6.265,37.035-75.714,37.035-75.714" fill="none" stroke="#231f20" stroke-linecap="round" stroke-linejoin="round" stroke-width=".5"/><path d="M142.987,64.436l.515-1.031c4.703,1.031,5.412,4.446,5.412,4.446l.451,3.801-.902,1.933-.644-4.703c-.709-2.642-5.145-4.041-5.145-4.041l-.598-5.26s-.35-2.519.841-4.427l.585,8.315" fill="none" stroke="#231f20" stroke-linecap="round" stroke-linejoin="round" stroke-width=".5"/><path d="M155.942,72.664s.511-1.141-1.68-2.043-4.575-2.126-4.832-3.866-1.031-9.149-1.031-9.149l-5.348-.838" fill="none" stroke="#231f20" stroke-linecap="round" stroke-linejoin="round" stroke-width=".5"/><path d="M172.231,43.226l-5.446,13.11s-.335.604-.268,1.744" fill="none" stroke="#231f20" stroke-linecap="round" stroke-linejoin="round" stroke-width=".5"/><polygon points="177.726 42.186 173.55 52.597 173.056 41.305 175.583 35.249 177.549 30.536 177.935 41.478 177.726 42.186" fill="none" stroke="#231f20" stroke-linecap="round" stroke-linejoin="round" stroke-width=".5"/><path d="M187.732,17.241l3.516-8.766s.417-1.229.417-2.503l.067-8.249s-.536-.738-.604.268l-3.503,8.394.106,10.855Z" fill="none" stroke="#231f20" stroke-linecap="round" stroke-linejoin="round" stroke-width=".5"/><path d="M187.109,7.624l-3.909,9.368.3,10.798,3.452-8.606s.136-.432.136-.89.021-10.67.021-10.67Z" fill="none" stroke="#231f20" stroke-linecap="round" stroke-linejoin="round" stroke-width=".5"/><path d="M182.492,18.69l-4.154,9.955.21,10.455s.025.41.238.443l3.683-9.183s.37-.769.396-1.616l-.374-10.054Z" fill="none" stroke="#231f20" stroke-linecap="round" stroke-linejoin="round" stroke-width=".5"/><path d="M167.871,66.756l4.272-10.65.244-.551c.345-1.481.196-2.668.196-2.668l-.345-9.673" fill="none" stroke="#231f20" stroke-linecap="round" stroke-linejoin="round" stroke-width=".5"/><path d="M153.958,74.677l3.35.432s2.57.161,3.374-1.896,5.964-14.298,5.964-14.298c0,0,.495-.847.692.052l.781,13.919s.052,2.402-.502,3.84-2.471,6.011-2.471,6.011" fill="none" stroke="#231f20" stroke-linecap="round" stroke-linejoin="round" stroke-width=".5"/><path d="M143.309,55.416l4.639.644s2.513.644,2.771,2.771.966,8.505.966,8.505l.644.966s5.412,1.289,5.67,4.575l6.556-14.771,2.624.356" fill="none" stroke="#231f20" stroke-linecap="round" stroke-linejoin="round" stroke-width=".5"/><line x1="149.365" y1="71.652" x2="157.947" y2="73.007" fill="none" stroke="#231f20" stroke-linecap="round" stroke-linejoin="round" stroke-width=".5"/><line x1="167.952" y1="69.235" x2="192.957" y2="6.071" fill="none" stroke="#231f20" stroke-linecap="round" stroke-linejoin="round" stroke-width=".5"/><path d="M170.265,48.145l.295,4.643s.247,1.184-.296,2.418-2.665,6.613-2.665,6.613" fill="none" stroke="#231f20" stroke-linecap="round" stroke-linejoin="round" stroke-width=".5"/><path d="M175.583,35.249l.267,5.523s0,.583-.215,1.165-2.208,5.489-2.208,5.489" fill="none" stroke="#231f20" stroke-linecap="round" stroke-linejoin="round" stroke-width=".5"/><path d="M185.113,12.533l.083,5.47s0,.416-.208.957-1.539,3.723-1.539,3.723" fill="none" stroke="#231f20" stroke-linecap="round" stroke-linejoin="round" stroke-width=".5"/><path d="M189.819,1.225l-.07,5.163s.07.837-.174,1.709l-1.814,4.291" fill="none" stroke="#231f20" stroke-linecap="round" stroke-linejoin="round" stroke-width=".5"/><path d="M196.399-19.851c2.462.051,2.359,1.128,2.359,1.128l-3.333,8.051s-.41.872-.41,2.718-.205,13.128-.205,13.128c0,0-.051.974.564.051s3.026-7.795,3.026-7.795l.41-16.102" fill="none" stroke="#231f20" stroke-linecap="round" stroke-linejoin="round" stroke-width=".5"/><path d="M192.911,5.277l.205-13.897s.205-1.744.718-2.872,2.82-6.769,2.82-6.769c-.051-2.923-4.288-3.726-4.288-3.726l-40.037,90.289" fill="none" stroke="#231f20" stroke-linecap="round" stroke-linejoin="round" stroke-width=".5"/><path d="M180.577,23.209l.248,5.173s.041.952-.29,1.862l-1.945,4.718" fill="none" stroke="#231f20" stroke-linecap="round" stroke-linejoin="round" stroke-width=".5"/><path d="M166.349,30.196l-5.593,12.235-.378-4.362c-.128-1.799-2.51-2.519-2.51-2.519l5.893-12.26s1.799.387,2.142,1.801.446,5.105.446,5.105Z" fill="none" stroke="#231f20" stroke-linecap="round" stroke-linejoin="round" stroke-width=".5"/><path d="M182.277-4.647l-4.237,9.269-.19-4.47c-.035-1.267-2.033-1.941-2.033-1.941l4.411-9.176s1.949.535,1.974,1.904l.076,4.414Z" fill="none" stroke="#231f20" stroke-linecap="round" stroke-linejoin="round" stroke-width=".5"/><path d="M177.451,5.91l-4.707,10.296-.167-4.653s-.351-1.574-2.239-1.946l4.849-10.087s2.063.351,2.099,1.829l.165,4.56Z" fill="none" stroke="#231f20" stroke-linecap="round" stroke-linejoin="round" stroke-width=".5"/><path d="M172.154,17.498l-5.165,11.298-.157-4.165c-.095-2.127-2.432-2.669-2.432-2.669l5.336-11.1s1.921.12,2.143,1.707l.275,4.93Z" fill="none" stroke="#231f20" stroke-linecap="round" stroke-linejoin="round" stroke-width=".5"/><path d="M157.071,37.207l-6.481,13.481c2.462.328,2.721,2.37,2.721,2.37l.442,4.692,6.19-13.541-.421-5.242s-.703-1.765-2.45-1.76Z" fill="none" stroke="#231f20" stroke-linecap="round" stroke-linejoin="round" stroke-width=".5"/><polyline points="153.568 52.674 157.594 43.936 157.071 37.207" fill="none" stroke="#231f20" stroke-linecap="round" stroke-linejoin="round" stroke-width=".5"/><polyline points="163.761 23.29 164.104 30.016 160.378 38.068" fill="none" stroke="#231f20" stroke-linecap="round" stroke-linejoin="round" stroke-width=".5"/><polyline points="169.736 10.862 170.006 17.521 166.864 24.377" fill="none" stroke="#231f20" stroke-linecap="round" stroke-linejoin="round" stroke-width=".5"/><polyline points="172.673 11.934 175.371 6.156 175.212 .093" fill="none" stroke="#231f20" stroke-linecap="round" stroke-linejoin="round" stroke-width=".5"/><path d="M177.956.642l2.165-4.47s.244-.559.244-1.362-.21-5.342-.21-5.342" fill="none" stroke="#231f20" stroke-linecap="round" stroke-linejoin="round" stroke-width=".5"/><ellipse cx="164.497" cy="74.072" rx="5.86" ry="1.807" transform="translate(63.285 223.41) rotate(-80.115)" fill="none" stroke="#231f20" stroke-linecap="round" stroke-linejoin="round" stroke-width=".5"/><line x1="205.791" y1="25.977" x2="348.188" y2="45.963" fill="none" stroke="#231f20" stroke-linecap="round" stroke-linejoin="round" stroke-width=".5"/><line x1="199.51" y1="-15.773" x2="348.927" y2="1.996" fill="none" stroke="#231f20" stroke-linecap="round" stroke-linejoin="round" stroke-width=".5"/><path d="M218.094,64.086s-.852-19.031,20.097-17.273" fill="none" stroke="#231f20" stroke-miterlimit="10" stroke-width="3.9"/><polygon points="236.002 52.483 246.557 47.515 236.977 40.857 236.002 52.483" fill="#231f20"/></g><circle cx="211.735" cy="79.703" r="75.771" fill="none" stroke="#fff" stroke-miterlimit="10" stroke-width="3"/><circle cx="211.735" cy="79.703" r="75.771" fill="none" stroke="#231f20" stroke-miterlimit="10" stroke-width=".75"/><line x1="180.394" y1="129.335" x2="143.311" y2="160.92" fill="none" stroke="#fff" stroke-linecap="round" stroke-linejoin="round" stroke-width="3"/><line x1="180.394" y1="129.335" x2="143.311" y2="160.92" fill="none" stroke="#231f20" stroke-linecap="round" stroke-linejoin="round" stroke-width=".75"/><path d="M287.406,41.271c0,7.593-6.246,13.745-13.95,13.745s-13.953-6.152-13.953-13.745,6.246-13.755,13.953-13.755,13.95,6.159,13.95,13.755" fill="#231f20" stroke="#fff" stroke-miterlimit="10" stroke-width="1.5"/><rect x="260.323" y="33.277" width="25.7" height="25.226" fill="none"/><path d="M277.905,46.539v1.774h-9.936c-.014-.444.058-.872.215-1.282.253-.677.658-1.343,1.215-2,.557-.656,1.362-1.415,2.415-2.276,1.634-1.34,2.738-2.401,3.312-3.184s.861-1.523.861-2.22c0-.731-.262-1.348-.784-1.851-.523-.502-1.205-.753-2.046-.753-.889,0-1.6.267-2.133.8s-.803,1.271-.81,2.215l-1.897-.195c.13-1.415.619-2.493,1.466-3.235.848-.741,1.986-1.112,3.415-1.112,1.442,0,2.584.4,3.425,1.2s1.261,1.791,1.261,2.974c0,.602-.123,1.193-.369,1.774s-.655,1.193-1.225,1.835c-.571.643-1.52,1.524-2.846,2.646-1.107.93-1.818,1.561-2.133,1.892s-.574.665-.779,1h7.373Z" fill="#fff"/><path d="M109.188,146.621c0,7.593-6.246,13.745-13.95,13.745s-13.953-6.152-13.953-13.745,6.246-13.755,13.953-13.755,13.95,6.159,13.95,13.755" fill="#231f20" stroke="#fff" stroke-miterlimit="10" stroke-width="1.5"/><rect x="82.869" y="138.626" width="24.936" height="25.226" fill="none"/><path d="M97.321,153.662h-1.846v-11.761c-.444.424-1.027.848-1.749,1.271s-1.369.742-1.943.954v-1.784c1.032-.485,1.935-1.073,2.707-1.764s1.319-1.36,1.641-2.01h1.189v15.094Z" fill="#fff"/><polygon points="60.016 154.781 64.892 159.048 72.282 158.59 73.5 153.867 60.016 154.781" fill="#fff"/><path d="M67.983,144.014s-.238-23.751,26.089-28.922" fill="none" stroke="#231f20" stroke-miterlimit="10" stroke-width="9"/><polygon points="76.931 141.298 68.112 156.931 58.981 141.478 76.931 141.298" fill="#231f20"/></g></svg>