<?xml version="1.0" encoding="UTF-8"?><svg xmlns="http://www.w3.org/2000/svg" width="6.406in" height="4.522in" xmlns:xlink="http://www.w3.org/1999/xlink" viewBox="0 0 461.209 325.617"><defs><clipPath id="c"><circle cx="314.645" cy="86.71" r="82.78" fill="none"/></clipPath></defs><g id="a"><path d="M450.386,140.106l4.762,9.064-.448,2.836s.335,2.092-.92,3.18c0,0-2.594,1.422-3.849,1.506l-2.129-1.227-5.605,2.548-1.456-.874.619-4.622,3.531-1.601s.255-.874-.182-1.82-2.402-4.44-2.402-4.44l.655-4.331,7.425-.218Z" fill="#5d92f5" opacity=".5"/><path d="M77.75,287.951l-16.582-6.542-.487.541-3.784-1.568-.811,2.108s-.595.973-2.162.216l-2.162-.757-3.244-3.406.541-1.135,4.757-7.028,2.054-1.514,1.622-2.595.649.162.811-2.216,1.135-1.784s.432-.378,1.081-.162l7.622,3.189-1.189,1.838,15.661,6.166-5.663.084-1.054,1.602,1.206,12.799Z" fill="#698ac6" opacity=".6"/><polygon points="255.513 281.919 91.999 282.85 93.332 280.184 255.653 278.939 255.513 281.919" fill="#bcbec0"/><polygon points="264.992 281.865 292.744 281.707 291.982 278.66 264.993 278.867 264.992 281.865" fill="#bcbec0"/><path d="M255.513,281.865l9.479-.054v-2.998s-9.338.072-9.338.072c0,0-.141,2.654-.141,2.981Z" fill="#231f20"/><polyline points="294.502 290.918 384.546 290.039 386.579 268.977" fill="none" stroke="#231f20" stroke-miterlimit="10" stroke-width=".5"/><path d="M111.913,209.417l-93.731,1.069c-13.51,1.201-12.609,16.212-12.609,16.212l13.51,25.519-1.201,27.62v9.607h2.102l.6,2.702,56.604-.254" fill="none" stroke="#231f20" stroke-miterlimit="10" stroke-width=".5"/><polygon points="94.222 277.369 93.444 267.187 89.928 275.013 91.101 286.024 94.222 277.369" fill="none" stroke="#231f20" stroke-linecap="round" stroke-linejoin="round" stroke-width=".5"/><line x1="89.928" y1="275.013" x2="76.591" y2="275.191" fill="none" stroke="#231f20" stroke-linecap="round" stroke-linejoin="round" stroke-width=".5"/><polyline points="91.264 286.023 293.458 283.816 293.458 293.194 78.881 296.228 76.492 275.29 77.605 273.535 88.044 273.406 89.957 269.024 79.844 269.103 80.81 267.454 93.338 267.206" fill="none" stroke="#231f20" stroke-linecap="round" stroke-linejoin="round" stroke-width=".5"/><line x1="92.602" y1="282.763" x2="292.371" y2="281.447" fill="none" stroke="#231f20" stroke-linecap="round" stroke-linejoin="round" stroke-width=".5"/><line x1="93.721" y1="280.221" x2="291.742" y2="279.008" fill="none" stroke="#231f20" stroke-linecap="round" stroke-linejoin="round" stroke-width=".5"/><polyline points="94.372 277.384 291.478 275.981 293.458 283.816" fill="none" stroke="#231f20" stroke-linecap="round" stroke-linejoin="round" stroke-width=".5"/><path d="M20.584,292.146l-11.069,16.15s-4.296,6.783,8.366,5.879,148.33-1.131,148.33-1.131c0,0,4.39,1.038,6.555-3.292s5.67-4.33,5.67-4.33l52.63-.33s5.075-.483,4.592-4.954h7.284l.088,2.054s-.483,2.538,5.075,2.538,12.446-.121,12.446-.121c0,0,3.867.242,3.867-2.296v-2.538l16.917-.121s2.658.121,4.35,1.813c0,0,0,5.679,4.35,10.03h26.947l3.383-4.229s1.329-2.054,4.229-1.692" fill="none" stroke="#231f20" stroke-linecap="round" stroke-linejoin="round" stroke-width=".5"/><path d="M324.595,307.872c-2.9-.363-4.229,1.692-4.229,1.692l-3.383,4.229h-26.947c-7.25-3.746-6.525-11.238-6.525-11.238-1.45-.967-4.713-.604-4.713-.604l-14.38.121v2.538c0,2.538-3.867,2.296-3.867,2.296,0,0-6.888.121-12.446.121s-5.075-2.538-5.075-2.538l-.088-2.054h-7.284c.483,4.471-4.592,4.954-4.592,4.954l-52.63.33s-3.505,0-5.67,4.33-6.555,3.292-6.555,3.292c0,0-135.668.226-148.33,1.131-7.158.511-8.897-1.434-9.056-3.222l-.01-2.944" fill="none" stroke="#231f20" stroke-linecap="round" stroke-linejoin="round" stroke-width=".5"/><path d="M340.524,252.65l2.191,3.806s2.535,4.437.475,6.972l-9.666,12.676s-1.109,2.218-2.694,2.218h-13.786s-2.931.079-3.961-.951l-8.081-11.567s-2.852-2.852-.634-7.447l4.663-5.409" fill="none" stroke="#231f20" stroke-linecap="round" stroke-linejoin="round" stroke-width=".5"/><polyline points="77.53 287.81 61.202 281.549 64.517 273.078 76.708 278.269" fill="none" stroke="#231f20" stroke-linecap="round" stroke-linejoin="round" stroke-width=".5"/><path d="M67.302,267.691l1.531-2.227-7.306-2.923s-1.183-.696-1.67.139l-1.024,1.544,2.067.891-1.322,1.948-2.078-.829-1.749,2.638s.626-.07,1.392.348,7.028,2.923,7.028,2.923l1.635-2.342-3.931-1.624,1.392-2.088,4.036,1.6Z" fill="none" stroke="#231f20" stroke-linecap="round" stroke-linejoin="round" stroke-width=".5"/><path d="M55.96,269.431l-2.018,4.871-.835-.348-.418,1.74-.905-.418-.348,1.531-.835-.487-.557,1.6-1.044-.487-.487,1.044,3.27,3.34,2.575,1.183s1.322.626,1.809-.557.765-2.088.765-2.088l3.758,1.6" fill="none" stroke="#231f20" stroke-linecap="round" stroke-linejoin="round" stroke-width=".5"/><polyline points="49.002 277.433 53.734 270.544 55.752 268.874" fill="none" stroke="#231f20" stroke-linecap="round" stroke-linejoin="round" stroke-width=".5"/><line x1="58.833" y1="264.225" x2="58.257" y2="266.16" fill="none" stroke="#231f20" stroke-linecap="round" stroke-linejoin="round" stroke-width=".5"/><line x1="67.581" y1="269.013" x2="78.435" y2="273.494" fill="none" stroke="#231f20" stroke-linecap="round" stroke-linejoin="round" stroke-width=".5"/><line x1="64.937" y1="271.727" x2="76.57" y2="276.757" fill="none" stroke="#231f20" stroke-linecap="round" stroke-linejoin="round" stroke-width=".5"/><polyline points="66.05 272.214 67.929 267.343 82.926 273.382" fill="none" stroke="#231f20" stroke-linecap="round" stroke-linejoin="round" stroke-width=".5"/><path d="M414.652,139.069c-.193-2.511,2.878-3.161,2.878-3.161l7.147-.193-6.761-5.408,23.073-.393s2.182-.485,5.819,1.455l7.274,3.637s4.001,1.94-.242,2.788l-20.489.242-.121.97h-10.547l-1.334-.97s-3.751.451-3.543,4.778l-.394,3.942-14.302,104.404,1.296,1.21c5.556.529,6.747-1.852,6.747-1.852,0,0,14.419-100.009,14.752-103.088s-2.455-3.245-2.455-3.245l-5.284-.042" fill="none" stroke="#231f20" stroke-linecap="round" stroke-linejoin="round" stroke-width=".5"/><path d="M421.349,140.339l1.334.97h10.547l.121-.97,20.489-.242c1.591-.318,2.023-.79,1.941-1.255v-2.405" fill="none" stroke="#231f20" stroke-linecap="round" stroke-linejoin="round" stroke-width=".5"/><line x1="421.349" y1="138.036" x2="420.619" y2="144.143" fill="none" stroke="#231f20" stroke-linecap="round" stroke-linejoin="round" stroke-width=".5"/><path d="M401.095,262.3l-4.768,34.192,1.362.954s3.95,2.588,6.539,0l6.13-38.823" fill="none" stroke="#231f20" stroke-linecap="round" stroke-linejoin="round" stroke-width=".5"/><path d="M403.844,253.619l-5.391-.088s-1.591-.265-1.591,1.768l-.795,5.568s-.619,1.061,1.768,1.061,10.517-.088,10.517-.088l.53-3.447,3.358.088s1.502-.265,1.237-4.154l-2.325-3.808" fill="none" stroke="#231f20" stroke-linecap="round" stroke-linejoin="round" stroke-width=".5"/><path d="M324.341,305.512s1.54,1.078.77,5.083l-.924,7.702s.616,4.005,4.775,4.005l14.017.154s3.697-.154,3.697-4.467l1.078-10.474-.924-2.156s2.619-.462,4.005,1.078l2.773,5.083,40.972-.77s2.773,0,2.773-3.081l1.232-9.242" fill="none" stroke="#231f20" stroke-linecap="round" stroke-linejoin="round" stroke-width=".5"/><path d="M400.539,298.688l-1.809,11.534c0,3.081-2.773,3.081-2.773,3.081l-43.136.538-4.523-8.141" fill="none" stroke="#231f20" stroke-linecap="round" stroke-linejoin="round" stroke-width=".5"/><path d="M395.911,309.899l-3.178-5.143-3.732.113s-1.583,0-2.375-1.47l-4.387-9.101,4.372-.228-2.065-4.029" fill="none" stroke="#231f20" stroke-linecap="round" stroke-linejoin="round" stroke-width=".5"/><ellipse cx="373.054" cy="302.798" rx="6.237" ry="3.118" fill="none" stroke="#231f20" stroke-linecap="round" stroke-linejoin="round" stroke-width=".5"/><path d="M367.453,303.93c1.142-.641,2.806-1.045,4.658-1.045,2.547,0,4.737.763,5.706,1.857" fill="none" stroke="#231f20" stroke-linecap="round" stroke-linejoin="round" stroke-width=".5"/><ellipse cx="303.506" cy="304.499" rx="6.237" ry="3.118" fill="none" stroke="#231f20" stroke-linecap="round" stroke-linejoin="round" stroke-width=".5"/><path d="M297.645,304.984c1.079-.93,3.093-1.556,5.398-1.556,2.583,0,4.8.785,5.746,1.905" fill="none" stroke="#231f20" stroke-linecap="round" stroke-linejoin="round" stroke-width=".5"/><line x1="341.261" y1="307.421" x2="346.144" y2="307.458" fill="none" stroke="#231f20" stroke-linecap="round" stroke-linejoin="round" stroke-width=".5"/><line x1="326.999" y1="307.312" x2="331.61" y2="307.347" fill="none" stroke="#231f20" stroke-linecap="round" stroke-linejoin="round" stroke-width=".5"/><ellipse cx="335.918" cy="315.554" rx="4.63" ry="3.969" fill="none" stroke="#231f20" stroke-linecap="round" stroke-linejoin="round" stroke-width=".5"/><path d="M331.202,305.365h9.128s1.105,2.151.465,4.419l-9.128.058s.756-3.488-.465-4.477Z" fill="none" stroke="#231f20" stroke-linecap="round" stroke-linejoin="round" stroke-width=".5"/><ellipse cx="40.617" cy="298.751" rx="5.915" ry="2.754" transform="translate(-71.114 18.718) rotate(-14.009)" fill="none" stroke="#231f20" stroke-linecap="round" stroke-linejoin="round" stroke-width=".5"/><path d="M35.554,301.041c.632-1.176,2.504-2.358,4.881-2.951,2.28-.569,4.404-.441,5.553.224" fill="none" stroke="#231f20" stroke-linecap="round" stroke-linejoin="round" stroke-width=".5"/><path d="M70.356,301.365c-.396-5.152,1.387-6.638,1.387-6.638,2.081-1.189,2.774.099,2.774.099,0,0-6.737,12.879-8.025,14.267s-3.071.198-3.071.198l1.189-1.387-11.294-.099-1.288,1.288c-3.17,1.585-2.972-.099-2.972-.099l8.619-13.87s1.783-1.288,3.17-.396c0,0-1.387,1.882-1.189,4.458l-.099,8.025" fill="none" stroke="#231f20" stroke-linecap="round" stroke-linejoin="round" stroke-width=".5"/><ellipse cx="200.651" cy="300.647" rx="3.946" ry="2.05" fill="none" stroke="#231f20" stroke-linecap="round" stroke-linejoin="round" stroke-width=".5"/><path d="M197.144,301.346c.656-.659,1.98-1.11,3.507-1.11s2.857.453,3.512,1.114" fill="none" stroke="#231f20" stroke-linecap="round" stroke-linejoin="round" stroke-width=".5"/><ellipse cx="254.659" cy="300.778" rx="2.785" ry="1.447" fill="none" stroke="#231f20" stroke-linecap="round" stroke-linejoin="round" stroke-width=".5"/><path d="M252.183,301.272c.463-.465,1.398-.783,2.476-.783s2.017.319,2.479.786" fill="none" stroke="#231f20" stroke-linecap="round" stroke-linejoin="round" stroke-width=".5"/><path d="M37.514,250.298c1.421-8.629,9.415-14.781,19.039-15.459,1.948-.137,3.963-.05,6.003.286,7.944,1.308,14.307,6.065,17.269,12.109" fill="none" stroke="#231f20" stroke-linecap="round" stroke-linejoin="round" stroke-width=".5"/><path d="M385.479,235.929h3.049c1.72,0,2.682.379,3.214.848l1.739,3.701" fill="none" stroke="#231f20" stroke-linecap="round" stroke-linejoin="round" stroke-width=".5"/><polyline points="389.577 202.826 401.62 202.826 397.176 242.033 393.797 241.929" fill="none" stroke="#231f20" stroke-linecap="round" stroke-linejoin="round" stroke-width=".5"/><line x1="401.62" y1="202.826" x2="397.152" y2="197.775" fill="none" stroke="#231f20" stroke-linecap="round" stroke-linejoin="round" stroke-width=".5"/><path d="M255.848,264.442v-9.861c5.85-2.786,8.914,0,8.914,0v9.775l20.486-.076.172-10.201,2.536-.024v-5.543s.693-5.37,7.102-5.37h65.652s2.772-.173,2.772,2.425v10.22s-1.559,4.157,3.984,4.157l19.974-.399s4.504.52,4.504-4.677l1.853-12.94s.693-2.598-3.811-2.598h-4.85l11.404-105.883h10.43s3.396.97,3.396-4.123l1.698-12.613s1.455-3.881-4.851-3.638l-298.922,3.461s-7.09-1.329-7.09,5.908l18.4,117.708s-.295,5.258,6.046,5.258l21.676-.147s3.834-.295,3.834,4.424l2.064,15.63,102.627-.872Z" fill="none" stroke="#231f20" stroke-linecap="round" stroke-linejoin="round" stroke-width=".5"/><path d="M102.699,117.917l4.133-4.785,298.922-3.461c1.8-.069,2.967.197,3.717.614l2.437,3.972" fill="none" stroke="#231f20" stroke-linecap="round" stroke-linejoin="round" stroke-width=".5"/><line x1="287.473" y1="250.885" x2="151.311" y2="252.032" fill="none" stroke="#231f20" stroke-linecap="round" stroke-linejoin="round" stroke-width=".5"/><path d="M410.366,129.324c3.14.352,3.527-1.036,3.527-1.036l1.709,1.197-1.88,16.752c-.513,1.88-3.932,1.709-3.932,1.709l-14.188.342" fill="none" stroke="#231f20" stroke-linecap="round" stroke-linejoin="round" stroke-width=".5"/><path d="M411.67,126.408c.855-2.735,5.47-2.393,5.47-2.393l24.444.171c3.761-.513-.171-2.222-.171-2.222,0,0-7.179-3.761-10.94-5.641s-5.47-1.709-5.47-1.709h-5.47l3.149,1.609s3.879,2.667-8.486,1.091l-2.132-.602" fill="none" stroke="#231f20" stroke-linecap="round" stroke-linejoin="round" stroke-width=".5"/><path d="M411.815,128.725c.855-2.735,5.47-2.393,5.47-2.393l24.444.171c.705-.096,1.14-.234,1.284-.299l.21-2.674" fill="none" stroke="#231f20" stroke-linecap="round" stroke-linejoin="round" stroke-width=".5"/><polyline points="395.016 152.71 408.224 152.71 402.203 197.387 389.965 197.581" fill="none" stroke="#231f20" stroke-linecap="round" stroke-linejoin="round" stroke-width=".5"/><line x1="408.224" y1="152.71" x2="403.368" y2="148.437" fill="none" stroke="#231f20" stroke-linecap="round" stroke-linejoin="round" stroke-width=".5"/><ellipse cx="431.999" cy="121.285" rx=".995" ry="4.548" transform="translate(286.446 545.723) rotate(-86.754)" fill="none" stroke="#231f20" stroke-linecap="round" stroke-linejoin="round" stroke-width=".5"/><ellipse cx="441.464" cy="134.42" rx=".995" ry="4.548" transform="translate(282.261 567.564) rotate(-86.754)" fill="none" stroke="#231f20" stroke-linecap="round" stroke-linejoin="round" stroke-width=".5"/><line x1="282.301" y1="255.137" x2="282.301" y2="264.172" fill="none" stroke="#231f20" stroke-miterlimit="10"/><line x1="252.531" y1="255.422" x2="252.531" y2="264.457" fill="none" stroke="#231f20" stroke-miterlimit="10"/><line x1="249.885" y1="255.479" x2="249.885" y2="264.514" fill="none" stroke="#231f20" stroke-miterlimit="10"/><line x1="247.239" y1="255.479" x2="247.239" y2="264.514" fill="none" stroke="#231f20" stroke-miterlimit="10"/><line x1="244.593" y1="255.365" x2="244.593" y2="264.4" fill="none" stroke="#231f20" stroke-miterlimit="10"/><line x1="241.946" y1="255.479" x2="241.946" y2="264.514" fill="none" stroke="#231f20" stroke-miterlimit="10"/><line x1="239.3" y1="255.479" x2="239.3" y2="264.514" fill="none" stroke="#231f20" stroke-miterlimit="10"/><line x1="236.654" y1="255.479" x2="236.654" y2="264.514" fill="none" stroke="#231f20" stroke-miterlimit="10"/><line x1="234.008" y1="255.764" x2="234.008" y2="264.799" fill="none" stroke="#231f20" stroke-miterlimit="10"/><line x1="231.362" y1="255.536" x2="231.362" y2="264.571" fill="none" stroke="#231f20" stroke-miterlimit="10"/><line x1="228.715" y1="255.479" x2="228.715" y2="264.514" fill="none" stroke="#231f20" stroke-miterlimit="10"/><line x1="226.069" y1="255.593" x2="226.069" y2="264.628" fill="none" stroke="#231f20" stroke-miterlimit="10"/><line x1="223.423" y1="255.65" x2="223.423" y2="264.685" fill="none" stroke="#231f20" stroke-miterlimit="10"/><line x1="220.777" y1="255.536" x2="220.777" y2="264.571" fill="none" stroke="#231f20" stroke-miterlimit="10"/><line x1="218.131" y1="255.65" x2="218.131" y2="264.685" fill="none" stroke="#231f20" stroke-miterlimit="10"/><line x1="215.484" y1="255.65" x2="215.484" y2="264.685" fill="none" stroke="#231f20" stroke-miterlimit="10"/><line x1="212.838" y1="255.707" x2="212.838" y2="264.742" fill="none" stroke="#231f20" stroke-miterlimit="10"/><line x1="210.192" y1="255.707" x2="210.192" y2="264.742" fill="none" stroke="#231f20" stroke-miterlimit="10"/><line x1="207.546" y1="255.707" x2="207.546" y2="264.742" fill="none" stroke="#231f20" stroke-miterlimit="10"/><line x1="204.9" y1="255.878" x2="204.9" y2="264.913" fill="none" stroke="#231f20" stroke-miterlimit="10"/><line x1="202.253" y1="255.65" x2="202.253" y2="264.685" fill="none" stroke="#231f20" stroke-miterlimit="10"/><line x1="199.607" y1="255.764" x2="199.607" y2="264.799" fill="none" stroke="#231f20" stroke-miterlimit="10"/><line x1="196.961" y1="255.878" x2="196.961" y2="264.913" fill="none" stroke="#231f20" stroke-miterlimit="10"/><line x1="194.315" y1="255.935" x2="194.315" y2="264.97" fill="none" stroke="#231f20" stroke-miterlimit="10"/><line x1="191.669" y1="255.935" x2="191.669" y2="264.97" fill="none" stroke="#231f20" stroke-miterlimit="10"/><line x1="189.022" y1="255.821" x2="189.022" y2="264.856" fill="none" stroke="#231f20" stroke-miterlimit="10"/><line x1="186.376" y1="256.137" x2="186.376" y2="265.172" fill="none" stroke="#231f20" stroke-miterlimit="10"/><line x1="183.73" y1="256.137" x2="183.73" y2="265.172" fill="none" stroke="#231f20" stroke-miterlimit="10"/><line x1="181.084" y1="256.137" x2="181.084" y2="265.172" fill="none" stroke="#231f20" stroke-miterlimit="10"/><line x1="178.438" y1="256.137" x2="178.438" y2="265.172" fill="none" stroke="#231f20" stroke-miterlimit="10"/><line x1="175.791" y1="256.137" x2="175.791" y2="265.172" fill="none" stroke="#231f20" stroke-miterlimit="10"/><line x1="173.145" y1="256.137" x2="173.145" y2="265.172" fill="none" stroke="#231f20" stroke-miterlimit="10"/><line x1="170.499" y1="256.137" x2="170.499" y2="265.172" fill="none" stroke="#231f20" stroke-miterlimit="10"/><line x1="167.853" y1="256.137" x2="167.853" y2="265.172" fill="none" stroke="#231f20" stroke-miterlimit="10"/><line x1="165.207" y1="256.137" x2="165.207" y2="265.172" fill="none" stroke="#231f20" stroke-miterlimit="10"/><line x1="162.56" y1="256.137" x2="162.56" y2="265.172" fill="none" stroke="#231f20" stroke-miterlimit="10"/><line x1="159.914" y1="256.137" x2="159.914" y2="265.172" fill="none" stroke="#231f20" stroke-miterlimit="10"/><line x1="157.268" y1="256.137" x2="157.268" y2="265.172" fill="none" stroke="#231f20" stroke-miterlimit="10"/><line x1="279.482" y1="255.137" x2="279.482" y2="264.172" fill="none" stroke="#231f20" stroke-miterlimit="10"/><line x1="276.663" y1="255.137" x2="276.663" y2="264.172" fill="none" stroke="#231f20" stroke-miterlimit="10"/><line x1="273.844" y1="255.137" x2="273.844" y2="264.172" fill="none" stroke="#231f20" stroke-miterlimit="10"/><line x1="271.025" y1="255.137" x2="271.025" y2="264.172" fill="none" stroke="#231f20" stroke-miterlimit="10"/><line x1="268.206" y1="255.137" x2="268.206" y2="264.172" fill="none" stroke="#231f20" stroke-miterlimit="10"/><polyline points="442.933 140.234 440.488 159.054 424.38 159.298" fill="none" stroke="#231f20" stroke-linecap="round" stroke-linejoin="round" stroke-width=".5"/><path d="M447.693,155.485c2.743-.196,5.64-2.256,7.18-3.521l.152-2.859-4.445-8.656" fill="none" stroke="#231f20" stroke-linecap="round" stroke-linejoin="round" stroke-width=".5"/><path d="M440.74,157.012c.352.335.812.632,1.41.86,0,0,3.16-.999,5.543-2.387l2.211,1.128c1.177.344,4.907-1.644,4.87-2.858l.103-1.912" fill="none" stroke="#231f20" stroke-linecap="round" stroke-linejoin="round" stroke-width=".5"/><path d="M442.494,145.085l2.053,3.627s1.25,1.98-.521,2.761c-.509.224-1.628.706-2.551,1.044" fill="none" stroke="#231f20" stroke-linecap="round" stroke-linejoin="round" stroke-width=".5"/><path d="M442.639,142.619l2.25,3.744s3.361,1.107,5.669-2.932l-1.618-3.129" fill="none" stroke="#231f20" stroke-linecap="round" stroke-linejoin="round" stroke-width=".5"/><circle cx="450.487" cy="150.418" r="2.066" fill="#fff" stroke="#231f20" stroke-miterlimit="10" stroke-width=".5"/><path d="M50.516,270.968c-8.058-2.977-13.63-9.924-13.426-17.873.267-10.407,10.333-18.591,22.484-18.279,12.15.312,21.784,9.001,21.517,19.408-.137,5.34-2.854,10.094-7.108,13.416" fill="none" stroke="#231f20" stroke-linecap="round" stroke-linejoin="round" stroke-width=".5"/><line x1="79.925" y1="269.088" x2="80.053" y2="272.053" fill="none" stroke="#231f20" stroke-linecap="round" stroke-linejoin="round" stroke-width=".5"/></g><g id="b"><circle cx="314.645" cy="86.71" r="82.78" fill="#fff"/><g clip-path="url(#c)"><path d="M300.084,80.378l-25.149,9.892s-.838,2.513.336,5.7l4.277,13.838s1.761,4.11,5.955,3.69l6.458,22.728,1.677.503,12.496,10.232s1.09,2.097,4.613.503,11.322-5.955,13.335-7.968c0,0,1.09-4.529.252-7.045l2.516-6.961s-.252-8.555-2.181-10.819l-1.677-.755s-2.935.419-5.451,2.181c0,0-6.122,3.439-9.058-2.013l-5.032-18.954s-1.09-5.032-2.935-6.542l-.431-8.212Z" fill="#5d92f5" opacity=".5"/><path d="M297.622,129.342c2.635.95,5.625-1.519,6.667-4.532,1.042-3.013-.043-6.202-2.441-7.683,0,0-4.204-1.256-6.791,3.86,0,0-2.176,6.645,2.565,8.354Z" fill="#fff"/><path d="M300.366,80.314l-24.896,9.808s-.36.129-.65.63c-.351.607-.598,1.762.021,3.896l4.652,14.963s1.635,4.401,5.91,3.898" fill="none" stroke="#231f20" stroke-linecap="round" stroke-linejoin="round" stroke-width=".5"/><path d="M274.819,90.753c5.008.882,8.446,7.417,8.446,7.417l10.436,38.476,7.796,6.664,4.527,3.646s1.383,2.012,4.401.754,11.317-5.784,13.706-8.173c0,0,1.132-3.772.377-7.167l2.263-6.664s0-8.425-2.012-11.065l-1.635-.629s-2.515.126-4.904,1.509c0,0-6.79,4.527-9.682-1.509l-5.155-19.112s-1.635-7.167-7.796-10.688l4.778-2.012" fill="none" stroke="#231f20" stroke-linecap="round" stroke-linejoin="round" stroke-width=".5"/><path d="M282.133,110.995l-4.024-12.448s-1.132-3.018,1.383-2.138c0,0,1.257.754,2.515,5.03l9.808,34.453,1.886.754" fill="none" stroke="#231f20" stroke-linecap="round" stroke-linejoin="round" stroke-width=".5"/><ellipse cx="300.6" cy="123.477" rx="6.596" ry="6.035" transform="translate(85.626 367.185) rotate(-70.916)" fill="none" stroke="#231f20" stroke-linecap="round" stroke-linejoin="round" stroke-width=".5"/><path d="M301.822,117.143c2.398,1.481,3.484,4.67,2.441,7.683-1.042,3.013-3.867,4.85-6.667,4.532" fill="none" stroke="#231f20" stroke-linecap="round" stroke-linejoin="round" stroke-width=".5"/><line x1="301.497" y1="143.31" x2="324.507" y2="132.37" fill="none" stroke="#231f20" stroke-linecap="round" stroke-linejoin="round" stroke-width=".5"/><path d="M325.168,134.336l2.338-.369-.123-14.397s-.123-9.598,6.891-9.844c0,0,4.43.246,5.168,4.061" fill="none" stroke="#231f20" stroke-linecap="round" stroke-linejoin="round" stroke-width=".5"/><path d="M328.122,121.415l3.569,1.6s5.642,1.663,7.999-2.461c0,0,2.83-5.291-1.723-7.506l-6.153-2.338" fill="none" stroke="#231f20" stroke-linecap="round" stroke-linejoin="round" stroke-width=".5"/><path d="M335.912,113.633s-4.944,1.367-3.05,8.205" fill="none" stroke="#231f20" stroke-linecap="round" stroke-linejoin="round" stroke-width=".5"/><path d="M316.947,115.933v-40.61s-.16-7.994,7.355-7.994l28.308-1.287v51.437l-2.338.492v5.537c0,5.045-3.938,7.137-3.938,7.137l-6.891,1.107v-10.52" fill="none" stroke="#231f20" stroke-linecap="round" stroke-linejoin="round" stroke-width=".5"/><path d="M314.549,115.933v-40.61s-.401-7.893,8.448-7.893" fill="none" stroke="#231f20" stroke-linecap="round" stroke-linejoin="round" stroke-width=".5"/><polyline points="337.349 122.959 337.349 130.796 339.443 131.752" fill="none" stroke="#231f20" stroke-linecap="round" stroke-linejoin="round" stroke-width=".5"/><line x1="327.523" y1="130.374" x2="337.51" y2="128.686" fill="none" stroke="#231f20" stroke-linecap="round" stroke-linejoin="round" stroke-width=".5"/><ellipse cx="326.89" cy="78.542" rx="4.009" ry="5.134" fill="none" stroke="#231f20" stroke-linecap="round" stroke-linejoin="round" stroke-width=".5"/><path d="M314.312,96.831c-2.486,0-4.502-2.385-4.502-5.326s2.015-5.326,4.502-5.326" fill="none" stroke="#231f20" stroke-linecap="round" stroke-linejoin="round" stroke-width=".54"/><path d="M327.065,73.483c1.352.825,2.287,2.591,2.287,4.637,0,2.835-1.795,5.134-4.009,5.134" fill="none" stroke="#231f20" stroke-linecap="round" stroke-linejoin="round" stroke-width=".5"/><path d="M302.037,91.421v-39.745c.651-9.555,9.555-10.858,9.555-10.858l23.018-.217s5.322-.102,5.322,5.497c0,0,.424,2.63,1.782,2.63l5.345.085v12.895l-9.247.255s-3.054-.085-3.054,4.666" fill="none" stroke="#231f20" stroke-linecap="round" stroke-linejoin="round" stroke-width=".5"/><path d="M310.634,116.206v-11.097c0-3.044-2.153-2.895-2.153-2.895-1.308-.056-2.353-.349-3.186-.789" fill="none" stroke="#231f20" stroke-linecap="round" stroke-linejoin="round" stroke-width=".5"/><path d="M326.917,129.349l17.685-2.763,7.536-6.818c5.921-2.422,7.087-3.813,7.087-3.813,1.346-10.183-.09-17.404-.09-17.404l-6.28-4.934-4.217-3.14-5.203-.987-3.14.359c-3.14.359-3.678,3.23-3.678,3.23,0,0,1.256,13.816-7.805,13.816l-15.072,1.884s-6.491.337-5.114-3.05v-3.514" fill="none" stroke="#fff" stroke-linecap="round" stroke-linejoin="round" stroke-width="4"/><line x1="326.917" y1="129.349" x2="328.399" y2="129.117" fill="none" stroke="#231f20" stroke-linecap="round" stroke-linejoin="round"/><path d="M331.37,128.653l13.232-2.068,7.536-6.818c5.921-2.422,7.087-3.813,7.087-3.813,1.346-10.183-.09-17.404-.09-17.404l-6.28-4.934-4.217-3.14-2.253-.427" fill="none" stroke="#231f20" stroke-dasharray="3.006 3.006" stroke-linecap="round" stroke-linejoin="round"/><path d="M344.909,89.769l-1.474-.279-1.489.17" fill="none" stroke="#231f20" stroke-linecap="round" stroke-linejoin="round"/><path d="M339.103,90.14c-2.09.829-2.485,2.937-2.485,2.937,0,0,1.256,13.816-7.805,13.816l-15.072,1.884s-6.491.337-5.114-3.05v-.564" fill="none" stroke="#231f20" stroke-dasharray="2.893 2.893" stroke-linecap="round" stroke-linejoin="round"/><line x1="308.627" y1="103.714" x2="308.627" y2="102.214" fill="none" stroke="#231f20" stroke-linecap="round" stroke-linejoin="round"/><path d="M314.422,98.835c-3.667,0-6.639-3.315-6.639-7.403s2.972-7.403,6.639-7.403" fill="none" stroke="#231f20" stroke-linecap="round" stroke-linejoin="round" stroke-width=".5"/><path d="M359.016,54.597l-5.349.145s-4.048.578-4.048,5.205v5.928" fill="none" stroke="#231f20" stroke-linecap="round" stroke-linejoin="round" stroke-width=".5"/><line x1="347.277" y1="54.019" x2="354.444" y2="54.667" fill="none" stroke="#231f20" stroke-linecap="round" stroke-linejoin="round" stroke-width=".5"/><path d="M352.413,65.679v-5.461s-.181-1.986,2.392-1.986l138.752-3.794" fill="none" stroke="#231f20" stroke-linecap="round" stroke-linejoin="round" stroke-width=".5"/><line x1="360.277" y1="112.042" x2="494.121" y2="93.97" fill="none" stroke="#231f20" stroke-linecap="round" stroke-linejoin="round" stroke-width=".5"/><polyline points="359.951 58.083 359.951 48.956 494.23 46.635" fill="none" stroke="#231f20" stroke-linecap="round" stroke-linejoin="round" stroke-width=".5"/><polyline points="347.059 48.813 357.628 48.753 359.951 48.956" fill="none" stroke="#231f20" stroke-linecap="round" stroke-linejoin="round" stroke-width=".5"/><line x1="357.465" y1="54.472" x2="357.465" y2="48.753" fill="none" stroke="#231f20" stroke-linecap="round" stroke-linejoin="round" stroke-width=".5"/><path d="M274.967,96.807l-23.546-7.643-1.359-42.992s.809-.888.809-1.898.224-2.972,1.907-3.084l58.814-.371" fill="none" stroke="#231f20" stroke-linecap="round" stroke-linejoin="round" stroke-width=".5"/><polyline points="277.214 89.145 256.717 84.059 255.901 55.346 300.028 58.746 300.4 87.869" fill="none" stroke="#231f20" stroke-linecap="round" stroke-linejoin="round" stroke-width=".5"/><polyline points="288.43 84.822 287.855 61.687 266.851 59.791 267.482 82.059 285.012 86.277" fill="none" stroke="#231f20" stroke-linecap="round" stroke-linejoin="round" stroke-width=".5"/><path d="M274.431,56.791s-4.264,2.685-7.581,3.001" fill="none" stroke="#231f20" stroke-linecap="round" stroke-linejoin="round" stroke-width=".5"/><path d="M287.855,61.687s4.106-1.105,8.054-3.001" fill="none" stroke="#231f20" stroke-linecap="round" stroke-linejoin="round" stroke-width=".5"/><polyline points="290.962 83.688 290.698 62.318 299.542 63.266" fill="none" stroke="#231f20" stroke-linecap="round" stroke-linejoin="round" stroke-width=".5"/><path d="M300.028,58.746s-4.119,2.941-9.33,3.572" fill="none" stroke="#231f20" stroke-linecap="round" stroke-linejoin="round" stroke-width=".5"/><line x1="267.482" y1="82.059" x2="287.697" y2="79.059" fill="none" stroke="#231f20" stroke-linecap="round" stroke-linejoin="round" stroke-width=".5"/><path d="M336.953,40.908l137.111-.376s5.635,1.127,1.69,5.259" fill="none" stroke="#231f20" stroke-linecap="round" stroke-linejoin="round" stroke-width=".5"/><path d="M346.105,40.898s-2.985.236-2.985,2.357v5.264" fill="none" stroke="#231f20" stroke-linecap="round" stroke-linejoin="round" stroke-width=".5"/><path d="M358.203,40.898s4.556,3.221,0,7.777" fill="none" stroke="#231f20" stroke-linecap="round" stroke-linejoin="round" stroke-width=".5"/><polyline points="345.476 48.754 345.476 44.04 356.789 44.04 356.789 48.675" fill="none" stroke="#231f20" stroke-linecap="round" stroke-linejoin="round" stroke-width=".5"/><polyline points="354.238 40.67 354.238 38.962 340.739 38.962 340.739 40.329" fill="none" stroke="#231f20" stroke-linecap="round" stroke-linejoin="round" stroke-width=".5"/><polyline points="254.279 40.841 254.279 40.077 266.753 39.816 340.739 38.962" fill="none" stroke="#231f20" stroke-linecap="round" stroke-linejoin="round" stroke-width=".5"/><path d="M259.818,41.2s-1.079.735-1.012,2.467v3.196l41.882,1.265s1.465-6.326,6.858-7.324" fill="none" stroke="#231f20" stroke-linecap="round" stroke-linejoin="round" stroke-width=".5"/><path d="M263.886,41.267s-1.951.735-1.152,5.529" fill="none" stroke="#231f20" stroke-linecap="round" stroke-linejoin="round" stroke-width=".5"/><path d="M269.635,41.301s-1.951.735-1.152,5.529" fill="none" stroke="#231f20" stroke-linecap="round" stroke-linejoin="round" stroke-width=".5"/><path d="M275.451,41.363s-1.951.735-1.152,5.529" fill="none" stroke="#231f20" stroke-linecap="round" stroke-linejoin="round" stroke-width=".5"/><path d="M281.955,41.265s-1.951.792-1.152,5.961" fill="none" stroke="#231f20" stroke-linecap="round" stroke-linejoin="round" stroke-width=".5"/><path d="M288.903,41.215s-1.951.851-1.152,6.405" fill="none" stroke="#231f20" stroke-linecap="round" stroke-linejoin="round" stroke-width=".5"/><path d="M296.54,41.018s-1.951.851-1.152,6.405" fill="none" stroke="#231f20" stroke-linecap="round" stroke-linejoin="round" stroke-width=".5"/></g><circle cx="314.645" cy="86.71" r="82.78" fill="none" stroke="#fff" stroke-miterlimit="10" stroke-width="3"/><circle cx="314.645" cy="86.71" r="82.78" fill="none" stroke="#231f20" stroke-miterlimit="10"/></g><g id="d"><polygon points="187.091 251.7 194.601 251.544 194.551 263.579 187.041 263.734 187.091 251.7" fill="#221f1f" stroke="#fff" stroke-linecap="round" stroke-linejoin="round" stroke-width="2.588"/><polygon points="183.28 261.591 190.926 274.577 198.259 261.281 183.28 261.591" fill="#221f1f" stroke="#fff" stroke-linecap="round" stroke-linejoin="round" stroke-width="2.588"/><polygon points="187.151 245.994 194.662 245.839 194.551 263.579 187.041 263.734 187.151 245.994" fill="#221f1f"/><polygon points="183.28 261.591 190.926 274.577 198.259 261.281 183.28 261.591" fill="#221f1f"/><polygon points="187.091 247.257 194.601 247.412 194.551 235.377 187.041 235.222 187.091 247.257" fill="#221f1f" stroke="#fff" stroke-linecap="round" stroke-linejoin="round" stroke-width="2.588"/><polygon points="183.28 237.365 190.926 224.379 198.259 237.675 183.28 237.365" fill="#221f1f" stroke="#fff" stroke-linecap="round" stroke-linejoin="round" stroke-width="2.588"/><polygon points="187.151 252.962 194.662 253.117 194.551 235.377 187.041 235.222 187.151 252.962" fill="#221f1f"/><polygon points="183.28 237.365 190.926 224.379 198.259 237.675 183.28 237.365" fill="#221f1f"/><polygon points="271.574 224.452 279.084 224.296 279.034 236.331 271.524 236.486 271.574 224.452" fill="#221f1f" stroke="#fff" stroke-linecap="round" stroke-linejoin="round" stroke-width="2.588"/><polygon points="267.762 234.343 275.408 247.329 282.742 234.033 267.762 234.343" fill="#221f1f" stroke="#fff" stroke-linecap="round" stroke-linejoin="round" stroke-width="2.588"/><polygon points="271.634 218.746 279.144 218.591 279.034 236.331 271.524 236.486 271.634 218.746" fill="#221f1f"/><polygon points="267.762 234.343 275.408 247.329 282.742 234.033 267.762 234.343" fill="#221f1f"/><polygon points="271.574 220.038 279.084 220.194 279.034 208.159 271.524 208.004 271.574 220.038" fill="#221f1f" stroke="#fff" stroke-linecap="round" stroke-linejoin="round" stroke-width="2.588"/><polygon points="267.762 210.147 275.408 197.161 282.742 210.457 267.762 210.147" fill="#221f1f" stroke="#fff" stroke-linecap="round" stroke-linejoin="round" stroke-width="2.588"/><polygon points="271.634 225.744 279.144 225.899 279.034 208.159 271.524 208.004 271.634 225.744" fill="#221f1f"/><polygon points="267.762 210.147 275.408 197.161 282.742 210.457 267.762 210.147" fill="#221f1f"/><path d="M246.961,243.046c0,7.593-6.246,13.745-13.95,13.745s-13.953-6.152-13.953-13.745,6.246-13.755,13.953-13.755,13.95,6.159,13.95,13.755" fill="#211e1f" stroke="#fff" stroke-miterlimit="10" stroke-width="1.5"/><rect x="219.01" y="235.051" width="27.228" height="24.791" fill="none"/><path d="M237.356,248.314v1.773h-9.936c-.014-.444.058-.871.215-1.281.253-.677.658-1.344,1.215-2,.557-.656,1.362-1.415,2.415-2.276,1.634-1.34,2.738-2.4,3.312-3.184.574-.782.861-1.522.861-2.22,0-.731-.262-1.349-.784-1.852-.523-.502-1.205-.753-2.046-.753-.889,0-1.6.267-2.133.8s-.803,1.271-.81,2.215l-1.897-.195c.13-1.415.619-2.493,1.466-3.235.848-.741,1.986-1.112,3.415-1.112,1.442,0,2.584.4,3.425,1.2s1.261,1.791,1.261,2.974c0,.602-.123,1.192-.369,1.773s-.655,1.193-1.225,1.836c-.571.643-1.52,1.524-2.846,2.646-1.107.93-1.818,1.561-2.133,1.892-.314.332-.574.665-.779,1h7.373Z" fill="#fff"/><path d="M388.079,78.023c0,7.593-6.246,13.745-13.95,13.745s-13.953-6.152-13.953-13.745,6.246-13.755,13.953-13.755,13.95,6.159,13.95,13.755" fill="#211e1f" stroke="#fff" stroke-miterlimit="10" stroke-width="1.5"/><rect x="360.128" y="70.028" width="27.228" height="24.791" fill="none"/><path d="M375.727,85.064h-1.846v-11.761c-.444.424-1.027.848-1.749,1.271-.721.424-1.368.742-1.942.954v-1.784c1.032-.485,1.935-1.073,2.707-1.764s1.319-1.36,1.641-2.01h1.189v15.094Z" fill="#fff"/><path d="M357.46,137.26s-4.043,22.914-29.934,15.094" fill="none" stroke="#221f1f" stroke-miterlimit="10" stroke-width="4.829"/><polygon points="349.98 138.086 359.266 127.023 364.206 140.596 349.98 138.086" fill="#221f1f"/><polygon points="331.638 146.05 317.575 149.348 327.461 159.879 331.638 146.05" fill="#221f1f"/><line x1="387.06" y1="89.616" x2="430.373" y2="134.271" fill="none" stroke="#fff" stroke-linecap="round" stroke-linejoin="round" stroke-width="3"/><line x1="387.06" y1="89.616" x2="430.373" y2="134.271" fill="none" stroke="#221f1f" stroke-linecap="round" stroke-linejoin="round"/></g></svg>