<?xml version="1.0" encoding="UTF-8"?><svg xmlns="http://www.w3.org/2000/svg" width="4.741in" height="8.13in" viewBox="0 0 341.331 585.382"><g id="a"><polyline points="319.867 239.43 319.867 540.786 267.238 540.786 267.238 535.234" fill="none" stroke="#231f20" stroke-linecap="round" stroke-linejoin="round" stroke-width=".5"/><polyline points="25.136 239.43 25.136 540.786 77.865 540.786 77.865 535.234" fill="none" stroke="#231f20" stroke-linecap="round" stroke-linejoin="round" stroke-width=".5"/><path d="M263.701,528.598v-30.321s-6.516,0-6.516,0c0,0-2.014.237-2.014-2.37v-32.582s-.118-2.725,2.133-2.725h5.213s0-8.007,0-8.007h-1.871s-1.221.229-1.221-1.831v-17.246s0-1.145.992-1.145h1.755s0-19.383,0-19.383h-5.8s-9.233,2.366-9.233,2.366l-8.547-2.823s-4.808.153-4.808,4.96v54.714s.687,3.968-2.976,5.952l-17.704,10.302s-4.35,2.289-4.35,7.326v29.074s-.076,2.137,3.663,2.137v3.052s49.83,0,49.83,0v-2.442h.839v.992s.614,0,.614,0Z" fill="none" stroke="#231f20" stroke-linecap="round" stroke-linejoin="round" stroke-width=".5"/><rect x="213.944" y="525.546" width="46.808" height="3.281" transform="translate(474.696 1054.373) rotate(-180)" fill="none" stroke="#231f20" stroke-linecap="round" stroke-linejoin="round" stroke-width=".5"/><path d="M260.9,514.882l-7.277,4.387s-1.084.671-2.271,0-7.019-4.026-7.019-4.026c0,0-1.652-.877-1.652-2.735v-4.955s-.516-2.064,1.91-3.458,6.09-3.561,6.09-3.561c0,0,1.858-1.187,3.303,0l6.709,3.768s1.445,1.084,1.445,3.2v4.955s-.31,1.858-1.239,2.426Z" fill="none" stroke="#231f20" stroke-linecap="round" stroke-linejoin="round" stroke-width=".5"/><path d="M258.824,513.418l-5.148,2.896s-1.094.644-2.381,0-4.569-2.51-4.569-2.51c0,0-1.545-1.094-1.545-2.445v-3.346s-.129-1.48,1.48-2.445,4.44-2.574,4.44-2.574c0,0,1.351-.708,2.51,0l5.148,3.025s1.158,1.03,1.158,2.381v2.767s-.193,1.48-1.094,2.252Z" fill="none" stroke="#231f20" stroke-linecap="round" stroke-linejoin="round" stroke-width=".5"/><rect x="218.802" y="504.212" width="10.415" height="5.259" rx="2.629" ry="2.629" transform="translate(448.019 1013.684) rotate(180)" fill="none" stroke="#231f20" stroke-linecap="round" stroke-linejoin="round" stroke-width=".5"/><polyline points="262.007 497.922 261.595 497.097 259.636 496.066 259.636 464.204 262.007 462.76 262.007 460.6" fill="none" stroke="#231f20" stroke-linecap="round" stroke-linejoin="round" stroke-width=".5"/><polyline points="233.849 433.286 209.772 433.286 209.772 490.971" fill="none" stroke="#231f20" stroke-linecap="round" stroke-linejoin="round" stroke-width=".5"/><line x1="232.344" y1="444.322" x2="232.344" y2="476.258" fill="none" stroke="#231f20" stroke-linecap="round" stroke-linejoin="round" stroke-width=".5"/><line x1="230.015" y1="444.322" x2="230.015" y2="478.391" fill="none" stroke="#231f20" stroke-linecap="round" stroke-linejoin="round" stroke-width=".5"/><line x1="227.686" y1="444.322" x2="227.686" y2="479.606" fill="none" stroke="#231f20" stroke-linecap="round" stroke-linejoin="round" stroke-width=".5"/><line x1="225.357" y1="444.322" x2="225.357" y2="480.923" fill="none" stroke="#231f20" stroke-linecap="round" stroke-linejoin="round" stroke-width=".5"/><line x1="223.028" y1="444.322" x2="223.028" y2="482.442" fill="none" stroke="#231f20" stroke-linecap="round" stroke-linejoin="round" stroke-width=".5"/><line x1="220.699" y1="444.322" x2="220.699" y2="483.657" fill="none" stroke="#231f20" stroke-linecap="round" stroke-linejoin="round" stroke-width=".5"/><line x1="218.37" y1="444.322" x2="218.37" y2="483.961" fill="none" stroke="#231f20" stroke-linecap="round" stroke-linejoin="round" stroke-width=".5"/><line x1="216.041" y1="450.24" x2="216.041" y2="478.594" fill="none" stroke="#231f20" stroke-linecap="round" stroke-linejoin="round" stroke-width=".5"/><line x1="213.712" y1="450.24" x2="213.712" y2="478.594" fill="none" stroke="#231f20" stroke-linecap="round" stroke-linejoin="round" stroke-width=".5"/><line x1="211.382" y1="450.24" x2="211.382" y2="478.594" fill="none" stroke="#231f20" stroke-linecap="round" stroke-linejoin="round" stroke-width=".5"/><circle cx="213.342" cy="481.53" r="1.721" fill="none" stroke="#231f20" stroke-linecap="round" stroke-linejoin="round" stroke-width=".5"/><circle cx="213.342" cy="447.303" r="1.721" fill="none" stroke="#231f20" stroke-linecap="round" stroke-linejoin="round" stroke-width=".5"/><line x1="210.101" y1="484.163" x2="220.025" y2="484.163" fill="none" stroke="#231f20" stroke-linecap="round" stroke-linejoin="round" stroke-width=".5"/><line x1="210.101" y1="444.67" x2="217.291" y2="444.67" fill="none" stroke="#231f20" stroke-linecap="round" stroke-linejoin="round" stroke-width=".5"/><circle cx="248.973" cy="427.527" r="6.522" fill="none" stroke="#231f20" stroke-linecap="round" stroke-linejoin="round" stroke-width=".5"/><path d="M260.308,498.208s-.801-.534-2.404-1.336v-33.396s2.137-1.069,2.137-1.069v-1.514" fill="none" stroke="#231f20" stroke-linecap="round" stroke-linejoin="round" stroke-width=".5"/><line x1="262.253" y1="451.562" x2="262.253" y2="433.701" fill="none" stroke="#231f20" stroke-linecap="round" stroke-linejoin="round" stroke-width=".5"/><polyline points="263.669 452.651 263.669 466.157 263.124 468.009 263.124 486.127" fill="none" stroke="#231f20" stroke-linecap="round" stroke-linejoin="round" stroke-width=".5"/><path d="M265.43,489.804h-3.705v-3.657h2.565s0-4.085,0-4.085h1.14s-.119,7.861,0,7.742Z" fill="none" stroke="#231f20" stroke-linecap="round" stroke-linejoin="round" stroke-width=".5"/><polyline points="264.527 490.089 264.527 492.322 260.585 492.322 260.585 488.474 261.487 488.474" fill="none" stroke="#231f20" stroke-linecap="round" stroke-linejoin="round" stroke-width=".5"/><path d="M263.061,482.229s-2.916.254-3.36-.856" fill="none" stroke="#231f20" stroke-linecap="round" stroke-linejoin="round" stroke-width=".5"/><line x1="260.844" y1="463.61" x2="260.844" y2="468.336" fill="none" stroke="#231f20" stroke-linecap="round" stroke-linejoin="round" stroke-width=".5"/><path d="M263.124,468.009s-3.001-.073-3.401,1.449" fill="none" stroke="#231f20" stroke-linecap="round" stroke-linejoin="round" stroke-width=".5"/><path d="M262.296,426.63s1.605-.334,2.274.201v3.88s-1.271-.535-2.408-.134" fill="none" stroke="#231f20" stroke-linecap="round" stroke-linejoin="round" stroke-width=".5"/><rect x="267.23" y="416.278" width="50.023" height="121.32" rx="3.6" ry="3.6" transform="translate(584.483 953.876) rotate(-180)" fill="none" stroke="#231f20" stroke-linecap="round" stroke-linejoin="round" stroke-width=".5"/><rect x="27.842" y="416.278" width="50.023" height="121.32" rx="3.6" ry="3.6" transform="translate(105.707 953.876) rotate(-180)" fill="none" stroke="#231f20" stroke-linecap="round" stroke-linejoin="round" stroke-width=".5"/><path d="M261.14,530.949h2.925c1.3,0,2.364,1.064,2.364,2.364v5.3c0,1.3-1.064,2.364-2.364,2.364h-2.925c-1.3,0-2.364-1.064-2.364-2.364v-.803s0-4.497,0-4.497c0-1.3,1.064-2.364,2.364-2.364Z" fill="none" stroke="#231f20" stroke-linecap="round" stroke-linejoin="round" stroke-width=".5"/><polyline points="259.143 531.635 211.333 531.635 211.333 537.959 258.512 537.943" fill="none" stroke="#231f20" stroke-linecap="round" stroke-linejoin="round" stroke-width=".5"/><line x1="151.585" y1="537.943" x2="198.295" y2="537.943" fill="none" stroke="#231f20" stroke-linecap="round" stroke-linejoin="round" stroke-width=".5"/><polyline points="134.683 537.943 93.593 537.943 93.593 532.662 88.487 532.662 87.145 531.693" fill="none" stroke="#231f20" stroke-linecap="round" stroke-linejoin="round" stroke-width=".5"/><path d="M203.692,528.598v-30.321s-6.516,0-6.516,0c0,0-2.014.237-2.014-2.37v-32.582s-.118-2.725,2.133-2.725h5.213s0-8.007,0-8.007h-1.871s-1.221.229-1.221-1.831v-17.246s0-1.145.992-1.145h1.755s0-19.383,0-19.383h-5.8s-9.233,2.366-9.233,2.366l-8.547-2.823s-4.808.153-4.808,4.96v54.714s.687,3.968-2.976,5.952l-17.704,10.302s-4.35,2.289-4.35,7.326v29.074s-.076,2.137,3.663,2.137v3.052s49.83,0,49.83,0v-2.442h.839v.992s.614,0,.614,0Z" fill="none" stroke="#231f20" stroke-linecap="round" stroke-linejoin="round" stroke-width=".5"/><rect x="153.934" y="525.546" width="46.808" height="3.281" transform="translate(354.677 1054.373) rotate(-180)" fill="none" stroke="#231f20" stroke-linecap="round" stroke-linejoin="round" stroke-width=".5"/><path d="M200.891,514.882l-7.277,4.387s-1.084.671-2.271,0-7.019-4.026-7.019-4.026c0,0-1.652-.877-1.652-2.735v-4.955s-.516-2.064,1.91-3.458,6.09-3.561,6.09-3.561c0,0,1.858-1.187,3.303,0l6.709,3.768s1.445,1.084,1.445,3.2v4.955s-.31,1.858-1.239,2.426Z" fill="none" stroke="#231f20" stroke-linecap="round" stroke-linejoin="round" stroke-width=".5"/><path d="M198.814,513.418l-5.148,2.896s-1.094.644-2.381,0-4.569-2.51-4.569-2.51c0,0-1.545-1.094-1.545-2.445v-3.346s-.129-1.48,1.48-2.445,4.44-2.574,4.44-2.574c0,0,1.351-.708,2.51,0l5.148,3.025s1.158,1.03,1.158,2.381v2.767s-.193,1.48-1.094,2.252Z" fill="none" stroke="#231f20" stroke-linecap="round" stroke-linejoin="round" stroke-width=".5"/><rect x="158.792" y="504.212" width="10.415" height="5.259" rx="2.629" ry="2.629" transform="translate(327.999 1013.684) rotate(180)" fill="none" stroke="#231f20" stroke-linecap="round" stroke-linejoin="round" stroke-width=".5"/><polyline points="201.997 497.922 201.585 497.097 199.626 496.066 199.626 464.204 201.997 462.76 201.997 460.6" fill="none" stroke="#231f20" stroke-linecap="round" stroke-linejoin="round" stroke-width=".5"/><polyline points="173.839 417.073 151.627 417.073 151.627 489.431" fill="none" stroke="#231f20" stroke-linecap="round" stroke-linejoin="round" stroke-width=".5"/><circle cx="188.963" cy="427.527" r="6.522" fill="none" stroke="#231f20" stroke-linecap="round" stroke-linejoin="round" stroke-width=".5"/><path d="M200.298,498.208s-.801-.534-2.404-1.336v-33.396s2.137-1.069,2.137-1.069v-1.514" fill="none" stroke="#231f20" stroke-linecap="round" stroke-linejoin="round" stroke-width=".5"/><line x1="202.243" y1="451.562" x2="202.243" y2="433.701" fill="none" stroke="#231f20" stroke-linecap="round" stroke-linejoin="round" stroke-width=".5"/><polyline points="203.659 452.651 203.659 466.157 203.115 468.009 203.115 483.477" fill="none" stroke="#231f20" stroke-linecap="round" stroke-linejoin="round" stroke-width=".5"/><path d="M205.42,489.804h-3.705v-3.657h2.565s0-4.085,0-4.085h1.14s-.119,7.861,0,7.742Z" fill="none" stroke="#231f20" stroke-linecap="round" stroke-linejoin="round" stroke-width=".5"/><polyline points="204.517 490.089 204.517 492.322 200.575 492.322 200.575 488.474 201.478 488.474" fill="none" stroke="#231f20" stroke-linecap="round" stroke-linejoin="round" stroke-width=".5"/><path d="M203.052,482.229s-2.916.254-3.36-.856" fill="none" stroke="#231f20" stroke-linecap="round" stroke-linejoin="round" stroke-width=".5"/><line x1="200.835" y1="463.61" x2="200.835" y2="468.336" fill="none" stroke="#231f20" stroke-linecap="round" stroke-linejoin="round" stroke-width=".5"/><path d="M203.115,468.009s-3.001-.073-3.401,1.449" fill="none" stroke="#231f20" stroke-linecap="round" stroke-linejoin="round" stroke-width=".5"/><path d="M202.286,426.63s1.605-.334,2.274.201v3.88s-1.271-.535-2.408-.134" fill="none" stroke="#231f20" stroke-linecap="round" stroke-linejoin="round" stroke-width=".5"/><line x1="172.122" y1="465.003" x2="172.122" y2="468.497" fill="none" stroke="#231f20" stroke-linecap="round" stroke-linejoin="round" stroke-width=".5"/><line x1="169.269" y1="465.003" x2="169.269" y2="468.497" fill="none" stroke="#231f20" stroke-linecap="round" stroke-linejoin="round" stroke-width=".5"/><line x1="166.417" y1="465.003" x2="166.417" y2="468.497" fill="none" stroke="#231f20" stroke-linecap="round" stroke-linejoin="round" stroke-width=".5"/><line x1="163.565" y1="465.003" x2="163.565" y2="468.497" fill="none" stroke="#231f20" stroke-linecap="round" stroke-linejoin="round" stroke-width=".5"/><line x1="160.712" y1="465.003" x2="160.712" y2="468.497" fill="none" stroke="#231f20" stroke-linecap="round" stroke-linejoin="round" stroke-width=".5"/><line x1="157.86" y1="465.003" x2="157.86" y2="468.497" fill="none" stroke="#231f20" stroke-linecap="round" stroke-linejoin="round" stroke-width=".5"/><line x1="155.008" y1="465.003" x2="155.008" y2="468.497" fill="none" stroke="#231f20" stroke-linecap="round" stroke-linejoin="round" stroke-width=".5"/><line x1="172.122" y1="470.208" x2="172.122" y2="473.702" fill="none" stroke="#231f20" stroke-linecap="round" stroke-linejoin="round" stroke-width=".5"/><line x1="169.269" y1="470.208" x2="169.269" y2="473.702" fill="none" stroke="#231f20" stroke-linecap="round" stroke-linejoin="round" stroke-width=".5"/><line x1="166.417" y1="470.208" x2="166.417" y2="473.702" fill="none" stroke="#231f20" stroke-linecap="round" stroke-linejoin="round" stroke-width=".5"/><line x1="163.565" y1="470.208" x2="163.565" y2="473.702" fill="none" stroke="#231f20" stroke-linecap="round" stroke-linejoin="round" stroke-width=".5"/><line x1="160.712" y1="470.208" x2="160.712" y2="473.702" fill="none" stroke="#231f20" stroke-linecap="round" stroke-linejoin="round" stroke-width=".5"/><line x1="157.86" y1="470.208" x2="157.86" y2="473.702" fill="none" stroke="#231f20" stroke-linecap="round" stroke-linejoin="round" stroke-width=".5"/><line x1="155.008" y1="470.208" x2="155.008" y2="473.702" fill="none" stroke="#231f20" stroke-linecap="round" stroke-linejoin="round" stroke-width=".5"/><line x1="172.122" y1="475.414" x2="172.122" y2="477.125" fill="none" stroke="#231f20" stroke-linecap="round" stroke-linejoin="round" stroke-width=".5"/><line x1="169.269" y1="475.414" x2="169.269" y2="478.908" fill="none" stroke="#231f20" stroke-linecap="round" stroke-linejoin="round" stroke-width=".5"/><line x1="166.417" y1="475.414" x2="166.417" y2="478.908" fill="none" stroke="#231f20" stroke-linecap="round" stroke-linejoin="round" stroke-width=".5"/><line x1="163.565" y1="475.414" x2="163.565" y2="478.908" fill="none" stroke="#231f20" stroke-linecap="round" stroke-linejoin="round" stroke-width=".5"/><line x1="160.712" y1="475.414" x2="160.712" y2="478.908" fill="none" stroke="#231f20" stroke-linecap="round" stroke-linejoin="round" stroke-width=".5"/><line x1="163.565" y1="480.619" x2="163.565" y2="482.188" fill="none" stroke="#231f20" stroke-linecap="round" stroke-linejoin="round" stroke-width=".5"/><path d="M84.191,527.606h-.839s0,.992,0,.992h-.614v-25.461h6.516s2.014.237,2.014-2.37l-.015-66.117s0-1.145-.992-1.145h-5.995v-20.518h5.8s9.233,2.366,9.233,2.366l8.547-2.823s4.808.153,4.808,4.96v55.483s-.687,3.968,2.976,5.952l17.704,10.302s4.35,1.52,4.35,6.556v33.772h-2.685s.001,2.078.001,2.078h-50.809v-4.029Z" fill="none" stroke="#231f20" stroke-linecap="round" stroke-linejoin="round" stroke-width=".5"/><rect x="85.687" y="526.993" width="46.808" height="3.281" fill="none" stroke="#231f20" stroke-linecap="round" stroke-linejoin="round" stroke-width=".5"/><path d="M85.539,518.489l7.277,4.387s1.084.671,2.271,0,7.019-4.026,7.019-4.026c0,0,1.652-.877,1.652-2.735v-4.955s.516-2.064-1.91-3.458c-2.426-1.393-6.09-3.561-6.09-3.561,0,0-1.858-1.187-3.303,0l-6.709,3.768s-1.445,1.084-1.445,3.2v4.955s.31,1.858,1.239,2.426Z" fill="none" stroke="#231f20" stroke-linecap="round" stroke-linejoin="round" stroke-width=".5"/><path d="M87.616,517.024l5.148,2.896s1.094.644,2.381,0,4.569-2.51,4.569-2.51c0,0,1.545-1.094,1.545-2.445v-3.346s.129-1.48-1.48-2.445-4.44-2.574-4.44-2.574c0,0-1.351-.708-2.51,0l-5.148,3.025s-1.158,1.03-1.158,2.381v2.767s.193,1.48,1.094,2.252Z" fill="none" stroke="#231f20" stroke-linecap="round" stroke-linejoin="round" stroke-width=".5"/><polyline points="112.591 434.733 136.512 434.733 136.512 491.442" fill="none" stroke="#231f20" stroke-linecap="round" stroke-linejoin="round" stroke-width=".5"/><line x1="84.187" y1="502.992" x2="84.187" y2="433.701" fill="none" stroke="#231f20" stroke-linecap="round" stroke-linejoin="round" stroke-width=".5"/><path d="M84.144,426.63s-1.605-.334-2.274.201v3.88s1.271-.535,2.408-.134" fill="none" stroke="#231f20" stroke-linecap="round" stroke-linejoin="round" stroke-width=".5"/><line x1="148.825" y1="531.635" x2="198.268" y2="531.635" fill="none" stroke="#231f20" stroke-linecap="round" stroke-linejoin="round" stroke-width=".5"/><path d="M204.496,541.986h3.08s0-10.898,0-10.898h-9.161s0,10.898,0,10.898h3.077s.848-2.085.848-2.085c-.74-.215-1.122-.739-1.122-1.548,0-.981.796-1.777,1.777-1.777s1.777.796,1.777,1.777c0,.696-.4,1.298-.983,1.59l.706,2.043Z" fill="none" stroke="#231f20" stroke-linecap="round" stroke-linejoin="round" stroke-width=".5"/><circle cx="201.143" cy="533.92" r="1.535" fill="none" stroke="#231f20" stroke-linecap="round" stroke-linejoin="round" stroke-width=".5"/><path d="M144.525,541.986h2.685s0-10.898,0-10.898h-8.314s0,10.898,0,10.898h2.626s.848-2.085.848-2.085c-.74-.215-1.122-.739-1.122-1.548,0-.981.796-1.777,1.777-1.777s1.777.796,1.777,1.777c0,.696-.4,1.298-.983,1.59l.706,2.043Z" fill="none" stroke="#231f20" stroke-linecap="round" stroke-linejoin="round" stroke-width=".5"/><circle cx="143.455" cy="533.664" r="1.535" fill="none" stroke="#231f20" stroke-linecap="round" stroke-linejoin="round" stroke-width=".5"/><circle cx="262.601" cy="536.426" r="2.007" fill="none" stroke="#231f20" stroke-linecap="round" stroke-linejoin="round" stroke-width=".5"/><path d="M137.692,522.017s2.418-.064,3.5,1.145h4.518s1.527-.127,1.527-2.164v-23.991s-6.045,0-6.045,0c0,0-1.845.064-1.845,1.527v5.345h-1.336" fill="none" stroke="#231f20" stroke-linecap="round" stroke-linejoin="round" stroke-width=".5"/><circle cx="143.838" cy="520.233" r="1.436" fill="none" stroke="#231f20" stroke-linecap="round" stroke-linejoin="round" stroke-width=".5"/><circle cx="108.423" cy="535.49" r="1.436" fill="none" stroke="#231f20" stroke-linecap="round" stroke-linejoin="round" stroke-width=".5"/><circle cx="177.603" cy="535.49" r="1.436" fill="none" stroke="#231f20" stroke-linecap="round" stroke-linejoin="round" stroke-width=".5"/><circle cx="235.38" cy="535.49" r="1.436" fill="none" stroke="#231f20" stroke-linecap="round" stroke-linejoin="round" stroke-width=".5"/><circle cx="250.916" cy="535.49" r="1.436" fill="none" stroke="#231f20" stroke-linecap="round" stroke-linejoin="round" stroke-width=".5"/><circle cx="95.95" cy="535.49" r="1.436" fill="none" stroke="#231f20" stroke-linecap="round" stroke-linejoin="round" stroke-width=".5"/><circle cx="141.974" cy="500.823" r="1.436" fill="none" stroke="#231f20" stroke-linecap="round" stroke-linejoin="round" stroke-width=".5"/><path d="M151.317,532.5v6.235s-.169.971-1.267.971-1.267-1.14-1.267-1.14v-8.571s-4.35-4.445-4.35-4.445" fill="none" stroke="#231f20" stroke-linecap="round" stroke-linejoin="round" stroke-width=".5"/><path d="M135.569,532.055v6.68s.169.971,1.267.971,1.267-1.14,1.267-1.14v-8.571s1.349-1.709,1.349-1.709" fill="none" stroke="#231f20" stroke-linecap="round" stroke-linejoin="round" stroke-width=".5"/><path d="M143.718,523.282l.718,1.182v4.518s-.084.76-1.267.76h-1.942s-1.393-.211-1.689-1.815v-2.787s.507-1.604,2.069-1.9" fill="none" stroke="#231f20" stroke-linecap="round" stroke-linejoin="round" stroke-width=".5"/><circle cx="142.027" cy="526.111" r="1.119" fill="none" stroke="#231f20" stroke-linecap="round" stroke-linejoin="round" stroke-width=".5"/><line x1="296.065" y1="537.596" x2="296.065" y2="540.678" fill="none" stroke="#231f20" stroke-linecap="round" stroke-linejoin="round" stroke-width=".5"/><line x1="270.127" y1="537.596" x2="270.127" y2="540.678" fill="none" stroke="#231f20" stroke-linecap="round" stroke-linejoin="round" stroke-width=".5"/><line x1="55.269" y1="537.596" x2="55.269" y2="540.678" fill="none" stroke="#231f20" stroke-linecap="round" stroke-linejoin="round" stroke-width=".5"/><line x1="29.331" y1="537.596" x2="29.331" y2="540.678" fill="none" stroke="#231f20" stroke-linecap="round" stroke-linejoin="round" stroke-width=".5"/><polyline points="318.207 540.678 318.207 535.043 318.894 534.479 318.894 528.267 318.41 527.38 318.41 511.971" fill="none" stroke="#231f20" stroke-linecap="round" stroke-linejoin="round" stroke-width=".5"/><line x1="318.41" y1="504.707" x2="318.41" y2="496.838" fill="none" stroke="#231f20" stroke-linecap="round" stroke-linejoin="round" stroke-width=".5"/><line x1="318.41" y1="478.109" x2="318.41" y2="470.241" fill="none" stroke="#231f20" stroke-linecap="round" stroke-linejoin="round" stroke-width=".5"/><polyline points="26.923 540.678 26.923 535.043 26.236 534.479 26.236 528.267 26.72 527.38 26.72 511.971" fill="none" stroke="#231f20" stroke-linecap="round" stroke-linejoin="round" stroke-width=".5"/><line x1="26.72" y1="504.707" x2="26.72" y2="496.838" fill="none" stroke="#231f20" stroke-linecap="round" stroke-linejoin="round" stroke-width=".5"/><line x1="26.72" y1="478.109" x2="26.72" y2="470.241" fill="none" stroke="#231f20" stroke-linecap="round" stroke-linejoin="round" stroke-width=".5"/><rect x="262.253" y="433.905" width="3.375" height="10.785" rx="1.687" ry="1.687" transform="translate(527.881 878.596) rotate(180)" fill="none" stroke="#231f20" stroke-linecap="round" stroke-linejoin="round" stroke-width=".5"/><polyline points="314.678 540.912 314.678 543.849 312.205 545.154 312.205 540.786" fill="none" stroke="#231f20" stroke-linecap="round" stroke-linejoin="round" stroke-width=".5"/><path d="M312.205,545.158h-4.534s-.726-.142-.726.943" fill="none" stroke="#231f20" stroke-linecap="round" stroke-linejoin="round" stroke-width=".5"/><path d="M308.234,559.119v-12.889s-2.431,0-2.431,0v12.9c.992.992,2.233.248,2.233.248l2.481-1.737v-12.255" fill="none" stroke="#231f20" stroke-linecap="round" stroke-linejoin="round" stroke-width=".5"/><line x1="309.921" y1="545.288" x2="308.234" y2="546.23" fill="none" stroke="#231f20" stroke-linecap="round" stroke-linejoin="round" stroke-width=".5"/><path d="M308.713,556.157s.437,1.392,1.074.596" fill="none" stroke="#231f20" stroke-linecap="round" stroke-linejoin="round" stroke-width=".5"/><path d="M308.713,553.015s.437,1.392,1.074.596" fill="none" stroke="#231f20" stroke-linecap="round" stroke-linejoin="round" stroke-width=".5"/><path d="M308.713,549.874s.437,1.392,1.074.596" fill="none" stroke="#231f20" stroke-linecap="round" stroke-linejoin="round" stroke-width=".5"/><path d="M77.865,540.786l1.587.76h5.062c2.05-.126,1.883-2.217,1.883-2.217v-6.945s-8.451,0-8.451,0" fill="none" stroke="#231f20" stroke-linecap="round" stroke-linejoin="round" stroke-width=".5"/><circle cx="82.401" cy="537.007" r="1.694" fill="none" stroke="#231f20" stroke-linecap="round" stroke-linejoin="round" stroke-width=".5"/><polyline points="88.491 542.045 92.434 542.045 94.086 540.828" fill="none" stroke="#231f20" stroke-linecap="round" stroke-linejoin="round" stroke-width=".5"/><line x1="91.999" y1="541.929" x2="91.999" y2="532.884" fill="none" stroke="#231f20" stroke-linecap="round" stroke-linejoin="round" stroke-width=".5"/><line x1="89.332" y1="541.929" x2="89.332" y2="532.884" fill="none" stroke="#231f20" stroke-linecap="round" stroke-linejoin="round" stroke-width=".5"/><line x1="93.564" y1="541.031" x2="93.564" y2="537.842" fill="none" stroke="#231f20" stroke-linecap="round" stroke-linejoin="round" stroke-width=".5"/><line x1="89.216" y1="538.609" x2="86.414" y2="538.609" fill="none" stroke="#231f20" stroke-linecap="round" stroke-linejoin="round" stroke-width=".5"/><rect x="79.31" y="434.713" width="3.281" height="10.236" transform="translate(161.9 879.662) rotate(-180)" fill="none" stroke="#231f20" stroke-linecap="round" stroke-linejoin="round" stroke-width=".5"/><polyline points="207.576 531.087 207.576 516.522 203.765 516.522" fill="none" stroke="#231f20" stroke-linecap="round" stroke-linejoin="round" stroke-width=".5"/><line x1="206.812" y1="514.858" x2="206.438" y2="452.957" fill="none" stroke="#231f20" stroke-linecap="round" stroke-linejoin="round" stroke-width=".5"/><path d="M311.605,540.943v3.581h-4.266s-1.041-.176-1.041,1.627" fill="none" stroke="#231f20" stroke-linecap="round" stroke-linejoin="round" stroke-width=".5"/><polyline points="74.727 540.912 74.727 543.849 72.254 545.154 72.254 540.786" fill="none" stroke="#231f20" stroke-linecap="round" stroke-linejoin="round" stroke-width=".5"/><path d="M72.254,545.158h-4.534s-.726-.142-.726.943" fill="none" stroke="#231f20" stroke-linecap="round" stroke-linejoin="round" stroke-width=".5"/><path d="M68.283,559.119v-12.889s-2.431,0-2.431,0v12.9c.992.992,2.233.248,2.233.248l2.481-1.737v-12.255" fill="none" stroke="#231f20" stroke-linecap="round" stroke-linejoin="round" stroke-width=".5"/><line x1="69.97" y1="545.288" x2="68.283" y2="546.23" fill="none" stroke="#231f20" stroke-linecap="round" stroke-linejoin="round" stroke-width=".5"/><path d="M68.762,556.157s.437,1.392,1.074.596" fill="none" stroke="#231f20" stroke-linecap="round" stroke-linejoin="round" stroke-width=".5"/><path d="M68.762,553.015s.437,1.392,1.074.596" fill="none" stroke="#231f20" stroke-linecap="round" stroke-linejoin="round" stroke-width=".5"/><path d="M68.762,549.874s.437,1.392,1.074.596" fill="none" stroke="#231f20" stroke-linecap="round" stroke-linejoin="round" stroke-width=".5"/><path d="M71.654,540.943v3.581h-4.266s-1.041-.176-1.041,1.627" fill="none" stroke="#231f20" stroke-linecap="round" stroke-linejoin="round" stroke-width=".5"/><line x1="309.211" y1="413.773" x2="309.211" y2="239.43" fill="none" stroke="#231f20" stroke-linecap="round" stroke-linejoin="round" stroke-width=".5"/><line x1="35.907" y1="413.773" x2="35.907" y2="239.43" fill="none" stroke="#231f20" stroke-linecap="round" stroke-linejoin="round" stroke-width=".5"/><line x1="207.772" y1="537.943" x2="211.313" y2="537.943" fill="none" stroke="#231f20" stroke-linecap="round" stroke-linejoin="round" stroke-width=".5"/><circle cx="80.95" cy="442.786" r=".897" fill="none" stroke="#231f20" stroke-linecap="round" stroke-linejoin="round" stroke-width=".5"/><circle cx="80.95" cy="436.767" r=".897" fill="none" stroke="#231f20" stroke-linecap="round" stroke-linejoin="round" stroke-width=".5"/><circle cx="48.986" cy="372.363" r="6.437" fill="none" stroke="#231f20" stroke-linecap="round" stroke-linejoin="round" stroke-width=".5"/><circle cx="66.102" cy="376.604" r="6.437" fill="none" stroke="#231f20" stroke-linecap="round" stroke-linejoin="round" stroke-width=".5"/><line x1="83.738" y1="375.82" x2="83.738" y2="293.552" fill="none" stroke="#231f20" stroke-linecap="round" stroke-linejoin="round" stroke-width=".5"/><line x1="89.335" y1="375.82" x2="89.335" y2="293.552" fill="none" stroke="#231f20" stroke-linecap="round" stroke-linejoin="round" stroke-width=".5"/><line x1="94.931" y1="375.82" x2="94.931" y2="293.552" fill="none" stroke="#231f20" stroke-linecap="round" stroke-linejoin="round" stroke-width=".5"/><line x1="100.528" y1="375.82" x2="100.528" y2="293.552" fill="none" stroke="#231f20" stroke-linecap="round" stroke-linejoin="round" stroke-width=".5"/><line x1="106.124" y1="375.82" x2="106.124" y2="293.552" fill="none" stroke="#231f20" stroke-linecap="round" stroke-linejoin="round" stroke-width=".5"/><line x1="111.721" y1="375.82" x2="111.721" y2="293.552" fill="none" stroke="#231f20" stroke-linecap="round" stroke-linejoin="round" stroke-width=".5"/><line x1="117.318" y1="375.82" x2="117.318" y2="293.552" fill="none" stroke="#231f20" stroke-linecap="round" stroke-linejoin="round" stroke-width=".5"/><line x1="122.914" y1="375.82" x2="122.914" y2="293.552" fill="none" stroke="#231f20" stroke-linecap="round" stroke-linejoin="round" stroke-width=".5"/><line x1="128.511" y1="375.82" x2="128.511" y2="293.552" fill="none" stroke="#231f20" stroke-linecap="round" stroke-linejoin="round" stroke-width=".5"/><line x1="134.108" y1="375.82" x2="134.108" y2="293.552" fill="none" stroke="#231f20" stroke-linecap="round" stroke-linejoin="round" stroke-width=".5"/><line x1="139.704" y1="375.82" x2="139.704" y2="293.552" fill="none" stroke="#231f20" stroke-linecap="round" stroke-linejoin="round" stroke-width=".5"/><line x1="214.352" y1="375.82" x2="214.352" y2="293.552" fill="none" stroke="#231f20" stroke-linecap="round" stroke-linejoin="round" stroke-width=".5"/><line x1="219.949" y1="375.82" x2="219.949" y2="293.552" fill="none" stroke="#231f20" stroke-linecap="round" stroke-linejoin="round" stroke-width=".5"/><line x1="225.546" y1="375.82" x2="225.546" y2="293.552" fill="none" stroke="#231f20" stroke-linecap="round" stroke-linejoin="round" stroke-width=".5"/><line x1="231.142" y1="375.82" x2="231.142" y2="293.552" fill="none" stroke="#231f20" stroke-linecap="round" stroke-linejoin="round" stroke-width=".5"/><line x1="236.739" y1="375.82" x2="236.739" y2="293.552" fill="none" stroke="#231f20" stroke-linecap="round" stroke-linejoin="round" stroke-width=".5"/><line x1="242.335" y1="375.82" x2="242.335" y2="293.552" fill="none" stroke="#231f20" stroke-linecap="round" stroke-linejoin="round" stroke-width=".5"/><line x1="247.932" y1="375.82" x2="247.932" y2="293.552" fill="none" stroke="#231f20" stroke-linecap="round" stroke-linejoin="round" stroke-width=".5"/><line x1="253.529" y1="375.82" x2="253.529" y2="293.552" fill="none" stroke="#231f20" stroke-linecap="round" stroke-linejoin="round" stroke-width=".5"/><line x1="259.125" y1="375.82" x2="259.125" y2="293.552" fill="none" stroke="#231f20" stroke-linecap="round" stroke-linejoin="round" stroke-width=".5"/><line x1="264.722" y1="375.82" x2="264.722" y2="293.552" fill="none" stroke="#231f20" stroke-linecap="round" stroke-linejoin="round" stroke-width=".5"/><line x1="270.319" y1="375.82" x2="270.319" y2="293.552" fill="none" stroke="#231f20" stroke-linecap="round" stroke-linejoin="round" stroke-width=".5"/><line x1="275.669" y1="375.82" x2="275.669" y2="293.552" fill="none" stroke="#231f20" stroke-linecap="round" stroke-linejoin="round" stroke-width=".5"/><path d="M194.535,305.14h12.427v30.172h-6.876s0,12.3,0,12.3h6.876v28.085h-6.876s-.065-7.394,0-7.328h-46.363s0,7.328,0,7.328h-6.476v-28.085h6.476s0-12.3,0-12.3h-6.476v-30.172h12.979" fill="none" stroke="#231f20" stroke-linecap="round" stroke-linejoin="round" stroke-width=".5"/><circle cx="196.077" cy="372.283" r="2.281" fill="none" stroke="#231f20" stroke-linecap="round" stroke-linejoin="round" stroke-width=".5"/><circle cx="203.834" cy="341.31" r="2.281" fill="none" stroke="#231f20" stroke-linecap="round" stroke-linejoin="round" stroke-width=".5"/><circle cx="150.217" cy="341.31" r="2.281" fill="none" stroke="#231f20" stroke-linecap="round" stroke-linejoin="round" stroke-width=".5"/><circle cx="157.737" cy="372.283" r="2.281" fill="none" stroke="#231f20" stroke-linecap="round" stroke-linejoin="round" stroke-width=".5"/><polyline points="84.285 412.952 84.285 402.545 76.642 402.545 76.642 396.428 84.285 396.428 84.285 397.748 86.077 397.748 86.077 411.21 84.452 411.21" fill="none" stroke="#231f20" stroke-linecap="round" stroke-linejoin="round" stroke-width=".5"/><path d="M80.905,400.71c-.116.113-.249.21-.394.285-.226.117-.482.183-.753.183-.906,0-1.641-.735-1.641-1.641,0-.906.735-1.641,1.641-1.641.27,0,.526.065.751.181l1.901,1.457-1.504,1.177Z" fill="none" stroke="#231f20" stroke-linecap="round" stroke-linejoin="round" stroke-width=".5"/></g><g id="b"><path d="M184.781,174.892h8.147s0-5.11,0-5.11h17.106v5.11s13.715,0,13.715,0v-5.11h17.106v5.11s13.715,0,13.715,0v-5.11h17.106v5.11c-.092,0,13.715,0,13.715,0v-5.11h17.106v5.11s17.692,0,17.692,0" fill="none" stroke="#231f20" stroke-miterlimit="10" stroke-width=".5"/><polyline points="320.188 161.984 252.443 161.984 193.114 161.984" fill="none" stroke="#231f20" stroke-linecap="round" stroke-linejoin="round" stroke-width=".5"/><rect x="285.514" y="179.342" width="22.179" height="33.071" transform="translate(593.207 391.754) rotate(-180)" fill="#fff" stroke="#231f20" stroke-miterlimit="10" stroke-width=".5"/><polygon points="284.207 179.925 284.207 176.555 309 176.555 309 179.925 302.02 179.925 302.02 192.881 308.228 192.881 308.228 198.7 302.02 198.7 302.02 211.217 309 211.217 309 214.587 284.207 214.587 284.207 211.217 291.188 211.217 291.188 198.7 284.979 198.7 284.979 192.881 291.188 192.881 291.188 179.925 284.207 179.925" fill="#fff" stroke="#231f20" stroke-miterlimit="10" stroke-width=".5"/><rect x="288.343" y="172.553" width="11.45" height="2.812" rx="1.406" ry="1.406" transform="translate(588.136 347.918) rotate(-180)" fill="#5d92f5" opacity=".7"/><rect x="280.491" y="176.647" width=".976" height="38.27" rx=".488" ry=".488" transform="translate(561.959 391.565) rotate(-180)"/><rect x="310.842" y="176.647" width=".976" height="38.27" rx=".488" ry=".488" transform="translate(622.659 391.565) rotate(180)"/><g opacity=".7"><rect x="290.233" y="215.797" width="11.45" height="2.812" rx="1.406" ry="1.406" transform="translate(591.917 434.405) rotate(180)" fill="#5d92f5"/></g><rect x="254.694" y="179.342" width="22.179" height="33.071" transform="translate(531.566 391.754) rotate(-180)" fill="#fff" stroke="#231f20" stroke-miterlimit="10" stroke-width=".5"/><polygon points="253.386 179.925 253.386 176.555 278.179 176.555 278.179 179.925 271.199 179.925 271.199 192.881 277.407 192.881 277.407 198.7 271.199 198.7 271.199 211.217 278.179 211.217 278.179 214.587 253.386 214.587 253.386 211.217 260.367 211.217 260.367 198.7 254.158 198.7 254.158 192.881 260.367 192.881 260.367 179.925 253.386 179.925" fill="#fff" stroke="#231f20" stroke-miterlimit="10" stroke-width=".5"/><rect x="257.522" y="172.553" width="11.45" height="2.812" rx="1.406" ry="1.406" transform="translate(526.494 347.918) rotate(180)" fill="#5d92f5" opacity=".7"/><path d="M182.867,22.386v-2.039s0,0,0,0c0-1.342-1.098-2.441-2.441-2.441h-14.994c-1.342,0-2.441,2.441-2.441,2.441v1.958" fill="none" stroke="#231f20" stroke-linecap="round" stroke-linejoin="round" stroke-width=".5"/><rect x="249.671" y="176.647" width=".976" height="38.27" rx=".488" ry=".488" transform="translate(500.317 391.565) rotate(180)"/><g opacity=".7"><rect x="259.413" y="215.797" width="11.45" height="2.812" rx="1.406" ry="1.406" transform="translate(530.275 434.405) rotate(-180)" fill="#5d92f5"/></g><rect x="223.873" y="179.342" width="22.179" height="33.071" transform="translate(469.924 391.754) rotate(-180)" fill="#fff" stroke="#231f20" stroke-miterlimit="10" stroke-width=".5"/><polygon points="222.566 179.925 222.566 176.555 247.359 176.555 247.359 179.925 240.378 179.925 240.378 192.881 246.587 192.881 246.587 198.7 240.378 198.7 240.378 211.217 247.359 211.217 247.359 214.587 222.566 214.587 222.566 211.217 229.546 211.217 229.546 198.7 223.338 198.7 223.338 192.881 229.546 192.881 229.546 179.925 222.566 179.925" fill="#fff" stroke="#231f20" stroke-miterlimit="10" stroke-width=".5"/><rect x="226.702" y="172.553" width="11.45" height="2.812" rx="1.406" ry="1.406" transform="translate(464.853 347.918) rotate(-180)" fill="#5d92f5" opacity=".7"/><rect x="218.85" y="176.647" width=".976" height="38.27" rx=".488" ry=".488" transform="translate(438.676 391.565) rotate(-180)"/><g opacity=".7"><rect x="228.592" y="215.797" width="11.45" height="2.812" rx="1.406" ry="1.406" transform="translate(468.634 434.405) rotate(180)" fill="#5d92f5"/></g><rect x="193.052" y="179.342" width="22.179" height="33.071" transform="translate(408.283 391.754) rotate(-180)" fill="#fff" stroke="#231f20" stroke-miterlimit="10" stroke-width=".5"/><polygon points="191.745 179.925 191.745 176.555 216.538 176.555 216.538 179.925 209.557 179.925 209.557 192.881 215.766 192.881 215.766 198.7 209.557 198.7 209.557 211.217 216.538 211.217 216.538 214.587 191.745 214.587 191.745 211.217 198.726 211.217 198.726 198.7 192.517 198.7 192.517 192.881 198.726 192.881 198.726 179.925 191.745 179.925" fill="#fff" stroke="#231f20" stroke-miterlimit="10" stroke-width=".5"/><rect x="195.881" y="172.553" width="11.45" height="2.812" rx="1.406" ry="1.406" transform="translate(403.212 347.918) rotate(-180)" fill="#5d92f5" opacity=".7"/><rect x="188.029" y="176.647" width=".976" height="38.27" rx=".488" ry=".488" transform="translate(377.035 391.565) rotate(180)"/><g opacity=".7"><rect x="197.771" y="215.797" width="11.45" height="2.812" rx="1.406" ry="1.406" transform="translate(406.993 434.405) rotate(180)" fill="#5d92f5"/></g><line x1="157.526" y1="161.984" x2="25.534" y2="161.984" fill="none" stroke="#231f20" stroke-linecap="round" stroke-linejoin="round" stroke-width=".5"/><polyline points="25.41 174.892 43.439 174.892 43.439 169.782 60.545 169.782 60.545 174.892 74.26 174.892 74.26 169.782 91.365 169.782 91.365 174.892 105.08 174.892 105.08 169.782 122.186 169.782 122.186 174.892 135.901 174.892 135.901 169.782 153.007 169.782 153.007 174.892 164.68 174.892" fill="none" stroke="#231f20" stroke-miterlimit="10" stroke-width=".5"/><rect x="136.025" y="179.342" width="22.179" height="33.071" transform="translate(294.228 391.754) rotate(-180)" fill="#fff" stroke="#231f20" stroke-miterlimit="10" stroke-width=".5"/><polygon points="134.718 179.925 134.718 176.555 159.51 176.555 159.51 179.925 152.53 179.925 152.53 192.881 158.739 192.881 158.739 198.7 152.53 198.7 152.53 211.217 159.51 211.217 159.51 214.587 134.718 214.587 134.718 211.217 141.698 211.217 141.698 198.7 135.49 198.7 135.49 192.881 141.698 192.881 141.698 179.925 134.718 179.925" fill="#fff" stroke="#231f20" stroke-miterlimit="10" stroke-width=".5"/><rect x="138.853" y="172.553" width="11.45" height="2.812" rx="1.406" ry="1.406" transform="translate(289.157 347.918) rotate(-180)" fill="#5d92f5" opacity=".7"/><rect x="131.002" y="176.647" width=".976" height="38.27" rx=".488" ry=".488" transform="translate(262.98 391.565) rotate(-180)"/><rect x="161.597" y="176.647" width=".976" height="38.27" rx=".488" ry=".488" transform="translate(324.169 391.565) rotate(180)"/><g opacity=".7"><rect x="140.744" y="215.797" width="11.45" height="2.812" rx="1.406" ry="1.406" transform="translate(292.938 434.405) rotate(180)" fill="#5d92f5"/></g><rect x="105.204" y="179.342" width="22.179" height="33.071" transform="translate(232.587 391.754) rotate(-180)" fill="#fff" stroke="#231f20" stroke-miterlimit="10" stroke-width=".5"/><polygon points="103.897 179.925 103.897 176.555 128.69 176.555 128.69 179.925 121.709 179.925 121.709 192.881 127.918 192.881 127.918 198.7 121.709 198.7 121.709 211.217 128.69 211.217 128.69 214.587 103.897 214.587 103.897 211.217 110.877 211.217 110.877 198.7 104.669 198.7 104.669 192.881 110.877 192.881 110.877 179.925 103.897 179.925" fill="#fff" stroke="#231f20" stroke-miterlimit="10" stroke-width=".5"/><rect x="108.033" y="172.553" width="11.45" height="2.812" rx="1.406" ry="1.406" transform="translate(227.515 347.918) rotate(-180)" fill="#5d92f5" opacity=".7"/><rect x="100.181" y="176.647" width=".976" height="38.27" rx=".488" ry=".488" transform="translate(201.338 391.565) rotate(180)"/><g opacity=".7"><rect x="109.923" y="215.797" width="11.45" height="2.812" rx="1.406" ry="1.406" transform="translate(231.296 434.405) rotate(-180)" fill="#5d92f5"/></g><rect x="74.383" y="179.342" width="22.179" height="33.071" transform="translate(170.945 391.754) rotate(-180)" fill="#fff" stroke="#231f20" stroke-miterlimit="10" stroke-width=".5"/><polygon points="73.076 179.925 73.076 176.555 97.869 176.555 97.869 179.925 90.889 179.925 90.889 192.881 97.097 192.881 97.097 198.7 90.889 198.7 90.889 211.217 97.869 211.217 97.869 214.587 73.076 214.587 73.076 211.217 80.057 211.217 80.057 198.7 73.848 198.7 73.848 192.881 80.057 192.881 80.057 179.925 73.076 179.925" fill="#fff" stroke="#231f20" stroke-miterlimit="10" stroke-width=".5"/><rect x="77.212" y="172.553" width="11.45" height="2.812" rx="1.406" ry="1.406" transform="translate(165.874 347.918) rotate(180)" fill="#5d92f5" opacity=".7"/><rect x="69.36" y="176.647" width=".976" height="38.27" rx=".488" ry=".488" transform="translate(139.697 391.565) rotate(-180)"/><g opacity=".7"><rect x="79.102" y="215.797" width="11.45" height="2.812" rx="1.406" ry="1.406" transform="translate(169.655 434.405) rotate(-180)" fill="#5d92f5"/></g><rect x="38.54" y="176.647" width=".976" height="38.27" rx=".488" ry=".488" transform="translate(78.056 391.565) rotate(180)"/><polyline points="321.361 10.767 315.453 22.494 28.431 22.494" fill="none" stroke="#231f20" stroke-linecap="round" stroke-linejoin="round" stroke-width=".5"/><path d="M34.645,175.162v53.588c0,2.584,2.114,4.698,4.698,4.698h13.973c2.584,0,4.698-2.114,4.698-4.698v-7.587c5.026,0,4.638-3.932,4.638-3.932h2.813v11.519c0,2.584,2.114,4.698,4.698,4.698h13.973c2.584,0,4.698-2.114,4.698-4.698v-7.587c5.026,0,4.638-3.932,4.638-3.932h2.813v11.519c0,2.584,2.114,4.698,4.698,4.698h13.973c2.584,0,4.698-2.114,4.698-4.698v-7.587c5.026,0,4.638-3.932,4.638-3.932h2.813v11.519c0,2.584,2.114,4.698,4.698,4.698h13.973c2.584,0,4.698-2.114,4.698-4.698v-7.587c5.026,0,4.638-3.932,4.638-3.932v-.034h10.03s0-5.542,0-5.542h18.99v17.096c0,2.584,2.114,4.698,4.698,4.698h13.973c2.584,0,4.698-2.114,4.698-4.698v-7.587c5.026,0,4.638-3.932,4.638-3.932h2.813v11.519c0,2.584,2.114,4.698,4.698,4.698h13.973c2.584,0,4.698-2.114,4.698-4.698v-7.587c5.026,0,4.638-3.932,4.638-3.932h2.813v11.519c0,2.584,2.114,4.698,4.698,4.698h13.973c2.584,0,4.698-2.114,4.698-4.698v-7.587c5.026,0,4.638-3.932,4.638-3.932h2.813v11.519c0,2.584,2.114,4.698,4.698,4.698h13.973c2.584,0,4.698-2.114,4.698-4.698v-7.587c5.026,0,4.638-3.932,4.638-3.932h9.019s0-9.611,0-9.611h6.743v31.208H25.284v-34.99h4.926s0-21.496,0-21.496h-4.926V31.683" fill="none" stroke="#231f20" stroke-linecap="round" stroke-linejoin="round" stroke-width=".5"/><path d="M300.911,98.404h-5.034s-2.361-.363-2.361-2.361v-5.447s0-2.27,2.27-2.27h5.124v10.078Z" fill="none" stroke="#231f20" stroke-linecap="round" stroke-linejoin="round" stroke-width=".5"/><path d="M315.277,31.644H28.421s0,6.417,0,6.417h5.136v14.905h-5.136s0,38.548,0,38.548c7.332,0,6.642,2.444,6.642,2.444v11.18s27.798,0,27.798,0v10.07s10.523,0,10.523,0v-10.07h38.91v10.07s11.814,0,11.814,0v-10.07h37.863v10.07s11.257,0,11.257,0v-10.07h37.686v10.07s10.768,0,10.768,0v-10.07h37.634v10.07s10.444,0,10.444,0v-10.07h33.926v10.07s11.858,0,11.858,0v-15.523s-5.749,0-5.749,0v-12.804h5.749s-.059-51.267-.059-51.267l5.876-10.629" fill="none" stroke="#231f20" stroke-linecap="round" stroke-linejoin="round" stroke-width=".5"/><polyline points="320.417 207.189 320.125 35.614 315.484 35.614 315.484 31.622" fill="none" stroke="#231f20" stroke-linecap="round" stroke-linejoin="round" stroke-width=".5"/><rect x="164.297" y="93.843" width="17.421" height="5.799" transform="translate(346.014 193.485) rotate(-180)" fill="none" stroke="#231f20" stroke-linecap="round" stroke-linejoin="round" stroke-width=".5"/><path d="M288.673,215.132s-.837,4.573,3.325,4.573h7.953c4.162,0,3.325-4.573,3.325-4.573" fill="none" stroke="#231f20" stroke-linecap="round" stroke-linejoin="round" stroke-width=".5"/><path d="M257.811,215.132s-.837,4.573,3.325,4.573h7.953c4.162,0,3.325-4.573,3.325-4.573" fill="none" stroke="#231f20" stroke-linecap="round" stroke-linejoin="round" stroke-width=".5"/><path d="M226.949,215.132s-.837,4.573,3.325,4.573h7.953c4.162,0,3.325-4.573,3.325-4.573" fill="none" stroke="#231f20" stroke-linecap="round" stroke-linejoin="round" stroke-width=".5"/><path d="M196.088,215.132s-.837,4.573,3.325,4.573h7.953c4.162,0,3.325-4.573,3.325-4.573" fill="none" stroke="#231f20" stroke-linecap="round" stroke-linejoin="round" stroke-width=".5"/><path d="M139.28,215.132s-.837,4.573,3.325,4.573h7.953c4.162,0,3.325-4.573,3.325-4.573" fill="none" stroke="#231f20" stroke-linecap="round" stroke-linejoin="round" stroke-width=".5"/><path d="M108.363,215.132s-.837,4.573,3.325,4.573h7.953c4.162,0,3.325-4.573,3.325-4.573" fill="none" stroke="#231f20" stroke-linecap="round" stroke-linejoin="round" stroke-width=".5"/><path d="M77.446,215.132s-.837,4.573,3.325,4.573h7.953c4.162,0,3.325-4.573,3.325-4.573" fill="none" stroke="#231f20" stroke-linecap="round" stroke-linejoin="round" stroke-width=".5"/><path d="M75.633,176.088s-.837-4.573,3.325-4.573h7.953c4.162,0,3.325,4.573,3.325,4.573" fill="none" stroke="#231f20" stroke-linecap="round" stroke-linejoin="round" stroke-width=".5"/><path d="M106.334,176.088s-.837-4.573,3.325-4.573h7.953c4.162,0,3.325,4.573,3.325,4.573" fill="none" stroke="#231f20" stroke-linecap="round" stroke-linejoin="round" stroke-width=".5"/><path d="M137.164,176.088s-.837-4.573,3.325-4.573h7.953c4.162,0,3.325,4.573,3.325,4.573" fill="none" stroke="#231f20" stroke-linecap="round" stroke-linejoin="round" stroke-width=".5"/><path d="M194.191,176.088s-.837-4.573,3.325-4.573h7.953c4.162,0,3.325,4.573,3.325,4.573" fill="none" stroke="#231f20" stroke-linecap="round" stroke-linejoin="round" stroke-width=".5"/><path d="M224.978,176.088s-.837-4.573,3.325-4.573h7.953c4.162,0,3.325,4.573,3.325,4.573" fill="none" stroke="#231f20" stroke-linecap="round" stroke-linejoin="round" stroke-width=".5"/><path d="M255.764,176.088s-.837-4.573,3.325-4.573h7.953c4.162,0,3.325,4.573,3.325,4.573" fill="none" stroke="#231f20" stroke-linecap="round" stroke-linejoin="round" stroke-width=".5"/><path d="M286.55,176.088s-.837-4.573,3.325-4.573h7.953c4.162,0,3.325,4.573,3.325,4.573" fill="none" stroke="#231f20" stroke-linecap="round" stroke-linejoin="round" stroke-width=".5"/><polygon points="284.073 75.715 284.073 86.773 295.931 86.773 295.931 75.715 289.559 75.715 289.559 83.558 286.422 83.558 286.422 75.715 284.073 75.715" fill="none" stroke="#231f20" stroke-linecap="round" stroke-linejoin="round" stroke-width=".5"/><circle cx="185.826" cy="137.672" r="3.689" fill="none" stroke="#231f20" stroke-linecap="round" stroke-linejoin="round" stroke-width=".5"/><line x1="185.826" y1="139.596" x2="185.826" y2="135.748" fill="none" stroke="#231f20" stroke-linecap="round" stroke-linejoin="round" stroke-width=".5"/><line x1="187.75" y1="137.672" x2="183.902" y2="137.672" fill="none" stroke="#231f20" stroke-linecap="round" stroke-linejoin="round" stroke-width=".5"/><circle cx="151.391" cy="144.83" r="3.689" fill="none" stroke="#231f20" stroke-linecap="round" stroke-linejoin="round" stroke-width=".5"/><line x1="151.391" y1="146.754" x2="151.391" y2="142.906" fill="none" stroke="#231f20" stroke-linecap="round" stroke-linejoin="round" stroke-width=".5"/><line x1="153.315" y1="144.83" x2="149.467" y2="144.83" fill="none" stroke="#231f20" stroke-linecap="round" stroke-linejoin="round" stroke-width=".5"/><circle cx="288.017" cy="137.672" r="3.689" fill="none" stroke="#231f20" stroke-linecap="round" stroke-linejoin="round" stroke-width=".5"/><line x1="288.017" y1="139.596" x2="288.017" y2="135.748" fill="none" stroke="#231f20" stroke-linecap="round" stroke-linejoin="round" stroke-width=".5"/><line x1="289.94" y1="137.672" x2="286.093" y2="137.672" fill="none" stroke="#231f20" stroke-linecap="round" stroke-linejoin="round" stroke-width=".5"/><circle cx="114.054" cy="154.89" r="3.689" fill="none" stroke="#231f20" stroke-linecap="round" stroke-linejoin="round" stroke-width=".5"/><line x1="114.054" y1="156.813" x2="114.054" y2="152.966" fill="none" stroke="#231f20" stroke-linecap="round" stroke-linejoin="round" stroke-width=".5"/><line x1="115.978" y1="154.89" x2="112.13" y2="154.89" fill="none" stroke="#231f20" stroke-linecap="round" stroke-linejoin="round" stroke-width=".5"/><path d="M58.431,130.184c.263.507.411,1.083.411,1.694,0,2.037-1.651,3.689-3.689,3.689s-3.689-1.651-3.689-3.689c0-.646.166-1.254.458-1.782" fill="none" stroke="#231f20" stroke-linecap="round" stroke-linejoin="round" stroke-width=".5"/><line x1="55.153" y1="133.801" x2="55.153" y2="129.954" fill="none" stroke="#231f20" stroke-linecap="round" stroke-linejoin="round" stroke-width=".5"/><line x1="57.077" y1="131.878" x2="53.229" y2="131.878" fill="none" stroke="#231f20" stroke-linecap="round" stroke-linejoin="round" stroke-width=".5"/><line x1="184.781" y1="174.892" x2="164.68" y2="174.892" fill="none" stroke="#231f20" stroke-linecap="round" stroke-linejoin="round" stroke-width=".5"/><line x1="193.33" y1="161.984" x2="157.61" y2="161.984" fill="none" stroke="#231f20" stroke-linecap="round" stroke-linejoin="round" stroke-width=".5"/><polyline points="190.112 31.822 190.112 101.657 155.577 101.657 155.577 31.822" fill="none" stroke="#231f20" stroke-linecap="round" stroke-linejoin="round" stroke-width=".5"/><polyline points="155.362 96.222 147.903 96.222 147.903 31.822" fill="none" stroke="#231f20" stroke-linecap="round" stroke-linejoin="round" stroke-width=".5"/><polyline points="197.787 31.822 197.787 96.222 190.395 96.222" fill="none" stroke="#231f20" stroke-linecap="round" stroke-linejoin="round" stroke-width=".5"/><path d="M246.121,87.482v-3.727c0-3.92,3.178-7.097,7.097-7.097s7.097,3.178,7.097,7.097v3.727" fill="none" stroke="#231f20" stroke-linecap="round" stroke-linejoin="round" stroke-width=".5"/><rect x="244.905" y="87.645" width="16.626" height="2.471" transform="translate(506.437 177.761) rotate(-180)" fill="none" stroke="#231f20" stroke-linecap="round" stroke-linejoin="round" stroke-width=".5"/><path d="M238.342,54.03v-3.727c0-3.92,3.178-7.097,7.097-7.097s7.097,3.178,7.097,7.097v3.727" fill="none" stroke="#231f20" stroke-linecap="round" stroke-linejoin="round" stroke-width=".5"/><rect x="237.126" y="54.193" width="16.626" height="2.471" transform="translate(490.878 110.858) rotate(-180)" fill="none" stroke="#231f20" stroke-linecap="round" stroke-linejoin="round" stroke-width=".5"/><path d="M200.741,54.03v-3.727c0-3.92,3.178-7.097,7.097-7.097s7.097,3.178,7.097,7.097v3.727" fill="none" stroke="#231f20" stroke-linecap="round" stroke-linejoin="round" stroke-width=".5"/><rect x="199.525" y="54.193" width="16.626" height="2.471" transform="translate(415.677 110.858) rotate(-180)" fill="none" stroke="#231f20" stroke-linecap="round" stroke-linejoin="round" stroke-width=".5"/><path d="M130.208,54.03v-3.727c0-3.92,3.178-7.097,7.097-7.097s7.097,3.178,7.097,7.097v3.727" fill="none" stroke="#231f20" stroke-linecap="round" stroke-linejoin="round" stroke-width=".5"/><rect x="128.992" y="54.193" width="16.626" height="2.471" transform="translate(274.61 110.858) rotate(-180)" fill="none" stroke="#231f20" stroke-linecap="round" stroke-linejoin="round" stroke-width=".5"/><path d="M90.792,54.03v-3.727c0-3.92,3.178-7.097,7.097-7.097s7.097,3.178,7.097,7.097v3.727" fill="none" stroke="#231f20" stroke-linecap="round" stroke-linejoin="round" stroke-width=".5"/><rect x="89.576" y="54.193" width="16.626" height="2.471" transform="translate(195.779 110.858) rotate(-180)" fill="none" stroke="#231f20" stroke-linecap="round" stroke-linejoin="round" stroke-width=".5"/><path d="M43.597,54.03v-3.727c0-3.92,3.178-7.097,7.097-7.097s7.097,3.178,7.097,7.097v3.727" fill="none" stroke="#231f20" stroke-linecap="round" stroke-linejoin="round" stroke-width=".5"/><rect x="42.381" y="54.193" width="16.626" height="2.471" transform="translate(101.389 110.858) rotate(-180)" fill="none" stroke="#231f20" stroke-linecap="round" stroke-linejoin="round" stroke-width=".5"/><path d="M91.311,87.482v-3.727c0-3.92,3.178-7.097,7.097-7.097s7.097,3.178,7.097,7.097v3.727" fill="none" stroke="#231f20" stroke-linecap="round" stroke-linejoin="round" stroke-width=".5"/><rect x="90.095" y="87.645" width="16.626" height="2.471" transform="translate(196.816 177.761) rotate(-180)" fill="none" stroke="#231f20" stroke-linecap="round" stroke-linejoin="round" stroke-width=".5"/><polyline points="320.534 42.346 323.389 42.346 332.438 24.985" fill="none" stroke="#231f20" stroke-linecap="round" stroke-linejoin="round" stroke-width=".5"/><rect x="321.361" y="10.767" width="11.077" height="14.219" transform="translate(653.799 35.752) rotate(-180)" fill="none" stroke="#231f20" stroke-linecap="round" stroke-linejoin="round" stroke-width=".5"/><rect x="8.438" y="7.232" width="11.077" height="14.904" transform="translate(27.954 29.369) rotate(-180)" fill="none" stroke="#231f20" stroke-linecap="round" stroke-linejoin="round" stroke-width=".5"/><line x1="315.484" y1="32.822" x2="315.484" y2="22.494" fill="none" stroke="#231f20" stroke-linecap="round" stroke-linejoin="round" stroke-width=".5"/><polygon points="28.37 31.773 28.37 21.172 19.59 7.314 19.59 22.158 28.37 31.773" fill="none" stroke="#231f20" stroke-linecap="round" stroke-linejoin="round" stroke-width=".5"/><polyline points="24.977 38.34 22.71 38.34 8.45 22.156" fill="none" stroke="#231f20" stroke-linecap="round" stroke-linejoin="round" stroke-width=".5"/><line x1="25.341" y1="31.674" x2="28.421" y2="31.674" fill="none" stroke="#231f20" stroke-linecap="round" stroke-linejoin="round" stroke-width=".5"/><line x1="184.574" y1="104.883" x2="184.574" y2="101.802" fill="none" stroke="#231f20" stroke-linecap="round" stroke-linejoin="round" stroke-width=".5"/><line x1="160.551" y1="101.802" x2="160.551" y2="104.883" fill="none" stroke="#231f20" stroke-linecap="round" stroke-linejoin="round" stroke-width=".5"/><path d="M165.361,21.058s.826-1.836,1.836-1.836h11.277c1.01,0,1.836.826,1.836,1.836h0s-14.948,0-14.948,0Z" fill="#5d92f5" opacity=".7"/><path d="M295.609,234.875s-.826,1.836-1.836,1.836h-11.277c-1.01,0-1.836-.826-1.836-1.836h0s14.948,0,14.948,0Z" fill="#5d92f5" opacity=".7"/><polyline points="309.776 31.62 309.776 46.957 276.139 46.957 276.139 31.62" fill="none" stroke="#231f20" stroke-linecap="round" stroke-linejoin="round" stroke-width=".5"/><polyline points="306.25 46.971 299.523 53.901 299.523 58.421 301.915 58.421 301.915 69.454 289.981 69.454 289.981 58.421 296.873 58.421 296.873 53.901 289.943 47.073" fill="none" stroke="#231f20" stroke-linecap="round" stroke-linejoin="round" stroke-width=".5"/><path d="M256.706,117.607v6.546s0,.964,0,.964c0,2.584-2.352,4.698-5.227,4.698h-24.769c-2.875,0-5.227-2.114-5.227-4.698v-.964s0-6.546,0-6.546" fill="none" stroke="#231f20" stroke-linecap="round" stroke-linejoin="round" stroke-width=".5"/><path d="M206.209,117.576v6.578s0,.964,0,.964c0,2.584-2.114,4.698-4.698,4.698h-22.262c-2.584,0-4.698-2.114-4.698-4.698v-.964s0-6.675,0-6.675" fill="none" stroke="#231f20" stroke-linecap="round" stroke-linejoin="round" stroke-width=".5"/><path d="M158.585,117.426v6.727s0,.964,0,.964c0,2.584-2.321,4.698-5.158,4.698h-24.439c-2.837,0-5.158-2.114-5.158-4.698v-.964s0-6.585,0-6.585" fill="none" stroke="#231f20" stroke-linecap="round" stroke-linejoin="round" stroke-width=".5"/><path d="M110.369,117.528v6.625s0,.964,0,.964c0,2.584-2.348,4.698-5.217,4.698h-24.721c-2.87,0-5.217-2.114-5.217-4.698v-.964s0-6.757,0-6.757" fill="none" stroke="#231f20" stroke-linecap="round" stroke-linejoin="round" stroke-width=".5"/><path d="M61.462,117.528v6.625s0,.964,0,.964c0,2.584-2.114,4.698-4.698,4.698h-22.262c-2.584,0-4.698-2.114-4.698-4.698v-.964s0-6.564,0-6.564" fill="none" stroke="#231f20" stroke-linecap="round" stroke-linejoin="round" stroke-width=".5"/><line x1="316.171" y1="117.478" x2="27.213" y2="117.478" fill="none" stroke="#231f20" stroke-linecap="round" stroke-linejoin="round" stroke-width=".5"/><polyline points="217.319 117.695 217.319 125.402 210.426 125.402 210.426 117.695" fill="none" stroke="#231f20" stroke-linecap="round" stroke-linejoin="round" stroke-width=".5"/><polyline points="170.054 117.695 170.054 125.402 163.161 125.402 163.161 117.695" fill="none" stroke="#231f20" stroke-linecap="round" stroke-linejoin="round" stroke-width=".5"/><polyline points="71.822 117.695 71.822 125.402 64.929 125.402 64.929 117.695" fill="none" stroke="#231f20" stroke-linecap="round" stroke-linejoin="round" stroke-width=".5"/><polyline points="265.498 117.53 265.498 122.637 260.164 122.637 260.164 117.53" fill="none" stroke="#231f20" stroke-linecap="round" stroke-linejoin="round" stroke-width=".5"/><polyline points="119.671 117.605 119.671 122.637 114.338 122.637 114.338 117.605" fill="none" stroke="#231f20" stroke-linecap="round" stroke-linejoin="round" stroke-width=".5"/><rect x="165.218" y="191.796" width="19.032" height="16.766" rx="7.2" ry="7.2" transform="translate(349.467 400.358) rotate(-180)" fill="none" stroke="#231f20" stroke-linecap="round" stroke-linejoin="round" stroke-width=".5"/><polyline points="178.585 174.985 178.585 189.757 170.882 189.757 170.882 174.985" fill="none" stroke="#231f20" stroke-linecap="round" stroke-linejoin="round" stroke-width=".5"/></g><g id="c"><path d="M308.954,286.409h-37.345v-6.835s.331-3.965-3.912-3.965h-52.28c-4.383,0-4.105,4.084-4.105,4.084v24.289h-17.247s0,6.433,0,6.433h-4.84s0,5.938,0,5.938h-23.753v-5.938s-4.842,0-4.842,0v-6.433s-17.071,0-17.071,0l-.002-24.448s.138-3.925-3.851-3.925h-52.163c-4.516,0-4.285,3.964-4.285,3.964v6.836h-47.422" fill="none" stroke="#231f20" stroke-linecap="round" stroke-linejoin="round" stroke-width=".5"/><line x1="35.975" y1="240.896" x2="308.954" y2="240.896" fill="none" stroke="#231f20" stroke-linecap="round" stroke-linejoin="round" stroke-width=".5"/></g><g id="d"><line x1="222.378" y1="522.15" x2="222.378" y2="549.626" fill="#fff"/><line x1="222.378" y1="522.15" x2="222.378" y2="549.626" fill="none" stroke="#fff" stroke-linecap="round" stroke-linejoin="round" stroke-width="3"/><line x1="222.378" y1="522.15" x2="222.378" y2="549.626" fill="none" stroke="#231f20" stroke-linecap="round" stroke-linejoin="round"/><line x1="162.605" y1="522.15" x2="162.605" y2="549.626" fill="#fff"/><line x1="162.605" y1="522.15" x2="162.605" y2="549.626" fill="none" stroke="#fff" stroke-linecap="round" stroke-linejoin="round" stroke-width="3"/><line x1="162.605" y1="522.15" x2="162.605" y2="549.626" fill="none" stroke="#231f20" stroke-linecap="round" stroke-linejoin="round"/><line x1="103.451" y1="522.15" x2="103.451" y2="549.626" fill="#fff"/><line x1="103.451" y1="522.15" x2="103.451" y2="549.626" fill="none" stroke="#fff" stroke-linecap="round" stroke-linejoin="round" stroke-width="3"/><line x1="103.451" y1="522.15" x2="103.451" y2="549.626" fill="none" stroke="#231f20" stroke-linecap="round" stroke-linejoin="round"/><path d="M233.35,562.759c0,6.074-4.996,10.996-11.16,10.996s-11.162-4.922-11.162-10.996,4.996-11.004,11.162-11.004c6.163,0,11.16,4.927,11.16,11.004" fill="#221f1f" stroke="#fff" stroke-miterlimit="10" stroke-width="1.5"/><rect x="210.989" y="556.364" width="21.783" height="19.833" fill="none"/><path d="M223.467,568.393h-1.477v-9.41c-.355.34-.821.679-1.398,1.018-.577.34-1.095.594-1.555.764v-1.428c.826-.389,1.548-.858,2.166-1.411.618-.552,1.055-1.088,1.312-1.608h.951v12.076Z" fill="#fff"/><path d="M173.786,562.759c0,6.074-4.996,10.996-11.16,10.996-6.166,0-11.162-4.922-11.162-10.996s4.996-11.004,11.162-11.004c6.163,0,11.16,4.927,11.16,11.004" fill="#221f1f" stroke="#fff" stroke-miterlimit="10" stroke-width="1.5"/><rect x="152.006" y="556.364" width="21.201" height="19.833" fill="none"/><path d="M166.393,566.973v1.42h-7.949c-.011-.355.046-.697.172-1.025.203-.542.526-1.075.972-1.6.446-.525,1.09-1.133,1.932-1.822,1.307-1.071,2.19-1.92,2.649-2.547.459-.625.689-1.218.689-1.775,0-.586-.209-1.078-.627-1.48s-.964-.604-1.637-.604c-.711,0-1.279.213-1.706.641-.427.426-.643,1.017-.648,1.771l-1.518-.156c.104-1.132.495-1.994,1.173-2.588s1.589-.891,2.732-.891c1.154,0,2.067.32,2.74.961.672.639,1.009,1.432,1.009,2.379,0,.48-.098.954-.295,1.418-.197.465-.523.955-.98,1.469s-1.215,1.22-2.276,2.117c-.886.743-1.455,1.248-1.707,1.514-.251.265-.459.531-.623.799h5.898Z" fill="#fff"/><path d="M114.55,562.759c0,6.074-4.996,10.996-11.16,10.996-6.166,0-11.162-4.922-11.162-10.996s4.996-11.004,11.162-11.004c6.163,0,11.16,4.927,11.16,11.004" fill="#221f1f" stroke="#fff" stroke-miterlimit="10" stroke-width="1.5"/><rect x="92.513" y="556.364" width="21.458" height="19.833" fill="none"/><path d="M99.277,565.217l1.477-.196c.169.837.458,1.44.865,1.81s.904.553,1.489.553c.695,0,1.281-.24,1.76-.722s.718-1.077.718-1.788c0-.678-.222-1.237-.665-1.678-.443-.439-1.006-.66-1.69-.66-.279,0-.626.055-1.042.164l.164-1.297c.098.012.178.018.238.018.629,0,1.195-.164,1.698-.492.503-.328.754-.834.754-1.518,0-.542-.183-.99-.549-1.346-.367-.355-.84-.533-1.419-.533-.574,0-1.053.18-1.436.541s-.629.902-.738,1.625l-1.477-.264c.181-.989.591-1.756,1.23-2.301.64-.543,1.436-.816,2.387-.816.656,0,1.26.142,1.813.424.552.281.975.665,1.267,1.152.292.486.439,1.003.439,1.55,0,.52-.139.993-.418,1.419-.279.427-.692.766-1.238,1.018.71.164,1.263.504,1.657,1.021.394.517.591,1.163.591,1.939,0,1.051-.383,1.94-1.148,2.67-.766.73-1.734,1.096-2.904,1.096-1.056,0-1.932-.314-2.629-.943s-1.095-1.443-1.193-2.445Z" fill="#fff"/></g></svg>